<svg version="1.1" xmlns="http://www.w3.org/2000/svg" xmlns:xlink="http://www.w3.org/1999/xlink" width="1524" height="978"><defs><clipPath id="ozXVqxWqdqvg"><path fill="none" stroke="none" d=" M 0 0 L 1524 0 L 1524 978 L 0 978 L 0 0 Z"/></clipPath></defs><g transform="scale(1,1)" clip-path="url(#ozXVqxWqdqvg)"><g><rect fill="rgb(255,255,255)" stroke="none" x="0" y="0" width="1524" height="978" fill-opacity="1"/><path fill="none" stroke="rgb(0,153,255)" paint-order="fill stroke markers" d=" M 761.0974384028366 362.74791488296984 C 761.0974384028366 454.0796456605529 687.0584418417336 528.1186422216568 595.7267110641519 528.1186422216568 C 504.3949802865701 528.1186422216568 430.35598372546724 454.0796456605529 430.35598372546724 362.74791488296984 C 430.35598372546724 271.4161841053867 504.3949802865701 197.37718754428283 595.7267110641519 197.37718754428283 C 687.0584418417336 197.37718754428283 761.0974384028366 271.4161841053867 761.0974384028366 362.74791488296984 Z" stroke-opacity="0.8" stroke-linecap="round" stroke-linejoin="round" stroke-miterlimit="10" stroke-width="2.5"/><path fill="none" stroke="rgb(0,153,255)" paint-order="fill stroke markers" d=" M 595.7267110641519 362.74791488296984 C 595.7267110641519 454.07964566055296 521.687714503049 528.1186422216568 430.35598372546724 528.1186422216568 C 339.02425294788543 528.1186422216568 264.98525638678257 454.07964566055296 264.98525638678257 362.74791488296984 C 264.98525638678257 271.4161841053867 339.02425294788543 197.3771875442828 430.35598372546724 197.3771875442828 C 521.687714503049 197.3771875442828 595.7267110641519 271.4161841053867 595.7267110641519 362.74791488296984 Z" stroke-opacity="0.8" stroke-linecap="round" stroke-linejoin="round" stroke-miterlimit="10" stroke-width="2.5"/><path fill="none" stroke="rgb(0,153,255)" paint-order="fill stroke markers" d=" M 678.4120747334943 505.9631658005826 C 678.4120747334943 597.2948965781657 604.3730781723914 671.3338931392695 513.0413473948096 671.3338931392695 C 421.70961661722777 671.3338931392695 347.6706200561249 597.2948965781657 347.6706200561249 505.9631658005826 C 347.6706200561249 414.6314350229995 421.70961661722777 340.59243846189554 513.0413473948096 340.59243846189554 C 604.3730781723914 340.59243846189554 678.4120747334943 414.6314350229995 678.4120747334943 505.9631658005826 Z" stroke-opacity="0.8" stroke-linecap="round" stroke-linejoin="round" stroke-miterlimit="10" stroke-width="2.5"/><path fill="none" stroke="rgb(0,153,255)" paint-order="fill stroke markers" d=" M 513.0413473948096 505.9631658005826 C 513.0413473948096 597.2948965781657 439.0023508337067 671.3338931392695 347.6706200561249 671.3338931392695 C 256.3388892785431 671.3338931392695 182.29989271744026 597.2948965781657 182.29989271744026 505.9631658005826 C 182.29989271744026 414.63143502299954 256.3388892785431 340.5924384618956 347.6706200561249 340.5924384618956 C 439.0023508337067 340.5924384618956 513.0413473948096 414.63143502299954 513.0413473948096 505.9631658005826 Z" stroke-opacity="0.8" stroke-linecap="round" stroke-linejoin="round" stroke-miterlimit="10" stroke-width="2.5"/><path fill="none" stroke="rgb(0,153,255)" paint-order="fill stroke markers" d=" M 595.7267110641519 649.1784167181953 C 595.7267110641519 740.5101474957784 521.6877145030489 814.5491440568824 430.3559837254672 814.5491440568824 C 339.0242529478854 814.5491440568824 264.9852563867825 740.5101474957784 264.9852563867825 649.1784167181953 C 264.9852563867825 557.8466859406121 339.0242529478854 483.80768937950825 430.3559837254672 483.80768937950825 C 521.6877145030489 483.80768937950825 595.7267110641519 557.8466859406121 595.7267110641519 649.1784167181953 Z" stroke-opacity="0.8" stroke-linecap="round" stroke-linejoin="round" stroke-miterlimit="10" stroke-width="2.5"/><path fill="none" stroke="rgb(0,153,255)" paint-order="fill stroke markers" d=" M 761.0974384028366 649.1784167181953 C 761.0974384028366 740.5101474957784 687.0584418417336 814.5491440568824 595.7267110641519 814.5491440568824 C 504.3949802865701 814.5491440568824 430.35598372546724 740.5101474957784 430.35598372546724 649.1784167181953 C 430.35598372546724 557.8466859406122 504.3949802865701 483.8076893795083 595.7267110641519 483.8076893795083 C 687.0584418417336 483.8076893795083 761.0974384028366 557.8466859406122 761.0974384028366 649.1784167181953 Z" stroke-opacity="0.8" stroke-linecap="round" stroke-linejoin="round" stroke-miterlimit="10" stroke-width="2.5"/><path fill="none" stroke="rgb(0,153,255)" paint-order="fill stroke markers" d=" M 430.35598372546735 649.1784167181954 C 430.35598372546735 740.5101474957785 356.3169871643645 814.5491440568824 264.9852563867827 814.5491440568824 C 173.65352560920087 814.5491440568824 99.614529048098 740.5101474957785 99.614529048098 649.1784167181954 C 99.614529048098 557.8466859406122 173.65352560920087 483.80768937950836 264.9852563867827 483.80768937950836 C 356.3169871643645 483.80768937950836 430.35598372546735 557.8466859406122 430.35598372546735 649.1784167181954 Z" stroke-opacity="0.8" stroke-linecap="round" stroke-linejoin="round" stroke-miterlimit="10" stroke-width="2.5"/><path fill="none" stroke="rgb(0,153,255)" paint-order="fill stroke markers" d=" M 513.0413473948095 505.9631658005826 C 513.0413473948095 597.2948965781657 439.00235083370666 671.3338931392695 347.67062005612485 671.3338931392695 C 256.33888927854304 671.3338931392695 182.29989271744017 597.2948965781657 182.29989271744017 505.9631658005826 C 182.29989271744017 414.6314350229995 256.33888927854304 340.59243846189554 347.67062005612485 340.59243846189554 C 439.00235083370666 340.59243846189554 513.0413473948095 414.6314350229995 513.0413473948095 505.9631658005826 Z" stroke-opacity="0.8" stroke-linecap="round" stroke-linejoin="round" stroke-miterlimit="10" stroke-width="2.5"/><path fill="none" stroke="rgb(0,153,255)" paint-order="fill stroke markers" d=" M 430.35598372546735 362.7479148829696 C 430.35598372546735 454.0796456605527 356.3169871643645 528.1186422216566 264.9852563867827 528.1186422216566 C 173.65352560920087 528.1186422216566 99.614529048098 454.0796456605527 99.614529048098 362.7479148829696 C 99.614529048098 271.4161841053865 173.65352560920087 197.37718754428258 264.9852563867827 197.37718754428258 C 356.3169871643645 197.37718754428258 430.35598372546735 271.4161841053865 430.35598372546735 362.7479148829696 Z" stroke-opacity="0.8" stroke-linecap="round" stroke-linejoin="round" stroke-miterlimit="10" stroke-width="2.5"/><path fill="none" stroke="rgb(0,153,255)" paint-order="fill stroke markers" d=" M 99.61452904809762 649.1784167181952 C 169.11598028406513 689.3050982983514 257.3953519746607 673.7390632293083 308.9812194497829 612.2614203387418 C 360.5670869249051 550.7837774481754 360.5670869249052 461.1425541529904 308.9812194497831 399.66491126242386 C 257.3953519746611 338.1872683718574 169.11598028406556 322.62123330281395 99.61452904809796 362.74791488297" stroke-opacity="0.8" stroke-linecap="round" stroke-linejoin="round" stroke-miterlimit="10" stroke-width="2.5"/><path fill="none" stroke="rgb(0,153,255)" paint-order="fill stroke markers" d=" M 99.6145290480978 362.7479148829699 C 154.23408057716875 394.2825276612959 222.03487232462894 392.00392553799827 274.41398716463686 356.8733755722909 C 326.7931020046448 321.74282560658355 354.62943837384756 259.87782931013595 346.1797643462672 197.37718754428278" stroke-opacity="0.8" stroke-linecap="round" stroke-linejoin="round" stroke-miterlimit="10" stroke-width="2.5"/><path fill="none" stroke="rgb(0,153,255)" paint-order="fill stroke markers" d=" M 183.7907484272979 197.37718754428275 C 175.16185167125008 261.20350595892563 204.37519951054674 324.23298245955016 258.6553131593023 358.90178751354665 C 312.9354268080579 393.57059256754314 382.40581330419315 393.57059256754303 436.6859269529487 358.90178751354654 C 490.96604060170426 324.23298245954993 520.1793884410008 261.20350595892535 511.5504916849529 197.37718754428246" stroke-opacity="0.8" stroke-linecap="round" stroke-linejoin="round" stroke-miterlimit="10" stroke-width="2.5"/><path fill="none" stroke="rgb(0,153,255)" paint-order="fill stroke markers" d=" M 99.61452904809772 528.118642221657 C 190.94625982567948 528.1186422216571 264.9852563867824 454.07964566055324 264.98525638678245 362.7479148829702 C 264.98525638678257 271.4161841053871 190.94625982567987 197.37718754428315 99.61452904809809 197.37718754428303" stroke-opacity="0.8" stroke-linecap="round" stroke-linejoin="round" stroke-miterlimit="10" stroke-width="2.5"/><path fill="none" stroke="rgb(0,153,255)" paint-order="fill stroke markers" d=" M 99.6145290480977 483.80768937950813 C 190.94625982567945 483.807689379508 264.98525638678234 557.8466859406119 264.98525638678245 649.178416718195 C 264.9852563867825 740.510147495778 190.94625982567976 814.5491440568819 99.61452904809799 814.549144056882" stroke-opacity="0.8" stroke-linecap="round" stroke-linejoin="round" stroke-miterlimit="10" stroke-width="2.5"/><path fill="none" stroke="rgb(0,153,255)" paint-order="fill stroke markers" d=" M 99.61452904809776 649.1784167181951 C 154.23408057716873 617.6438039398691 222.03487232462894 619.9224060631667 274.41398716463686 655.0529560288742 C 326.79310200464477 690.1835059945815 354.6294383738475 752.0485022910291 346.1797643462671 814.5491440568823" stroke-opacity="0.8" stroke-linecap="round" stroke-linejoin="round" stroke-miterlimit="10" stroke-width="2.5"/><path fill="none" stroke="rgb(0,153,255)" paint-order="fill stroke markers" d=" M 183.79074842729784 814.5491440568824 C 175.16185167125002 750.7228256422394 204.3751995105467 687.6933491416149 258.6553131593023 653.0245440876184 C 312.9354268080579 618.355739033622 382.40581330419315 618.3557390336221 436.6859269529487 653.0245440876186 C 490.9660406017042 687.6933491416152 520.1793884410008 750.7228256422399 511.5504916849528 814.5491440568827" stroke-opacity="0.8" stroke-linecap="round" stroke-linejoin="round" stroke-miterlimit="10" stroke-width="2.5"/><path fill="none" stroke="rgb(0,153,255)" paint-order="fill stroke markers" d=" M 430.35598372546735 649.1784167181952 C 372.24941114156263 682.7262620411996 340.1723577038796 748.0583367243607 349.16147576598274 814.5491440568821" stroke-opacity="0.8" stroke-linecap="round" stroke-linejoin="round" stroke-miterlimit="10" stroke-width="2.5"/><path fill="none" stroke="rgb(0,153,255)" paint-order="fill stroke markers" d=" M 595.7267110641517 649.1784167181952 C 653.8332836480564 682.7262620411996 685.9103370857395 748.0583367243607 676.9212190236362 814.5491440568821" stroke-opacity="0.8" stroke-linecap="round" stroke-linejoin="round" stroke-miterlimit="10" stroke-width="2.5"/><path fill="none" stroke="rgb(0,153,255)" paint-order="fill stroke markers" d=" M 430.35598372546747 362.7479148829699 C 372.24941114156275 329.2000695599656 340.1723577038797 263.86799487680435 349.16147576598286 197.377187544283" stroke-opacity="0.8" stroke-linecap="round" stroke-linejoin="round" stroke-miterlimit="10" stroke-width="2.5"/><path fill="none" stroke="rgb(0,153,255)" paint-order="fill stroke markers" d=" M 595.7267110641518 362.7479148829699 C 653.8332836480565 329.20006955996564 685.9103370857396 263.8679948768044 676.9212190236365 197.37718754428306" stroke-opacity="0.8" stroke-linecap="round" stroke-linejoin="round" stroke-miterlimit="10" stroke-width="2.5"/><path fill="none" stroke="rgb(0,153,255)" paint-order="fill stroke markers" d=" M 430.3559837254672 362.74791488296984 C 379.1901026225413 392.28855011106896 347.6706200561249 446.88189534438453 347.6706200561249 505.96316580058266 C 347.6706200561249 565.0444362567807 379.1901026225414 619.6377814900964 430.3559837254673 649.1784167181954" stroke-opacity="0.8" stroke-linecap="round" stroke-linejoin="round" stroke-miterlimit="10" stroke-width="2.5"/><path fill="none" stroke="rgb(0,153,255)" paint-order="fill stroke markers" d=" M 595.7267110641519 362.74791488296984 C 646.8925921670779 392.28855011106896 678.4120747334943 446.8818953443846 678.4120747334943 505.96316580058266 C 678.4120747334943 565.0444362567807 646.8925921670777 619.6377814900964 595.7267110641518 649.1784167181954" stroke-opacity="0.8" stroke-linecap="round" stroke-linejoin="round" stroke-miterlimit="10" stroke-width="2.5"/><path fill="none" stroke="rgb(255,153,0)" paint-order="fill stroke markers" d=" M 637.069392898823 577.5707912593889 C 637.069392898823 623.2366566481804 600.0498946182715 660.2561549287325 554.3840292294807 660.2561549287325 C 508.7181638406898 660.2561549287325 471.69866556013835 623.2366566481804 471.69866556013835 577.5707912593889 C 471.69866556013835 531.9049258705974 508.7181638406898 494.88542759004537 554.3840292294807 494.88542759004537 C 600.0498946182715 494.88542759004537 637.069392898823 531.9049258705974 637.069392898823 577.5707912593889 Z" stroke-opacity="0.8" stroke-linecap="round" stroke-linejoin="round" stroke-miterlimit="10" stroke-width="2.5"/><path fill="none" stroke="rgb(255,153,0)" paint-order="fill stroke markers" d=" M 637.069392898823 291.1402894241635 C 637.069392898823 336.806154812955 600.0498946182715 373.825653093507 554.3840292294807 373.825653093507 C 508.7181638406898 373.825653093507 471.69866556013835 336.806154812955 471.69866556013835 291.1402894241635 C 471.69866556013835 245.47442403537192 508.7181638406898 208.45492575481995 554.3840292294807 208.45492575481995 C 600.0498946182715 208.45492575481995 637.069392898823 245.47442403537192 637.069392898823 291.1402894241635 Z" stroke-opacity="0.8" stroke-linecap="round" stroke-linejoin="round" stroke-miterlimit="10" stroke-width="2.5"/><path fill="none" stroke="rgb(255,153,0)" paint-order="fill stroke markers" d=" M 513.0413473948096 505.9631658005825 C 513.0413473948096 551.629031189374 476.02184911425815 588.648529469926 430.35598372546724 588.648529469926 C 384.69011833667633 588.648529469926 347.6706200561249 551.629031189374 347.6706200561249 505.9631658005825 C 347.6706200561249 460.29730041179096 384.69011833667633 423.27780213123896 430.35598372546724 423.27780213123896 C 476.02184911425815 423.27780213123896 513.0413473948096 460.29730041179096 513.0413473948096 505.9631658005825 Z" stroke-opacity="0.8" stroke-linecap="round" stroke-linejoin="round" stroke-miterlimit="10" stroke-width="2.5"/><path fill="none" stroke="rgb(255,153,0)" paint-order="fill stroke markers" d=" M 389.01330189079613 434.35554034177613 C 389.01330189079613 480.0214057305677 351.9938036102447 517.0409040111197 306.3279382214538 517.0409040111197 C 260.6620728326629 517.0409040111197 223.64257455211145 480.0214057305677 223.64257455211145 434.35554034177613 C 223.64257455211145 388.68967495298455 260.6620728326629 351.6701766724326 306.3279382214538 351.6701766724326 C 351.9938036102447 351.6701766724326 389.01330189079613 388.68967495298455 389.01330189079613 434.35554034177613 Z" stroke-opacity="0.8" stroke-linecap="round" stroke-linejoin="round" stroke-miterlimit="10" stroke-width="2.5"/><path fill="none" stroke="rgb(255,153,0)" paint-order="fill stroke markers" d=" M 389.01330189079613 291.14028942416354 C 389.01330189079613 336.8061548129551 351.9938036102447 373.82565309350707 306.3279382214538 373.82565309350707 C 260.6620728326629 373.82565309350707 223.64257455211145 336.8061548129551 223.64257455211145 291.14028942416354 C 223.64257455211145 245.47442403537198 260.6620728326629 208.45492575482 306.3279382214538 208.45492575482 C 351.9938036102447 208.45492575482 389.01330189079613 245.47442403537198 389.01330189079613 291.14028942416354 Z" stroke-opacity="0.8" stroke-linecap="round" stroke-linejoin="round" stroke-miterlimit="10" stroke-width="2.5"/><path fill="none" stroke="rgb(255,153,0)" paint-order="fill stroke markers" d=" M 389.01330189079613 577.5707912593889 C 389.01330189079613 623.2366566481804 351.99380361024464 660.2561549287325 306.32793822145373 660.2561549287325 C 260.66207283266283 660.2561549287325 223.6425745521114 623.2366566481804 223.6425745521114 577.5707912593889 C 223.6425745521114 531.9049258705974 260.66207283266283 494.88542759004537 306.32793822145373 494.88542759004537 C 351.99380361024464 494.88542759004537 389.01330189079613 531.9049258705974 389.01330189079613 577.5707912593889 Z" stroke-opacity="0.8" stroke-linecap="round" stroke-linejoin="round" stroke-miterlimit="10" stroke-width="2.5"/><path fill="none" stroke="rgb(255,153,0)" paint-order="fill stroke markers" d=" M 389.01330189079613 720.7860421770017 C 389.01330189079613 766.4519075657932 351.99380361024464 803.4714058463452 306.32793822145373 803.4714058463452 C 260.66207283266283 803.4714058463452 223.6425745521114 766.4519075657932 223.6425745521114 720.7860421770017 C 223.6425745521114 675.1201767882101 260.66207283266283 638.1006785076581 306.32793822145373 638.1006785076581 C 351.99380361024464 638.1006785076581 389.01330189079613 675.1201767882101 389.01330189079613 720.7860421770017 Z" stroke-opacity="0.8" stroke-linecap="round" stroke-linejoin="round" stroke-miterlimit="10" stroke-width="2.5"/><path fill="none" stroke="rgb(255,153,0)" paint-order="fill stroke markers" d=" M 264.9852563867828 649.1784167181954 C 264.9852563867828 694.844282106987 227.9657581062313 731.8637803875389 182.29989271744043 731.8637803875389 C 136.63402732864952 731.8637803875389 99.61452904809808 694.844282106987 99.61452904809808 649.1784167181954 C 99.61452904809808 603.5125513294038 136.63402732864952 566.4930530488518 182.29989271744043 566.4930530488518 C 227.9657581062313 566.4930530488518 264.9852563867828 603.5125513294038 264.9852563867828 649.1784167181954 Z" stroke-opacity="0.8" stroke-linecap="round" stroke-linejoin="round" stroke-miterlimit="10" stroke-width="2.5"/><path fill="none" stroke="rgb(255,153,0)" paint-order="fill stroke markers" d=" M 471.69866556013847 434.35554034177625 C 471.69866556013847 480.02140573056784 434.67916727958703 517.0409040111198 389.01330189079613 517.0409040111198 C 343.3474365020052 517.0409040111198 306.3279382214538 480.02140573056784 306.3279382214538 434.35554034177625 C 306.3279382214538 388.68967495298466 343.3474365020052 351.6701766724327 389.01330189079613 351.6701766724327 C 434.67916727958703 351.6701766724327 471.69866556013847 388.68967495298466 471.69866556013847 434.35554034177625 Z" stroke-opacity="0.8" stroke-linecap="round" stroke-linejoin="round" stroke-miterlimit="10" stroke-width="2.5"/><path fill="none" stroke="rgb(255,153,0)" paint-order="fill stroke markers" d=" M 637.069392898823 434.3555403417762 C 637.069392898823 480.0214057305677 600.0498946182715 517.0409040111197 554.3840292294807 517.0409040111197 C 508.7181638406898 517.0409040111197 471.69866556013835 480.0214057305677 471.69866556013835 434.3555403417762 C 471.69866556013835 388.68967495298466 508.7181638406898 351.67017667243266 554.3840292294807 351.67017667243266 C 600.0498946182715 351.67017667243266 637.069392898823 388.68967495298466 637.069392898823 434.3555403417762 Z" stroke-opacity="0.8" stroke-linecap="round" stroke-linejoin="round" stroke-miterlimit="10" stroke-width="2.5"/><path fill="none" stroke="rgb(255,153,0)" paint-order="fill stroke markers" d=" M 554.3840292294808 434.3555403417762 C 554.3840292294808 480.0214057305677 517.3645309489293 517.0409040111197 471.6986655601384 517.0409040111197 C 426.0328001713475 517.0409040111197 389.0133018907961 480.0214057305677 389.0133018907961 434.3555403417762 C 389.0133018907961 388.68967495298466 426.0328001713475 351.67017667243266 471.6986655601384 351.67017667243266 C 517.3645309489293 351.67017667243266 554.3840292294808 388.68967495298466 554.3840292294808 434.3555403417762 Z" stroke-opacity="0.8" stroke-linecap="round" stroke-linejoin="round" stroke-miterlimit="10" stroke-width="2.5"/><path fill="none" stroke="rgb(255,153,0)" paint-order="fill stroke markers" d=" M 471.69866556013847 577.5707912593889 C 471.69866556013847 623.2366566481804 434.67916727958703 660.2561549287325 389.01330189079613 660.2561549287325 C 343.3474365020052 660.2561549287325 306.3279382214538 623.2366566481804 306.3279382214538 577.5707912593889 C 306.3279382214538 531.9049258705974 343.3474365020052 494.88542759004537 389.01330189079613 494.88542759004537 C 434.67916727958703 494.88542759004537 471.69866556013847 531.9049258705974 471.69866556013847 577.5707912593889 Z" stroke-opacity="0.8" stroke-linecap="round" stroke-linejoin="round" stroke-miterlimit="10" stroke-width="2.5"/><path fill="none" stroke="rgb(255,153,0)" paint-order="fill stroke markers" d=" M 554.3840292294808 577.5707912593889 C 554.3840292294808 623.2366566481804 517.3645309489293 660.2561549287325 471.6986655601384 660.2561549287325 C 426.0328001713475 660.2561549287325 389.0133018907961 623.2366566481804 389.0133018907961 577.5707912593889 C 389.0133018907961 531.9049258705974 426.0328001713475 494.88542759004537 471.6986655601384 494.88542759004537 C 517.3645309489293 494.88542759004537 554.3840292294808 531.9049258705974 554.3840292294808 577.5707912593889 Z" stroke-opacity="0.8" stroke-linecap="round" stroke-linejoin="round" stroke-miterlimit="10" stroke-width="2.5"/><path fill="none" stroke="rgb(255,153,0)" paint-order="fill stroke markers" d=" M 678.4120747334943 505.9631658005826 C 678.4120747334943 551.6290311893741 641.3925764529429 588.6485294699262 595.7267110641519 588.6485294699262 C 550.0608456753611 588.6485294699262 513.0413473948096 551.6290311893741 513.0413473948096 505.9631658005826 C 513.0413473948096 460.29730041179107 550.0608456753611 423.27780213123907 595.7267110641519 423.27780213123907 C 641.3925764529429 423.27780213123907 678.4120747334943 460.29730041179107 678.4120747334943 505.9631658005826 Z" stroke-opacity="0.8" stroke-linecap="round" stroke-linejoin="round" stroke-miterlimit="10" stroke-width="2.5"/><path fill="none" stroke="rgb(255,153,0)" paint-order="fill stroke markers" d=" M 347.670620056125 505.96316580058254 C 347.670620056125 551.6290311893741 310.6511217755736 588.6485294699261 264.9852563867827 588.6485294699261 C 219.31939099799177 588.6485294699261 182.29989271744034 551.6290311893741 182.29989271744034 505.96316580058254 C 182.29989271744034 460.29730041179096 219.31939099799177 423.277802131239 264.9852563867827 423.277802131239 C 310.6511217755736 423.277802131239 347.670620056125 460.29730041179096 347.670620056125 505.96316580058254 Z" stroke-opacity="0.8" stroke-linecap="round" stroke-linejoin="round" stroke-miterlimit="10" stroke-width="2.5"/><path fill="none" stroke="rgb(255,153,0)" paint-order="fill stroke markers" d=" M 264.9852563867826 362.7479148829698 C 264.9852563867826 408.4137802717613 227.96575810623114 445.4332785523133 182.29989271744026 445.4332785523133 C 136.63402732864935 445.4332785523133 99.6145290480979 408.4137802717613 99.6145290480979 362.7479148829698 C 99.6145290480979 317.08204949417825 136.63402732864935 280.06255121362625 182.29989271744026 280.06255121362625 C 227.96575810623114 280.06255121362625 264.9852563867826 317.08204949417825 264.9852563867826 362.7479148829698 Z" stroke-opacity="0.8" stroke-linecap="round" stroke-linejoin="round" stroke-miterlimit="10" stroke-width="2.5"/><path fill="none" stroke="rgb(255,153,0)" paint-order="fill stroke markers" d=" M 471.69866556013847 291.1402894241634 C 471.69866556013847 336.806154812955 434.67916727958703 373.82565309350696 389.01330189079613 373.82565309350696 C 343.3474365020052 373.82565309350696 306.3279382214538 336.806154812955 306.3279382214538 291.1402894241634 C 306.3279382214538 245.47442403537187 343.3474365020052 208.4549257548199 389.01330189079613 208.4549257548199 C 434.67916727958703 208.4549257548199 471.69866556013847 245.47442403537187 471.69866556013847 291.1402894241634 Z" stroke-opacity="0.8" stroke-linecap="round" stroke-linejoin="round" stroke-miterlimit="10" stroke-width="2.5"/><path fill="none" stroke="rgb(255,153,0)" paint-order="fill stroke markers" d=" M 430.35598372546724 362.74791488296984 C 430.35598372546724 408.4137802717614 393.3364854449158 445.43327855231337 347.6706200561249 445.43327855231337 C 302.004754667334 445.43327855231337 264.98525638678257 408.4137802717614 264.98525638678257 362.74791488296984 C 264.98525638678257 317.08204949417825 302.004754667334 280.0625512136263 347.6706200561249 280.0625512136263 C 393.3364854449158 280.0625512136263 430.35598372546724 317.08204949417825 430.35598372546724 362.74791488296984 Z" stroke-opacity="0.8" stroke-linecap="round" stroke-linejoin="round" stroke-miterlimit="10" stroke-width="2.5"/><path fill="none" stroke="rgb(255,153,0)" paint-order="fill stroke markers" d=" M 554.3840292294808 291.1402894241635 C 554.3840292294808 336.806154812955 517.3645309489293 373.825653093507 471.6986655601384 373.825653093507 C 426.0328001713475 373.825653093507 389.0133018907961 336.806154812955 389.0133018907961 291.1402894241635 C 389.0133018907961 245.47442403537192 426.0328001713475 208.45492575481995 471.6986655601384 208.45492575481995 C 517.3645309489293 208.45492575481995 554.3840292294808 245.47442403537192 554.3840292294808 291.1402894241635 Z" stroke-opacity="0.8" stroke-linecap="round" stroke-linejoin="round" stroke-miterlimit="10" stroke-width="2.5"/><path fill="none" stroke="rgb(255,153,0)" paint-order="fill stroke markers" d=" M 554.3840292294807 720.7860421770017 C 554.3840292294807 766.4519075657932 517.3645309489293 803.4714058463452 471.69866556013835 803.4714058463452 C 426.03280017134745 803.4714058463452 389.013301890796 766.4519075657932 389.013301890796 720.7860421770017 C 389.013301890796 675.1201767882101 426.03280017134745 638.1006785076581 471.69866556013835 638.1006785076581 C 517.3645309489293 638.1006785076581 554.3840292294807 675.1201767882101 554.3840292294807 720.7860421770017 Z" stroke-opacity="0.8" stroke-linecap="round" stroke-linejoin="round" stroke-miterlimit="10" stroke-width="2.5"/><path fill="none" stroke="rgb(255,153,0)" paint-order="fill stroke markers" d=" M 471.69866556013847 720.7860421770017 C 471.69866556013847 766.4519075657932 434.679167279587 803.4714058463452 389.0133018907961 803.4714058463452 C 343.34743650200517 803.4714058463452 306.32793822145373 766.4519075657932 306.32793822145373 720.7860421770017 C 306.32793822145373 675.1201767882101 343.34743650200517 638.1006785076581 389.0133018907961 638.1006785076581 C 434.679167279587 638.1006785076581 471.69866556013847 675.1201767882101 471.69866556013847 720.7860421770017 Z" stroke-opacity="0.8" stroke-linecap="round" stroke-linejoin="round" stroke-miterlimit="10" stroke-width="2.5"/><path fill="none" stroke="rgb(255,153,0)" paint-order="fill stroke markers" d=" M 306.3279382214538 720.7860421770017 C 306.3279382214538 766.4519075657932 269.3084399409023 803.4714058463452 223.6425745521114 803.4714058463452 C 177.9767091633205 803.4714058463452 140.95721088276906 766.4519075657932 140.95721088276906 720.7860421770017 C 140.95721088276906 675.1201767882101 177.9767091633205 638.1006785076581 223.6425745521114 638.1006785076581 C 269.3084399409023 638.1006785076581 306.3279382214538 675.1201767882101 306.3279382214538 720.7860421770017 Z" stroke-opacity="0.8" stroke-linecap="round" stroke-linejoin="round" stroke-miterlimit="10" stroke-width="2.5"/><path fill="none" stroke="rgb(255,153,0)" paint-order="fill stroke markers" d=" M 306.3279382214538 577.5707912593888 C 306.3279382214538 623.2366566481803 269.3084399409023 660.2561549287323 223.6425745521114 660.2561549287323 C 177.9767091633205 660.2561549287323 140.95721088276906 623.2366566481803 140.95721088276906 577.5707912593888 C 140.95721088276906 531.9049258705973 177.9767091633205 494.88542759004525 223.6425745521114 494.88542759004525 C 269.3084399409023 494.88542759004525 306.3279382214538 531.9049258705973 306.3279382214538 577.5707912593888 Z" stroke-opacity="0.8" stroke-linecap="round" stroke-linejoin="round" stroke-miterlimit="10" stroke-width="2.5"/><path fill="none" stroke="rgb(255,153,0)" paint-order="fill stroke markers" d=" M 306.3279382214538 434.3555403417763 C 306.3279382214538 480.02140573056784 269.30843994090236 517.0409040111199 223.64257455211145 517.0409040111199 C 177.97670916332055 517.0409040111199 140.95721088276912 480.02140573056784 140.95721088276912 434.3555403417763 C 140.95721088276912 388.6896749529848 177.97670916332055 351.6701766724328 223.64257455211145 351.6701766724328 C 269.30843994090236 351.6701766724328 306.3279382214538 388.6896749529848 306.3279382214538 434.3555403417763 Z" stroke-opacity="0.8" stroke-linecap="round" stroke-linejoin="round" stroke-miterlimit="10" stroke-width="2.5"/><path fill="none" stroke="rgb(255,153,0)" paint-order="fill stroke markers" d=" M 306.3279382214538 291.1402894241635 C 306.3279382214538 336.806154812955 269.3084399409023 373.825653093507 223.6425745521114 373.825653093507 C 177.9767091633205 373.825653093507 140.95721088276906 336.806154812955 140.95721088276906 291.1402894241635 C 140.95721088276906 245.47442403537192 177.9767091633205 208.45492575481995 223.6425745521114 208.45492575481995 C 269.3084399409023 208.45492575481995 306.3279382214538 245.47442403537192 306.3279382214538 291.1402894241635 Z" stroke-opacity="0.8" stroke-linecap="round" stroke-linejoin="round" stroke-miterlimit="10" stroke-width="2.5"/><path fill="none" stroke="rgb(255,153,0)" paint-order="fill stroke markers" d=" M 637.069392898823 720.7860421770017 C 637.069392898823 766.4519075657932 600.0498946182715 803.4714058463452 554.3840292294807 803.4714058463452 C 508.7181638406898 803.4714058463452 471.69866556013835 766.4519075657932 471.69866556013835 720.7860421770017 C 471.69866556013835 675.1201767882101 508.7181638406898 638.1006785076581 554.3840292294807 638.1006785076581 C 600.0498946182715 638.1006785076581 637.069392898823 675.1201767882101 637.069392898823 720.7860421770017 Z" stroke-opacity="0.8" stroke-linecap="round" stroke-linejoin="round" stroke-miterlimit="10" stroke-width="2.5"/><path fill="none" stroke="rgb(0,153,255)" paint-order="fill stroke markers" d=" M 349.1614757659824 814.5491440568823 C 340.53257900993435 750.7228256422394 369.7459268492309 687.6933491416149 424.02604049798634 653.0245440876183 C 478.30615414674185 618.3557390336218 547.776540642877 618.3557390336218 602.0566542916324 653.0245440876183 C 656.336767940388 687.6933491416149 685.5501157796846 750.7228256422394 676.9212190236365 814.5491440568823" stroke-opacity="0.8" stroke-linecap="round" stroke-linejoin="round" stroke-miterlimit="10" stroke-width="2.5"/><path fill="none" stroke="rgb(255,153,0)" paint-order="fill stroke markers" d=" M 471.6986655601383 577.5707912593891 C 446.1157250086754 592.3411088734387 430.3559837254672 619.6377814900965 430.35598372546724 649.1784167181955 C 430.35598372546724 678.7190519462946 446.11572500867555 706.0157245629524 471.69866556013847 720.7860421770018" stroke-opacity="0.8" stroke-linecap="round" stroke-linejoin="round" stroke-miterlimit="10" stroke-width="2.5"/><path fill="none" stroke="rgb(255,153,0)" paint-order="fill stroke markers" d=" M 554.3840292294808 577.5707912593891 C 579.9669697809436 592.3411088734387 595.7267110641519 619.6377814900965 595.7267110641518 649.1784167181955 C 595.7267110641518 678.7190519462946 579.9669697809435 706.0157245629524 554.3840292294806 720.7860421770018" stroke-opacity="0.8" stroke-linecap="round" stroke-linejoin="round" stroke-miterlimit="10" stroke-width="2.5"/><path fill="none" stroke="rgb(255,153,0)" paint-order="fill stroke markers" d=" M 471.6986655601384 434.35554034177613 C 446.1157250086755 419.5852227277266 430.35598372546724 392.28855011106873 430.35598372546735 362.74791488296967 C 430.3559837254674 333.2072796548706 446.11572500867567 305.9106070382129 471.69866556013864 291.14028942416337" stroke-opacity="0.8" stroke-linecap="round" stroke-linejoin="round" stroke-miterlimit="10" stroke-width="2.5"/><path fill="none" stroke="rgb(255,153,0)" paint-order="fill stroke markers" d=" M 554.3840292294808 434.3555403417762 C 579.9669697809436 419.5852227277266 595.7267110641519 392.28855011106873 595.7267110641518 362.74791488296967 C 595.7267110641518 333.20727965487066 579.9669697809435 305.9106070382129 554.3840292294806 291.14028942416337" stroke-opacity="0.8" stroke-linecap="round" stroke-linejoin="round" stroke-miterlimit="10" stroke-width="2.5"/><path fill="none" stroke="rgb(255,153,0)" paint-order="fill stroke markers" d=" M 513.0413473948093 792.3936676358084 C 513.0413473948093 762.8530324077094 497.28160611160115 735.5563597910517 471.69866556013824 720.7860421770023" stroke-opacity="0.8" stroke-linecap="round" stroke-linejoin="round" stroke-miterlimit="10" stroke-width="2.5"/><path fill="none" stroke="rgb(255,153,0)" paint-order="fill stroke markers" d=" M 513.0413473948097 792.3936676358084 C 513.0413473948097 762.8530324077094 528.8010886780179 735.5563597910517 554.3840292294808 720.7860421770023" stroke-opacity="0.8" stroke-linecap="round" stroke-linejoin="round" stroke-miterlimit="10" stroke-width="2.5"/><path fill="none" stroke="rgb(255,153,0)" paint-order="fill stroke markers" d=" M 513.0413473948095 219.53266396535676 C 513.0413473948095 249.0732991934557 497.28160611160126 276.3699718101134 471.69866556013835 291.1402894241628" stroke-opacity="0.8" stroke-linecap="round" stroke-linejoin="round" stroke-miterlimit="10" stroke-width="2.5"/><path fill="none" stroke="rgb(255,153,0)" paint-order="fill stroke markers" d=" M 513.0413473948095 219.53266396535676 C 513.0413473948095 249.0732991934557 497.28160611160126 276.3699718101134 471.69866556013835 291.1402894241628" stroke-opacity="0.8" stroke-linecap="round" stroke-linejoin="round" stroke-miterlimit="10" stroke-width="2.5"/><path fill="none" stroke="rgb(255,153,0)" paint-order="fill stroke markers" d=" M 513.0413473948098 219.5326639653568 C 513.0413473948098 249.07329919345574 528.801088678018 276.36997181011344 554.3840292294809 291.14028942416286" stroke-opacity="0.8" stroke-linecap="round" stroke-linejoin="round" stroke-miterlimit="10" stroke-width="2.5"/><path fill="none" stroke="rgb(97,97,97)" paint-order="fill stroke markers" d=" M 535.2218557160766 505.9631658005826 C 535.2218557160766 518.2131222899135 525.2913038841403 528.1436741218499 513.0413473948096 528.1436741218499 C 500.7913909054788 528.1436741218499 490.8608390735426 518.2131222899135 490.8608390735426 505.9631658005826 C 490.8608390735426 493.71320931125166 500.7913909054788 483.78265747931533 513.0413473948096 483.78265747931533 C 525.2913038841403 483.78265747931533 535.2218557160766 493.71320931125166 535.2218557160766 505.9631658005826 Z" stroke-opacity="0.8" stroke-linecap="round" stroke-linejoin="round" stroke-miterlimit="10" stroke-width="2.5"/><path fill="none" stroke="rgb(97,97,97)" paint-order="fill stroke markers" d=" M 452.53649204673417 362.74791488296984 C 452.53649204673417 374.9978713723008 442.60594021479795 384.9284232042371 430.35598372546724 384.9284232042371 C 418.10602723613647 384.9284232042371 408.17547540420026 374.9978713723008 408.17547540420026 362.74791488296984 C 408.17547540420026 350.4979583936389 418.10602723613647 340.56740656170257 430.35598372546724 340.56740656170257 C 442.60594021479795 340.56740656170257 452.53649204673417 350.4979583936389 452.53649204673417 362.74791488296984 Z" stroke-opacity="0.8" stroke-linecap="round" stroke-linejoin="round" stroke-miterlimit="10" stroke-width="2.5"/><path fill="none" stroke="rgb(97,97,97)" paint-order="fill stroke markers" d=" M 369.85112837739183 505.9631658005826 C 369.85112837739183 518.2131222899135 359.9205765454556 528.1436741218499 347.6706200561249 528.1436741218499 C 335.42066356679413 528.1436741218499 325.4901117348579 518.2131222899135 325.4901117348579 505.9631658005826 C 325.4901117348579 493.71320931125166 335.42066356679413 483.78265747931533 347.6706200561249 483.78265747931533 C 359.9205765454556 483.78265747931533 369.85112837739183 493.71320931125166 369.85112837739183 505.9631658005826 Z" stroke-opacity="0.8" stroke-linecap="round" stroke-linejoin="round" stroke-miterlimit="10" stroke-width="2.5"/><path fill="none" stroke="rgb(97,97,97)" paint-order="fill stroke markers" d=" M 452.53649204673417 649.1784167181953 C 452.53649204673417 661.4283732075262 442.60594021479795 671.3589250394625 430.35598372546724 671.3589250394625 C 418.10602723613647 671.3589250394625 408.17547540420026 661.4283732075262 408.17547540420026 649.1784167181953 C 408.17547540420026 636.9284602288643 418.10602723613647 626.997908396928 430.35598372546724 626.997908396928 C 442.60594021479795 626.997908396928 452.53649204673417 636.9284602288643 452.53649204673417 649.1784167181953 Z" stroke-opacity="0.8" stroke-linecap="round" stroke-linejoin="round" stroke-miterlimit="10" stroke-width="2.5"/><path fill="none" stroke="rgb(97,97,97)" paint-order="fill stroke markers" d=" M 287.16576470804955 362.7479148829699 C 287.16576470804955 374.99787137230084 277.23521287611334 384.92842320423716 264.98525638678257 384.92842320423716 C 252.73529989745182 384.92842320423716 242.8047480655156 374.99787137230084 242.8047480655156 362.7479148829699 C 242.8047480655156 350.49795839363895 252.73529989745182 340.5674065617026 264.98525638678257 340.5674065617026 C 277.23521287611334 340.5674065617026 287.16576470804955 350.49795839363895 287.16576470804955 362.7479148829699 Z" stroke-opacity="0.8" stroke-linecap="round" stroke-linejoin="round" stroke-miterlimit="10" stroke-width="2.5"/><path fill="none" stroke="rgb(97,97,97)" paint-order="fill stroke markers" d=" M 287.16576470804955 649.1784167181954 C 287.16576470804955 661.4283732075263 277.23521287611334 671.3589250394626 264.98525638678257 671.3589250394626 C 252.73529989745182 671.3589250394626 242.8047480655156 661.4283732075263 242.8047480655156 649.1784167181954 C 242.8047480655156 636.9284602288644 252.73529989745182 626.9979083969281 264.98525638678257 626.9979083969281 C 277.23521287611334 626.9979083969281 287.16576470804955 636.9284602288644 287.16576470804955 649.1784167181954 Z" stroke-opacity="0.8" stroke-linecap="round" stroke-linejoin="round" stroke-miterlimit="10" stroke-width="2.5"/><path fill="none" stroke="rgb(0,0,0)" paint-order="fill stroke markers" d=" M 99.614529048098 197.37718754428272 L 926.4681657415215 197.37718754428286" stroke-opacity="0.8" stroke-linecap="round" stroke-linejoin="round" stroke-miterlimit="10" stroke-width="2.5"/><path fill="none" stroke="rgb(0,0,0)" paint-order="fill stroke markers" d=" M 99.614529048098 197.37718754428272 L 99.61452904809755 814.5491440568821" stroke-opacity="0.8" stroke-linecap="round" stroke-linejoin="round" stroke-miterlimit="10" stroke-width="2.5"/><path fill="none" stroke="rgb(0,0,0)" paint-order="fill stroke markers" d=" M 926.4681657415213 814.5491440568821 L 99.61452904809755 814.5491440568821" stroke-opacity="0.8" stroke-linecap="round" stroke-linejoin="round" stroke-miterlimit="10" stroke-width="2.5"/><path fill="none" stroke="rgb(0,0,0)" paint-order="fill stroke markers" d=" M 926.4681657415213 814.5491440568821 L 926.4681657415215 197.37718754428286" stroke-opacity="0.8" stroke-linecap="round" stroke-linejoin="round" stroke-miterlimit="10" stroke-width="2.5"/></g></g></svg>