<svg version="1.1" xmlns="http://www.w3.org/2000/svg" xmlns:xlink="http://www.w3.org/1999/xlink" width="1524" height="978"><defs><clipPath id="iFvBIquyscol"><path fill="none" stroke="none" d=" M 0 0 L 1524 0 L 1524 978 L 0 978 L 0 0 Z"/></clipPath></defs><g transform="scale(1,1)" clip-path="url(#iFvBIquyscol)"><g><rect fill="rgb(255,255,255)" stroke="none" x="0" y="0" width="1524" height="978" fill-opacity="1"/><path fill="none" stroke="rgb(0,153,255)" paint-order="fill stroke markers" d=" M 654.2819663208654 432.41280387359524 C 654.2819663208654 491.8491560686571 606.0992828404505 540.031839549072 546.6629306453885 540.031839549072 C 487.2265784503266 540.031839549072 439.04389496991166 491.8491560686571 439.04389496991166 432.41280387359524 C 439.04389496991166 372.97645167853335 487.2265784503266 324.79376819811847 546.6629306453885 324.79376819811847 C 606.0992828404505 324.79376819811847 654.2819663208654 372.97645167853335 654.2819663208654 432.41280387359524 Z" stroke-opacity="0.8" stroke-linecap="round" stroke-linejoin="round" stroke-miterlimit="10" stroke-width="2.5"/><path fill="none" stroke="rgb(0,153,255)" paint-order="fill stroke markers" d=" M 546.6629510865681 432.4791342561764 C 546.6629510865681 491.9154864512383 498.4802676061531 540.0981699316532 439.0439154110912 540.0981699316532 C 379.6075632160292 540.0981699316532 331.42487973561424 491.9154864512383 331.42487973561424 432.4791342561764 C 331.42487973561424 373.0427820611145 379.6075632160292 324.8600985806996 439.0439154110912 324.8600985806996 C 498.4802676061531 324.8600985806996 546.6629510865681 373.0427820611145 546.6629510865681 432.4791342561764 Z" stroke-opacity="0.8" stroke-linecap="round" stroke-linejoin="round" stroke-miterlimit="10" stroke-width="2.5"/><path fill="none" stroke="rgb(0,153,255)" paint-order="fill stroke markers" d=" M 600.5299025000747 525.6467701880517 C 600.5299025000747 585.0831223831136 552.3472190196599 633.2658058635285 492.91086682459786 633.2658058635285 C 433.47451462953586 633.2658058635285 385.2918311491209 585.0831223831136 385.2918311491209 525.6467701880517 C 385.2918311491209 466.21041799298985 433.47451462953586 418.02773451257497 492.91086682459786 418.02773451257497 C 552.3472190196599 418.02773451257497 600.5299025000747 466.21041799298985 600.5299025000747 525.6467701880517 Z" stroke-opacity="0.8" stroke-linecap="round" stroke-linejoin="round" stroke-miterlimit="10" stroke-width="2.5"/><path fill="none" stroke="rgb(0,153,255)" paint-order="fill stroke markers" d=" M 492.9108872657774 525.7131005706328 C 492.9108872657774 585.1494527656947 444.72820378536244 633.3321362461096 385.29185159030044 633.3321362461096 C 325.8554993952385 633.3321362461096 277.67281591482356 585.1494527656947 277.67281591482356 525.7131005706328 C 277.67281591482356 466.27674837557095 325.8554993952385 418.09406489515607 385.29185159030044 418.09406489515607 C 444.72820378536244 418.09406489515607 492.9108872657774 466.27674837557095 492.9108872657774 525.7131005706328 Z" stroke-opacity="0.8" stroke-linecap="round" stroke-linejoin="round" stroke-miterlimit="10" stroke-width="2.5"/><path fill="none" stroke="rgb(0,153,255)" paint-order="fill stroke markers" d=" M 708.1489177343722 525.5804398054705 C 708.1489177343722 585.0167920005324 659.9662342539573 633.1994754809473 600.5298820588953 633.1994754809473 C 541.0935298638333 633.1994754809473 492.91084638341835 585.0167920005324 492.91084638341835 525.5804398054705 C 492.91084638341835 466.14408761040863 541.0935298638333 417.96140412999375 600.5298820588953 417.96140412999375 C 659.9662342539573 417.96140412999375 708.1489177343722 466.14408761040863 708.1489177343722 525.5804398054705 Z" stroke-opacity="0.8" stroke-linecap="round" stroke-linejoin="round" stroke-miterlimit="10" stroke-width="2.5"/><path fill="none" stroke="rgb(0,153,255)" paint-order="fill stroke markers" d=" M 546.7778386792841 618.8807365025082 C 546.7778386792841 678.3170886975701 498.59515519886907 726.4997721779849 439.1588030038071 726.4997721779849 C 379.7224508087451 726.4997721779849 331.5397673283302 678.3170886975701 331.5397673283302 618.8807365025082 C 331.5397673283302 559.4443843074463 379.7224508087451 511.2617008270314 439.1588030038071 511.2617008270314 C 498.59515519886907 511.2617008270314 546.7778386792841 559.4443843074463 546.7778386792841 618.8807365025082 Z" stroke-opacity="0.8" stroke-linecap="round" stroke-linejoin="round" stroke-miterlimit="10" stroke-width="2.5"/><path fill="none" stroke="rgb(0,153,255)" paint-order="fill stroke markers" d=" M 492.79599967306143 339.31149832430106 C 492.79599967306143 398.74785051936294 444.6133161926465 446.9305339997778 385.1769639975845 446.9305339997778 C 325.74061180252255 446.9305339997778 277.5579283221076 398.74785051936294 277.5579283221076 339.31149832430106 C 277.5579283221076 279.87514612923917 325.74061180252255 231.6924626488243 385.1769639975845 231.6924626488243 C 444.6133161926465 231.6924626488243 492.79599967306143 279.87514612923917 492.79599967306143 339.31149832430106 Z" stroke-opacity="0.8" stroke-linecap="round" stroke-linejoin="round" stroke-miterlimit="10" stroke-width="2.5"/><path fill="none" stroke="rgb(0,153,255)" paint-order="fill stroke markers" d=" M 385.2918720314801 525.7794309532139 C 385.2918720314801 585.2157831482758 337.10918855106524 633.3984666286907 277.67283635600324 633.3984666286907 C 218.23648416094125 633.3984666286907 170.0538006805263 585.2157831482758 170.0538006805263 525.7794309532139 C 170.0538006805263 466.34307875815205 218.23648416094125 418.16039527773717 277.67283635600324 418.16039527773717 C 337.10918855106524 418.16039527773717 385.2918720314801 466.34307875815205 385.2918720314801 525.7794309532139 Z" stroke-opacity="0.8" stroke-linecap="round" stroke-linejoin="round" stroke-miterlimit="10" stroke-width="2.5"/><path fill="none" stroke="rgb(0,153,255)" paint-order="fill stroke markers" d=" M 331.42492061797344 432.6117950213386 C 331.42492061797344 492.0481472164005 283.2422371375585 540.2308306968154 223.80588494249653 540.2308306968154 C 164.36953274743456 540.2308306968154 116.18684926701962 492.0481472164005 116.18684926701962 432.6117950213386 C 116.18684926701962 373.1754428262767 164.36953274743456 324.9927593458618 223.80588494249653 324.9927593458618 C 283.2422371375585 324.9927593458618 331.42492061797344 373.1754428262767 331.42492061797344 432.6117950213386 Z" stroke-opacity="0.8" stroke-linecap="round" stroke-linejoin="round" stroke-miterlimit="10" stroke-width="2.5"/><path fill="none" stroke="rgb(0,153,255)" paint-order="fill stroke markers" d=" M 385.17698443876407 339.3778287068822 C 385.17698443876407 398.8141809019441 336.9943009583492 446.996864382359 277.5579487632872 446.996864382359 C 218.1215965682252 446.996864382359 169.93891308781025 398.8141809019441 169.93891308781025 339.3778287068822 C 169.93891308781025 279.9414765118203 218.1215965682252 231.75879303140545 277.5579487632872 231.75879303140545 C 336.9943009583492 231.75879303140545 385.17698443876407 279.9414765118203 385.17698443876407 339.3778287068822 Z" stroke-opacity="0.8" stroke-linecap="round" stroke-linejoin="round" stroke-miterlimit="10" stroke-width="2.5"/><path fill="none" stroke="rgb(0,153,255)" paint-order="fill stroke markers" d=" M 385.40675962419607 712.1810331995455 C 385.40675962419607 771.6173853946074 337.2240761437811 819.8000688750222 277.78772394871913 819.8000688750222 C 218.35137175365713 819.8000688750222 170.1686882732422 771.6173853946074 170.1686882732422 712.1810331995455 C 170.1686882732422 652.7446810044836 218.35137175365713 604.5619975240687 277.78772394871913 604.5619975240687 C 337.2240761437811 604.5619975240687 385.40675962419607 652.7446810044836 385.40675962419607 712.1810331995455 Z" stroke-opacity="0.8" stroke-linecap="round" stroke-linejoin="round" stroke-miterlimit="10" stroke-width="2.5"/><path fill="none" stroke="rgb(0,153,255)" paint-order="fill stroke markers" d=" M 708.263805327088 711.9820420518024 C 708.263805327088 771.4183942468643 660.0811218466731 819.6010777272792 600.6447696516111 819.6010777272792 C 541.2084174565491 819.6010777272792 493.0257339761342 771.4183942468643 493.0257339761342 711.9820420518024 C 493.0257339761342 652.5456898567405 541.2084174565491 604.3630063763256 600.6447696516111 604.3630063763256 C 660.0811218466731 604.3630063763256 708.263805327088 652.5456898567405 708.263805327088 711.9820420518024 Z" stroke-opacity="0.8" stroke-linecap="round" stroke-linejoin="round" stroke-miterlimit="10" stroke-width="2.5"/><path fill="none" stroke="rgb(0,153,255)" paint-order="fill stroke markers" d=" M 869.6348843821762 618.6817453547649 C 869.6348843821762 678.1180975498268 821.4522009017612 726.3007810302416 762.0158487066992 726.3007810302416 C 702.5794965116372 726.3007810302416 654.3968130312223 678.1180975498268 654.3968130312223 618.6817453547649 C 654.3968130312223 559.245393159703 702.5794965116372 511.0627096792881 762.0158487066992 511.0627096792881 C 821.4522009017612 511.0627096792881 869.6348843821762 559.245393159703 869.6348843821762 618.6817453547649 Z" stroke-opacity="0.8" stroke-linecap="round" stroke-linejoin="round" stroke-miterlimit="10" stroke-width="2.5"/><path fill="none" stroke="rgb(0,153,255)" paint-order="fill stroke markers" d=" M 869.51999678946 432.2801431084332 C 869.51999678946 491.7164953034951 821.337313309045 539.89917878391 761.900961113983 539.89917878391 C 702.464608918921 539.89917878391 654.2819254385062 491.7164953034951 654.2819254385062 432.2801431084332 C 654.2819254385062 372.8437909133713 702.464608918921 324.66110743295644 761.900961113983 324.66110743295644 C 821.337313309045 324.66110743295644 869.51999678946 372.8437909133713 869.51999678946 432.2801431084332 Z" stroke-opacity="0.8" stroke-linecap="round" stroke-linejoin="round" stroke-miterlimit="10" stroke-width="2.5"/><path fill="none" stroke="rgb(0,153,255)" paint-order="fill stroke markers" d=" M 708.0340301416558 339.178837559139 C 708.0340301416558 398.6151897542009 659.8513466612409 446.7978732346158 600.4149944661789 446.7978732346158 C 540.9786422711169 446.7978732346158 492.79595879070195 398.6151897542009 492.79595879070195 339.178837559139 C 492.79595879070195 279.74248536407714 540.9786422711169 231.55980188366226 600.4149944661789 231.55980188366226 C 659.8513466612409 231.55980188366226 708.0340301416558 279.74248536407714 708.0340301416558 339.178837559139 Z" stroke-opacity="0.8" stroke-linecap="round" stroke-linejoin="round" stroke-miterlimit="10" stroke-width="2.5"/><path fill="none" stroke="rgb(255,153,0)" paint-order="fill stroke markers" d=" M 573.5964165727316 479.02978703082346 C 573.5964165727316 508.7479631283544 549.5050748325242 532.8393048685618 519.7868987349932 532.8393048685618 C 490.0687226374622 532.8393048685618 465.97738089725476 508.7479631283544 465.97738089725476 479.02978703082346 C 465.97738089725476 449.3116109332925 490.0687226374622 425.2202691930851 519.7868987349932 425.2202691930851 C 549.5050748325242 425.2202691930851 573.5964165727316 449.3116109332925 573.5964165727316 479.02978703082346 Z" stroke-opacity="0.8" stroke-linecap="round" stroke-linejoin="round" stroke-miterlimit="10" stroke-width="2.5"/><path fill="none" stroke="rgb(255,153,0)" paint-order="fill stroke markers" d=" M 654.2819561002757 432.37963868230474 C 654.2819561002757 462.0978147798357 630.1906143600683 486.1891565200431 600.4724382625373 486.1891565200431 C 570.7542621650063 486.1891565200431 546.6629204247988 462.0978147798357 546.6629204247988 432.37963868230474 C 546.6629204247988 402.6614625847738 570.7542621650063 378.57012084456636 600.4724382625373 378.57012084456636 C 630.1906143600683 378.57012084456636 654.2819561002757 402.6614625847738 654.2819561002757 432.37963868230474 Z" stroke-opacity="0.8" stroke-linecap="round" stroke-linejoin="round" stroke-miterlimit="10" stroke-width="2.5"/><path fill="none" stroke="rgb(255,153,0)" paint-order="fill stroke markers" d=" M 573.6538603690897 572.2305881539894 C 573.6538603690897 601.9487642515204 549.5625186288822 626.0401059917278 519.8443425313512 626.0401059917278 C 490.12616643382023 626.0401059917278 466.0348246936128 601.9487642515204 466.0348246936128 572.2305881539894 C 466.0348246936128 542.5124120564585 490.12616643382023 518.4210703162511 519.8443425313512 518.4210703162511 C 549.5625186288822 518.4210703162511 573.6538603690897 542.5124120564585 573.6538603690897 572.2305881539894 Z" stroke-opacity="0.8" stroke-linecap="round" stroke-linejoin="round" stroke-miterlimit="10" stroke-width="2.5"/><path fill="none" stroke="rgb(255,153,0)" paint-order="fill stroke markers" d=" M 573.5389727763736 385.8289859076576 C 573.5389727763736 415.54716200518857 549.4476310361662 439.638503745396 519.7294549386352 439.638503745396 C 490.0112788411042 439.638503745396 465.91993710089673 415.54716200518857 465.91993710089673 385.8289859076576 C 465.91993710089673 356.1108098101267 490.0112788411042 332.01946806991924 519.7294549386352 332.01946806991924 C 549.4476310361662 332.01946806991924 573.5389727763736 356.1108098101267 573.5389727763736 385.8289859076576 Z" stroke-opacity="0.8" stroke-linecap="round" stroke-linejoin="round" stroke-miterlimit="10" stroke-width="2.5"/><path fill="none" stroke="rgb(255,153,0)" paint-order="fill stroke markers" d=" M 492.9108770451876 525.6799353793422 C 492.9108770451876 555.398111476873 468.81953530498015 579.4894532170805 439.10135920744915 579.4894532170805 C 409.38318310991815 579.4894532170805 385.2918413697107 555.398111476873 385.2918413697107 525.6799353793422 C 385.2918413697107 495.9617592818112 409.38318310991815 471.8704175416038 439.10135920744915 471.8704175416038 C 468.81953530498015 471.8704175416038 492.9108770451876 495.9617592818112 492.9108770451876 525.6799353793422 Z" stroke-opacity="0.8" stroke-linecap="round" stroke-linejoin="round" stroke-miterlimit="10" stroke-width="2.5"/><path fill="none" stroke="rgb(255,153,0)" paint-order="fill stroke markers" d=" M 412.16789372128574 479.1292826046951 C 412.16789372128574 508.84745870222605 388.0765519810783 532.9388004424335 358.3583758835473 532.9388004424335 C 328.6401997860163 532.9388004424335 304.54885804580886 508.84745870222605 304.54885804580886 479.1292826046951 C 304.54885804580886 449.41110650716416 328.6401997860163 425.3197647669567 358.3583758835473 425.3197647669567 C 388.0765519810783 425.3197647669567 412.16789372128574 449.41110650716416 412.16789372128574 479.1292826046951 Z" stroke-opacity="0.8" stroke-linecap="round" stroke-linejoin="round" stroke-miterlimit="10" stroke-width="2.5"/><path fill="none" stroke="rgb(255,153,0)" paint-order="fill stroke markers" d=" M 412.1104499249277 385.92848148152933 C 412.1104499249277 415.6466575790603 388.01910818472027 439.7379993192677 358.30093208718927 439.7379993192677 C 328.58275598965827 439.7379993192677 304.4914142494508 415.6466575790603 304.4914142494508 385.92848148152933 C 304.4914142494508 356.2103053839984 328.58275598965827 332.11896364379095 358.30093208718927 332.11896364379095 C 388.01910818472027 332.11896364379095 412.1104499249277 356.2103053839984 412.1104499249277 385.92848148152933 Z" stroke-opacity="0.8" stroke-linecap="round" stroke-linejoin="round" stroke-miterlimit="10" stroke-width="2.5"/><path fill="none" stroke="rgb(255,153,0)" paint-order="fill stroke markers" d=" M 412.2253375176437 572.330083727861 C 412.2253375176437 602.048259825392 388.13399577743627 626.1396015655995 358.41581967990527 626.1396015655995 C 328.69764358237427 626.1396015655995 304.60630184216683 602.048259825392 304.60630184216683 572.330083727861 C 304.60630184216683 542.6119076303302 328.69764358237427 518.5205658901227 358.41581967990527 518.5205658901227 C 388.13399577743627 518.5205658901227 412.2253375176437 542.6119076303302 412.2253375176437 572.330083727861 Z" stroke-opacity="0.8" stroke-linecap="round" stroke-linejoin="round" stroke-miterlimit="10" stroke-width="2.5"/><path fill="none" stroke="rgb(255,153,0)" paint-order="fill stroke markers" d=" M 412.2827813140017 665.5308848510267 C 412.2827813140017 695.2490609485577 388.19143957379424 719.3404026887652 358.47326347626324 719.3404026887652 C 328.75508737873224 719.3404026887652 304.6637456385248 695.2490609485577 304.6637456385248 665.5308848510267 C 304.6637456385248 635.8127087534958 328.75508737873224 611.7213670132884 358.47326347626324 611.7213670132884 C 388.19143957379424 611.7213670132884 412.2827813140017 635.8127087534958 412.2827813140017 665.5308848510267 Z" stroke-opacity="0.8" stroke-linecap="round" stroke-linejoin="round" stroke-miterlimit="10" stroke-width="2.5"/><path fill="none" stroke="rgb(255,153,0)" paint-order="fill stroke markers" d=" M 331.5397979900997 618.9802320763797 C 331.5397979900997 648.6984081739107 307.4484562498923 672.7897499141181 277.7302801523613 672.7897499141181 C 248.0121040548303 672.7897499141181 223.92076231462283 648.6984081739107 223.92076231462283 618.9802320763797 C 223.92076231462283 589.2620559788488 248.0121040548303 565.1707142386414 277.7302801523613 565.1707142386414 C 307.4484562498923 565.1707142386414 331.5397979900997 589.2620559788488 331.5397979900997 618.9802320763797 Z" stroke-opacity="0.8" stroke-linecap="round" stroke-linejoin="round" stroke-miterlimit="10" stroke-width="2.5"/><path fill="none" stroke="rgb(255,153,0)" paint-order="fill stroke markers" d=" M 734.9674956278195 385.7294903337861 C 734.9674956278195 415.44766643131703 710.8761538876121 439.5390081715245 681.1579777900811 439.5390081715245 C 651.4398016925501 439.5390081715245 627.3484599523426 415.44766643131703 627.3484599523426 385.7294903337861 C 627.3484599523426 356.01131423625515 651.4398016925501 331.9199724960477 681.1579777900811 331.9199724960477 C 710.8761538876121 331.9199724960477 734.9674956278195 356.01131423625515 734.9674956278195 385.7294903337861 Z" stroke-opacity="0.8" stroke-linecap="round" stroke-linejoin="round" stroke-miterlimit="10" stroke-width="2.5"/><path fill="none" stroke="rgb(0,153,255)" paint-order="fill stroke markers" d=" M 654.3968539135815 618.814406119927 C 654.3968539135815 678.2507583149888 606.2141704331666 726.4334417954037 546.7778182381046 726.4334417954037 C 487.34146604304266 726.4334417954037 439.1587825626277 678.2507583149888 439.1587825626277 618.814406119927 C 439.1587825626277 559.3780539248651 487.34146604304266 511.1953704444502 546.7778182381046 511.1953704444502 C 606.2141704331666 511.1953704444502 654.3968539135815 559.3780539248651 654.3968539135815 618.814406119927 Z" stroke-opacity="0.8" stroke-linecap="round" stroke-linejoin="round" stroke-miterlimit="10" stroke-width="2.5"/><path fill="none" stroke="rgb(0,153,255)" paint-order="fill stroke markers" d=" M 815.7679329686694 525.5141094228896 C 815.7679329686694 584.9504616179515 767.5852494882544 633.1331450983664 708.1488972931924 633.1331450983664 C 648.7125450981304 633.1331450983664 600.5298616177155 584.9504616179515 600.5298616177155 525.5141094228896 C 600.5298616177155 466.07775722782776 648.7125450981304 417.8950737474129 708.1488972931924 417.8950737474129 C 767.5852494882544 417.8950737474129 815.7679329686694 466.07775722782776 815.7679329686694 525.5141094228896 Z" stroke-opacity="0.8" stroke-linecap="round" stroke-linejoin="round" stroke-miterlimit="10" stroke-width="2.5"/><path fill="none" stroke="rgb(0,153,255)" paint-order="fill stroke markers" d=" M 815.8828205613856 711.9157116692211 C 815.8828205613856 771.352063864283 767.7001370809708 819.5347473446978 708.2637848859088 819.5347473446978 C 648.8274326908468 819.5347473446978 600.6447492104319 771.352063864283 600.6447492104319 711.9157116692211 C 600.6447492104319 652.4793594741592 648.8274326908468 604.2966759937443 708.2637848859088 604.2966759937443 C 767.7001370809708 604.2966759937443 815.8828205613856 652.4793594741592 815.8828205613856 711.9157116692211 Z" stroke-opacity="0.8" stroke-linecap="round" stroke-linejoin="round" stroke-miterlimit="10" stroke-width="2.5"/><path fill="none" stroke="rgb(0,153,255)" paint-order="fill stroke markers" d=" M 493.02577485849343 712.1147028169646 C 493.02577485849343 771.5510550120265 444.8430913780785 819.7337384924414 385.4067391830165 819.7337384924414 C 325.97038698795456 819.7337384924414 277.7877035075396 771.5510550120265 277.7877035075396 712.1147028169646 C 277.7877035075396 652.6783506219027 325.97038698795456 604.4956671414878 385.4067391830165 604.4956671414878 C 444.8430913780785 604.4956671414878 493.02577485849343 652.6783506219027 493.02577485849343 712.1147028169646 Z" stroke-opacity="0.8" stroke-linecap="round" stroke-linejoin="round" stroke-miterlimit="10" stroke-width="2.5"/><path fill="none" stroke="rgb(0,153,255)" paint-order="fill stroke markers" d=" M 331.53980821068933 619.0133972676704 C 331.53980821068933 678.4497494627323 283.3571247302744 726.6324329431471 223.92077253521242 726.6324329431471 C 164.48442034015045 726.6324329431471 116.30173685973551 678.4497494627323 116.30173685973551 619.0133972676704 C 116.30173685973551 559.5770450726085 164.48442034015045 511.3943615921936 223.92077253521242 511.3943615921936 C 283.3571247302744 511.3943615921936 331.53980821068933 559.5770450726085 331.53980821068933 619.0133972676704 Z" stroke-opacity="0.8" stroke-linecap="round" stroke-linejoin="round" stroke-miterlimit="10" stroke-width="2.5"/><path fill="none" stroke="rgb(0,153,255)" paint-order="fill stroke markers" d=" M 600.6447900927907 712.0483724343834 C 600.6447900927907 771.4847246294453 552.4621066123757 819.6674081098602 493.02575441731375 819.6674081098602 C 433.58940222225175 819.6674081098602 385.4067187418368 771.4847246294453 385.4067187418368 712.0483724343834 C 385.4067187418368 652.6120202393215 433.58940222225175 604.4293367589066 493.02575441731375 604.4293367589066 C 552.4621066123757 604.4293367589066 600.6447900927907 652.6120202393215 600.6447900927907 712.0483724343834 Z" stroke-opacity="0.8" stroke-linecap="round" stroke-linejoin="round" stroke-miterlimit="10" stroke-width="2.5"/><path fill="none" stroke="rgb(0,153,255)" paint-order="fill stroke markers" d=" M 439.158823444987 618.9470668850894 C 439.158823444987 678.3834190801513 390.9761399645721 726.5661025605662 331.5397877695101 726.5661025605662 C 272.1034355744481 726.5661025605662 223.92075209403316 678.3834190801513 223.92075209403316 618.9470668850894 C 223.92075209403316 559.5107146900275 272.1034355744481 511.3280312096126 331.5397877695101 511.3280312096126 C 390.9761399645721 511.3280312096126 439.158823444987 559.5107146900275 439.158823444987 618.9470668850894 Z" stroke-opacity="0.8" stroke-linecap="round" stroke-linejoin="round" stroke-miterlimit="10" stroke-width="2.5"/><path fill="none" stroke="rgb(255,153,0)" paint-order="fill stroke markers" d=" M 546.6629408659784 432.4459690648858 C 546.6629408659784 462.16414516241673 522.5715991257708 486.25548690262417 492.8534230282399 486.25548690262417 C 463.1352469307089 486.25548690262417 439.04390519050145 462.16414516241673 439.04390519050145 432.4459690648858 C 439.04390519050145 402.72779296735484 463.1352469307089 378.6364512271474 492.8534230282399 378.6364512271474 C 522.5715991257708 378.6364512271474 546.6629408659784 402.72779296735484 546.6629408659784 432.4459690648858 Z" stroke-opacity="0.8" stroke-linecap="round" stroke-linejoin="round" stroke-miterlimit="10" stroke-width="2.5"/><path fill="none" stroke="rgb(255,153,0)" paint-order="fill stroke markers" d=" M 465.97740133843433 479.09611741340467 C 465.97740133843433 508.8142935109356 441.8860595982269 532.905635251143 412.1678835006959 532.905635251143 C 382.4497074031649 532.905635251143 358.35836566295745 508.8142935109356 358.35836566295745 479.09611741340467 C 358.35836566295745 449.3779413158737 382.4497074031649 425.2865995756663 412.1678835006959 425.2865995756663 C 441.8860595982269 425.2865995756663 465.97740133843433 449.3779413158737 465.97740133843433 479.09611741340467 Z" stroke-opacity="0.8" stroke-linecap="round" stroke-linejoin="round" stroke-miterlimit="10" stroke-width="2.5"/><path fill="none" stroke="rgb(255,153,0)" paint-order="fill stroke markers" d=" M 573.5964165727316 479.02978703082346 C 573.5964165727316 508.7479631283544 549.5050748325242 532.8393048685618 519.7868987349932 532.8393048685618 C 490.0687226374622 532.8393048685618 465.97738089725476 508.7479631283544 465.97738089725476 479.02978703082346 C 465.97738089725476 449.3116109332925 490.0687226374622 425.2202691930851 519.7868987349932 425.2202691930851 C 549.5050748325242 425.2202691930851 573.5964165727316 449.3116109332925 573.5964165727316 479.02978703082346 Z" stroke-opacity="0.8" stroke-linecap="round" stroke-linejoin="round" stroke-miterlimit="10" stroke-width="2.5"/><path fill="none" stroke="rgb(0,153,255)" paint-order="fill stroke markers" d=" M 492.9108872657773 525.7131005706328 C 492.9108872657773 585.1494527656947 444.72820378536244 633.3321362461096 385.29185159030044 633.3321362461096 C 325.85549939523844 633.3321362461096 277.6728159148235 585.1494527656947 277.6728159148235 525.7131005706328 C 277.6728159148235 466.27674837557095 325.85549939523844 418.09406489515607 385.29185159030044 418.09406489515607 C 444.72820378536244 418.09406489515607 492.9108872657773 466.27674837557095 492.9108872657773 525.7131005706328 Z" stroke-opacity="0.8" stroke-linecap="round" stroke-linejoin="round" stroke-miterlimit="10" stroke-width="2.5"/><path fill="none" stroke="rgb(255,153,0)" paint-order="fill stroke markers" d=" M 519.7869089555829 479.06295222211406 C 519.7869089555829 508.781128319645 495.6955672153755 532.8724700598524 465.9773911178445 532.8724700598524 C 436.2592150203135 532.8724700598524 412.16787328010605 508.781128319645 412.16787328010605 479.06295222211406 C 412.16787328010605 449.3447761245831 436.2592150203135 425.2534343843757 465.9773911178445 425.2534343843757 C 495.6955672153755 425.2534343843757 519.7869089555829 449.3447761245831 519.7869089555829 479.06295222211406 Z" stroke-opacity="0.8" stroke-linecap="round" stroke-linejoin="round" stroke-miterlimit="10" stroke-width="2.5"/><path fill="none" stroke="rgb(255,153,0)" paint-order="fill stroke markers" d=" M 466.03484513479236 572.2969185365704 C 466.03484513479236 602.0150946341014 441.9435033945849 626.1064363743088 412.2253272970539 626.1064363743088 C 382.5071511995229 626.1064363743088 358.4158094593155 602.0150946341014 358.4158094593155 572.2969185365704 C 358.4158094593155 542.5787424390395 382.5071511995229 518.4874006988321 412.2253272970539 518.4874006988321 C 441.9435033945849 518.4874006988321 466.03484513479236 542.5787424390395 466.03484513479236 572.2969185365704 Z" stroke-opacity="0.8" stroke-linecap="round" stroke-linejoin="round" stroke-miterlimit="10" stroke-width="2.5"/><path fill="none" stroke="rgb(255,153,0)" paint-order="fill stroke markers" d=" M 519.844352751941 572.2637533452798 C 519.844352751941 601.9819294428108 495.75301101173346 626.0732711830183 466.03483491420246 626.0732711830183 C 436.31665881667146 626.0732711830183 412.225317076464 601.9819294428108 412.225317076464 572.2637533452798 C 412.225317076464 542.545577247749 436.31665881667146 518.4542355075415 466.03483491420246 518.4542355075415 C 495.75301101173346 518.4542355075415 519.844352751941 542.545577247749 519.844352751941 572.2637533452798 Z" stroke-opacity="0.8" stroke-linecap="round" stroke-linejoin="round" stroke-miterlimit="10" stroke-width="2.5"/><path fill="none" stroke="rgb(255,153,0)" paint-order="fill stroke markers" d=" M 573.6538603690896 572.2305881539894 C 573.6538603690896 601.9487642515204 549.5625186288821 626.0401059917278 519.8443425313511 626.0401059917278 C 490.1261664338201 626.0401059917278 466.0348246936127 601.9487642515204 466.0348246936127 572.2305881539894 C 466.0348246936127 542.5124120564585 490.1261664338201 518.4210703162511 519.8443425313511 518.4210703162511 C 549.5625186288821 518.4210703162511 573.6538603690896 542.5124120564585 573.6538603690896 572.2305881539894 Z" stroke-opacity="0.8" stroke-linecap="round" stroke-linejoin="round" stroke-miterlimit="10" stroke-width="2.5"/><path fill="none" stroke="rgb(255,153,0)" paint-order="fill stroke markers" d=" M 600.529892279485 525.6136049967611 C 600.529892279485 555.331781094292 576.4385505392776 579.4231228344994 546.7203744417466 579.4231228344994 C 517.0021983442156 579.4231228344994 492.91085660400813 555.331781094292 492.91085660400813 525.6136049967611 C 492.91085660400813 495.8954288992301 517.0021983442156 471.8040871590227 546.7203744417466 471.8040871590227 C 576.4385505392776 471.8040871590227 600.529892279485 495.8954288992301 600.529892279485 525.6136049967611 Z" stroke-opacity="0.8" stroke-linecap="round" stroke-linejoin="round" stroke-miterlimit="10" stroke-width="2.5"/><path fill="none" stroke="rgb(255,153,0)" paint-order="fill stroke markers" d=" M 681.272875603387 572.1642577714082 C 681.272875603387 601.8824338689392 657.1815338631795 625.9737756091466 627.4633577656485 625.9737756091466 C 597.7451816681175 625.9737756091466 573.6538399279101 601.8824338689392 573.6538399279101 572.1642577714082 C 573.6538399279101 542.4460816738773 597.7451816681175 518.3547399336699 627.4633577656485 518.3547399336699 C 657.1815338631795 518.3547399336699 681.272875603387 542.4460816738773 681.272875603387 572.1642577714082 Z" stroke-opacity="0.8" stroke-linecap="round" stroke-linejoin="round" stroke-miterlimit="10" stroke-width="2.5"/><path fill="none" stroke="rgb(255,153,0)" paint-order="fill stroke markers" d=" M 681.2154318070288 478.9634566482424 C 681.2154318070288 508.68163274577336 657.1240900668214 532.7729744859807 627.4059139692904 532.7729744859807 C 597.6877378717594 532.7729744859807 573.596396131552 508.68163274577336 573.596396131552 478.9634566482424 C 573.596396131552 449.24528055071147 597.6877378717594 425.15393881050403 627.4059139692904 425.15393881050403 C 657.1240900668214 425.15393881050403 681.2154318070288 449.24528055071147 681.2154318070288 478.9634566482424 Z" stroke-opacity="0.8" stroke-linecap="round" stroke-linejoin="round" stroke-miterlimit="10" stroke-width="2.5"/><path fill="none" stroke="rgb(255,153,0)" paint-order="fill stroke markers" d=" M 681.1579880106709 385.7626555250764 C 681.1579880106709 415.48083162260735 657.0666462704635 439.5721733628148 627.3484701729325 439.5721733628148 C 597.6302940754015 439.5721733628148 573.538952335194 415.48083162260735 573.538952335194 385.7626555250764 C 573.538952335194 356.04447942754547 597.6302940754015 331.953137687338 627.3484701729325 331.953137687338 C 657.0666462704635 331.953137687338 681.1579880106709 356.04447942754547 681.1579880106709 385.7626555250764 Z" stroke-opacity="0.8" stroke-linecap="round" stroke-linejoin="round" stroke-miterlimit="10" stroke-width="2.5"/><path fill="none" stroke="rgb(255,153,0)" paint-order="fill stroke markers" d=" M 761.9009713345729 432.3133082997235 C 761.9009713345729 462.0314843972544 737.8096295943654 486.12282613746186 708.0914534968344 486.12282613746186 C 678.3732773993034 486.12282613746186 654.281935659096 462.0314843972544 654.281935659096 432.3133082997235 C 654.281935659096 402.59513220219253 678.3732773993034 378.5037904619851 708.0914534968344 378.5037904619851 C 737.8096295943654 378.5037904619851 761.9009713345729 402.59513220219253 761.9009713345729 432.3133082997235 Z" stroke-opacity="0.8" stroke-linecap="round" stroke-linejoin="round" stroke-miterlimit="10" stroke-width="2.5"/><path fill="none" stroke="rgb(255,153,0)" paint-order="fill stroke markers" d=" M 627.3484803935223 385.7958207163671 C 627.3484803935223 415.513996813898 603.2571386533149 439.60533855410546 573.5389625557839 439.60533855410546 C 543.8207864582529 439.60533855410546 519.7294447180454 415.513996813898 519.7294447180454 385.7958207163671 C 519.7294447180454 356.07764461883613 543.8207864582529 331.9863028786287 573.5389625557839 331.9863028786287 C 603.2571386533149 331.9863028786287 627.3484803935223 356.07764461883613 627.3484803935223 385.7958207163671 Z" stroke-opacity="0.8" stroke-linecap="round" stroke-linejoin="round" stroke-miterlimit="10" stroke-width="2.5"/><path fill="none" stroke="rgb(255,153,0)" paint-order="fill stroke markers" d=" M 627.4059241898802 478.9966218395329 C 627.4059241898802 508.71479793706385 603.3145824496728 532.8061396772713 573.5964063521418 532.8061396772713 C 543.8782302546108 532.8061396772713 519.7868885144034 508.71479793706385 519.7868885144034 478.9966218395329 C 519.7868885144034 449.27844574200196 543.8782302546108 425.1871040017945 573.5964063521418 425.1871040017945 C 603.3145824496728 425.1871040017945 627.4059241898802 449.27844574200196 627.4059241898802 478.9966218395329 Z" stroke-opacity="0.8" stroke-linecap="round" stroke-linejoin="round" stroke-miterlimit="10" stroke-width="2.5"/><path fill="none" stroke="rgb(255,153,0)" paint-order="fill stroke markers" d=" M 708.1489075137823 525.54727461418 C 708.1489075137823 555.2654507117109 684.0575657735749 579.3567924519183 654.3393896760439 579.3567924519183 C 624.6212135785129 579.3567924519183 600.5298718383054 555.2654507117109 600.5298718383054 525.54727461418 C 600.5298718383054 495.829098516649 624.6212135785129 471.7377567764416 654.3393896760439 471.7377567764416 C 684.0575657735749 471.7377567764416 708.1489075137823 495.829098516649 708.1489075137823 525.54727461418 Z" stroke-opacity="0.8" stroke-linecap="round" stroke-linejoin="round" stroke-miterlimit="10" stroke-width="2.5"/><path fill="none" stroke="rgb(255,153,0)" paint-order="fill stroke markers" d=" M 627.4633679862383 572.1974229626989 C 627.4633679862383 601.9155990602299 603.3720262460308 626.0069408004373 573.6538501484998 626.0069408004373 C 543.9356740509688 626.0069408004373 519.8443323107614 601.9155990602299 519.8443323107614 572.1974229626989 C 519.8443323107614 542.479246865168 543.9356740509688 518.3879051249605 573.6538501484998 518.3879051249605 C 603.3720262460308 518.3879051249605 627.4633679862383 542.479246865168 627.4633679862383 572.1974229626989 Z" stroke-opacity="0.8" stroke-linecap="round" stroke-linejoin="round" stroke-miterlimit="10" stroke-width="2.5"/><path fill="none" stroke="rgb(255,153,0)" paint-order="fill stroke markers" d=" M 385.29186181089034 525.7462657619233 C 385.29186181089034 555.4644418594542 361.2005200706829 579.5557835996616 331.4823439731519 579.5557835996616 C 301.7641678756209 579.5557835996616 277.67282613541346 555.4644418594542 277.67282613541346 525.7462657619233 C 277.67282613541346 496.0280896643923 301.7641678756209 471.9367479241849 331.4823439731519 471.9367479241849 C 361.2005200706829 471.9367479241849 385.29186181089034 496.0280896643923 385.29186181089034 525.7462657619233 Z" stroke-opacity="0.8" stroke-linecap="round" stroke-linejoin="round" stroke-miterlimit="10" stroke-width="2.5"/><path fill="none" stroke="rgb(255,153,0)" paint-order="fill stroke markers" d=" M 331.42491039738366 432.57862983004793 C 331.42491039738366 462.2968059275789 307.3335686571762 486.3881476677863 277.6153925596452 486.3881476677863 C 247.89721646211424 486.3881476677863 223.80587472190678 462.2968059275789 223.80587472190678 432.57862983004793 C 223.80587472190678 402.860453732517 247.89721646211424 378.76911199230955 277.6153925596452 378.76911199230955 C 307.3335686571762 378.76911199230955 331.42491039738366 402.860453732517 331.42491039738366 432.57862983004793 Z" stroke-opacity="0.8" stroke-linecap="round" stroke-linejoin="round" stroke-miterlimit="10" stroke-width="2.5"/><path fill="none" stroke="rgb(0,153,255)" paint-order="fill stroke markers" d=" M 815.6530453759535 339.1125071765578 C 815.6530453759535 398.5488593716197 767.4703618955385 446.7315428520346 708.0340097004765 446.7315428520346 C 648.5976575054145 446.7315428520346 600.4149740249997 398.5488593716197 600.4149740249997 339.1125071765578 C 600.4149740249997 279.6761549814959 648.5976575054145 231.49347150108105 708.0340097004765 231.49347150108105 C 767.4703618955385 231.49347150108105 815.6530453759535 279.6761549814959 815.6530453759535 339.1125071765578 Z" stroke-opacity="0.8" stroke-linecap="round" stroke-linejoin="round" stroke-miterlimit="10" stroke-width="2.5"/><path fill="none" stroke="rgb(0,153,255)" paint-order="fill stroke markers" d=" M 600.4150149073588 339.24516794171996 C 600.4150149073588 398.68152013678184 552.2323314269438 446.8642036171967 492.79597923188186 446.8642036171967 C 433.35962703681986 446.8642036171967 385.1769435564049 398.68152013678184 385.1769435564049 339.24516794171996 C 385.1769435564049 279.80881574665807 433.35962703681986 231.6261322662432 492.79597923188186 231.6261322662432 C 552.2323314269438 231.6261322662432 600.4150149073588 279.80881574665807 600.4150149073588 339.24516794171996 Z" stroke-opacity="0.8" stroke-linecap="round" stroke-linejoin="round" stroke-miterlimit="10" stroke-width="2.5"/><path fill="none" stroke="rgb(0,153,255)" paint-order="fill stroke markers" d=" M 761.9009815551628 432.3464734910141 C 761.9009815551628 491.78282568607597 713.7182980747478 539.9655091664908 654.2819458796858 539.9655091664908 C 594.8455936846239 539.9655091664908 546.662910204209 491.78282568607597 546.662910204209 432.3464734910141 C 546.662910204209 372.9101212959522 594.8455936846239 324.7274378155373 654.2819458796858 324.7274378155373 C 713.7182980747478 324.7274378155373 761.9009815551628 372.9101212959522 761.9009815551628 432.3464734910141 Z" stroke-opacity="0.8" stroke-linecap="round" stroke-linejoin="round" stroke-miterlimit="10" stroke-width="2.5"/><path fill="none" stroke="rgb(0,153,255)" paint-order="fill stroke markers" d=" M 439.04393585227103 432.5454646387573 C 439.04393585227103 491.9818168338192 390.86125237185615 540.1645003142341 331.42490017679415 540.1645003142341 C 271.98854798173215 540.1645003142341 223.80586450131722 491.9818168338192 223.80586450131722 432.5454646387573 C 223.80586450131722 373.10911244369544 271.98854798173215 324.92642896328056 331.42490017679415 324.92642896328056 C 390.86125237185615 324.92642896328056 439.04393585227103 373.10911244369544 439.04393585227103 432.5454646387573 Z" stroke-opacity="0.8" stroke-linecap="round" stroke-linejoin="round" stroke-miterlimit="10" stroke-width="2.5"/><path fill="none" stroke="rgb(255,153,0)" paint-order="fill stroke markers" d=" M 465.91995754207636 385.89531629023867 C 465.91995754207636 415.6134923877696 441.8286158018689 439.70483412797705 412.1104397043379 439.70483412797705 C 382.3922636068069 439.70483412797705 358.3009218665995 415.6134923877696 358.3009218665995 385.89531629023867 C 358.3009218665995 356.1771401927077 382.3922636068069 332.0857984525003 412.1104397043379 332.0857984525003 C 441.8286158018689 332.0857984525003 465.91995754207636 356.1771401927077 465.91995754207636 385.89531629023867 Z" stroke-opacity="0.8" stroke-linecap="round" stroke-linejoin="round" stroke-miterlimit="10" stroke-width="2.5"/><path fill="none" stroke="rgb(255,153,0)" paint-order="fill stroke markers" d=" M 439.04392563168096 432.51229944746694 C 439.04392563168096 462.2304755449979 414.9525838914735 486.3218172852053 385.2344077939425 486.3218172852053 C 355.5162316964115 486.3218172852053 331.4248899562041 462.2304755449979 331.4248899562041 432.51229944746694 C 331.4248899562041 402.794123349936 355.5162316964115 378.70278160972856 385.2344077939425 378.70278160972856 C 414.9525838914735 378.70278160972856 439.04392563168096 402.794123349936 439.04392563168096 432.51229944746694 Z" stroke-opacity="0.8" stroke-linecap="round" stroke-linejoin="round" stroke-miterlimit="10" stroke-width="2.5"/><path fill="none" stroke="rgb(255,153,0)" paint-order="fill stroke markers" d=" M 519.729465159225 385.8621510989481 C 519.729465159225 415.58032719647906 495.6381234190175 439.6716689366865 465.9199473214865 439.6716689366865 C 436.2017712239555 439.6716689366865 412.1104294837481 415.58032719647906 412.1104294837481 385.8621510989481 C 412.1104294837481 356.1439750014172 436.2017712239555 332.05263326120973 465.9199473214865 332.05263326120973 C 495.6381234190175 332.05263326120973 519.729465159225 356.1439750014172 519.729465159225 385.8621510989481 Z" stroke-opacity="0.8" stroke-linecap="round" stroke-linejoin="round" stroke-miterlimit="10" stroke-width="2.5"/><path fill="none" stroke="rgb(255,153,0)" paint-order="fill stroke markers" d=" M 627.5208117825962 665.3982240858646 C 627.5208117825962 695.1164001833956 603.4294700423887 719.2077419236031 573.7112939448577 719.2077419236031 C 543.9931178473267 719.2077419236031 519.9017761071193 695.1164001833956 519.9017761071193 665.3982240858646 C 519.9017761071193 635.6800479883337 543.9931178473267 611.5887062481263 573.7112939448577 611.5887062481263 C 603.4294700423887 611.5887062481263 627.5208117825962 635.6800479883337 627.5208117825962 665.3982240858646 Z" stroke-opacity="0.8" stroke-linecap="round" stroke-linejoin="round" stroke-miterlimit="10" stroke-width="2.5"/><path fill="none" stroke="rgb(255,153,0)" paint-order="fill stroke markers" d=" M 519.9017965482989 665.4645544684457 C 519.9017965482989 695.1827305659767 495.81045480809144 719.2740723061842 466.09227871056044 719.2740723061842 C 436.37410261302944 719.2740723061842 412.282760872822 695.1827305659767 412.282760872822 665.4645544684457 C 412.282760872822 635.7463783709148 436.37410261302944 611.6550366307074 466.09227871056044 611.6550366307074 C 495.81045480809144 611.6550366307074 519.9017965482989 635.7463783709148 519.9017965482989 665.4645544684457 Z" stroke-opacity="0.8" stroke-linecap="round" stroke-linejoin="round" stroke-miterlimit="10" stroke-width="2.5"/><path fill="none" stroke="rgb(255,153,0)" paint-order="fill stroke markers" d=" M 681.3303193997449 665.3650588945742 C 681.3303193997449 695.0832349921052 657.2389776595375 719.1745767323126 627.5208015620065 719.1745767323126 C 597.8026254644755 719.1745767323126 573.711283724268 695.0832349921052 573.711283724268 665.3650588945742 C 573.711283724268 635.6468827970433 597.8026254644755 611.5555410568359 627.5208015620065 611.5555410568359 C 657.2389776595375 611.5555410568359 681.3303193997449 635.6468827970433 681.3303193997449 665.3650588945742 Z" stroke-opacity="0.8" stroke-linecap="round" stroke-linejoin="round" stroke-miterlimit="10" stroke-width="2.5"/><path fill="none" stroke="rgb(255,153,0)" paint-order="fill stroke markers" d=" M 546.7778284586944 618.8475713112176 C 546.7778284586944 648.5657474087486 522.6864867184869 672.6570891489561 492.96831062095595 672.6570891489561 C 463.25013452342495 672.6570891489561 439.1587927832175 648.5657474087486 439.1587927832175 618.8475713112176 C 439.1587927832175 589.1293952136867 463.25013452342495 565.0380534734793 492.96831062095595 565.0380534734793 C 522.6864867184869 565.0380534734793 546.7778284586944 589.1293952136867 546.7778284586944 618.8475713112176 Z" stroke-opacity="0.8" stroke-linecap="round" stroke-linejoin="round" stroke-miterlimit="10" stroke-width="2.5"/><path fill="none" stroke="rgb(255,153,0)" paint-order="fill stroke markers" d=" M 762.0158589272892 618.7149105460553 C 762.0158589272892 648.4330866435863 737.9245171870817 672.5244283837937 708.2063410895507 672.5244283837937 C 678.4881649920197 672.5244283837937 654.3968232518123 648.4330866435863 654.3968232518123 618.7149105460553 C 654.3968232518123 588.9967344485244 678.4881649920197 564.905392708317 708.2063410895507 564.905392708317 C 737.9245171870817 564.905392708317 762.0158589272892 588.9967344485244 762.0158589272892 618.7149105460553 Z" stroke-opacity="0.8" stroke-linecap="round" stroke-linejoin="round" stroke-miterlimit="10" stroke-width="2.5"/><path fill="none" stroke="rgb(255,153,0)" paint-order="fill stroke markers" d=" M 439.158813224397 618.9139016937986 C 439.158813224397 648.6320777913296 415.0674714841896 672.723419531537 385.3492953866586 672.723419531537 C 355.6311192891276 672.723419531537 331.53977754892014 648.6320777913296 331.53977754892014 618.9139016937986 C 331.53977754892014 589.1957255962677 355.6311192891276 565.1043838560603 385.3492953866586 565.1043838560603 C 415.0674714841896 565.1043838560603 439.158813224397 589.1957255962677 439.158813224397 618.9139016937986 Z" stroke-opacity="0.8" stroke-linecap="round" stroke-linejoin="round" stroke-miterlimit="10" stroke-width="2.5"/><path fill="none" stroke="rgb(255,153,0)" paint-order="fill stroke markers" d=" M 466.0922889311503 665.4977196597363 C 466.0922889311503 695.2158957572673 442.00094719094284 719.3072374974747 412.28277109341184 719.3072374974747 C 382.56459499588084 719.3072374974747 358.4732532556734 695.2158957572673 358.4732532556734 665.4977196597363 C 358.4732532556734 635.7795435622054 382.56459499588084 611.688201821998 412.28277109341184 611.688201821998 C 442.00094719094284 611.688201821998 466.0922889311503 635.7795435622054 466.0922889311503 665.4977196597363 Z" stroke-opacity="0.8" stroke-linecap="round" stroke-linejoin="round" stroke-miterlimit="10" stroke-width="2.5"/><path fill="none" stroke="rgb(255,153,0)" paint-order="fill stroke markers" d=" M 358.47327369685297 665.5640500423175 C 358.47327369685297 695.2822261398485 334.38193195664553 719.3735678800559 304.66375585911453 719.3735678800559 C 274.94557976158353 719.3735678800559 250.8542380213761 695.2822261398485 250.8542380213761 665.5640500423175 C 250.8542380213761 635.8458739447866 274.94557976158353 611.7545322045792 304.66375585911453 611.7545322045792 C 334.38193195664553 611.7545322045792 358.47327369685297 635.8458739447866 358.47327369685297 665.5640500423175 Z" stroke-opacity="0.8" stroke-linecap="round" stroke-linejoin="round" stroke-miterlimit="10" stroke-width="2.5"/><path fill="none" stroke="rgb(255,153,0)" paint-order="fill stroke markers" d=" M 358.41582990049505 572.3632489191514 C 358.41582990049505 602.0814250166824 334.3244881602876 626.1727667568898 304.6063120627566 626.1727667568898 C 274.8881359652256 626.1727667568898 250.79679422501817 602.0814250166824 250.79679422501817 572.3632489191514 C 250.79679422501817 542.6450728216205 274.8881359652256 518.553731081413 304.6063120627566 518.553731081413 C 334.3244881602876 518.553731081413 358.41582990049505 542.6450728216205 358.41582990049505 572.3632489191514 Z" stroke-opacity="0.8" stroke-linecap="round" stroke-linejoin="round" stroke-miterlimit="10" stroke-width="2.5"/><path fill="none" stroke="rgb(255,153,0)" paint-order="fill stroke markers" d=" M 358.358386104137 479.1624477959859 C 358.358386104137 508.8806238935168 334.2670443639296 532.9719656337243 304.5488682663986 532.9719656337243 C 274.8306921688676 532.9719656337243 250.73935042866015 508.8806238935168 250.73935042866015 479.1624477959859 C 250.73935042866015 449.44427169845494 274.8306921688676 425.3529299582475 304.5488682663986 425.3529299582475 C 334.2670443639296 425.3529299582475 358.358386104137 449.44427169845494 358.358386104137 479.1624477959859 Z" stroke-opacity="0.8" stroke-linecap="round" stroke-linejoin="round" stroke-miterlimit="10" stroke-width="2.5"/><path fill="none" stroke="rgb(255,153,0)" paint-order="fill stroke markers" d=" M 358.30094230777894 385.9616466728199 C 358.30094230777894 415.6798227703508 334.2096005675715 439.77116451055826 304.4914244700405 439.77116451055826 C 274.7732483725095 439.77116451055826 250.68190663230206 415.6798227703508 250.68190663230206 385.9616466728199 C 250.68190663230206 356.24347057528894 274.7732483725095 332.1521288350815 304.4914244700405 332.1521288350815 C 334.2096005675715 332.1521288350815 358.30094230777894 356.24347057528894 358.30094230777894 385.9616466728199 Z" stroke-opacity="0.8" stroke-linecap="round" stroke-linejoin="round" stroke-miterlimit="10" stroke-width="2.5"/><path fill="none" stroke="rgb(0,153,255)" paint-order="fill stroke markers" d=" M 762.0158691478789 618.7480757373459 C 762.0158691478789 678.1844279324077 713.8331856674639 726.3671114128226 654.3968334724019 726.3671114128226 C 594.9604812773399 726.3671114128226 546.777797796925 678.1844279324077 546.777797796925 618.7480757373459 C 546.777797796925 559.311723542284 594.9604812773399 511.1290400618691 654.3968334724019 511.1290400618691 C 713.8331856674639 511.1290400618691 762.0158691478789 559.311723542284 762.0158691478789 618.7480757373459 Z" stroke-opacity="0.8" stroke-linecap="round" stroke-linejoin="round" stroke-miterlimit="10" stroke-width="2.5"/><path fill="none" stroke="rgb(255,153,0)" paint-order="fill stroke markers" d=" M 654.3968436929916 618.7812409286365 C 654.3968436929916 648.4994170261675 630.3055019527842 672.590758766375 600.5873258552532 672.590758766375 C 570.8691497577222 672.590758766375 546.7778080175148 648.4994170261675 546.7778080175148 618.7812409286365 C 546.7778080175148 589.0630648311056 570.8691497577222 564.9717230908982 600.5873258552532 564.9717230908982 C 630.3055019527842 564.9717230908982 654.3968436929916 589.0630648311056 654.3968436929916 618.7812409286365 Z" stroke-opacity="0.8" stroke-linecap="round" stroke-linejoin="round" stroke-miterlimit="10" stroke-width="2.5"/><path fill="none" stroke="rgb(255,153,0)" paint-order="fill stroke markers" d=" M 573.7113041654476 665.4313892771553 C 573.7113041654476 695.1495653746863 549.6199624252401 719.2409071148937 519.9017863277091 719.2409071148937 C 490.18361023017815 719.2409071148937 466.0922684899707 695.1495653746863 466.0922684899707 665.4313892771553 C 466.0922684899707 635.7132131796244 490.18361023017815 611.621871439417 519.9017863277091 611.621871439417 C 549.6199624252401 611.621871439417 573.7113041654476 635.7132131796244 573.7113041654476 665.4313892771553 Z" stroke-opacity="0.8" stroke-linecap="round" stroke-linejoin="round" stroke-miterlimit="10" stroke-width="2.5"/><path fill="none" stroke="rgb(255,153,0)" paint-order="fill stroke markers" d=" M 735.1398270168937 665.3318937032835 C 735.1398270168937 695.0500698008145 711.0484852766863 719.141411541022 681.3303091791553 719.141411541022 C 651.6121330816243 719.141411541022 627.5207913414168 695.0500698008145 627.5207913414168 665.3318937032835 C 627.5207913414168 635.6137176057526 651.6121330816243 611.5223758655452 681.3303091791553 611.5223758655452 C 711.0484852766863 611.5223758655452 735.1398270168937 635.6137176057526 735.1398270168937 665.3318937032835 Z" stroke-opacity="0.8" stroke-linecap="round" stroke-linejoin="round" stroke-miterlimit="10" stroke-width="2.5"/><path fill="none" stroke="rgb(255,153,0)" paint-order="fill stroke markers" d=" M 735.0823832205358 572.1310925801179 C 735.0823832205358 601.8492686776489 710.9910414803284 625.9406104178563 681.2728653827974 625.9406104178563 C 651.5546892852664 625.9406104178563 627.4633475450589 601.8492686776489 627.4633475450589 572.1310925801179 C 627.4633475450589 542.412916482587 651.5546892852664 518.3215747423795 681.2728653827974 518.3215747423795 C 710.9910414803284 518.3215747423795 735.0823832205358 542.412916482587 735.0823832205358 572.1310925801179 Z" stroke-opacity="0.8" stroke-linecap="round" stroke-linejoin="round" stroke-miterlimit="10" stroke-width="2.5"/><path fill="none" stroke="rgb(255,153,0)" paint-order="fill stroke markers" d=" M 735.0249394241775 478.93029145695164 C 735.0249394241775 508.6484675544826 710.9335976839701 532.73980929469 681.2154215864391 532.73980929469 C 651.4972454889081 532.73980929469 627.4059037487007 508.6484675544826 627.4059037487007 478.93029145695164 C 627.4059037487007 449.2121153594207 651.4972454889081 425.12077361921325 681.2154215864391 425.12077361921325 C 710.9335976839701 425.12077361921325 735.0249394241775 449.2121153594207 735.0249394241775 478.93029145695164 Z" stroke-opacity="0.8" stroke-linecap="round" stroke-linejoin="round" stroke-miterlimit="10" stroke-width="2.5"/><path fill="none" stroke="rgb(97,97,97)" paint-order="fill stroke markers" d=" M 557.4058005970741 432.41280387359524 C 557.4058005970741 438.34592711732654 552.59605388912 443.15567382528064 546.6629306453885 443.15567382528064 C 540.7298074016572 443.15567382528064 535.9200606937031 438.34592711732654 535.9200606937031 432.41280387359524 C 535.9200606937031 426.4796806298639 540.7298074016572 421.6699339219098 546.6629306453885 421.6699339219098 C 552.59605388912 421.6699339219098 557.4058005970741 426.4796806298639 557.4058005970741 432.41280387359524 Z" stroke-opacity="0.8" stroke-linecap="round" stroke-linejoin="round" stroke-miterlimit="10" stroke-width="2.5"/><path fill="none" stroke="rgb(97,97,97)" paint-order="fill stroke markers" d=" M 503.6537367762833 525.6467701880517 C 503.6537367762833 531.5798934317831 498.8439900683292 536.3896401397373 492.91086682459786 536.3896401397373 C 486.9777435808665 536.3896401397373 482.1679968729124 531.5798934317831 482.1679968729124 525.6467701880517 C 482.1679968729124 519.7136469443204 486.9777435808665 514.9039002363663 492.91086682459786 514.9039002363663 C 498.8439900683292 514.9039002363663 503.6537367762833 519.7136469443204 503.6537367762833 525.6467701880517 Z" stroke-opacity="0.8" stroke-linecap="round" stroke-linejoin="round" stroke-miterlimit="10" stroke-width="2.5"/><path fill="none" stroke="rgb(97,97,97)" paint-order="fill stroke markers" d=" M 449.78678536277664 432.4791342561764 C 449.78678536277664 438.4122574999077 444.97703865482254 443.2220042078618 439.0439154110912 443.2220042078618 C 433.1107921673598 443.2220042078618 428.3010454594057 438.4122574999077 428.3010454594057 432.4791342561764 C 428.3010454594057 426.54601101244504 433.1107921673598 421.73626430449093 439.0439154110912 421.73626430449093 C 444.97703865482254 421.73626430449093 449.78678536277664 426.54601101244504 449.78678536277664 432.4791342561764 Z" stroke-opacity="0.8" stroke-linecap="round" stroke-linejoin="round" stroke-miterlimit="10" stroke-width="2.5"/><path fill="none" stroke="rgb(97,97,97)" paint-order="fill stroke markers" d=" M 396.03472154198596 525.7131005706328 C 396.03472154198596 531.6462238143642 391.22497483403185 536.4559705223184 385.2918515903005 536.4559705223184 C 379.35872834656914 536.4559705223184 374.54898163861503 531.6462238143642 374.54898163861503 525.7131005706328 C 374.54898163861503 519.7799773269015 379.35872834656914 514.9702306189474 385.2918515903005 514.9702306189474 C 391.22497483403185 514.9702306189474 396.03472154198596 519.7799773269015 396.03472154198596 525.7131005706328 Z" stroke-opacity="0.8" stroke-linecap="round" stroke-linejoin="round" stroke-miterlimit="10" stroke-width="2.5"/><path fill="none" stroke="rgb(97,97,97)" paint-order="fill stroke markers" d=" M 449.9016729554926 618.8807365025082 C 449.9016729554926 624.8138597462396 445.0919262475385 629.6236064541937 439.1588030038071 629.6236064541937 C 433.22567976007576 629.6236064541937 428.41593305212166 624.8138597462396 428.41593305212166 618.8807365025082 C 428.41593305212166 612.9476132587769 433.22567976007576 608.1378665508228 439.1588030038071 608.1378665508228 C 445.0919262475385 608.1378665508228 449.9016729554926 612.9476132587769 449.9016729554926 618.8807365025082 Z" stroke-opacity="0.8" stroke-linecap="round" stroke-linejoin="round" stroke-miterlimit="10" stroke-width="2.5"/><path fill="none" stroke="rgb(97,97,97)" paint-order="fill stroke markers" d=" M 557.52068818979 618.8144061199271 C 557.52068818979 624.7475293636585 552.7109414818359 629.5572760716126 546.7778182381045 629.5572760716126 C 540.8446949943732 629.5572760716126 536.0349482864191 624.7475293636585 536.0349482864191 618.8144061199271 C 536.0349482864191 612.8812828761958 540.8446949943732 608.0715361682417 546.7778182381045 608.0715361682417 C 552.7109414818359 608.0715361682417 557.52068818979 612.8812828761958 557.52068818979 618.8144061199271 Z" stroke-opacity="0.8" stroke-linecap="round" stroke-linejoin="round" stroke-miterlimit="10" stroke-width="2.5"/><path fill="none" stroke="rgb(97,97,97)" paint-order="fill stroke markers" d=" M 611.2727520105807 525.5804398054705 C 611.2727520105807 531.5135630492019 606.4630053026266 536.323309757156 600.5298820588952 536.323309757156 C 594.5967588151639 536.323309757156 589.7870121072098 531.5135630492019 589.7870121072098 525.5804398054705 C 589.7870121072098 519.6473165617392 594.5967588151639 514.8375698537851 600.5298820588952 514.8375698537851 C 606.4630053026266 514.8375698537851 611.2727520105807 519.6473165617392 611.2727520105807 525.5804398054705 Z" stroke-opacity="0.8" stroke-linecap="round" stroke-linejoin="round" stroke-miterlimit="10" stroke-width="2.5"/><path fill="none" stroke="rgb(97,97,97)" paint-order="fill stroke markers" d=" M 342.1677701284793 432.5454646387575 C 342.1677701284793 438.4785878824888 337.35802342052517 443.2883345904429 331.4249001767938 443.2883345904429 C 325.49177693306245 443.2883345904429 320.68203022510835 438.4785878824888 320.68203022510835 432.5454646387575 C 320.68203022510835 426.61234139502614 325.49177693306245 421.80259468707203 331.4249001767938 421.80259468707203 C 337.35802342052517 421.80259468707203 342.1677701284793 426.61234139502614 342.1677701284793 432.5454646387575 Z" stroke-opacity="0.8" stroke-linecap="round" stroke-linejoin="round" stroke-miterlimit="10" stroke-width="2.5"/><path fill="none" stroke="rgb(97,97,97)" paint-order="fill stroke markers" d=" M 342.2826577211954 618.9470668850893 C 342.2826577211954 624.8801901288207 337.4729110132413 629.6899368367748 331.5397877695099 629.6899368367748 C 325.60666452577857 629.6899368367748 320.79691781782446 624.8801901288207 320.79691781782446 618.9470668850893 C 320.79691781782446 613.013943641358 325.60666452577857 608.2041969334039 331.5397877695099 608.2041969334039 C 337.4729110132413 608.2041969334039 342.2826577211954 613.013943641358 342.2826577211954 618.9470668850893 Z" stroke-opacity="0.8" stroke-linecap="round" stroke-linejoin="round" stroke-miterlimit="10" stroke-width="2.5"/><path fill="none" stroke="rgb(97,97,97)" paint-order="fill stroke markers" d=" M 665.1397034240874 618.7480757373459 C 665.1397034240874 624.6811989810773 660.3299567161333 629.4909456890314 654.3968334724019 629.4909456890314 C 648.4637102286706 629.4909456890314 643.6539635207165 624.6811989810773 643.6539635207165 618.7480757373459 C 643.6539635207165 612.8149524936146 648.4637102286706 608.0052057856605 654.3968334724019 608.0052057856605 C 660.3299567161333 608.0052057856605 665.1397034240874 612.8149524936146 665.1397034240874 618.7480757373459 Z" stroke-opacity="0.8" stroke-linecap="round" stroke-linejoin="round" stroke-miterlimit="10" stroke-width="2.5"/><path fill="none" stroke="rgb(97,97,97)" paint-order="fill stroke markers" d=" M 665.0248158313713 432.3464734910142 C 665.0248158313713 438.2795967347455 660.2150691234172 443.0893434426996 654.2819458796857 443.0893434426996 C 648.3488226359544 443.0893434426996 643.5390759280003 438.2795967347455 643.5390759280003 432.3464734910142 C 643.5390759280003 426.41335024728284 648.3488226359544 421.60360353932873 654.2819458796857 421.60360353932873 C 660.2150691234172 421.60360353932873 665.0248158313713 426.41335024728284 665.0248158313713 432.3464734910142 Z" stroke-opacity="0.8" stroke-linecap="round" stroke-linejoin="round" stroke-miterlimit="10" stroke-width="2.5"/></g></g></svg>