<svg version="1.1" xmlns="http://www.w3.org/2000/svg" xmlns:xlink="http://www.w3.org/1999/xlink" width="1524" height="978"><defs><clipPath id="RWhglgKLaCpq"><path fill="none" stroke="none" d=" M 0 0 L 1524 0 L 1524 978 L 0 978 L 0 0 Z"/></clipPath></defs><g transform="scale(1,1)" clip-path="url(#RWhglgKLaCpq)"><g><rect fill="rgb(255,255,255)" stroke="none" x="0" y="0" width="1524" height="978" fill-opacity="1"/><path fill="none" stroke="rgb(0,153,255)" paint-order="fill stroke markers" d=" M 782.6341215777522 355.8859617220004 C 782.6341215777522 449.12976849592906 707.0450811609958 524.7188089126865 613.8012743870686 524.7188089126865 C 520.5574676131413 524.7188089126865 444.96842719638494 449.12976849592906 444.96842719638494 355.8859617220004 C 444.96842719638494 262.6421549480717 520.5574676131413 187.05311453131426 613.8012743870686 187.05311453131426 C 707.0450811609958 187.05311453131426 782.6341215777522 262.6421549480717 782.6341215777522 355.8859617220004 Z" stroke-opacity="0.8" stroke-linecap="round" stroke-linejoin="round" stroke-miterlimit="10" stroke-width="2.5"/><path fill="none" stroke="rgb(0,153,255)" paint-order="fill stroke markers" d=" M 613.8012743870686 355.8859617220004 C 613.8012743870686 449.12976849592906 538.2122339703121 524.7188089126865 444.96842719638494 524.7188089126865 C 351.72462042245763 524.7188089126865 276.1355800057013 449.12976849592906 276.1355800057013 355.8859617220004 C 276.1355800057013 262.6421549480717 351.72462042245763 187.05311453131424 444.96842719638494 187.05311453131424 C 538.2122339703121 187.05311453131424 613.8012743870686 262.6421549480717 613.8012743870686 355.8859617220004 Z" stroke-opacity="0.8" stroke-linecap="round" stroke-linejoin="round" stroke-miterlimit="10" stroke-width="2.5"/><path fill="none" stroke="rgb(0,153,255)" paint-order="fill stroke markers" d=" M 529.3848507917268 502.09949638239084 C 529.3848507917268 595.3433031563195 453.7958103749703 670.9323435730769 360.5520036010431 670.9323435730769 C 267.30819682711586 670.9323435730769 191.7191564103595 595.3433031563195 191.7191564103595 502.09949638239084 C 191.7191564103595 408.85568960846217 267.30819682711586 333.2666491917047 360.5520036010431 333.2666491917047 C 453.7958103749703 333.2666491917047 529.3848507917268 408.85568960846217 529.3848507917268 502.09949638239084 Z" stroke-opacity="0.8" stroke-linecap="round" stroke-linejoin="round" stroke-miterlimit="10" stroke-width="2.5"/><path fill="none" stroke="rgb(0,153,255)" paint-order="fill stroke markers" d=" M 867.0505451730941 502.0994963823908 C 867.0505451730941 595.3433031563195 791.4615047563377 670.9323435730769 698.2176979824104 670.9323435730769 C 604.9738912084831 670.9323435730769 529.3848507917268 595.3433031563195 529.3848507917268 502.0994963823908 C 529.3848507917268 408.8556896084621 604.9738912084831 333.26664919170463 698.2176979824104 333.26664919170463 C 791.4615047563377 333.26664919170463 867.0505451730941 408.8556896084621 867.0505451730941 502.0994963823908 Z" stroke-opacity="0.8" stroke-linecap="round" stroke-linejoin="round" stroke-miterlimit="10" stroke-width="2.5"/><path fill="none" stroke="rgb(0,153,255)" paint-order="fill stroke markers" d=" M 613.8012743870686 648.3130310427812 C 613.8012743870686 741.5568378167098 538.2122339703121 817.1458782334673 444.9684271963849 817.1458782334673 C 351.72462042245763 817.1458782334673 276.13558000570123 741.5568378167098 276.13558000570123 648.3130310427812 C 276.13558000570123 555.0692242688525 351.72462042245763 479.480183852095 444.9684271963849 479.480183852095 C 538.2122339703121 479.480183852095 613.8012743870686 555.0692242688525 613.8012743870686 648.3130310427812 Z" stroke-opacity="0.8" stroke-linecap="round" stroke-linejoin="round" stroke-miterlimit="10" stroke-width="2.5"/><path fill="none" stroke="rgb(0,153,255)" paint-order="fill stroke markers" d=" M 782.6341215777522 648.3130310427812 C 782.6341215777522 741.5568378167097 707.0450811609958 817.1458782334673 613.8012743870686 817.1458782334673 C 520.5574676131413 817.1458782334673 444.96842719638494 741.5568378167097 444.96842719638494 648.3130310427812 C 444.96842719638494 555.0692242688525 520.5574676131413 479.480183852095 613.8012743870686 479.480183852095 C 707.0450811609958 479.480183852095 782.6341215777522 555.0692242688525 782.6341215777522 648.3130310427812 Z" stroke-opacity="0.8" stroke-linecap="round" stroke-linejoin="round" stroke-miterlimit="10" stroke-width="2.5"/><path fill="none" stroke="rgb(0,153,255)" paint-order="fill stroke markers" d=" M 529.3848507917266 502.0994963823907 C 529.3848507917266 595.3433031563194 453.7958103749703 670.9323435730769 360.55200360104305 670.9323435730769 C 267.3081968271158 670.9323435730769 191.7191564103594 595.3433031563194 191.7191564103594 502.0994963823907 C 191.7191564103594 408.85568960846206 267.3081968271158 333.2666491917046 360.55200360104305 333.2666491917046 C 453.7958103749703 333.2666491917046 529.3848507917266 408.85568960846206 529.3848507917266 502.0994963823907 Z" stroke-opacity="0.8" stroke-linecap="round" stroke-linejoin="round" stroke-miterlimit="10" stroke-width="2.5"/><path fill="none" stroke="rgb(0,153,255)" paint-order="fill stroke markers" d=" M 951.4669687684359 355.88596172200033 C 951.4669687684359 449.129768495929 875.8779283516794 524.7188089126864 782.6341215777522 524.7188089126864 C 689.3903148038249 524.7188089126864 613.8012743870686 449.129768495929 613.8012743870686 355.88596172200033 C 613.8012743870686 262.64215494807166 689.3903148038249 187.05311453131418 782.6341215777522 187.05311453131418 C 875.8779283516794 187.05311453131418 951.4669687684359 262.64215494807166 951.4669687684359 355.88596172200033 Z" stroke-opacity="0.8" stroke-linecap="round" stroke-linejoin="round" stroke-miterlimit="10" stroke-width="2.5"/><path fill="none" stroke="rgb(0,153,255)" paint-order="fill stroke markers" d=" M 444.96842719638505 355.88596172200016 C 444.96842719638505 449.12976849592883 369.37938677962865 524.7188089126863 276.1355800057014 524.7188089126863 C 182.89177323177412 524.7188089126863 107.30273281501775 449.12976849592883 107.30273281501775 355.88596172200016 C 107.30273281501775 262.6421549480715 182.89177323177412 187.053114531314 276.1355800057014 187.053114531314 C 369.37938677962865 187.053114531314 444.96842719638505 262.6421549480715 444.96842719638505 355.88596172200016 Z" stroke-opacity="0.8" stroke-linecap="round" stroke-linejoin="round" stroke-miterlimit="10" stroke-width="2.5"/><path fill="none" stroke="rgb(0,153,255)" paint-order="fill stroke markers" d=" M 951.4669687684359 648.3130310427812 C 951.4669687684359 741.5568378167098 875.8779283516794 817.1458782334673 782.6341215777522 817.1458782334673 C 689.3903148038249 817.1458782334673 613.8012743870686 741.5568378167098 613.8012743870686 648.3130310427812 C 613.8012743870686 555.0692242688525 689.3903148038249 479.480183852095 782.6341215777522 479.480183852095 C 875.8779283516794 479.480183852095 951.4669687684359 555.0692242688525 951.4669687684359 648.3130310427812 Z" stroke-opacity="0.8" stroke-linecap="round" stroke-linejoin="round" stroke-miterlimit="10" stroke-width="2.5"/><path fill="none" stroke="rgb(0,153,255)" paint-order="fill stroke markers" d=" M 107.30273281501736 648.3130310427811 C 178.25923209932526 689.2797850053305 268.3867771043313 673.3878671159314 321.0526208167379 610.623158664665 C 373.7184645291444 547.8584502133984 373.71846452914446 456.34054255138386 321.05262081673806 393.5758341001173 C 268.3867771043317 330.81112564885075 178.2592320993257 314.91920775945135 107.3027328150177 355.8859617220006" stroke-opacity="0.8" stroke-linecap="round" stroke-linejoin="round" stroke-miterlimit="10" stroke-width="2.5"/><path fill="none" stroke="rgb(0,153,255)" paint-order="fill stroke markers" d=" M 107.30273281501752 355.8859617220005 C 163.06577229204188 388.08076757489243 232.2860079209418 385.7544617632044 285.7617060331895 349.8884359584216 C 339.23740414543727 314.02241015363893 367.6565083013073 250.862238856944 359.02993607254837 187.0531145313142" stroke-opacity="0.8" stroke-linecap="round" stroke-linejoin="round" stroke-miterlimit="10" stroke-width="2.5"/><path fill="none" stroke="rgb(0,153,255)" paint-order="fill stroke markers" d=" M 193.24122393885412 187.05311453131418 C 184.4316768631232 252.21566921714904 214.25662092096124 316.56469970030525 269.67311621389524 351.9593137300143 C 325.08961150682927 387.35392775972326 396.0143956952582 387.3539277597232 451.43089098819223 351.9593137300141 C 506.8473862811262 316.564699700305 536.6723303389642 252.21566921714873 527.862783263233 187.05311453131387" stroke-opacity="0.8" stroke-linecap="round" stroke-linejoin="round" stroke-miterlimit="10" stroke-width="2.5"/><path fill="none" stroke="rgb(0,153,255)" paint-order="fill stroke markers" d=" M 107.30273281501745 524.7188089126867 C 200.54653958894468 524.7188089126868 276.1355800057011 449.1297684959294 276.13558000570123 355.88596172200073 C 276.1355800057013 262.6421549480721 200.54653958894508 187.05311453131458 107.30273281501783 187.05311453131446" stroke-opacity="0.8" stroke-linecap="round" stroke-linejoin="round" stroke-miterlimit="10" stroke-width="2.5"/><path fill="none" stroke="rgb(0,153,255)" paint-order="fill stroke markers" d=" M 107.30273281501744 479.48018385209485 C 200.54653958894465 479.4801838520948 276.13558000570106 555.0692242688522 276.1355800057012 648.3130310427808 C 276.13558000570123 741.5568378167094 200.546539588945 817.145878233467 107.30273281501773 817.1458782334671" stroke-opacity="0.8" stroke-linecap="round" stroke-linejoin="round" stroke-miterlimit="10" stroke-width="2.5"/><path fill="none" stroke="rgb(0,153,255)" paint-order="fill stroke markers" d=" M 107.30273281501754 648.313031042781 C 163.0657722920419 616.118225189889 232.2860079209418 618.444531001577 285.7617060331895 654.3105568063598 C 339.23740414543727 690.1765826111425 367.6565083013073 753.3367539078374 359.02993607254837 817.1458782334672" stroke-opacity="0.8" stroke-linecap="round" stroke-linejoin="round" stroke-miterlimit="10" stroke-width="2.5"/><path fill="none" stroke="rgb(0,153,255)" paint-order="fill stroke markers" d=" M 193.24122393885406 817.1458782334672 C 184.43167686312313 751.9833235476324 214.2566209209612 687.6342930644762 269.67311621389524 652.2396790347672 C 325.08961150682927 616.8450650050582 396.0143956952582 616.8450650050584 451.4308909881922 652.2396790347674 C 506.84738628112615 687.6342930644765 536.6723303389641 751.9833235476328 527.862783263233 817.1458782334677" stroke-opacity="0.8" stroke-linecap="round" stroke-linejoin="round" stroke-miterlimit="10" stroke-width="2.5"/><path fill="none" stroke="rgb(0,153,255)" paint-order="fill stroke markers" d=" M 865.5284776445994 187.05311453131424 C 874.3380247203304 252.21566921714907 844.5130806624924 316.56469970030525 789.0965853695583 351.9593137300143 C 733.6800900766243 387.3539277597233 662.7553058881954 387.3539277597232 607.3388105952614 351.9593137300142 C 551.9223153023274 316.564699700305 522.0973712444894 252.21566921714873 530.9069183202205 187.05311453131387" stroke-opacity="0.8" stroke-linecap="round" stroke-linejoin="round" stroke-miterlimit="10" stroke-width="2.5"/><path fill="none" stroke="rgb(0,153,255)" paint-order="fill stroke markers" d=" M 951.4669687684359 355.8859617220005 C 895.7039292914116 388.08076757489255 826.4836936625117 385.7544617632044 773.0079955502639 349.8884359584217 C 719.5322974380163 314.02241015363893 691.1131932821461 250.86223885694403 699.739765510905 187.05311453131424" stroke-opacity="0.8" stroke-linecap="round" stroke-linejoin="round" stroke-miterlimit="10" stroke-width="2.5"/><path fill="none" stroke="rgb(0,153,255)" paint-order="fill stroke markers" d=" M 865.5284776445993 817.1458782334673 C 874.3380247203303 751.9833235476324 844.5130806624923 687.6342930644762 789.0965853695582 652.2396790347673 C 733.6800900766242 616.8450650050582 662.7553058881953 616.8450650050584 607.3388105952613 652.2396790347674 C 551.9223153023273 687.6342930644764 522.0973712444893 751.9833235476328 530.9069183202204 817.1458782334677" stroke-opacity="0.8" stroke-linecap="round" stroke-linejoin="round" stroke-miterlimit="10" stroke-width="2.5"/><path fill="none" stroke="rgb(0,153,255)" paint-order="fill stroke markers" d=" M 951.466968768436 479.48018385209485 C 858.2231619945088 479.4801838520948 782.6341215777525 555.0692242688522 782.6341215777522 648.3130310427807 C 782.6341215777522 741.5568378167094 858.2231619945085 817.1458782334669 951.4669687684357 817.1458782334671" stroke-opacity="0.8" stroke-linecap="round" stroke-linejoin="round" stroke-miterlimit="10" stroke-width="2.5"/><path fill="none" stroke="rgb(0,153,255)" paint-order="fill stroke markers" d=" M 951.4669687684359 648.3130310427811 C 895.7039292914116 616.118225189889 826.4836936625117 618.4445310015772 773.0079955502639 654.31055680636 C 719.5322974380163 690.1765826111426 691.1131932821461 753.3367539078375 699.739765510905 817.1458782334673" stroke-opacity="0.8" stroke-linecap="round" stroke-linejoin="round" stroke-miterlimit="10" stroke-width="2.5"/><path fill="none" stroke="rgb(0,153,255)" paint-order="fill stroke markers" d=" M 951.4669687684361 648.3130310427811 C 880.5104694841282 689.2797850053305 790.3829244791222 673.3878671159314 737.7170807667156 610.6231586646649 C 685.0512370543091 547.8584502133984 685.051237054309 456.34054255138386 737.7170807667154 393.5758341001173 C 790.3829244791218 330.81112564885075 880.5104694841278 314.91920775945135 951.4669687684358 355.8859617220006" stroke-opacity="0.8" stroke-linecap="round" stroke-linejoin="round" stroke-miterlimit="10" stroke-width="2.5"/><path fill="none" stroke="rgb(0,153,255)" paint-order="fill stroke markers" d=" M 951.466968768436 524.7188089126867 C 858.2231619945088 524.7188089126868 782.6341215777525 449.1297684959294 782.6341215777522 355.8859617220008 C 782.6341215777522 262.6421549480722 858.2231619945085 187.05311453131463 951.4669687684357 187.05311453131452" stroke-opacity="0.8" stroke-linecap="round" stroke-linejoin="round" stroke-miterlimit="10" stroke-width="2.5"/><path fill="none" stroke="rgb(0,153,255)" paint-order="fill stroke markers" d=" M 444.96842719638505 648.3130310427811 C 385.64536411436245 682.5632174823404 352.8967613324427 749.2630522060656 362.07407112953797 817.1458782334671" stroke-opacity="0.8" stroke-linecap="round" stroke-linejoin="round" stroke-miterlimit="10" stroke-width="2.5"/><path fill="none" stroke="rgb(0,153,255)" paint-order="fill stroke markers" d=" M 613.8012743870684 648.3130310427811 C 673.124337469091 682.5632174823404 705.8729402510107 749.2630522060656 696.6956304539154 817.1458782334671" stroke-opacity="0.8" stroke-linecap="round" stroke-linejoin="round" stroke-miterlimit="10" stroke-width="2.5"/><path fill="none" stroke="rgb(0,153,255)" paint-order="fill stroke markers" d=" M 444.96842719638516 355.8859617220005 C 385.64536411436256 321.63577528244116 352.8967613324428 254.93594055871588 362.0740711295381 187.05311453131446" stroke-opacity="0.8" stroke-linecap="round" stroke-linejoin="round" stroke-miterlimit="10" stroke-width="2.5"/><path fill="none" stroke="rgb(0,153,255)" paint-order="fill stroke markers" d=" M 613.8012743870685 355.8859617220005 C 673.1243374690911 321.63577528244116 705.8729402510108 254.93594055871597 696.6956304539156 187.05311453131452" stroke-opacity="0.8" stroke-linecap="round" stroke-linejoin="round" stroke-miterlimit="10" stroke-width="2.5"/><path fill="none" stroke="rgb(0,153,255)" paint-order="fill stroke markers" d=" M 444.9684271963849 355.8859617220004 C 392.7313624833836 386.04504509572814 360.5520036010431 441.78132963493556 360.5520036010431 502.0994963823909 C 360.5520036010431 562.4176631298462 392.7313624833837 618.1539476690537 444.968427196385 648.3130310427813" stroke-opacity="0.8" stroke-linecap="round" stroke-linejoin="round" stroke-miterlimit="10" stroke-width="2.5"/><path fill="none" stroke="rgb(0,153,255)" paint-order="fill stroke markers" d=" M 613.8012743870686 355.8859617220004 C 666.0383391000701 386.04504509572814 698.2176979824104 441.78132963493556 698.2176979824104 502.0994963823909 C 698.2176979824104 562.4176631298462 666.0383391000698 618.1539476690537 613.8012743870685 648.3130310427813" stroke-opacity="0.8" stroke-linecap="round" stroke-linejoin="round" stroke-miterlimit="10" stroke-width="2.5"/><path fill="none" stroke="rgb(255,153,0)" paint-order="fill stroke markers" d=" M 782.6341215777522 355.88596172200033 C 782.6341215777522 402.50786510896467 744.8396013693741 440.30238531734346 698.2176979824104 440.30238531734346 C 651.5957945954468 440.30238531734346 613.8012743870686 402.50786510896467 613.8012743870686 355.88596172200033 C 613.8012743870686 309.264058335036 651.5957945954468 271.46953812665726 698.2176979824104 271.46953812665726 C 744.8396013693741 271.46953812665726 782.6341215777522 309.264058335036 782.6341215777522 355.88596172200033 Z" stroke-opacity="0.8" stroke-linecap="round" stroke-linejoin="round" stroke-miterlimit="10" stroke-width="2.5"/><path fill="none" stroke="rgb(255,153,0)" paint-order="fill stroke markers" d=" M 656.0094861847394 575.206263712586 C 656.0094861847394 621.8281670995502 618.2149659763613 659.622687307929 571.5930625893976 659.622687307929 C 524.971159202434 659.622687307929 487.1766389940558 621.8281670995502 487.1766389940558 575.206263712586 C 487.1766389940558 528.5843603256217 524.971159202434 490.7898401172429 571.5930625893976 490.7898401172429 C 618.2149659763613 490.7898401172429 656.0094861847394 528.5843603256217 656.0094861847394 575.206263712586 Z" stroke-opacity="0.8" stroke-linecap="round" stroke-linejoin="round" stroke-miterlimit="10" stroke-width="2.5"/><path fill="none" stroke="rgb(255,153,0)" paint-order="fill stroke markers" d=" M 656.0094861847394 282.77919439180516 C 656.0094861847394 329.4010977787695 618.2149659763613 367.19561798714824 571.5930625893976 367.19561798714824 C 524.971159202434 367.19561798714824 487.1766389940558 329.4010977787695 487.1766389940558 282.77919439180516 C 487.1766389940558 236.15729100484083 524.971159202434 198.3627707964621 571.5930625893976 198.3627707964621 C 618.2149659763613 198.3627707964621 656.0094861847394 236.15729100484083 656.0094861847394 282.77919439180516 Z" stroke-opacity="0.8" stroke-linecap="round" stroke-linejoin="round" stroke-miterlimit="10" stroke-width="2.5"/><path fill="none" stroke="rgb(255,153,0)" paint-order="fill stroke markers" d=" M 529.3848507917268 502.0994963823907 C 529.3848507917268 548.721399769355 491.5903305833486 586.5159199777338 444.96842719638494 586.5159199777338 C 398.3465238094213 586.5159199777338 360.5520036010431 548.721399769355 360.5520036010431 502.0994963823907 C 360.5520036010431 455.4775929954264 398.3465238094213 417.68307278704765 444.96842719638494 417.68307278704765 C 491.5903305833486 417.68307278704765 529.3848507917268 455.4775929954264 529.3848507917268 502.0994963823907 Z" stroke-opacity="0.8" stroke-linecap="round" stroke-linejoin="round" stroke-miterlimit="10" stroke-width="2.5"/><path fill="none" stroke="rgb(255,153,0)" paint-order="fill stroke markers" d=" M 402.7602153987141 428.9927290521955 C 402.7602153987141 475.61463243915983 364.9656951903359 513.4091526475386 318.34379180337226 513.4091526475386 C 271.7218884164086 513.4091526475386 233.92736820803043 475.61463243915983 233.92736820803043 428.9927290521955 C 233.92736820803043 382.37082566523117 271.7218884164086 344.5763054568524 318.34379180337226 344.5763054568524 C 364.9656951903359 344.5763054568524 402.7602153987141 382.37082566523117 402.7602153987141 428.9927290521955 Z" stroke-opacity="0.8" stroke-linecap="round" stroke-linejoin="round" stroke-miterlimit="10" stroke-width="2.5"/><path fill="none" stroke="rgb(255,153,0)" paint-order="fill stroke markers" d=" M 402.7602153987141 282.7791943918053 C 402.7602153987141 329.4010977787696 364.9656951903359 367.19561798714835 318.34379180337226 367.19561798714835 C 271.7218884164086 367.19561798714835 233.92736820803043 329.4010977787696 233.92736820803043 282.7791943918053 C 233.92736820803043 236.15729100484094 271.7218884164086 198.3627707964622 318.34379180337226 198.3627707964622 C 364.9656951903359 198.3627707964622 402.7602153987141 236.15729100484094 402.7602153987141 282.7791943918053 Z" stroke-opacity="0.8" stroke-linecap="round" stroke-linejoin="round" stroke-miterlimit="10" stroke-width="2.5"/><path fill="none" stroke="rgb(255,153,0)" paint-order="fill stroke markers" d=" M 402.7602153987141 575.206263712586 C 402.7602153987141 621.8281670995502 364.96569519033585 659.622687307929 318.3437918033722 659.622687307929 C 271.72188841640855 659.622687307929 233.92736820803037 621.8281670995502 233.92736820803037 575.206263712586 C 233.92736820803037 528.5843603256217 271.72188841640855 490.7898401172429 318.3437918033722 490.7898401172429 C 364.96569519033585 490.7898401172429 402.7602153987141 528.5843603256217 402.7602153987141 575.206263712586 Z" stroke-opacity="0.8" stroke-linecap="round" stroke-linejoin="round" stroke-miterlimit="10" stroke-width="2.5"/><path fill="none" stroke="rgb(255,153,0)" paint-order="fill stroke markers" d=" M 402.7602153987141 721.4197983729763 C 402.7602153987141 768.0417017599407 364.96569519033585 805.8362219683194 318.3437918033722 805.8362219683194 C 271.72188841640855 805.8362219683194 233.92736820803037 768.0417017599407 233.92736820803037 721.4197983729763 C 233.92736820803037 674.797894986012 271.72188841640855 637.0033747776332 318.3437918033722 637.0033747776332 C 364.96569519033585 637.0033747776332 402.7602153987141 674.797894986012 402.7602153987141 721.4197983729763 Z" stroke-opacity="0.8" stroke-linecap="round" stroke-linejoin="round" stroke-miterlimit="10" stroke-width="2.5"/><path fill="none" stroke="rgb(255,153,0)" paint-order="fill stroke markers" d=" M 276.1355800057015 648.3130310427812 C 276.1355800057015 694.9349344297455 238.34105979732328 732.7294546381243 191.71915641035966 732.7294546381243 C 145.097253023396 732.7294546381243 107.30273281501782 694.9349344297455 107.30273281501782 648.3130310427812 C 107.30273281501782 601.6911276558169 145.097253023396 563.8966074474381 191.71915641035966 563.8966074474381 C 238.34105979732328 563.8966074474381 276.1355800057015 601.6911276558169 276.1355800057015 648.3130310427812 Z" stroke-opacity="0.8" stroke-linecap="round" stroke-linejoin="round" stroke-miterlimit="10" stroke-width="2.5"/><path fill="none" stroke="rgb(255,153,0)" paint-order="fill stroke markers" d=" M 909.2587569707649 282.77919439180516 C 909.2587569707649 329.4010977787695 871.4642367623867 367.19561798714824 824.8423333754231 367.19561798714824 C 778.2204299884595 367.19561798714824 740.4259097800813 329.4010977787695 740.4259097800813 282.77919439180516 C 740.4259097800813 236.15729100484083 778.2204299884595 198.3627707964621 824.8423333754231 198.3627707964621 C 871.4642367623867 198.3627707964621 909.2587569707649 236.15729100484083 909.2587569707649 282.77919439180516 Z" stroke-opacity="0.8" stroke-linecap="round" stroke-linejoin="round" stroke-miterlimit="10" stroke-width="2.5"/><path fill="none" stroke="rgb(255,153,0)" paint-order="fill stroke markers" d=" M 487.1766389940559 428.9927290521956 C 487.1766389940559 475.61463243915995 449.38211878567773 513.4091526475387 402.7602153987141 513.4091526475387 C 356.13831201175043 513.4091526475387 318.34379180337226 475.61463243915995 318.34379180337226 428.9927290521956 C 318.34379180337226 382.3708256652313 356.13831201175043 344.57630545685254 402.7602153987141 344.57630545685254 C 449.38211878567773 344.57630545685254 487.1766389940559 382.3708256652313 487.1766389940559 428.9927290521956 Z" stroke-opacity="0.8" stroke-linecap="round" stroke-linejoin="round" stroke-miterlimit="10" stroke-width="2.5"/><path fill="none" stroke="rgb(255,153,0)" paint-order="fill stroke markers" d=" M 656.0094861847394 428.9927290521956 C 656.0094861847394 475.61463243915995 618.2149659763613 513.4091526475387 571.5930625893976 513.4091526475387 C 524.971159202434 513.4091526475387 487.1766389940558 475.61463243915995 487.1766389940558 428.9927290521956 C 487.1766389940558 382.3708256652313 524.971159202434 344.57630545685254 571.5930625893976 344.57630545685254 C 618.2149659763613 344.57630545685254 656.0094861847394 382.3708256652313 656.0094861847394 428.9927290521956 Z" stroke-opacity="0.8" stroke-linecap="round" stroke-linejoin="round" stroke-miterlimit="10" stroke-width="2.5"/><path fill="none" stroke="rgb(255,153,0)" paint-order="fill stroke markers" d=" M 571.5930625893977 428.9927290521956 C 571.5930625893977 475.61463243915995 533.7985423810195 513.4091526475387 487.17663899405585 513.4091526475387 C 440.5547356070922 513.4091526475387 402.760215398714 475.61463243915995 402.760215398714 428.9927290521956 C 402.760215398714 382.3708256652313 440.5547356070922 344.57630545685254 487.17663899405585 344.57630545685254 C 533.7985423810195 344.57630545685254 571.5930625893977 382.3708256652313 571.5930625893977 428.9927290521956 Z" stroke-opacity="0.8" stroke-linecap="round" stroke-linejoin="round" stroke-miterlimit="10" stroke-width="2.5"/><path fill="none" stroke="rgb(255,153,0)" paint-order="fill stroke markers" d=" M 487.1766389940559 575.2062637125858 C 487.1766389940559 621.8281670995502 449.38211878567773 659.6226873079289 402.7602153987141 659.6226873079289 C 356.13831201175043 659.6226873079289 318.34379180337226 621.8281670995502 318.34379180337226 575.2062637125858 C 318.34379180337226 528.5843603256216 356.13831201175043 490.78984011724276 402.7602153987141 490.78984011724276 C 449.38211878567773 490.78984011724276 487.1766389940559 528.5843603256216 487.1766389940559 575.2062637125858 Z" stroke-opacity="0.8" stroke-linecap="round" stroke-linejoin="round" stroke-miterlimit="10" stroke-width="2.5"/><path fill="none" stroke="rgb(255,153,0)" paint-order="fill stroke markers" d=" M 571.5930625893977 575.206263712586 C 571.5930625893977 621.8281670995502 533.7985423810195 659.622687307929 487.17663899405585 659.622687307929 C 440.5547356070922 659.622687307929 402.760215398714 621.8281670995502 402.760215398714 575.206263712586 C 402.760215398714 528.5843603256217 440.5547356070922 490.7898401172429 487.17663899405585 490.7898401172429 C 533.7985423810195 490.7898401172429 571.5930625893977 528.5843603256217 571.5930625893977 575.206263712586 Z" stroke-opacity="0.8" stroke-linecap="round" stroke-linejoin="round" stroke-miterlimit="10" stroke-width="2.5"/><path fill="none" stroke="rgb(255,153,0)" paint-order="fill stroke markers" d=" M 656.0094861847394 575.206263712586 C 656.0094861847394 621.8281670995502 618.2149659763613 659.622687307929 571.5930625893976 659.622687307929 C 524.971159202434 659.622687307929 487.1766389940558 621.8281670995502 487.1766389940558 575.206263712586 C 487.1766389940558 528.5843603256217 524.971159202434 490.7898401172429 571.5930625893976 490.7898401172429 C 618.2149659763613 490.7898401172429 656.0094861847394 528.5843603256217 656.0094861847394 575.206263712586 Z" stroke-opacity="0.8" stroke-linecap="round" stroke-linejoin="round" stroke-miterlimit="10" stroke-width="2.5"/><path fill="none" stroke="rgb(255,153,0)" paint-order="fill stroke markers" d=" M 698.2176979824104 502.0994963823908 C 698.2176979824104 548.7213997693551 660.4231777740322 586.5159199777339 613.8012743870686 586.5159199777339 C 567.179371000105 586.5159199777339 529.3848507917268 548.7213997693551 529.3848507917268 502.0994963823908 C 529.3848507917268 455.47759299542645 567.179371000105 417.6830727870477 613.8012743870686 417.6830727870477 C 660.4231777740322 417.6830727870477 698.2176979824104 455.47759299542645 698.2176979824104 502.0994963823908 Z" stroke-opacity="0.8" stroke-linecap="round" stroke-linejoin="round" stroke-miterlimit="10" stroke-width="2.5"/><path fill="none" stroke="rgb(255,153,0)" paint-order="fill stroke markers" d=" M 824.8423333754232 575.206263712586 C 824.8423333754232 621.8281670995502 787.047813167045 659.622687307929 740.4259097800814 659.622687307929 C 693.8040063931178 659.622687307929 656.0094861847396 621.8281670995502 656.0094861847396 575.206263712586 C 656.0094861847396 528.5843603256217 693.8040063931178 490.7898401172429 740.4259097800814 490.7898401172429 C 787.047813167045 490.7898401172429 824.8423333754232 528.5843603256217 824.8423333754232 575.206263712586 Z" stroke-opacity="0.8" stroke-linecap="round" stroke-linejoin="round" stroke-miterlimit="10" stroke-width="2.5"/><path fill="none" stroke="rgb(255,153,0)" paint-order="fill stroke markers" d=" M 824.8423333754232 428.9927290521956 C 824.8423333754232 475.61463243915995 787.047813167045 513.4091526475387 740.4259097800814 513.4091526475387 C 693.8040063931178 513.4091526475387 656.0094861847396 475.61463243915995 656.0094861847396 428.9927290521956 C 656.0094861847396 382.3708256652313 693.8040063931178 344.57630545685254 740.4259097800814 344.57630545685254 C 787.047813167045 344.57630545685254 824.8423333754232 382.3708256652313 824.8423333754232 428.9927290521956 Z" stroke-opacity="0.8" stroke-linecap="round" stroke-linejoin="round" stroke-miterlimit="10" stroke-width="2.5"/><path fill="none" stroke="rgb(255,153,0)" paint-order="fill stroke markers" d=" M 824.8423333754232 282.77919439180516 C 824.8423333754232 329.4010977787695 787.047813167045 367.19561798714824 740.4259097800814 367.19561798714824 C 693.8040063931178 367.19561798714824 656.0094861847396 329.4010977787695 656.0094861847396 282.77919439180516 C 656.0094861847396 236.15729100484083 693.8040063931178 198.3627707964621 740.4259097800814 198.3627707964621 C 787.047813167045 198.3627707964621 824.8423333754232 236.15729100484083 824.8423333754232 282.77919439180516 Z" stroke-opacity="0.8" stroke-linecap="round" stroke-linejoin="round" stroke-miterlimit="10" stroke-width="2.5"/><path fill="none" stroke="rgb(255,153,0)" paint-order="fill stroke markers" d=" M 951.4669687684358 355.8859617220004 C 951.4669687684358 402.5078651089647 913.6724485600575 440.30238531734346 867.050545173094 440.30238531734346 C 820.4286417861304 440.30238531734346 782.6341215777521 402.5078651089647 782.6341215777521 355.8859617220004 C 782.6341215777521 309.26405833503605 820.4286417861304 271.4695381266573 867.050545173094 271.4695381266573 C 913.6724485600575 271.4695381266573 951.4669687684358 309.26405833503605 951.4669687684358 355.8859617220004 Z" stroke-opacity="0.8" stroke-linecap="round" stroke-linejoin="round" stroke-miterlimit="10" stroke-width="2.5"/><path fill="none" stroke="rgb(255,153,0)" paint-order="fill stroke markers" d=" M 740.4259097800814 282.7791943918052 C 740.4259097800814 329.40109777876955 702.6313895717033 367.19561798714835 656.0094861847396 367.19561798714835 C 609.387582797776 367.19561798714835 571.5930625893977 329.40109777876955 571.5930625893977 282.7791943918052 C 571.5930625893977 236.15729100484089 609.387582797776 198.36277079646214 656.0094861847396 198.36277079646214 C 702.6313895717033 198.36277079646214 740.4259097800814 236.15729100484089 740.4259097800814 282.7791943918052 Z" stroke-opacity="0.8" stroke-linecap="round" stroke-linejoin="round" stroke-miterlimit="10" stroke-width="2.5"/><path fill="none" stroke="rgb(255,153,0)" paint-order="fill stroke markers" d=" M 740.4259097800814 428.99272905219556 C 740.4259097800814 475.6146324391599 702.6313895717033 513.4091526475387 656.0094861847396 513.4091526475387 C 609.387582797776 513.4091526475387 571.5930625893977 475.6146324391599 571.5930625893977 428.99272905219556 C 571.5930625893977 382.3708256652312 609.387582797776 344.5763054568525 656.0094861847396 344.5763054568525 C 702.6313895717033 344.5763054568525 740.4259097800814 382.3708256652312 740.4259097800814 428.99272905219556 Z" stroke-opacity="0.8" stroke-linecap="round" stroke-linejoin="round" stroke-miterlimit="10" stroke-width="2.5"/><path fill="none" stroke="rgb(255,153,0)" paint-order="fill stroke markers" d=" M 867.0505451730941 502.0994963823907 C 867.0505451730941 548.721399769355 829.2560249647158 586.5159199777338 782.6341215777522 586.5159199777338 C 736.0122181907886 586.5159199777338 698.2176979824104 548.721399769355 698.2176979824104 502.0994963823907 C 698.2176979824104 455.4775929954264 736.0122181907886 417.68307278704765 782.6341215777522 417.68307278704765 C 829.2560249647158 417.68307278704765 867.0505451730941 455.4775929954264 867.0505451730941 502.0994963823907 Z" stroke-opacity="0.8" stroke-linecap="round" stroke-linejoin="round" stroke-miterlimit="10" stroke-width="2.5"/><path fill="none" stroke="rgb(255,153,0)" paint-order="fill stroke markers" d=" M 740.4259097800813 575.2062637125861 C 740.4259097800813 621.8281670995505 702.631389571703 659.6226873079291 656.0094861847394 659.6226873079291 C 609.3875827977758 659.6226873079291 571.5930625893976 621.8281670995505 571.5930625893976 575.2062637125861 C 571.5930625893976 528.5843603256218 609.3875827977758 490.789840117243 656.0094861847394 490.789840117243 C 702.631389571703 490.789840117243 740.4259097800813 528.5843603256218 740.4259097800813 575.2062637125861 Z" stroke-opacity="0.8" stroke-linecap="round" stroke-linejoin="round" stroke-miterlimit="10" stroke-width="2.5"/><path fill="none" stroke="rgb(255,153,0)" paint-order="fill stroke markers" d=" M 360.5520036010432 502.0994963823907 C 360.5520036010432 548.721399769355 322.75748339266505 586.5159199777338 276.1355800057014 586.5159199777338 C 229.51367661873778 586.5159199777338 191.71915641035957 548.721399769355 191.71915641035957 502.0994963823907 C 191.71915641035957 455.4775929954264 229.51367661873778 417.68307278704765 276.1355800057014 417.68307278704765 C 322.75748339266505 417.68307278704765 360.5520036010432 455.4775929954264 360.5520036010432 502.0994963823907 Z" stroke-opacity="0.8" stroke-linecap="round" stroke-linejoin="round" stroke-miterlimit="10" stroke-width="2.5"/><path fill="none" stroke="rgb(255,153,0)" paint-order="fill stroke markers" d=" M 276.13558000570134 355.88596172200033 C 276.13558000570134 402.50786510896467 238.3410597973231 440.30238531734346 191.7191564103595 440.30238531734346 C 145.09725302339584 440.30238531734346 107.30273281501765 402.50786510896467 107.30273281501765 355.88596172200033 C 107.30273281501765 309.264058335036 145.09725302339584 271.46953812665726 191.7191564103595 271.46953812665726 C 238.3410597973231 271.46953812665726 276.13558000570134 309.264058335036 276.13558000570134 355.88596172200033 Z" stroke-opacity="0.8" stroke-linecap="round" stroke-linejoin="round" stroke-miterlimit="10" stroke-width="2.5"/><path fill="none" stroke="rgb(255,153,0)" paint-order="fill stroke markers" d=" M 487.1766389940559 282.77919439180516 C 487.1766389940559 329.4010977787695 449.38211878567773 367.19561798714824 402.7602153987141 367.19561798714824 C 356.13831201175043 367.19561798714824 318.34379180337226 329.4010977787695 318.34379180337226 282.77919439180516 C 318.34379180337226 236.15729100484083 356.13831201175043 198.3627707964621 402.7602153987141 198.3627707964621 C 449.38211878567773 198.3627707964621 487.1766389940559 236.15729100484083 487.1766389940559 282.77919439180516 Z" stroke-opacity="0.8" stroke-linecap="round" stroke-linejoin="round" stroke-miterlimit="10" stroke-width="2.5"/><path fill="none" stroke="rgb(255,153,0)" paint-order="fill stroke markers" d=" M 444.96842719638494 355.8859617220004 C 444.96842719638494 402.5078651089647 407.17390698800676 440.30238531734346 360.5520036010431 440.30238531734346 C 313.93010021407946 440.30238531734346 276.1355800057013 402.5078651089647 276.1355800057013 355.8859617220004 C 276.1355800057013 309.26405833503605 313.93010021407946 271.4695381266573 360.5520036010431 271.4695381266573 C 407.17390698800676 271.4695381266573 444.96842719638494 309.26405833503605 444.96842719638494 355.8859617220004 Z" stroke-opacity="0.8" stroke-linecap="round" stroke-linejoin="round" stroke-miterlimit="10" stroke-width="2.5"/><path fill="none" stroke="rgb(255,153,0)" paint-order="fill stroke markers" d=" M 571.5930625893977 282.77919439180516 C 571.5930625893977 329.4010977787695 533.7985423810195 367.19561798714824 487.17663899405585 367.19561798714824 C 440.5547356070922 367.19561798714824 402.760215398714 329.4010977787695 402.760215398714 282.77919439180516 C 402.760215398714 236.15729100484083 440.5547356070922 198.3627707964621 487.17663899405585 198.3627707964621 C 533.7985423810195 198.3627707964621 571.5930625893977 236.15729100484083 571.5930625893977 282.77919439180516 Z" stroke-opacity="0.8" stroke-linecap="round" stroke-linejoin="round" stroke-miterlimit="10" stroke-width="2.5"/><path fill="none" stroke="rgb(255,153,0)" paint-order="fill stroke markers" d=" M 740.4259097800813 721.4197983729764 C 740.4259097800813 768.0417017599407 702.631389571703 805.8362219683195 656.0094861847394 805.8362219683195 C 609.3875827977758 805.8362219683195 571.5930625893976 768.0417017599407 571.5930625893976 721.4197983729764 C 571.5930625893976 674.7978949860121 609.3875827977758 637.0033747776333 656.0094861847394 637.0033747776333 C 702.631389571703 637.0033747776333 740.4259097800813 674.7978949860121 740.4259097800813 721.4197983729764 Z" stroke-opacity="0.8" stroke-linecap="round" stroke-linejoin="round" stroke-miterlimit="10" stroke-width="2.5"/><path fill="none" stroke="rgb(255,153,0)" paint-order="fill stroke markers" d=" M 571.5930625893976 721.4197983729764 C 571.5930625893976 768.0417017599407 533.7985423810194 805.8362219683195 487.1766389940558 805.8362219683195 C 440.55473560709214 805.8362219683195 402.76021539871397 768.0417017599407 402.76021539871397 721.4197983729764 C 402.76021539871397 674.7978949860121 440.55473560709214 637.0033747776333 487.1766389940558 637.0033747776333 C 533.7985423810194 637.0033747776333 571.5930625893976 674.7978949860121 571.5930625893976 721.4197983729764 Z" stroke-opacity="0.8" stroke-linecap="round" stroke-linejoin="round" stroke-miterlimit="10" stroke-width="2.5"/><path fill="none" stroke="rgb(255,153,0)" paint-order="fill stroke markers" d=" M 824.8423333754232 721.4197983729765 C 824.8423333754232 768.0417017599409 787.047813167045 805.8362219683196 740.4259097800814 805.8362219683196 C 693.8040063931178 805.8362219683196 656.0094861847396 768.0417017599409 656.0094861847396 721.4197983729765 C 656.0094861847396 674.7978949860122 693.8040063931178 637.0033747776334 740.4259097800814 637.0033747776334 C 787.047813167045 637.0033747776334 824.8423333754232 674.7978949860122 824.8423333754232 721.4197983729765 Z" stroke-opacity="0.8" stroke-linecap="round" stroke-linejoin="round" stroke-miterlimit="10" stroke-width="2.5"/><path fill="none" stroke="rgb(255,153,0)" paint-order="fill stroke markers" d=" M 951.4669687684358 648.3130310427812 C 951.4669687684358 694.9349344297455 913.6724485600575 732.7294546381243 867.050545173094 732.7294546381243 C 820.4286417861304 732.7294546381243 782.6341215777521 694.9349344297455 782.6341215777521 648.3130310427812 C 782.6341215777521 601.6911276558169 820.4286417861304 563.8966074474381 867.050545173094 563.8966074474381 C 913.6724485600575 563.8966074474381 951.4669687684358 601.6911276558169 951.4669687684358 648.3130310427812 Z" stroke-opacity="0.8" stroke-linecap="round" stroke-linejoin="round" stroke-miterlimit="10" stroke-width="2.5"/><path fill="none" stroke="rgb(255,153,0)" paint-order="fill stroke markers" d=" M 444.96842719638494 648.3130310427812 C 444.96842719638494 694.9349344297455 407.17390698800676 732.7294546381243 360.5520036010431 732.7294546381243 C 313.93010021407946 732.7294546381243 276.1355800057013 694.9349344297455 276.1355800057013 648.3130310427812 C 276.1355800057013 601.6911276558169 313.93010021407946 563.8966074474381 360.5520036010431 563.8966074474381 C 407.17390698800676 563.8966074474381 444.96842719638494 601.6911276558169 444.96842719638494 648.3130310427812 Z" stroke-opacity="0.8" stroke-linecap="round" stroke-linejoin="round" stroke-miterlimit="10" stroke-width="2.5"/><path fill="none" stroke="rgb(255,153,0)" paint-order="fill stroke markers" d=" M 487.1766389940559 721.4197983729764 C 487.1766389940559 768.0417017599407 449.3821187856777 805.8362219683195 402.760215398714 805.8362219683195 C 356.1383120117504 805.8362219683195 318.3437918033722 768.0417017599407 318.3437918033722 721.4197983729764 C 318.3437918033722 674.7978949860121 356.1383120117504 637.0033747776333 402.760215398714 637.0033747776333 C 449.3821187856777 637.0033747776333 487.1766389940559 674.7978949860121 487.1766389940559 721.4197983729764 Z" stroke-opacity="0.8" stroke-linecap="round" stroke-linejoin="round" stroke-miterlimit="10" stroke-width="2.5"/><path fill="none" stroke="rgb(255,153,0)" paint-order="fill stroke markers" d=" M 318.34379180337226 721.4197983729764 C 318.34379180337226 768.0417017599407 280.549271594994 805.8362219683195 233.92736820803037 805.8362219683195 C 187.30546482106675 805.8362219683195 149.51094461268855 768.0417017599407 149.51094461268855 721.4197983729764 C 149.51094461268855 674.7978949860121 187.30546482106675 637.0033747776333 233.92736820803037 637.0033747776333 C 280.549271594994 637.0033747776333 318.34379180337226 674.7978949860121 318.34379180337226 721.4197983729764 Z" stroke-opacity="0.8" stroke-linecap="round" stroke-linejoin="round" stroke-miterlimit="10" stroke-width="2.5"/><path fill="none" stroke="rgb(255,153,0)" paint-order="fill stroke markers" d=" M 318.34379180337226 575.2062637125858 C 318.34379180337226 621.8281670995502 280.549271594994 659.6226873079289 233.92736820803037 659.6226873079289 C 187.30546482106675 659.6226873079289 149.51094461268855 621.8281670995502 149.51094461268855 575.2062637125858 C 149.51094461268855 528.5843603256216 187.30546482106675 490.78984011724276 233.92736820803037 490.78984011724276 C 280.549271594994 490.78984011724276 318.34379180337226 528.5843603256216 318.34379180337226 575.2062637125858 Z" stroke-opacity="0.8" stroke-linecap="round" stroke-linejoin="round" stroke-miterlimit="10" stroke-width="2.5"/><path fill="none" stroke="rgb(255,153,0)" paint-order="fill stroke markers" d=" M 318.34379180337226 428.99272905219567 C 318.34379180337226 475.61463243916 280.5492715949941 513.4091526475388 233.92736820803043 513.4091526475388 C 187.3054648210668 513.4091526475388 149.5109446126886 475.61463243916 149.5109446126886 428.99272905219567 C 149.5109446126886 382.37082566523134 187.3054648210668 344.5763054568526 233.92736820803043 344.5763054568526 C 280.5492715949941 344.5763054568526 318.34379180337226 382.37082566523134 318.34379180337226 428.99272905219567 Z" stroke-opacity="0.8" stroke-linecap="round" stroke-linejoin="round" stroke-miterlimit="10" stroke-width="2.5"/><path fill="none" stroke="rgb(255,153,0)" paint-order="fill stroke markers" d=" M 318.34379180337226 282.7791943918052 C 318.34379180337226 329.40109777876955 280.549271594994 367.19561798714835 233.92736820803037 367.19561798714835 C 187.30546482106675 367.19561798714835 149.51094461268855 329.40109777876955 149.51094461268855 282.7791943918052 C 149.51094461268855 236.15729100484089 187.30546482106675 198.36277079646214 233.92736820803037 198.36277079646214 C 280.549271594994 198.36277079646214 318.34379180337226 236.15729100484089 318.34379180337226 282.7791943918052 Z" stroke-opacity="0.8" stroke-linecap="round" stroke-linejoin="round" stroke-miterlimit="10" stroke-width="2.5"/><path fill="none" stroke="rgb(255,153,0)" paint-order="fill stroke markers" d=" M 782.6341215777522 648.3130310427812 C 782.6341215777522 694.9349344297455 744.8396013693741 732.7294546381243 698.2176979824104 732.7294546381243 C 651.5957945954468 732.7294546381243 613.8012743870686 694.9349344297455 613.8012743870686 648.3130310427812 C 613.8012743870686 601.6911276558169 651.5957945954468 563.8966074474381 698.2176979824104 563.8966074474381 C 744.8396013693741 563.8966074474381 782.6341215777522 601.6911276558169 782.6341215777522 648.3130310427812 Z" stroke-opacity="0.8" stroke-linecap="round" stroke-linejoin="round" stroke-miterlimit="10" stroke-width="2.5"/><path fill="none" stroke="rgb(255,153,0)" paint-order="fill stroke markers" d=" M 656.0094861847394 721.4197983729764 C 656.0094861847394 768.0417017599407 618.2149659763613 805.8362219683195 571.5930625893976 805.8362219683195 C 524.971159202434 805.8362219683195 487.1766389940558 768.0417017599407 487.1766389940558 721.4197983729764 C 487.1766389940558 674.7978949860121 524.971159202434 637.0033747776333 571.5930625893976 637.0033747776333 C 618.2149659763613 637.0033747776333 656.0094861847394 674.7978949860121 656.0094861847394 721.4197983729764 Z" stroke-opacity="0.8" stroke-linecap="round" stroke-linejoin="round" stroke-miterlimit="10" stroke-width="2.5"/><path fill="none" stroke="rgb(255,153,0)" paint-order="fill stroke markers" d=" M 909.2587569707649 721.4197983729764 C 909.2587569707649 768.0417017599407 871.4642367623867 805.8362219683195 824.8423333754231 805.8362219683195 C 778.2204299884595 805.8362219683195 740.4259097800813 768.0417017599407 740.4259097800813 721.4197983729764 C 740.4259097800813 674.7978949860121 778.2204299884595 637.0033747776333 824.8423333754231 637.0033747776333 C 871.4642367623867 637.0033747776333 909.2587569707649 674.7978949860121 909.2587569707649 721.4197983729764 Z" stroke-opacity="0.8" stroke-linecap="round" stroke-linejoin="round" stroke-miterlimit="10" stroke-width="2.5"/><path fill="none" stroke="rgb(255,153,0)" paint-order="fill stroke markers" d=" M 909.2587569707649 575.2062637125862 C 909.2587569707649 621.8281670995505 871.4642367623867 659.6226873079293 824.8423333754231 659.6226873079293 C 778.2204299884595 659.6226873079293 740.4259097800813 621.8281670995505 740.4259097800813 575.2062637125862 C 740.4259097800813 528.5843603256219 778.2204299884595 490.7898401172431 824.8423333754231 490.7898401172431 C 871.4642367623867 490.7898401172431 909.2587569707649 528.5843603256219 909.2587569707649 575.2062637125862 Z" stroke-opacity="0.8" stroke-linecap="round" stroke-linejoin="round" stroke-miterlimit="10" stroke-width="2.5"/><path fill="none" stroke="rgb(255,153,0)" paint-order="fill stroke markers" d=" M 909.2587569707649 428.9927290521956 C 909.2587569707649 475.61463243915995 871.4642367623867 513.4091526475387 824.8423333754231 513.4091526475387 C 778.2204299884595 513.4091526475387 740.4259097800813 475.61463243915995 740.4259097800813 428.9927290521956 C 740.4259097800813 382.3708256652313 778.2204299884595 344.57630545685254 824.8423333754231 344.57630545685254 C 871.4642367623867 344.57630545685254 909.2587569707649 382.3708256652313 909.2587569707649 428.9927290521956 Z" stroke-opacity="0.8" stroke-linecap="round" stroke-linejoin="round" stroke-miterlimit="10" stroke-width="2.5"/><path fill="none" stroke="rgb(255,153,0)" paint-order="fill stroke markers" d=" M 487.17663899405574 575.2062637125861 C 461.0581066375551 590.2858053994499 444.9684271963849 618.1539476690537 444.96842719638494 648.3130310427813 C 444.96842719638494 678.4721144165089 461.0581066375553 706.3402566861126 487.1766389940559 721.4197983729764" stroke-opacity="0.8" stroke-linecap="round" stroke-linejoin="round" stroke-miterlimit="10" stroke-width="2.5"/><path fill="none" stroke="rgb(255,153,0)" paint-order="fill stroke markers" d=" M 571.5930625893977 575.2062637125861 C 597.7115949458984 590.2858053994499 613.8012743870686 618.1539476690537 613.8012743870685 648.3130310427813 C 613.8012743870685 678.4721144165089 597.7115949458981 706.3402566861126 571.5930625893975 721.4197983729764" stroke-opacity="0.8" stroke-linecap="round" stroke-linejoin="round" stroke-miterlimit="10" stroke-width="2.5"/><path fill="none" stroke="rgb(255,153,0)" paint-order="fill stroke markers" d=" M 487.1766389940558 428.9927290521955 C 461.05810663755517 413.9131873653317 444.96842719638494 386.0450450957279 444.96842719638505 355.8859617220002 C 444.9684271963851 325.7268783482726 461.0581066375554 297.8587360786689 487.1766389940561 282.7791943918051" stroke-opacity="0.8" stroke-linecap="round" stroke-linejoin="round" stroke-miterlimit="10" stroke-width="2.5"/><path fill="none" stroke="rgb(255,153,0)" paint-order="fill stroke markers" d=" M 571.5930625893977 428.99272905219556 C 597.7115949458984 413.9131873653317 613.8012743870686 386.0450450957279 613.8012743870685 355.8859617220002 C 613.8012743870685 325.7268783482726 597.7115949458981 297.8587360786689 571.5930625893975 282.7791943918051" stroke-opacity="0.8" stroke-linecap="round" stroke-linejoin="round" stroke-miterlimit="10" stroke-width="2.5"/><path fill="none" stroke="rgb(255,153,0)" paint-order="fill stroke markers" d=" M 529.3848507917265 794.5265657031719 C 529.3848507917265 764.3674823294443 513.2951713505563 736.4993400598407 487.1766389940557 721.419798372977" stroke-opacity="0.8" stroke-linecap="round" stroke-linejoin="round" stroke-miterlimit="10" stroke-width="2.5"/><path fill="none" stroke="rgb(255,153,0)" paint-order="fill stroke markers" d=" M 529.3848507917269 794.5265657031719 C 529.3848507917269 764.3674823294443 545.4745302328971 736.4993400598406 571.5930625893977 721.419798372977" stroke-opacity="0.8" stroke-linecap="round" stroke-linejoin="round" stroke-miterlimit="10" stroke-width="2.5"/><path fill="none" stroke="rgb(255,153,0)" paint-order="fill stroke markers" d=" M 529.3848507917266 209.67242706160965 C 529.3848507917266 239.8315104353372 513.2951713505564 267.69965270494083 487.1766389940558 282.77919439180454" stroke-opacity="0.8" stroke-linecap="round" stroke-linejoin="round" stroke-miterlimit="10" stroke-width="2.5"/><path fill="none" stroke="rgb(255,153,0)" paint-order="fill stroke markers" d=" M 529.3848507917266 209.67242706160965 C 529.3848507917266 239.8315104353372 513.2951713505564 267.69965270494083 487.1766389940558 282.77919439180454" stroke-opacity="0.8" stroke-linecap="round" stroke-linejoin="round" stroke-miterlimit="10" stroke-width="2.5"/><path fill="none" stroke="rgb(255,153,0)" paint-order="fill stroke markers" d=" M 529.384850791727 209.67242706160968 C 529.384850791727 239.83151043533724 545.4745302328972 267.69965270494083 571.5930625893978 282.7791943918046" stroke-opacity="0.8" stroke-linecap="round" stroke-linejoin="round" stroke-miterlimit="10" stroke-width="2.5"/><path fill="none" stroke="rgb(0,0,0)" paint-order="fill stroke markers" d=" M 107.30273281501775 187.05311453131415 L 951.4669687684361 187.0531145313143" stroke-opacity="0.8" stroke-linecap="round" stroke-linejoin="round" stroke-miterlimit="10" stroke-width="2.5"/><path fill="none" stroke="rgb(0,0,0)" paint-order="fill stroke markers" d=" M 951.4669687684359 817.1458782334671 L 107.3027328150173 817.1458782334671" stroke-opacity="0.8" stroke-linecap="round" stroke-linejoin="round" stroke-miterlimit="10" stroke-width="2.5"/><path fill="none" stroke="rgb(0,0,0)" paint-order="fill stroke markers" d=" M 951.4669687684359 817.1458782334671 L 951.4669687684361 187.0531145313143" stroke-opacity="0.8" stroke-linecap="round" stroke-linejoin="round" stroke-miterlimit="10" stroke-width="2.5"/><path fill="none" stroke="rgb(97,97,97)" paint-order="fill stroke markers" d=" M 636.4461428730533 355.8859617220004 C 636.4461428730533 368.39237724873385 626.3076899138018 378.53083020798545 613.8012743870686 378.53083020798545 C 601.2948588603354 378.53083020798545 591.1564059010839 368.39237724873385 591.1564059010839 355.8859617220004 C 591.1564059010839 343.3795461952669 601.2948588603354 333.24109323601533 613.8012743870686 333.24109323601533 C 626.3076899138018 333.24109323601533 636.4461428730533 343.3795461952669 636.4461428730533 355.8859617220004 Z" stroke-opacity="0.8" stroke-linecap="round" stroke-linejoin="round" stroke-miterlimit="10" stroke-width="2.5"/><path fill="none" stroke="rgb(97,97,97)" paint-order="fill stroke markers" d=" M 552.0297192777115 502.09949638239084 C 552.0297192777115 514.6059119091243 541.89126631846 524.7443648683759 529.3848507917268 524.7443648683759 C 516.8784352649935 524.7443648683759 506.73998230574205 514.6059119091243 506.73998230574205 502.09949638239084 C 506.73998230574205 489.5930808556574 516.8784352649935 479.4546278964058 529.3848507917268 479.4546278964058 C 541.89126631846 479.4546278964058 552.0297192777115 489.5930808556574 552.0297192777115 502.09949638239084 Z" stroke-opacity="0.8" stroke-linecap="round" stroke-linejoin="round" stroke-miterlimit="10" stroke-width="2.5"/><path fill="none" stroke="rgb(97,97,97)" paint-order="fill stroke markers" d=" M 467.61329568236965 355.8859617220004 C 467.61329568236965 368.39237724873385 457.47484272311823 378.53083020798545 444.96842719638494 378.53083020798545 C 432.46201166965164 378.53083020798545 422.3235587104002 368.39237724873385 422.3235587104002 355.8859617220004 C 422.3235587104002 343.3795461952669 432.46201166965164 333.24109323601533 444.96842719638494 333.24109323601533 C 457.47484272311823 333.24109323601533 467.61329568236965 343.3795461952669 467.61329568236965 355.8859617220004 Z" stroke-opacity="0.8" stroke-linecap="round" stroke-linejoin="round" stroke-miterlimit="10" stroke-width="2.5"/><path fill="none" stroke="rgb(97,97,97)" paint-order="fill stroke markers" d=" M 383.1968720870278 502.0994963823908 C 383.1968720870278 514.6059119091242 373.0584191277764 524.7443648683758 360.5520036010431 524.7443648683758 C 348.0455880743098 524.7443648683758 337.9071351150584 514.6059119091242 337.9071351150584 502.0994963823908 C 337.9071351150584 489.5930808556573 348.0455880743098 479.4546278964057 360.5520036010431 479.4546278964057 C 373.0584191277764 479.4546278964057 383.1968720870278 489.5930808556573 383.1968720870278 502.0994963823908 Z" stroke-opacity="0.8" stroke-linecap="round" stroke-linejoin="round" stroke-miterlimit="10" stroke-width="2.5"/><path fill="none" stroke="rgb(97,97,97)" paint-order="fill stroke markers" d=" M 467.6132956823696 648.3130310427812 C 467.6132956823696 660.8194465695146 457.4748427231182 670.9578995287662 444.9684271963849 670.9578995287662 C 432.4620116696516 670.9578995287662 422.32355871040016 660.8194465695146 422.32355871040016 648.3130310427812 C 422.32355871040016 635.8066155160477 432.4620116696516 625.6681625567961 444.9684271963849 625.6681625567961 C 457.4748427231182 625.6681625567961 467.6132956823696 635.8066155160477 467.6132956823696 648.3130310427812 Z" stroke-opacity="0.8" stroke-linecap="round" stroke-linejoin="round" stroke-miterlimit="10" stroke-width="2.5"/><path fill="none" stroke="rgb(97,97,97)" paint-order="fill stroke markers" d=" M 636.4461428730533 648.3130310427812 C 636.4461428730533 660.8194465695146 626.3076899138018 670.9578995287662 613.8012743870686 670.9578995287662 C 601.2948588603354 670.9578995287662 591.1564059010839 660.8194465695146 591.1564059010839 648.3130310427812 C 591.1564059010839 635.8066155160477 601.2948588603354 625.6681625567961 613.8012743870686 625.6681625567961 C 626.3076899138018 625.6681625567961 636.4461428730533 635.8066155160477 636.4461428730533 648.3130310427812 Z" stroke-opacity="0.8" stroke-linecap="round" stroke-linejoin="round" stroke-miterlimit="10" stroke-width="2.5"/><path fill="none" stroke="rgb(97,97,97)" paint-order="fill stroke markers" d=" M 720.8625664683951 502.09949638239084 C 720.8625664683951 514.6059119091243 710.7241135091436 524.7443648683759 698.2176979824104 524.7443648683759 C 685.7112824556772 524.7443648683759 675.5728294964257 514.6059119091243 675.5728294964257 502.09949638239084 C 675.5728294964257 489.5930808556574 685.7112824556772 479.4546278964058 698.2176979824104 479.4546278964058 C 710.7241135091436 479.4546278964058 720.8625664683951 489.5930808556574 720.8625664683951 502.09949638239084 Z" stroke-opacity="0.8" stroke-linecap="round" stroke-linejoin="round" stroke-miterlimit="10" stroke-width="2.5"/><path fill="none" stroke="rgb(97,97,97)" paint-order="fill stroke markers" d=" M 298.780448491686 355.88596172200045 C 298.780448491686 368.3923772487339 288.6419955324346 378.5308302079855 276.1355800057013 378.5308302079855 C 263.629164478968 378.5308302079855 253.49071151971657 368.3923772487339 253.49071151971657 355.88596172200045 C 253.49071151971657 343.379546195267 263.629164478968 333.2410932360154 276.1355800057013 333.2410932360154 C 288.6419955324346 333.2410932360154 298.780448491686 343.379546195267 298.780448491686 355.88596172200045 Z" stroke-opacity="0.8" stroke-linecap="round" stroke-linejoin="round" stroke-miterlimit="10" stroke-width="2.5"/><path fill="none" stroke="rgb(97,97,97)" paint-order="fill stroke markers" d=" M 298.780448491686 648.3130310427812 C 298.780448491686 660.8194465695146 288.6419955324346 670.9578995287662 276.1355800057013 670.9578995287662 C 263.629164478968 670.9578995287662 253.49071151971657 660.8194465695146 253.49071151971657 648.3130310427812 C 253.49071151971657 635.8066155160477 263.629164478968 625.6681625567961 276.1355800057013 625.6681625567961 C 288.6419955324346 625.6681625567961 298.780448491686 635.8066155160477 298.780448491686 648.3130310427812 Z" stroke-opacity="0.8" stroke-linecap="round" stroke-linejoin="round" stroke-miterlimit="10" stroke-width="2.5"/><path fill="none" stroke="rgb(97,97,97)" paint-order="fill stroke markers" d=" M 805.278990063737 648.3130310427812 C 805.278990063737 660.8194465695146 795.1405371044855 670.9578995287662 782.6341215777522 670.9578995287662 C 770.127706051019 670.9578995287662 759.9892530917675 660.8194465695146 759.9892530917675 648.3130310427812 C 759.9892530917675 635.8066155160477 770.127706051019 625.6681625567961 782.6341215777522 625.6681625567961 C 795.1405371044855 625.6681625567961 805.278990063737 635.8066155160477 805.278990063737 648.3130310427812 Z" stroke-opacity="0.8" stroke-linecap="round" stroke-linejoin="round" stroke-miterlimit="10" stroke-width="2.5"/><path fill="none" stroke="rgb(97,97,97)" paint-order="fill stroke markers" d=" M 805.278990063737 355.88596172200045 C 805.278990063737 368.3923772487339 795.1405371044855 378.5308302079855 782.6341215777522 378.5308302079855 C 770.127706051019 378.5308302079855 759.9892530917675 368.3923772487339 759.9892530917675 355.88596172200045 C 759.9892530917675 343.379546195267 770.127706051019 333.2410932360154 782.6341215777522 333.2410932360154 C 795.1405371044855 333.2410932360154 805.278990063737 343.379546195267 805.278990063737 355.88596172200045 Z" stroke-opacity="0.8" stroke-linecap="round" stroke-linejoin="round" stroke-miterlimit="10" stroke-width="2.5"/><path fill="none" stroke="rgb(0,0,0)" paint-order="fill stroke markers" d=" M 107.30273281501775 187.05311453131415 L 107.3027328150173 817.1458782334671" stroke-opacity="0.8" stroke-linecap="round" stroke-linejoin="round" stroke-miterlimit="10" stroke-width="2.5"/></g></g></svg>