<?xml version="1.0" encoding="UTF-8" standalone="no"?>
<svg
   xmlns:osb="http://www.openswatchbook.org/uri/2009/osb"
   xmlns:dc="http://purl.org/dc/elements/1.1/"
   xmlns:cc="http://creativecommons.org/ns#"
   xmlns:rdf="http://www.w3.org/1999/02/22-rdf-syntax-ns#"
   xmlns:svg="http://www.w3.org/2000/svg"
   xmlns="http://www.w3.org/2000/svg"
   xmlns:sodipodi="http://sodipodi.sourceforge.net/DTD/sodipodi-0.dtd"
   xmlns:inkscape="http://www.inkscape.org/namespaces/inkscape"
   version="1.1"
   width="1508"
   height="939"
   id="svg141"
   sodipodi:docname="geogebra-export-sym.svg"
   inkscape:version="0.92.4 (5da689c313, 2019-01-14)">
  <metadata
     id="metadata145">
    <rdf:RDF>
      <cc:Work
         rdf:about="">
        <dc:format>image/svg+xml</dc:format>
        <dc:type
           rdf:resource="http://purl.org/dc/dcmitype/StillImage" />
      </cc:Work>
    </rdf:RDF>
  </metadata>
  <sodipodi:namedview
     pagecolor="#ffffff"
     bordercolor="#666666"
     borderopacity="1"
     objecttolerance="10"
     gridtolerance="10"
     guidetolerance="10"
     inkscape:pageopacity="0"
     inkscape:pageshadow="2"
     inkscape:window-width="1920"
     inkscape:window-height="1017"
     id="namedview143"
     showgrid="false"
     inkscape:zoom="1.0766029"
     inkscape:cx="573.15692"
     inkscape:cy="512.04978"
     inkscape:window-x="-8"
     inkscape:window-y="32"
     inkscape:window-maximized="1"
     inkscape:current-layer="svg141" />
  <defs
     id="defs5">
    <linearGradient
       id="linearGradient4747"
       osb:paint="solid">
      <stop
         style="stop-color:#ffffff;stop-opacity:1;"
         offset="0"
         id="stop4745" />
    </linearGradient>
    <clipPath
       id="VRzKMIpRgwqu">
      <path
         fill="none"
         stroke="none"
         d=" M 0 0 L 1508 0 L 1508 939 L 0 939 L 0 0 Z"
         id="path2" />
    </clipPath>
  </defs>
  <g
     transform="scale(1,1)"
     clip-path="url(#VRzKMIpRgwqu)"
     id="g139"
     style="fill:none;fill-opacity:1">
    <g
       id="g137"
       style="fill:none;fill-opacity:1">
      <path
         d=" M 537.1473358078858 390.6541331176377 C 537.1473358078858 441.07795727306507 496.27074985625154 481.9545432246993 445.8469257008243 481.9545432246993 C 395.42310154539695 481.9545432246993 354.5465155937627 441.07795727306507 354.5465155937627 390.6541331176377 C 354.5465155937627 340.2303089622103 395.42310154539695 299.35372301057606 445.8469257008243 299.35372301057606 C 496.27074985625154 299.35372301057606 537.1473358078858 340.2303089622103 537.1473358078858 390.6541331176377 Z"
         stroke-miterlimit="10"
         id="path9"
         paint-order="fill stroke markers"
         stroke-opacity="0.8"
         stroke-linejoin="round"
         stroke-linecap="round"
         stroke-width="2.5"
         stroke="rgb(0,153,255)"
         fill="none"
         style="fill:none;fill-opacity:1" />
      <path
         d=" M 719.7481213387753 390.54158813720363 C 719.7481213387753 440.965412292631 678.871535387141 481.84199824426526 628.4477112317137 481.84199824426526 C 578.0238870762863 481.84199824426526 537.1473011246521 440.965412292631 537.1473011246521 390.54158813720363 C 537.1473011246521 340.11776398177625 578.0238870762863 299.241178030142 628.4477112317137 299.241178030142 C 678.871535387141 299.241178030142 719.7481213387753 340.11776398177625 719.7481213387753 390.54158813720363 Z"
         stroke-miterlimit="10"
         id="path11"
         paint-order="fill stroke markers"
         stroke-opacity="0.8"
         stroke-linejoin="round"
         stroke-linecap="round"
         stroke-width="2.5"
         stroke="rgb(0,153,255)"
         fill="none"
         style="fill:none;fill-opacity:1" />
      <path
         d=" M 445.8469430424411 390.71040560785474 C 445.8469430424411 441.1342297632821 404.97035709080683 482.01081571491636 354.54653293537956 482.01081571491636 C 304.12270877995223 482.01081571491636 263.246122828318 441.1342297632821 263.246122828318 390.71040560785474 C 263.246122828318 340.28658145242736 304.12270877995223 299.4099955007931 354.54653293537956 299.4099955007931 C 404.97035709080683 299.4099955007931 445.8469430424411 340.28658145242736 445.8469430424411 390.71040560785474 Z"
         stroke-miterlimit="10"
         id="path13"
         paint-order="fill stroke markers"
         stroke-opacity="0.8"
         stroke-linejoin="round"
         stroke-linecap="round"
         stroke-width="2.5"
         stroke="rgb(0,153,255)"
         fill="none"
         style="fill:none;fill-opacity:1" />
      <path
         d=" M 400.1480132536565 311.67008234259106 C 400.1480132536565 362.09390649801844 359.2714273020223 402.9704924496527 308.84760314659496 402.9704924496527 C 258.42377899116764 402.9704924496527 217.54719303953343 362.09390649801844 217.54719303953343 311.67008234259106 C 217.54719303953343 261.2462581871637 258.42377899116764 220.36967223552944 308.84760314659496 220.36967223552944 C 359.2714273020223 220.36967223552944 400.1480132536565 261.2462581871637 400.1480132536565 311.67008234259106 Z"
         stroke-miterlimit="10"
         id="path15"
         paint-order="fill stroke markers"
         stroke-opacity="0.8"
         stroke-linejoin="round"
         stroke-linecap="round"
         stroke-width="2.5"
         stroke="rgb(0,153,255)"
         fill="none"
         style="fill:none;fill-opacity:1" />
      <path
         d=" M 445.74947623031676 232.57348658711032 C 445.74947623031676 282.9973107425377 404.87289027868246 323.873896694172 354.4490661232552 323.873896694172 C 304.02524196782787 323.873896694172 263.1486560161936 282.9973107425377 263.1486560161936 232.57348658711032 C 263.1486560161936 182.14966243168297 304.02524196782787 141.2730764800487 354.4490661232552 141.2730764800487 C 404.87289027868246 141.2730764800487 445.74947623031676 182.14966243168297 445.74947623031676 232.57348658711032 Z"
         stroke-miterlimit="10"
         id="path17"
         paint-order="fill stroke markers"
         stroke-opacity="0.8"
         stroke-linejoin="round"
         stroke-linecap="round"
         stroke-width="2.5"
         stroke="rgb(0,153,255)"
         fill="none"
         style="fill:none;fill-opacity:1" />
      <path
         d=" M 445.9444098545654 548.8473246285989 C 445.9444098545654 599.2711487840263 405.0678239029311 640.1477347356606 354.6439997475038 640.1477347356606 C 304.2201755920765 640.1477347356606 263.34358964044225 599.2711487840263 263.34358964044225 548.8473246285989 C 263.34358964044225 498.42350047317154 304.2201755920765 457.5469145215373 354.6439997475038 457.5469145215373 C 405.0678239029311 457.5469145215373 445.9444098545654 498.42350047317154 445.9444098545654 548.8473246285989 Z"
         stroke-miterlimit="10"
         id="path19"
         paint-order="fill stroke markers"
         stroke-opacity="0.8"
         stroke-linejoin="round"
         stroke-linecap="round"
         stroke-width="2.5"
         stroke="rgb(0,153,255)"
         fill="none"
         style="fill:none;fill-opacity:1" />
      <path
         d=" M 719.8455881508995 548.6785071579482 C 719.8455881508995 599.1023313133755 678.9690021992652 639.9789172650098 628.545178043838 639.9789172650098 C 578.1213538884106 639.9789172650098 537.2447679367764 599.1023313133755 537.2447679367764 548.6785071579482 C 537.2447679367764 498.2546830025208 578.1213538884106 457.37809705088654 628.545178043838 457.37809705088654 C 678.9690021992652 457.37809705088654 719.8455881508995 498.2546830025208 719.8455881508995 548.6785071579482 Z"
         stroke-miterlimit="10"
         id="path21"
         paint-order="fill stroke markers"
         stroke-opacity="0.8"
         stroke-linejoin="round"
         stroke-linecap="round"
         stroke-width="2.5"
         stroke="rgb(0,153,255)"
         fill="none"
         style="fill:none;fill-opacity:1" />
      <path
         d=" M 856.7474438930045 469.52563891225043 C 856.7474438930045 519.9494630676778 815.8708579413702 560.8260490193121 765.447033785943 560.8260490193121 C 715.0232096305156 560.8260490193121 674.1466236788814 519.9494630676778 674.1466236788814 469.52563891225043 C 674.1466236788814 419.10181475682305 715.0232096305156 378.2252288051888 765.447033785943 378.2252288051888 C 815.8708579413702 378.2252288051888 856.7474438930045 419.10181475682305 856.7474438930045 469.52563891225043 Z"
         stroke-miterlimit="10"
         id="path23"
         paint-order="fill stroke markers"
         stroke-opacity="0.8"
         stroke-linejoin="round"
         stroke-linecap="round"
         stroke-width="2.5"
         stroke="rgb(0,153,255)"
         fill="none"
         style="fill:none;fill-opacity:1" />
      <path
         d=" M 856.64997708088 311.38871989150607 C 856.64997708088 361.81254404693345 815.7733911292457 402.68912999856775 765.3495669738185 402.68912999856775 C 714.9257428183911 402.68912999856775 674.0491568667569 361.81254404693345 674.0491568667569 311.38871989150607 C 674.0491568667569 260.9648957360787 714.9257428183911 220.08830978444445 765.3495669738185 220.08830978444445 C 815.7733911292457 220.08830978444445 856.64997708088 260.9648957360787 856.64997708088 311.38871989150607 Z"
         stroke-miterlimit="10"
         id="path25"
         paint-order="fill stroke markers"
         stroke-opacity="0.8"
         stroke-linejoin="round"
         stroke-linecap="round"
         stroke-width="2.5"
         stroke="rgb(0,153,255)"
         fill="none"
         style="fill:none;fill-opacity:1" />
      <path
         d=" M 674.0491828791825 311.47312862683145 C 674.0491828791825 336.6850407045451 653.6108899033653 357.12333368036224 628.3989778256516 357.12333368036224 C 603.187065747938 357.12333368036224 582.7487727721209 336.6850407045451 582.7487727721209 311.47312862683145 C 582.7487727721209 286.26121654911776 603.187065747938 265.8229235733006 628.3989778256516 265.8229235733006 C 653.6108899033653 265.8229235733006 674.0491828791825 286.26121654911776 674.0491828791825 311.47312862683145 Z"
         stroke-miterlimit="10"
         id="path27"
         paint-order="fill stroke markers"
         stroke-opacity="0.8"
         stroke-linejoin="round"
         stroke-linecap="round"
         stroke-width="2.5"
         stroke="rgb(255,153,0)"
         fill="none"
         style="fill:none;fill-opacity:1" />
      <path
         d=" M 537.1473271370774 390.6259968725291 C 537.1473271370774 415.8379089502427 516.7090341612602 436.27620192605985 491.49712208354657 436.27620192605985 C 466.2852100058329 436.27620192605985 445.8469170300158 415.8379089502427 445.8469170300158 390.6259968725291 C 445.8469170300158 365.4140847948154 466.2852100058329 344.97579181899823 491.49712208354657 344.97579181899823 C 516.7090341612602 344.97579181899823 537.1473271370774 365.4140847948154 537.1473271370774 390.6259968725291 Z"
         stroke-miterlimit="10"
         id="path29"
         paint-order="fill stroke markers"
         stroke-opacity="0.8"
         stroke-linejoin="round"
         stroke-linecap="round"
         stroke-width="2.5"
         stroke="rgb(255,153,0)"
         fill="none"
         style="fill:none;fill-opacity:1" />
      <path
         d=" M 468.6476658599628 351.1339714850059 C 468.6476658599628 376.3458835627195 448.2093728841457 396.78417653853666 422.99746080643206 396.78417653853666 C 397.78554872871837 396.78417653853666 377.3472557529013 376.3458835627195 377.3472557529013 351.1339714850059 C 377.3472557529013 325.9220594072922 397.78554872871837 305.48376643147503 422.99746080643206 305.48376643147503 C 448.2093728841457 305.48376643147503 468.6476658599628 325.9220594072922 468.6476658599628 351.1339714850059 Z"
         stroke-miterlimit="10"
         id="path31"
         paint-order="fill stroke markers"
         stroke-opacity="0.8"
         stroke-linejoin="round"
         stroke-linecap="round"
         stroke-width="2.5"
         stroke="rgb(255,153,0)"
         fill="none"
         style="fill:none;fill-opacity:1" />
      <path
         d=" M 468.5989324539006 272.0655119746337 C 468.5989324539006 297.2774240523474 448.1606394780835 317.7157170281645 422.9487274003699 317.7157170281645 C 397.7368153226562 317.7157170281645 377.2985223468391 297.2774240523474 377.2985223468391 272.0655119746337 C 377.2985223468391 246.85359989692 397.7368153226562 226.41530692110288 422.9487274003699 226.41530692110288 C 448.1606394780835 226.41530692110288 468.5989324539006 246.85359989692 468.5989324539006 272.0655119746337 Z"
         stroke-miterlimit="10"
         id="path33"
         paint-order="fill stroke markers"
         stroke-opacity="0.8"
         stroke-linejoin="round"
         stroke-linecap="round"
         stroke-width="2.5"
         stroke="rgb(255,153,0)"
         fill="none"
         style="fill:none;fill-opacity:1" />
      <path
         d=" M 468.6963992660249 430.2024309953781 C 468.6963992660249 455.41434307309174 448.2581062902078 475.8526360489089 423.0461942124942 475.8526360489089 C 397.8342821347805 475.8526360489089 377.3959891589634 455.41434307309174 377.3959891589634 430.2024309953781 C 377.3959891589634 404.9905189176644 397.8342821347805 384.55222594184727 423.0461942124942 384.55222594184727 C 448.2581062902078 384.55222594184727 468.6963992660249 404.9905189176644 468.6963992660249 430.2024309953781 Z"
         stroke-miterlimit="10"
         id="path35"
         paint-order="fill stroke markers"
         stroke-opacity="0.8"
         stroke-linejoin="round"
         stroke-linecap="round"
         stroke-width="2.5"
         stroke="rgb(255,153,0)"
         fill="none"
         style="fill:none;fill-opacity:1" />
      <path
         d=" M 468.74513267208704 509.2708905057501 C 468.74513267208704 534.4828025834638 448.30683969626995 554.921095559281 423.0949276185563 554.921095559281 C 397.8830155408426 554.921095559281 377.44472256502553 534.4828025834638 377.44472256502553 509.2708905057501 C 377.44472256502553 484.0589784280364 397.8830155408426 463.6206854522193 423.0949276185563 463.6206854522193 C 448.30683969626995 463.6206854522193 468.74513267208704 484.0589784280364 468.74513267208704 509.2708905057501 Z"
         stroke-miterlimit="10"
         id="path37"
         paint-order="fill stroke markers"
         stroke-opacity="0.8"
         stroke-linejoin="round"
         stroke-linecap="round"
         stroke-width="2.5"
         stroke="rgb(255,153,0)"
         fill="none"
         style="fill:none;fill-opacity:1" />
      <path
         d=" M 400.24547139497247 469.7788651182268 C 400.24547139497247 494.99077719594044 379.8071784191554 515.4290701717575 354.59526634144174 515.4290701717575 C 329.38335426372805 515.4290701717575 308.94506128791096 494.99077719594044 308.94506128791096 469.7788651182268 C 308.94506128791096 444.5669530405131 329.38335426372805 424.12866006469596 354.59526634144174 424.12866006469596 C 379.8071784191554 424.12866006469596 400.24547139497247 444.5669530405131 400.24547139497247 469.7788651182268 Z"
         stroke-miterlimit="10"
         id="path39"
         paint-order="fill stroke markers"
         stroke-opacity="0.8"
         stroke-linejoin="round"
         stroke-linecap="round"
         stroke-width="2.5"
         stroke="rgb(255,153,0)"
         fill="none"
         style="fill:none;fill-opacity:1" />
      <path
         d=" M 742.5001107502347 271.8966945039827 C 742.5001107502347 297.1086065816964 722.0618177744176 317.5468995575135 696.8499056967039 317.5468995575135 C 671.6379936189903 317.5468995575135 651.1997006431732 297.1086065816964 651.1997006431732 271.8966945039827 C 651.1997006431732 246.684782426269 671.6379936189903 226.2464894504519 696.8499056967039 226.2464894504519 C 722.0618177744176 226.2464894504519 742.5001107502347 246.684782426269 742.5001107502347 271.8966945039827 Z"
         stroke-miterlimit="10"
         id="path41"
         paint-order="fill stroke markers"
         stroke-opacity="0.8"
         stroke-linejoin="round"
         stroke-linecap="round"
         stroke-width="2.5"
         stroke="rgb(255,153,0)"
         fill="none"
         style="fill:none;fill-opacity:1" />
      <path
         d=" M 811.0485141042197 390.48531564698675 C 811.0485141042197 440.9091398024141 770.1719281525856 481.78572575404837 719.7481039971583 481.78572575404837 C 669.3242798417309 481.78572575404837 628.4476938900967 440.9091398024141 628.4476938900967 390.48531564698675 C 628.4476938900967 340.06149149155937 669.3242798417309 299.1849055399251 719.7481039971583 299.1849055399251 C 770.1719281525856 299.1849055399251 811.0485141042197 340.06149149155937 811.0485141042197 390.48531564698675 Z"
         stroke-miterlimit="10"
         id="path43"
         paint-order="fill stroke markers"
         stroke-opacity="0.8"
         stroke-linejoin="round"
         stroke-linecap="round"
         stroke-width="2.5"
         stroke="rgb(0,153,255)"
         fill="none"
         style="fill:none;fill-opacity:1" />
      <path
         d=" M 811.1459809163443 548.6222346677309 C 811.1459809163443 599.0460588231583 770.2693949647102 639.9226447747926 719.8455708092829 639.9226447747926 C 669.4217466538555 639.9226447747926 628.5451607022213 599.0460588231583 628.5451607022213 548.6222346677309 C 628.5451607022213 498.19841051230355 669.4217466538555 457.3218245606693 719.8455708092829 457.3218245606693 C 770.2693949647102 457.3218245606693 811.1459809163443 498.19841051230355 811.1459809163443 548.6222346677309 Z"
         stroke-miterlimit="10"
         id="path45"
         paint-order="fill stroke markers"
         stroke-opacity="0.8"
         stroke-linejoin="round"
         stroke-linecap="round"
         stroke-width="2.5"
         stroke="rgb(0,153,255)"
         fill="none"
         style="fill:none;fill-opacity:1" />
      <path
         d=" M 537.2448026200102 548.7910521383822 C 537.2448026200102 599.2148762938095 496.3682166683759 640.0914622454438 445.94439251294864 640.0914622454438 C 395.5205683575213 640.0914622454438 354.6439824058871 599.2148762938095 354.6439824058871 548.7910521383822 C 354.6439824058871 498.3672279829548 395.5205683575213 457.49064203132053 445.94439251294864 457.49064203132053 C 496.3682166683759 457.49064203132053 537.2448026200102 498.3672279829548 537.2448026200102 548.7910521383822 Z"
         stroke-miterlimit="10"
         id="path47"
         paint-order="fill stroke markers"
         stroke-opacity="0.8"
         stroke-linejoin="round"
         stroke-linecap="round"
         stroke-width="2.5"
         stroke="rgb(0,153,255)"
         fill="none"
         style="fill:none;fill-opacity:1" />
      <path
         d=" M 400.2454800657807 469.8070013633354 C 400.2454800657807 520.2308255187628 359.36889411414654 561.107411470397 308.9450699587192 561.107411470397 C 258.5212458032919 561.107411470397 217.64465985165768 520.2308255187628 217.64465985165768 469.8070013633354 C 217.64465985165768 419.38317720790803 258.5212458032919 378.5065912562738 308.9450699587192 378.5065912562738 C 359.36889411414654 378.5065912562738 400.2454800657807 419.38317720790803 400.2454800657807 469.8070013633354 Z"
         stroke-miterlimit="10"
         id="path49"
         paint-order="fill stroke markers"
         stroke-opacity="0.8"
         stroke-linejoin="round"
         stroke-linecap="round"
         stroke-width="2.5"
         stroke="rgb(0,153,255)"
         fill="none"
         style="fill:none;fill-opacity:1" />
      <path
         d=" M 491.5458728312258 469.75072887311853 C 491.5458728312258 520.1745530285459 450.6692868795915 561.0511389801802 400.2454627241642 561.0511389801802 C 349.8216385687369 561.0511389801802 308.94505261710265 520.1745530285459 308.94505261710265 469.75072887311853 C 308.94505261710265 419.32690471769115 349.8216385687369 378.4503187660569 400.2454627241642 378.4503187660569 C 450.6692868795915 378.4503187660569 491.5458728312258 419.32690471769115 491.5458728312258 469.75072887311853 Z"
         stroke-miterlimit="10"
         id="path51"
         paint-order="fill stroke markers"
         stroke-opacity="0.8"
         stroke-linejoin="round"
         stroke-linecap="round"
         stroke-width="2.5"
         stroke="rgb(0,153,255)"
         fill="none"
         style="fill:none;fill-opacity:1" />
      <path
         d=" M 514.2978622426851 351.1058352398974 C 514.2978622426851 376.317747317611 493.859569266868 396.75604029342816 468.64765718915436 396.75604029342816 C 443.43574511144067 396.75604029342816 422.9974521356236 376.317747317611 422.9974521356236 351.1058352398974 C 422.9974521356236 325.8939231621837 443.43574511144067 305.45563018636653 468.64765718915436 305.45563018636653 C 493.859569266868 305.45563018636653 514.2978622426851 325.8939231621837 514.2978622426851 351.1058352398974 Z"
         stroke-miterlimit="10"
         id="path53"
         paint-order="fill stroke markers"
         stroke-opacity="0.8"
         stroke-linejoin="round"
         stroke-linecap="round"
         stroke-width="2.5"
         stroke="rgb(255,153,0)"
         fill="none"
         style="fill:none;fill-opacity:1" />
      <path
         d=" M 537.1473358078857 390.6541331176377 C 537.1473358078857 441.07795727306507 496.2707498562514 481.95454322469936 445.84692570082416 481.95454322469936 C 395.42310154539683 481.95454322469936 354.5465155937626 441.07795727306507 354.5465155937626 390.6541331176377 C 354.5465155937626 340.2303089622103 395.42310154539683 299.35372301057606 445.84692570082416 299.35372301057606 C 496.2707498562514 299.35372301057606 537.1473358078857 340.2303089622103 537.1473358078857 390.6541331176377 Z"
         stroke-miterlimit="10"
         id="path55"
         paint-order="fill stroke markers"
         stroke-opacity="0.8"
         stroke-linejoin="round"
         stroke-linecap="round"
         stroke-width="2.5"
         stroke="rgb(0,153,255)"
         fill="none"
         style="fill:none;fill-opacity:1" />
      <path
         d=" M 514.3465956487472 430.1742947502695 C 514.3465956487472 455.38620682798313 493.9083026729301 475.8244998038003 468.6963905952165 475.8244998038003 C 443.4844785175028 475.8244998038003 423.0461855416857 455.38620682798313 423.0461855416857 430.1742947502695 C 423.0461855416857 404.9623826725558 443.4844785175028 384.52408969673866 468.6963905952165 384.52408969673866 C 493.9083026729301 384.52408969673866 514.3465956487472 404.9623826725558 514.3465956487472 430.1742947502695 Z"
         stroke-miterlimit="10"
         id="path57"
         paint-order="fill stroke markers"
         stroke-opacity="0.8"
         stroke-linejoin="round"
         stroke-linecap="round"
         stroke-width="2.5"
         stroke="rgb(255,153,0)"
         fill="none"
         style="fill:none;fill-opacity:1" />
      <path
         d=" M 628.4477199025222 390.5697243823122 C 628.4477199025222 415.7816364600258 608.009426926705 436.21992943584297 582.7975148489913 436.21992943584297 C 557.5856027712778 436.21992943584297 537.1473097954606 415.7816364600258 537.1473097954606 390.5697243823122 C 537.1473097954606 365.3578123045985 557.5856027712778 344.91951932878135 582.7975148489913 344.91951932878135 C 608.009426926705 344.91951932878135 628.4477199025222 365.3578123045985 628.4477199025222 390.5697243823122 Z"
         stroke-miterlimit="10"
         id="path59"
         paint-order="fill stroke markers"
         stroke-opacity="0.8"
         stroke-linejoin="round"
         stroke-linecap="round"
         stroke-width="2.5"
         stroke="rgb(255,153,0)"
         fill="none"
         style="fill:none;fill-opacity:1" />
      <path
         d=" M 696.9473811796367 430.0617497698355 C 696.9473811796367 455.27366184754914 676.5090882038196 475.7119548233663 651.2971761261059 475.7119548233663 C 626.0852640483923 475.7119548233663 605.6469710725752 455.27366184754914 605.6469710725752 430.0617497698355 C 605.6469710725752 404.8498376921218 626.0852640483923 384.41154471630466 651.2971761261059 384.41154471630466 C 676.5090882038196 384.41154471630466 696.9473811796367 404.8498376921218 696.9473811796367 430.0617497698355 Z"
         stroke-miterlimit="10"
         id="path61"
         paint-order="fill stroke markers"
         stroke-opacity="0.8"
         stroke-linejoin="round"
         stroke-linecap="round"
         stroke-width="2.5"
         stroke="rgb(255,153,0)"
         fill="none"
         style="fill:none;fill-opacity:1" />
      <path
         d=" M 696.8986477735746 350.9932902594634 C 696.8986477735746 376.205202337177 676.4603547977574 396.64349531299416 651.2484427200437 396.64349531299416 C 626.0365306423301 396.64349531299416 605.598237666513 376.205202337177 605.598237666513 350.9932902594634 C 605.598237666513 325.7813781817497 626.0365306423301 305.34308520593254 651.2484427200437 305.34308520593254 C 676.4603547977574 305.34308520593254 696.8986477735746 325.7813781817497 696.8986477735746 350.9932902594634 Z"
         stroke-miterlimit="10"
         id="path63"
         paint-order="fill stroke markers"
         stroke-opacity="0.8"
         stroke-linejoin="round"
         stroke-linecap="round"
         stroke-width="2.5"
         stroke="rgb(255,153,0)"
         fill="none"
         style="fill:none;fill-opacity:1" />
      <path
         d=" M 696.8499143675124 271.92483074909103 C 696.8499143675124 297.1367428268047 676.4116213916952 317.57503580262187 651.1997093139815 317.57503580262187 C 625.987797236268 317.57503580262187 605.5495042604508 297.1367428268047 605.5495042604508 271.92483074909103 C 605.5495042604508 246.71291867137734 625.987797236268 226.27462569556022 651.1997093139815 226.27462569556022 C 676.4116213916952 226.27462569556022 696.8499143675124 246.71291867137734 696.8499143675124 271.92483074909103 Z"
         stroke-miterlimit="10"
         id="path65"
         paint-order="fill stroke markers"
         stroke-opacity="0.8"
         stroke-linejoin="round"
         stroke-linecap="round"
         stroke-width="2.5"
         stroke="rgb(255,153,0)"
         fill="none"
         style="fill:none;fill-opacity:1" />
      <path
         d=" M 765.3495756446271 311.41685613661434 C 765.3495756446271 336.628768214328 744.9112826688099 357.0670611901451 719.6993705910962 357.0670611901451 C 694.4874585133826 357.0670611901451 674.0491655375655 336.628768214328 674.0491655375655 311.41685613661434 C 674.0491655375655 286.20494405890065 694.4874585133826 265.7666510830835 719.6993705910962 265.7666510830835 C 744.9112826688099 265.7666510830835 765.3495756446271 286.20494405890065 765.3495756446271 311.41685613661434 Z"
         stroke-miterlimit="10"
         id="path67"
         paint-order="fill stroke markers"
         stroke-opacity="0.8"
         stroke-linejoin="round"
         stroke-linecap="round"
         stroke-width="2.5"
         stroke="rgb(255,153,0)"
         fill="none"
         style="fill:none;fill-opacity:1" />
      <path
         d=" M 651.2484513908522 351.02142650457176 C 651.2484513908522 376.2333385822854 630.8101584150351 396.67163155810255 605.5982463373214 396.67163155810255 C 580.3863342596078 396.67163155810255 559.9480412837906 376.2333385822854 559.9480412837906 351.02142650457176 C 559.9480412837906 325.8095144268581 580.3863342596078 305.3712214510409 605.5982463373214 305.3712214510409 C 630.8101584150351 305.3712214510409 651.2484513908522 325.8095144268581 651.2484513908522 351.02142650457176 Z"
         stroke-miterlimit="10"
         id="path69"
         paint-order="fill stroke markers"
         stroke-opacity="0.8"
         stroke-linejoin="round"
         stroke-linecap="round"
         stroke-width="2.5"
         stroke="rgb(255,153,0)"
         fill="none"
         style="fill:none;fill-opacity:1" />
      <path
         d=" M 719.7481126679669 390.5134518920951 C 719.7481126679669 415.7253639698087 699.3098196921497 436.16365694562586 674.097907614436 436.16365694562586 C 648.8859955367225 436.16365694562586 628.4477025609053 415.7253639698087 628.4477025609053 390.5134518920951 C 628.4477025609053 365.3015398143814 648.8859955367225 344.86324683856424 674.097907614436 344.86324683856424 C 699.3098196921497 344.86324683856424 719.7481126679669 365.3015398143814 719.7481126679669 390.5134518920951 Z"
         stroke-miterlimit="10"
         id="path71"
         paint-order="fill stroke markers"
         stroke-opacity="0.8"
         stroke-linejoin="round"
         stroke-linecap="round"
         stroke-width="2.5"
         stroke="rgb(255,153,0)"
         fill="none"
         style="fill:none;fill-opacity:1" />
      <path
         d=" M 651.2971847969144 430.0898860149441 C 651.2971847969144 455.30179809265775 630.8588918210972 475.7400910684749 605.6469797433836 475.7400910684749 C 580.43506766567 475.7400910684749 559.9967746898528 455.30179809265775 559.9967746898528 430.0898860149441 C 559.9967746898528 404.8779739372304 580.43506766567 384.4396809614133 605.6469797433836 384.4396809614133 C 630.8588918210972 384.4396809614133 651.2971847969144 404.8779739372304 651.2971847969144 430.0898860149441 Z"
         stroke-miterlimit="10"
         id="path73"
         paint-order="fill stroke markers"
         stroke-opacity="0.8"
         stroke-linejoin="round"
         stroke-linecap="round"
         stroke-width="2.5"
         stroke="rgb(255,153,0)"
         fill="none"
         style="fill:none;fill-opacity:1" />
      <path
         d=" M 445.84693437163264 390.6822693627462 C 445.84693437163264 415.8941814404598 425.40864139581555 436.33247441627697 400.1967293181019 436.33247441627697 C 374.9848172403882 436.33247441627697 354.54652426457113 415.8941814404598 354.54652426457113 390.6822693627462 C 354.54652426457113 365.4703572850325 374.9848172403882 345.03206430921534 400.1967293181019 345.03206430921534 C 425.40864139581555 345.03206430921534 445.84693437163264 365.4703572850325 445.84693437163264 390.6822693627462 Z"
         stroke-miterlimit="10"
         id="path75"
         paint-order="fill stroke markers"
         stroke-opacity="0.8"
         stroke-linejoin="round"
         stroke-linecap="round"
         stroke-width="2.5"
         stroke="rgb(255,153,0)"
         fill="none"
         style="fill:none;fill-opacity:1" />
      <path
         d=" M 400.14800458284805 311.64194609748245 C 400.14800458284805 336.8538581751961 379.70971160703095 357.29215115101323 354.4977995293173 357.29215115101323 C 329.2858874516036 357.29215115101323 308.84759447578654 336.8538581751961 308.84759447578654 311.64194609748245 C 308.84759447578654 286.43003401976875 329.2858874516036 265.9917410439516 354.4977995293173 265.9917410439516 C 379.70971160703095 265.9917410439516 400.14800458284805 286.43003401976875 400.14800458284805 311.64194609748245 Z"
         stroke-miterlimit="10"
         id="path77"
         paint-order="fill stroke markers"
         stroke-opacity="0.8"
         stroke-linejoin="round"
         stroke-linecap="round"
         stroke-width="2.5"
         stroke="rgb(255,153,0)"
         fill="none"
         style="fill:none;fill-opacity:1" />
      <path
         d=" M 810.9510472920956 232.3483966262423 C 810.9510472920956 282.77222078166966 770.0744613404613 323.6488067333039 719.650637185034 323.6488067333039 C 669.2268130296067 323.6488067333039 628.3502270779725 282.77222078166966 628.3502270779725 232.3483966262423 C 628.3502270779725 181.92457247081495 669.2268130296067 141.04798651918068 719.650637185034 141.04798651918068 C 770.0744613404613 141.04798651918068 810.9510472920956 181.92457247081495 810.9510472920956 232.3483966262423 Z"
         stroke-miterlimit="10"
         id="path79"
         paint-order="fill stroke markers"
         stroke-opacity="0.8"
         stroke-linejoin="round"
         stroke-linecap="round"
         stroke-width="2.5"
         stroke="rgb(0,153,255)"
         fill="none"
         style="fill:none;fill-opacity:1" />
      <path
         d=" M 765.3495843154354 311.4449923817229 C 765.3495843154354 361.8688165371503 724.4729983638011 402.7454024887845 674.0491742083739 402.7454024887845 C 623.6253500529465 402.7454024887845 582.7487641013123 361.8688165371503 582.7487641013123 311.4449923817229 C 582.7487641013123 261.0211682262955 623.6253500529465 220.14458227466127 674.0491742083739 220.14458227466127 C 724.4729983638011 220.14458227466127 765.3495843154354 261.0211682262955 765.3495843154354 311.4449923817229 Z"
         stroke-miterlimit="10"
         id="path81"
         paint-order="fill stroke markers"
         stroke-opacity="0.8"
         stroke-linejoin="round"
         stroke-linecap="round"
         stroke-width="2.5"
         stroke="rgb(0,153,255)"
         fill="none"
         style="fill:none;fill-opacity:1" />
      <path
         d=" M 491.4484060191014 311.6138098523739 C 491.4484060191014 362.0376340078013 450.57182006746723 402.9142199594355 400.1479959120399 402.9142199594355 C 349.7241717566126 402.9142199594355 308.84758580497834 362.0376340078013 308.84758580497834 311.6138098523739 C 308.84758580497834 261.1899856969465 349.7241717566126 220.31339974531227 400.1479959120399 220.31339974531227 C 450.57182006746723 220.31339974531227 491.4484060191014 261.1899856969465 491.4484060191014 311.6138098523739 Z"
         stroke-miterlimit="10"
         id="path83"
         paint-order="fill stroke markers"
         stroke-opacity="0.8"
         stroke-linejoin="round"
         stroke-linecap="round"
         stroke-width="2.5"
         stroke="rgb(0,153,255)"
         fill="none"
         style="fill:none;fill-opacity:1" />
      <path
         d=" M 491.44839734829276 311.58567360726556 C 491.44839734829276 336.7975856849792 471.01010437247567 357.23587866079635 445.79819229476203 357.23587866079635 C 420.58628021704834 357.23587866079635 400.14798724123125 336.7975856849792 400.14798724123125 311.58567360726556 C 400.14798724123125 286.37376152955187 420.58628021704834 265.9354685537347 445.79819229476203 265.9354685537347 C 471.01010437247567 265.9354685537347 491.44839734829276 286.37376152955187 491.44839734829276 311.58567360726556 Z"
         stroke-miterlimit="10"
         id="path85"
         paint-order="fill stroke markers"
         stroke-opacity="0.8"
         stroke-linejoin="round"
         stroke-linecap="round"
         stroke-width="2.5"
         stroke="rgb(255,153,0)"
         fill="none"
         style="fill:none;fill-opacity:1" />
      <path
         d=" M 651.3459182029765 509.1583455253161 C 651.3459182029765 534.3702576030298 630.9076252271593 554.808550578847 605.6957131494456 554.808550578847 C 580.483801071732 554.808550578847 560.0455080959149 534.3702576030298 560.0455080959149 509.1583455253161 C 560.0455080959149 483.94643344760243 580.483801071732 463.5081404717853 605.6957131494456 463.5081404717853 C 630.9076252271593 463.5081404717853 651.3459182029765 483.94643344760243 651.3459182029765 509.1583455253161 Z"
         stroke-miterlimit="10"
         id="path87"
         paint-order="fill stroke markers"
         stroke-opacity="0.8"
         stroke-linejoin="round"
         stroke-linecap="round"
         stroke-width="2.5"
         stroke="rgb(255,153,0)"
         fill="none"
         style="fill:none;fill-opacity:1" />
      <path
         d=" M 696.9961145856989 509.13020928020774 C 696.9961145856989 534.3421213579214 676.5578216098818 554.7804143337385 651.3459095321681 554.7804143337385 C 626.1339974544545 554.7804143337385 605.6957044786374 534.3421213579214 605.6957044786374 509.13020928020774 C 605.6957044786374 483.91829720249405 626.1339974544545 463.4800042266769 651.3459095321681 463.4800042266769 C 676.5578216098818 463.4800042266769 696.9961145856989 483.91829720249405 696.9961145856989 509.13020928020774 Z"
         stroke-miterlimit="10"
         id="path89"
         paint-order="fill stroke markers"
         stroke-opacity="0.8"
         stroke-linejoin="round"
         stroke-linecap="round"
         stroke-width="2.5"
         stroke="rgb(255,153,0)"
         fill="none"
         style="fill:none;fill-opacity:1" />
      <path
         d=" M 765.4470424567515 469.5537751573588 C 765.4470424567515 494.76568723507245 745.0087494809344 515.2039802108895 719.7968374032207 515.2039802108895 C 694.5849253255071 515.2039802108895 674.14663234969 494.76568723507245 674.14663234969 469.5537751573588 C 674.14663234969 444.3418630796451 694.5849253255071 423.903570103828 719.7968374032207 423.903570103828 C 745.0087494809344 423.903570103828 765.4470424567515 444.3418630796451 765.4470424567515 469.5537751573588 Z"
         stroke-miterlimit="10"
         id="path91"
         paint-order="fill stroke markers"
         stroke-opacity="0.8"
         stroke-linejoin="round"
         stroke-linecap="round"
         stroke-width="2.5"
         stroke="rgb(255,153,0)"
         fill="none"
         style="fill:none;fill-opacity:1" />
      <path
         d=" M 491.5458641604172 469.7225926280099 C 491.5458641604172 494.93450470572355 471.1075711846001 515.3727976815408 445.89565910688646 515.3727976815408 C 420.68374702917276 515.3727976815408 400.2454540533557 494.93450470572355 400.2454540533557 469.7225926280099 C 400.2454540533557 444.51068055029623 420.68374702917276 424.0723875744791 445.89565910688646 424.0723875744791 C 471.1075711846001 424.0723875744791 491.5458641604172 444.51068055029623 491.5458641604172 469.7225926280099 Z"
         stroke-miterlimit="10"
         id="path93"
         paint-order="fill stroke markers"
         stroke-opacity="0.8"
         stroke-linejoin="round"
         stroke-linecap="round"
         stroke-width="2.5"
         stroke="rgb(255,153,0)"
         fill="none"
         style="fill:none;fill-opacity:1" />
      <path
         d=" M 514.3953290548094 509.24275426064173 C 514.3953290548094 534.4546663383554 493.9570360789923 554.8929593141725 468.74512400127867 554.8929593141725 C 443.533211923565 554.8929593141725 423.0949189477479 534.4546663383554 423.0949189477479 509.24275426064173 C 423.0949189477479 484.03084218292804 443.533211923565 463.5925492071109 468.74512400127867 463.5925492071109 C 493.9570360789923 463.5925492071109 514.3953290548094 484.03084218292804 514.3953290548094 509.24275426064173 Z"
         stroke-miterlimit="10"
         id="path95"
         paint-order="fill stroke markers"
         stroke-opacity="0.8"
         stroke-linejoin="round"
         stroke-linecap="round"
         stroke-width="2.5"
         stroke="rgb(255,153,0)"
         fill="none"
         style="fill:none;fill-opacity:1" />
      <path
         d=" M 423.0949362893647 509.29902675085884 C 423.0949362893647 534.5109388285725 402.6566433135476 554.9492318043897 377.44473123583396 554.9492318043897 C 352.23281915812026 554.9492318043897 331.7945261823032 534.5109388285725 331.7945261823032 509.29902675085884 C 331.7945261823032 484.08711467314515 352.23281915812026 463.648821697328 377.44473123583396 463.648821697328 C 402.6566433135476 463.648821697328 423.0949362893647 484.08711467314515 423.0949362893647 509.29902675085884 Z"
         stroke-miterlimit="10"
         id="path97"
         paint-order="fill stroke markers"
         stroke-opacity="0.8"
         stroke-linejoin="round"
         stroke-linecap="round"
         stroke-width="2.5"
         stroke="rgb(255,153,0)"
         fill="none"
         style="fill:none;fill-opacity:1" />
      <path
         d=" M 423.04620288330256 430.2305672404864 C 423.04620288330256 455.4424793182 402.60790990748546 475.88077229401716 377.39599782977183 475.88077229401716 C 352.18408575205814 475.88077229401716 331.74579277624105 455.4424793182 331.74579277624105 430.2305672404864 C 331.74579277624105 405.0186551627727 352.18408575205814 384.58036218695554 377.39599782977183 384.58036218695554 C 402.60790990748546 384.58036218695554 423.04620288330256 405.0186551627727 423.04620288330256 430.2305672404864 Z"
         stroke-miterlimit="10"
         id="path99"
         paint-order="fill stroke markers"
         stroke-opacity="0.8"
         stroke-linejoin="round"
         stroke-linecap="round"
         stroke-width="2.5"
         stroke="rgb(255,153,0)"
         fill="none"
         style="fill:none;fill-opacity:1" />
      <path
         d=" M 422.9974694772404 351.1621077301145 C 422.9974694772404 376.3740198078281 402.5591765014233 396.81231278364527 377.34726442370965 396.81231278364527 C 352.13535234599595 396.81231278364527 331.69705937017886 376.3740198078281 331.69705937017886 351.1621077301145 C 331.69705937017886 325.9501956524008 352.13535234599595 305.51190267658365 377.34726442370965 305.51190267658365 C 402.5591765014233 305.51190267658365 422.9974694772404 325.9501956524008 422.9974694772404 351.1621077301145 Z"
         stroke-miterlimit="10"
         id="path101"
         paint-order="fill stroke markers"
         stroke-opacity="0.8"
         stroke-linejoin="round"
         stroke-linecap="round"
         stroke-width="2.5"
         stroke="rgb(255,153,0)"
         fill="none"
         style="fill:none;fill-opacity:1" />
      <path
         d=" M 422.94873607117813 272.0936482197422 C 422.94873607117813 297.3055602974559 402.51044309536104 317.743853273273 377.2985310176474 317.743853273273 C 352.0866189399337 317.743853273273 331.6483259641166 297.3055602974559 331.6483259641166 272.0936482197422 C 331.6483259641166 246.8817361420285 352.0866189399337 226.44344316621138 377.2985310176474 226.44344316621138 C 402.51044309536104 226.44344316621138 422.94873607117813 246.8817361420285 422.94873607117813 272.0936482197422 Z"
         stroke-miterlimit="10"
         id="path103"
         paint-order="fill stroke markers"
         stroke-opacity="0.8"
         stroke-linejoin="round"
         stroke-linecap="round"
         stroke-width="2.5"
         stroke="rgb(255,153,0)"
         fill="none"
         style="fill:none;fill-opacity:1" />
      <path
         d=" M 765.4470511275598 469.58191140246726 C 765.4470511275598 520.0057355578947 724.5704651759255 560.8823215095289 674.1466410204982 560.8823215095289 C 623.7228168650709 560.8823215095289 582.8462309134367 520.0057355578947 582.8462309134367 469.58191140246726 C 582.8462309134367 419.1580872470399 623.7228168650709 378.28150129540563 674.1466410204982 378.28150129540563 C 724.5704651759255 378.28150129540563 765.4470511275598 419.1580872470399 765.4470511275598 469.58191140246726 Z"
         stroke-miterlimit="10"
         id="path105"
         paint-order="fill stroke markers"
         stroke-opacity="0.8"
         stroke-linejoin="round"
         stroke-linecap="round"
         stroke-width="2.5"
         stroke="rgb(0,153,255)"
         fill="none"
         style="fill:none;fill-opacity:1" />
      <path
         d=" M 674.1466496913067 469.6100476475758 C 674.1466496913067 494.82195972528945 653.7083567154896 515.2602527011065 628.4964446377759 515.2602527011065 C 603.2845325600623 515.2602527011065 582.8462395842452 494.82195972528945 582.8462395842452 469.6100476475758 C 582.8462395842452 444.3981355698621 603.2845325600623 423.95984259404497 628.4964446377759 423.95984259404497 C 653.7083567154896 423.95984259404497 674.1466496913067 444.3981355698621 674.1466496913067 469.6100476475758 Z"
         stroke-miterlimit="10"
         id="path107"
         paint-order="fill stroke markers"
         stroke-opacity="0.8"
         stroke-linejoin="round"
         stroke-linecap="round"
         stroke-width="2.5"
         stroke="rgb(255,153,0)"
         fill="none"
         style="fill:none;fill-opacity:1" />
      <path
         d=" M 742.6463109684214 509.1020730350991 C 742.6463109684214 534.3139851128128 722.2080179926043 554.75227808863 696.9961059148906 554.75227808863 C 671.784193837177 554.75227808863 651.3459008613598 534.3139851128128 651.3459008613598 509.1020730350991 C 651.3459008613598 483.89016095738543 671.784193837177 463.4518679815683 696.9961059148906 463.4518679815683 C 722.2080179926043 463.4518679815683 742.6463109684214 483.89016095738543 742.6463109684214 509.1020730350991 Z"
         stroke-miterlimit="10"
         id="path109"
         paint-order="fill stroke markers"
         stroke-opacity="0.8"
         stroke-linejoin="round"
         stroke-linecap="round"
         stroke-width="2.5"
         stroke="rgb(255,153,0)"
         fill="none"
         style="fill:none;fill-opacity:1" />
      <path
         d=" M 742.5975775623592 430.0336135247271 C 742.5975775623592 455.24552560244075 722.1592845865421 475.6838185782579 696.9473725088284 475.6838185782579 C 671.7354604311148 475.6838185782579 651.2971674552977 455.24552560244075 651.2971674552977 430.0336135247271 C 651.2971674552977 404.8217014470134 671.7354604311148 384.3834084711963 696.9473725088284 384.3834084711963 C 722.1592845865421 384.3834084711963 742.5975775623592 404.8217014470134 742.5975775623592 430.0336135247271 Z"
         stroke-miterlimit="10"
         id="path111"
         paint-order="fill stroke markers"
         stroke-opacity="0.8"
         stroke-linejoin="round"
         stroke-linecap="round"
         stroke-width="2.5"
         stroke="rgb(255,153,0)"
         fill="none"
         style="fill:none;fill-opacity:1" />
      <path
         d=" M 742.5488441562968 350.96515401435465 C 742.5488441562968 376.1770660920683 722.1105511804797 396.61535906788544 696.898639102766 396.61535906788544 C 671.6867270250524 396.61535906788544 651.2484340492352 376.1770660920683 651.2484340492352 350.96515401435465 C 651.2484340492352 325.75324193664096 671.6867270250524 305.3149489608238 696.898639102766 305.3149489608238 C 722.1105511804797 305.3149489608238 742.5488441562968 325.75324193664096 742.5488441562968 350.96515401435465 Z"
         stroke-miterlimit="10"
         id="path113"
         paint-order="fill stroke markers"
         stroke-opacity="0.8"
         stroke-linejoin="round"
         stroke-linecap="round"
         stroke-width="2.5"
         stroke="rgb(255,153,0)"
         fill="none"
         style="fill:none;fill-opacity:1" />
      <path
         d=" M 591.8626749670578 311.50126487193995 C 591.8626749670578 316.53472927689785 587.7822458478871 320.6151583960687 582.7487814429292 320.6151583960687 C 577.7153170379712 320.6151583960687 573.6348879188004 316.53472927689785 573.6348879188004 311.50126487193995 C 573.6348879188004 306.467800466982 577.7153170379712 302.38737134781115 582.7487814429292 302.38737134781115 C 587.7822458478871 302.38737134781115 591.8626749670578 306.467800466982 591.8626749670578 311.50126487193995 Z"
         stroke-miterlimit="10"
         id="path115"
         paint-order="fill stroke markers"
         stroke-opacity="0.8"
         stroke-linejoin="round"
         stroke-linecap="round"
         stroke-width="2.5"
         stroke="rgb(97,97,97)"
         fill="none"
         style="fill:none;fill-opacity:1" />
      <path
         d=" M 546.2612119903977 390.5978606274207 C 546.2612119903977 395.6313250323786 542.1807828712269 399.7117541515494 537.147318466269 399.7117541515494 C 532.113854061311 399.7117541515494 528.0334249421402 395.6313250323786 528.0334249421402 390.5978606274207 C 528.0334249421402 385.56439622246273 532.113854061311 381.4839671032919 537.147318466269 381.4839671032919 C 542.1807828712269 381.4839671032919 546.2612119903977 385.56439622246273 546.2612119903977 390.5978606274207 Z"
         stroke-miterlimit="10"
         id="path117"
         paint-order="fill stroke markers"
         stroke-opacity="0.8"
         stroke-linejoin="round"
         stroke-linecap="round"
         stroke-width="2.5"
         stroke="rgb(97,97,97)"
         fill="none"
         style="fill:none;fill-opacity:1" />
      <path
         d=" M 500.5622822016132 311.55753736215695 C 500.5622822016132 316.59100176711485 496.48185308244234 320.6714308862857 491.4483886774844 320.6714308862857 C 486.4149242725265 320.6714308862857 482.33449515335565 316.59100176711485 482.33449515335565 311.55753736215695 C 482.33449515335565 306.524072957199 486.4149242725265 302.44364383802815 491.4483886774844 302.44364383802815 C 496.48185308244234 302.44364383802815 500.5622822016132 306.524072957199 500.5622822016132 311.55753736215695 Z"
         stroke-miterlimit="10"
         id="path119"
         paint-order="fill stroke markers"
         stroke-opacity="0.8"
         stroke-linejoin="round"
         stroke-linecap="round"
         stroke-width="2.5"
         stroke="rgb(97,97,97)"
         fill="none"
         style="fill:none;fill-opacity:1" />
      <path
         d=" M 454.960819224953 390.6541331176377 C 454.960819224953 395.6875975225956 450.88039010578217 399.7680266417664 445.8469257008242 399.7680266417664 C 440.8134612958663 399.7680266417664 436.7330321766955 395.6875975225956 436.7330321766955 390.6541331176377 C 436.7330321766955 385.62066871267973 440.8134612958663 381.5402395935089 445.8469257008242 381.5402395935089 C 450.88039010578217 381.5402395935089 454.960819224953 385.62066871267973 454.960819224953 390.6541331176377 Z"
         stroke-miterlimit="10"
         id="path121"
         paint-order="fill stroke markers"
         stroke-opacity="0.8"
         stroke-linejoin="round"
         stroke-linecap="round"
         stroke-width="2.5"
         stroke="rgb(97,97,97)"
         fill="none"
         style="fill:none;fill-opacity:1" />
      <path
         d=" M 500.6597490137375 469.6944563829014 C 500.6597490137375 474.7279207878593 496.57931989456665 478.80834990703016 491.5458554896087 478.80834990703016 C 486.5123910846508 478.80834990703016 482.43196196547996 474.7279207878593 482.43196196547996 469.6944563829014 C 482.43196196547996 464.66099197794347 486.5123910846508 460.5805628587726 491.5458554896087 460.5805628587726 C 496.57931989456665 460.5805628587726 500.6597490137375 464.66099197794347 500.6597490137375 469.6944563829014 Z"
         stroke-miterlimit="10"
         id="path123"
         paint-order="fill stroke markers"
         stroke-opacity="0.8"
         stroke-linejoin="round"
         stroke-linecap="round"
         stroke-width="2.5"
         stroke="rgb(97,97,97)"
         fill="none"
         style="fill:none;fill-opacity:1" />
      <path
         d=" M 591.9601417791821 469.6381838926844 C 591.9601417791821 474.6716482976423 587.8797126600114 478.75207741681317 582.8462482550534 478.75207741681317 C 577.8127838500955 478.75207741681317 573.7323547309246 474.6716482976423 573.7323547309246 469.6381838926844 C 573.7323547309246 464.60471948772647 577.8127838500955 460.5242903685556 582.8462482550534 460.5242903685556 C 587.8797126600114 460.5242903685556 591.9601417791821 464.60471948772647 591.9601417791821 469.6381838926844 Z"
         stroke-miterlimit="10"
         id="path125"
         paint-order="fill stroke markers"
         stroke-opacity="0.8"
         stroke-linejoin="round"
         stroke-linecap="round"
         stroke-width="2.5"
         stroke="rgb(97,97,97)"
         fill="none"
         style="fill:none;fill-opacity:1" />
      <path
         d=" M 637.5616047558423 390.5415881372036 C 637.5616047558423 395.5750525421615 633.4811756366715 399.6554816613323 628.4477112317136 399.6554816613323 C 623.4142468267556 399.6554816613323 619.3338177075848 395.5750525421615 619.3338177075848 390.5415881372036 C 619.3338177075848 385.5081237322456 623.4142468267556 381.4276946130748 628.4477112317136 381.4276946130748 C 633.4811756366715 381.4276946130748 637.5616047558423 385.5081237322456 637.5616047558423 390.5415881372036 Z"
         stroke-miterlimit="10"
         id="path127"
         paint-order="fill stroke markers"
         stroke-opacity="0.8"
         stroke-linejoin="round"
         stroke-linecap="round"
         stroke-width="2.5"
         stroke="rgb(97,97,97)"
         fill="none"
         style="fill:none;fill-opacity:1" />
      <path
         d=" M 409.2618894361685 311.61380985237406 C 409.2618894361685 316.64727425733196 405.18146031699763 320.7277033765028 400.1479959120397 320.7277033765028 C 395.1145315070818 320.7277033765028 391.03410238791093 316.64727425733196 391.03410238791093 311.61380985237406 C 391.03410238791093 306.5803454474161 395.1145315070818 302.49991632824526 400.1479959120397 302.49991632824526 C 405.18146031699763 302.49991632824526 409.2618894361685 306.5803454474161 409.2618894361685 311.61380985237406 Z"
         stroke-miterlimit="10"
         id="path129"
         paint-order="fill stroke markers"
         stroke-opacity="0.8"
         stroke-linejoin="round"
         stroke-linecap="round"
         stroke-width="2.5"
         stroke="rgb(97,97,97)"
         fill="none"
         style="fill:none;fill-opacity:1" />
      <path
         d=" M 409.3593562482929 469.7507288731184 C 409.3593562482929 474.7841932780763 405.27892712912205 478.86462239724716 400.2454627241641 478.86462239724716 C 395.2119983192062 478.86462239724716 391.13156920003536 474.7841932780763 391.13156920003536 469.7507288731184 C 391.13156920003536 464.71726446816047 395.2119983192062 460.6368353489896 400.2454627241641 460.6368353489896 C 405.27892712912205 460.6368353489896 409.3593562482929 464.71726446816047 409.3593562482929 469.7507288731184 Z"
         stroke-miterlimit="10"
         id="path131"
         paint-order="fill stroke markers"
         stroke-opacity="0.8"
         stroke-linejoin="round"
         stroke-linecap="round"
         stroke-width="2.5"
         stroke="rgb(97,97,97)"
         fill="none"
         style="fill:none;fill-opacity:1" />
      <path
         d=" M 683.2605345446269 469.5819114024673 C 683.2605345446269 474.6153758074252 679.1801054254562 478.69580492659605 674.1466410204982 478.69580492659605 C 669.1131766155403 478.69580492659605 665.0327474963694 474.6153758074252 665.0327474963694 469.5819114024673 C 665.0327474963694 464.54844699750936 669.1131766155403 460.4680178783385 674.1466410204982 460.4680178783385 C 679.1801054254562 460.4680178783385 683.2605345446269 464.54844699750936 683.2605345446269 469.5819114024673 Z"
         stroke-miterlimit="10"
         id="path133"
         paint-order="fill stroke markers"
         stroke-opacity="0.8"
         stroke-linejoin="round"
         stroke-linecap="round"
         stroke-width="2.5"
         stroke="rgb(97,97,97)"
         fill="none"
         style="fill:none;fill-opacity:1" />
      <path
         d=" M 683.1630677325026 311.44499238172307 C 683.1630677325026 316.47845678668097 679.0826386133318 320.5588859058518 674.0491742083739 320.5588859058518 C 669.0157098034159 320.5588859058518 664.9352806842451 316.47845678668097 664.9352806842451 311.44499238172307 C 664.9352806842451 306.4115279767651 669.0157098034159 302.33109885759427 674.0491742083739 302.33109885759427 C 679.0826386133318 302.33109885759427 683.1630677325026 306.4115279767651 683.1630677325026 311.44499238172307 Z"
         stroke-miterlimit="10"
         id="path135"
         paint-order="fill stroke markers"
         stroke-opacity="0.8"
         stroke-linejoin="round"
         stroke-linecap="round"
         stroke-width="2.5"
         stroke="rgb(97,97,97)"
         fill="none"
         style="fill:none;fill-opacity:1" />
    </g>
  </g>
  <path
     style="opacity:0.72100004;fill:none;fill-opacity:1;stroke:#000000;stroke-width:0.32839721;stroke-opacity:1"
     d=""
     id="path4721"
     inkscape:connector-curvature="0" />
  <path
     style="opacity:0.72100004;fill:none;fill-opacity:1;stroke:#000000;stroke-width:0.32839721;stroke-opacity:1"
     d=""
     id="path4723"
     inkscape:connector-curvature="0" />
  <rect
     style="opacity:0.72100004;fill:#ffffff;fill-opacity:1;stroke:#000000;stroke-opacity:1;stroke-width:1;stroke-miterlimit:4;stroke-dasharray:0,11;stroke-dashoffset:0"
     id="rect4729"
     width="738.81281"
     height="80.616661"
     x="128.19286"
     y="565.44336" />
  <rect
     style="opacity:0.72100004;fill:#ffffff;fill-opacity:1;stroke:#000000;stroke-width:1;stroke-miterlimit:4;stroke-dasharray:0, 11;stroke-dashoffset:0;stroke-opacity:1"
     id="rect4759"
     width="741.2204"
     height="129.10982"
     x="240.57152"
     y="86.317917" />
  <rect
     style="opacity:0.72100004;fill:#ffffff;fill-opacity:1;stroke:#000000;stroke-width:1;stroke-miterlimit:4;stroke-dasharray:0, 11;stroke-dashoffset:0;stroke-opacity:1"
     id="rect4765"
     width="274.01004"
     height="562.88165"
     x="778.37427"
     y="96.53524" />
  <rect
     style="opacity:0.72100004;fill:#ffffff;fill-opacity:1;stroke:#000000;stroke-width:1;stroke-miterlimit:4;stroke-dasharray:0, 11;stroke-dashoffset:0;stroke-opacity:1"
     id="rect4769"
     width="0"
     height="0"
     x="0"
     y="0" />
</svg>
