  0
SECTION
  2
HEADER
  9
$ACADVER
  1
AC1014
  9
$HANDSEED
  5
FFFF
  9
$MEASUREMENT
 70
     1
  0
ENDSEC
  0
SECTION
  2
TABLES
  0
TABLE
  2
VPORT
  5
8
330
0
100
AcDbSymbolTable
 70
     4
  0
VPORT
  5
2E
330
8
100
AcDbSymbolTableRecord
100
AcDbViewportTableRecord
  2
*ACTIVE
 70
     0
 10
0.0
 20
0.0
 11
1.0
 21
1.0
 12
210.0
 22
148.5
 13
0.0
 23
0.0
 14
10.0
 24
10.0
 15
10.0
 25
10.0
 16
0.0
 26
0.0
 36
1.0
 17
0.0
 27
0.0
 37
0.0
 40
341.0
 41
1.24
 42
50.0
 43
0.0
 44
0.0
 50
0.0
 51
0.0
 71
     0
 72
   100
 73
     1
 74
     3
 75
     0
 76
     0
 77
     0
 78
     0
  0
ENDTAB
  0
TABLE
  2
LTYPE
  5
5
330
0
100
AcDbSymbolTable
 70
     1
  0
LTYPE
  5
14
330
5
100
AcDbSymbolTableRecord
100
AcDbLinetypeTableRecord
  2
BYBLOCK
 70
     0
  3

 72
    65
 73
     0
 40
0.0
  0
LTYPE
  5
15
330
5
100
AcDbSymbolTableRecord
100
AcDbLinetypeTableRecord
  2
BYLAYER
 70
     0
  3

 72
    65
 73
     0
 40
0.0
  0
LTYPE
  5
16
330
5
100
AcDbSymbolTableRecord
100
AcDbLinetypeTableRecord
  2
CONTINUOUS
 70
     0
  3
Solid line
 72
    65
 73
     0
 40
0.0
  0
ENDTAB
  0
TABLE
  2
LAYER
  5
2
100
AcDbSymbolTable
 70
1
  0
LAYER
  5
50
100
AcDbSymbolTableRecord
100
AcDbLayerTableRecord
  2
0
 70
0
  6
CONTINUOUS
  0
ENDTAB
  0
TABLE
  2
STYLE
  5
3
330
0
100
AcDbSymbolTable
 70
     1
  0
STYLE
  5
11
330
3
100
AcDbSymbolTableRecord
100
AcDbTextStyleTableRecord
  2
STANDARD
 70
     0
 40
0.0
 41
1.0
 50
0.0
 71
     0
 42
2.5
  3
txt
  4

  0
ENDTAB
  0
TABLE
  2
VIEW
  5
6
330
0
100
AcDbSymbolTable
 70
     0
  0
ENDTAB
  0
TABLE
  2
UCS
  5
7
330
0
100
AcDbSymbolTable
 70
     0
  0
ENDTAB
  0
TABLE
  2
APPID
  5
9
330
0
100
AcDbSymbolTable
 70
     2
  0
APPID
  5
12
330
9
100
AcDbSymbolTableRecord
100
AcDbRegAppTableRecord
  2
ACAD
 70
     0
  0
ENDTAB
  0
TABLE
  2
DIMSTYLE
  5
A
330
0
100
AcDbSymbolTable
 70
     1
  0
DIMSTYLE
105
27
330
A
100
AcDbSymbolTableRecord
100
AcDbDimStyleTableRecord
  2
ISO-25
 70
     0
  3

  4

  5

  6

  7

 40
1.0
 41
2.5
 42
0.625
 43
3.75
 44
1.25
 45
0.0
 46
0.0
 47
0.0
 48
0.0
140
2.5
141
2.5
142
0.0
143
0.03937007874016
144
1.0
145
0.0
146
1.0
147
0.625
 71
     0
 72
     0
 73
     0
 74
     0
 75
     0
 76
     0
 77
     1
 78
     8
170
     0
171
     3
172
     1
173
     0
174
     0
175
     0
176
     0
177
     0
178
     0
270
     2
271
     2
272
     2
273
     2
274
     3
340
11
275
     0
280
     0
281
     0
282
     0
283
     0
284
     8
285
     0
286
     0
287
     3
288
     0
  0
ENDTAB
  0
TABLE
  2
BLOCK_RECORD
  5
1
330
0
100
AcDbSymbolTable
 70
     1
  0
BLOCK_RECORD
  5
1F
330
1
100
AcDbSymbolTableRecord
100
AcDbBlockTableRecord
  2
*MODEL_SPACE
  0
BLOCK_RECORD
  5
1B
330
1
100
AcDbSymbolTableRecord
100
AcDbBlockTableRecord
  2
*PAPER_SPACE
  0
ENDTAB
  0
ENDSEC
  0
SECTION
  2
BLOCKS
  0
BLOCK
  5
20
330
1F
100
AcDbEntity
  8
0
100
AcDbBlockBegin
  2
*MODEL_SPACE
 70
     0
 10
0.0
 20
0.0
 30
0.0
  3
*MODEL_SPACE
  1

  0
ENDBLK
  5
21
330
1F
100
AcDbEntity
  8
0
100
AcDbBlockEnd
  0
BLOCK
  5
1C
330
1B
100
AcDbEntity
 67
     1
  8
0
100
AcDbBlockBegin
  2
*PAPER_SPACE
  1

  0
ENDBLK
  5
1D
330
1B
100
AcDbEntity
 67
     1
  8
0
100
AcDbBlockEnd
  0
ENDSEC
  0
SECTION
  2
ENTITIES
  0
SPLINE
  5
100
100
AcDbEntity
  8
0
 62
7
100
AcDbSpline
 70
8
 71
3
 72
8
 73
4
 74
0
 40
0
 40
0
 40
0
 40
0
 40
1
 40
1
 40
1
 40
1
 10
586.975591
 20
466.585529
 30
0.0
 10
586.975591
 20
396.652674
 30
0.0
 10
530.283811
 20
339.960893
 30
0.0
 10
460.350956
 20
339.960893
 30
0.0
  0
SPLINE
  5
101
100
AcDbEntity
  8
0
 62
7
100
AcDbSpline
 70
8
 71
3
 72
8
 73
4
 74
0
 40
0
 40
0
 40
0
 40
0
 40
1
 40
1
 40
1
 40
1
 10
460.350956
 20
339.960893
 30
0.0
 10
390.418101
 20
339.960893
 30
0.0
 10
333.726320
 20
396.652674
 30
0.0
 10
333.726320
 20
466.585529
 30
0.0
  0
SPLINE
  5
102
100
AcDbEntity
  8
0
 62
7
100
AcDbSpline
 70
8
 71
3
 72
8
 73
4
 74
0
 40
0
 40
0
 40
0
 40
0
 40
1
 40
1
 40
1
 40
1
 10
333.726320
 20
466.585529
 30
0.0
 10
333.726320
 20
536.518384
 30
0.0
 10
390.418101
 20
593.210164
 30
0.0
 10
460.350956
 20
593.210164
 30
0.0
  0
SPLINE
  5
103
100
AcDbEntity
  8
0
 62
7
100
AcDbSpline
 70
8
 71
3
 72
8
 73
4
 74
0
 40
0
 40
0
 40
0
 40
0
 40
1
 40
1
 40
1
 40
1
 10
460.350956
 20
593.210164
 30
0.0
 10
530.283811
 20
593.210164
 30
0.0
 10
586.975591
 20
536.518384
 30
0.0
 10
586.975591
 20
466.585529
 30
0.0
  0
LWPOLYLINE
  5
104
100
AcDbEntity
  8
0
 62
7
100
AcDbPolyline
 90
4
 70
1
 10
0.000000
 20
733.500000
 30
0.0
 10
1143.000000
 20
733.500000
 30
0.0
 10
1143.000000
 20
0.000000
 30
0.0
 10
0.000000
 20
0.000000
 30
0.0
  0
SPLINE
  5
105
100
AcDbEntity
  8
0
 62
7
100
AcDbSpline
 70
8
 71
3
 72
8
 73
4
 74
0
 40
0
 40
0
 40
0
 40
0
 40
1
 40
1
 40
1
 40
1
 10
460.350956
 20
466.585529
 30
0.0
 10
460.350956
 20
396.652674
 30
0.0
 10
403.659175
 20
339.960893
 30
0.0
 10
333.726320
 20
339.960893
 30
0.0
  0
SPLINE
  5
106
100
AcDbEntity
  8
0
 62
7
100
AcDbSpline
 70
8
 71
3
 72
8
 73
4
 74
0
 40
0
 40
0
 40
0
 40
0
 40
1
 40
1
 40
1
 40
1
 10
333.726320
 20
339.960893
 30
0.0
 10
263.793465
 20
339.960893
 30
0.0
 10
207.101685
 20
396.652674
 30
0.0
 10
207.101685
 20
466.585529
 30
0.0
  0
SPLINE
  5
107
100
AcDbEntity
  8
0
 62
7
100
AcDbSpline
 70
8
 71
3
 72
8
 73
4
 74
0
 40
0
 40
0
 40
0
 40
0
 40
1
 40
1
 40
1
 40
1
 10
207.101685
 20
466.585529
 30
0.0
 10
207.101685
 20
536.518384
 30
0.0
 10
263.793465
 20
593.210164
 30
0.0
 10
333.726320
 20
593.210164
 30
0.0
  0
SPLINE
  5
108
100
AcDbEntity
  8
0
 62
7
100
AcDbSpline
 70
8
 71
3
 72
8
 73
4
 74
0
 40
0
 40
0
 40
0
 40
0
 40
1
 40
1
 40
1
 40
1
 10
333.726320
 20
593.210164
 30
0.0
 10
403.659175
 20
593.210164
 30
0.0
 10
460.350956
 20
536.518384
 30
0.0
 10
460.350956
 20
466.585529
 30
0.0
  0
LWPOLYLINE
  5
109
100
AcDbEntity
  8
0
 62
7
100
AcDbPolyline
 90
1
 70
1
 10
586.975591
 20
466.585529
 30
0.0
  0
SPLINE
  5
10a
100
AcDbEntity
  8
0
 62
7
100
AcDbSpline
 70
8
 71
3
 72
8
 73
4
 74
0
 40
0
 40
0
 40
0
 40
0
 40
1
 40
1
 40
1
 40
1
 10
397.038638
 20
356.925378
 30
0.0
 10
397.038638
 20
286.992523
 30
0.0
 10
340.346858
 20
230.300742
 30
0.0
 10
270.414003
 20
230.300742
 30
0.0
  0
SPLINE
  5
10b
100
AcDbEntity
  8
0
 62
7
100
AcDbSpline
 70
8
 71
3
 72
8
 73
4
 74
0
 40
0
 40
0
 40
0
 40
0
 40
1
 40
1
 40
1
 40
1
 10
270.414003
 20
230.300742
 30
0.0
 10
200.481148
 20
230.300742
 30
0.0
 10
143.789367
 20
286.992523
 30
0.0
 10
143.789367
 20
356.925378
 30
0.0
  0
SPLINE
  5
10c
100
AcDbEntity
  8
0
 62
7
100
AcDbSpline
 70
8
 71
3
 72
8
 73
4
 74
0
 40
0
 40
0
 40
0
 40
0
 40
1
 40
1
 40
1
 40
1
 10
143.789367
 20
356.925378
 30
0.0
 10
143.789367
 20
426.858233
 30
0.0
 10
200.481148
 20
483.550013
 30
0.0
 10
270.414003
 20
483.550013
 30
0.0
  0
SPLINE
  5
10d
100
AcDbEntity
  8
0
 62
7
100
AcDbSpline
 70
8
 71
3
 72
8
 73
4
 74
0
 40
0
 40
0
 40
0
 40
0
 40
1
 40
1
 40
1
 40
1
 10
270.414003
 20
483.550013
 30
0.0
 10
340.346858
 20
483.550013
 30
0.0
 10
397.038638
 20
426.858233
 30
0.0
 10
397.038638
 20
356.925378
 30
0.0
  0
LWPOLYLINE
  5
10e
100
AcDbEntity
  8
0
 62
7
100
AcDbPolyline
 90
1
 70
1
 10
460.350956
 20
466.585529
 30
0.0
  0
SPLINE
  5
10f
100
AcDbEntity
  8
0
 62
7
100
AcDbSpline
 70
8
 71
3
 72
8
 73
4
 74
0
 40
0
 40
0
 40
0
 40
0
 40
1
 40
1
 40
1
 40
1
 10
650.287909
 20
356.925378
 30
0.0
 10
650.287909
 20
286.992523
 30
0.0
 10
593.596129
 20
230.300742
 30
0.0
 10
523.663273
 20
230.300742
 30
0.0
  0
SPLINE
  5
110
100
AcDbEntity
  8
0
 62
7
100
AcDbSpline
 70
8
 71
3
 72
8
 73
4
 74
0
 40
0
 40
0
 40
0
 40
0
 40
1
 40
1
 40
1
 40
1
 10
523.663273
 20
230.300742
 30
0.0
 10
453.730418
 20
230.300742
 30
0.0
 10
397.038638
 20
286.992523
 30
0.0
 10
397.038638
 20
356.925378
 30
0.0
  0
SPLINE
  5
111
100
AcDbEntity
  8
0
 62
7
100
AcDbSpline
 70
8
 71
3
 72
8
 73
4
 74
0
 40
0
 40
0
 40
0
 40
0
 40
1
 40
1
 40
1
 40
1
 10
397.038638
 20
356.925378
 30
0.0
 10
397.038638
 20
426.858233
 30
0.0
 10
453.730418
 20
483.550013
 30
0.0
 10
523.663273
 20
483.550013
 30
0.0
  0
SPLINE
  5
112
100
AcDbEntity
  8
0
 62
7
100
AcDbSpline
 70
8
 71
3
 72
8
 73
4
 74
0
 40
0
 40
0
 40
0
 40
0
 40
1
 40
1
 40
1
 40
1
 10
523.663273
 20
483.550013
 30
0.0
 10
593.596129
 20
483.550013
 30
0.0
 10
650.287909
 20
426.858233
 30
0.0
 10
650.287909
 20
356.925378
 30
0.0
  0
LWPOLYLINE
  5
113
100
AcDbEntity
  8
0
 62
7
100
AcDbPolyline
 90
1
 70
1
 10
397.038638
 20
356.925378
 30
0.0
  0
SPLINE
  5
114
100
AcDbEntity
  8
0
 62
7
100
AcDbSpline
 70
8
 71
3
 72
8
 73
4
 74
0
 40
0
 40
0
 40
0
 40
0
 40
1
 40
1
 40
1
 40
1
 10
460.350956
 20
247.265227
 30
0.0
 10
460.350956
 20
177.332372
 30
0.0
 10
403.659175
 20
120.640591
 30
0.0
 10
333.726320
 20
120.640591
 30
0.0
  0
SPLINE
  5
115
100
AcDbEntity
  8
0
 62
7
100
AcDbSpline
 70
8
 71
3
 72
8
 73
4
 74
0
 40
0
 40
0
 40
0
 40
0
 40
1
 40
1
 40
1
 40
1
 10
333.726320
 20
120.640591
 30
0.0
 10
263.793465
 20
120.640591
 30
0.0
 10
207.101685
 20
177.332372
 30
0.0
 10
207.101685
 20
247.265227
 30
0.0
  0
SPLINE
  5
116
100
AcDbEntity
  8
0
 62
7
100
AcDbSpline
 70
8
 71
3
 72
8
 73
4
 74
0
 40
0
 40
0
 40
0
 40
0
 40
1
 40
1
 40
1
 40
1
 10
207.101685
 20
247.265227
 30
0.0
 10
207.101685
 20
317.198082
 30
0.0
 10
263.793465
 20
373.889862
 30
0.0
 10
333.726320
 20
373.889862
 30
0.0
  0
SPLINE
  5
117
100
AcDbEntity
  8
0
 62
7
100
AcDbSpline
 70
8
 71
3
 72
8
 73
4
 74
0
 40
0
 40
0
 40
0
 40
0
 40
1
 40
1
 40
1
 40
1
 10
333.726320
 20
373.889862
 30
0.0
 10
403.659175
 20
373.889862
 30
0.0
 10
460.350956
 20
317.198082
 30
0.0
 10
460.350956
 20
247.265227
 30
0.0
  0
LWPOLYLINE
  5
118
100
AcDbEntity
  8
0
 62
7
100
AcDbPolyline
 90
1
 70
1
 10
650.287909
 20
356.925378
 30
0.0
  0
SPLINE
  5
119
100
AcDbEntity
  8
0
 62
7
100
AcDbSpline
 70
8
 71
3
 72
8
 73
4
 74
0
 40
0
 40
0
 40
0
 40
0
 40
1
 40
1
 40
1
 40
1
 10
586.975591
 20
247.265227
 30
0.0
 10
586.975591
 20
177.332372
 30
0.0
 10
530.283811
 20
120.640591
 30
0.0
 10
460.350956
 20
120.640591
 30
0.0
  0
SPLINE
  5
11a
100
AcDbEntity
  8
0
 62
7
100
AcDbSpline
 70
8
 71
3
 72
8
 73
4
 74
0
 40
0
 40
0
 40
0
 40
0
 40
1
 40
1
 40
1
 40
1
 10
460.350956
 20
120.640591
 30
0.0
 10
390.418101
 20
120.640591
 30
0.0
 10
333.726320
 20
177.332372
 30
0.0
 10
333.726320
 20
247.265227
 30
0.0
  0
SPLINE
  5
11b
100
AcDbEntity
  8
0
 62
7
100
AcDbSpline
 70
8
 71
3
 72
8
 73
4
 74
0
 40
0
 40
0
 40
0
 40
0
 40
1
 40
1
 40
1
 40
1
 10
333.726320
 20
247.265227
 30
0.0
 10
333.726320
 20
317.198082
 30
0.0
 10
390.418101
 20
373.889862
 30
0.0
 10
460.350956
 20
373.889862
 30
0.0
  0
SPLINE
  5
11c
100
AcDbEntity
  8
0
 62
7
100
AcDbSpline
 70
8
 71
3
 72
8
 73
4
 74
0
 40
0
 40
0
 40
0
 40
0
 40
1
 40
1
 40
1
 40
1
 10
460.350956
 20
373.889862
 30
0.0
 10
530.283811
 20
373.889862
 30
0.0
 10
586.975591
 20
317.198082
 30
0.0
 10
586.975591
 20
247.265227
 30
0.0
  0
LWPOLYLINE
  5
11d
100
AcDbEntity
  8
0
 62
7
100
AcDbPolyline
 90
1
 70
1
 10
460.350956
 20
247.265227
 30
0.0
  0
SPLINE
  5
11e
100
AcDbEntity
  8
0
 62
7
100
AcDbSpline
 70
8
 71
3
 72
8
 73
4
 74
0
 40
0
 40
0
 40
0
 40
0
 40
1
 40
1
 40
1
 40
1
 10
397.038638
 20
356.925378
 30
0.0
 10
397.038638
 20
286.992523
 30
0.0
 10
340.346858
 20
230.300742
 30
0.0
 10
270.414003
 20
230.300742
 30
0.0
  0
SPLINE
  5
11f
100
AcDbEntity
  8
0
 62
7
100
AcDbSpline
 70
8
 71
3
 72
8
 73
4
 74
0
 40
0
 40
0
 40
0
 40
0
 40
1
 40
1
 40
1
 40
1
 10
270.414003
 20
230.300742
 30
0.0
 10
200.481148
 20
230.300742
 30
0.0
 10
143.789367
 20
286.992523
 30
0.0
 10
143.789367
 20
356.925378
 30
0.0
  0
SPLINE
  5
120
100
AcDbEntity
  8
0
 62
7
100
AcDbSpline
 70
8
 71
3
 72
8
 73
4
 74
0
 40
0
 40
0
 40
0
 40
0
 40
1
 40
1
 40
1
 40
1
 10
143.789367
 20
356.925378
 30
0.0
 10
143.789367
 20
426.858233
 30
0.0
 10
200.481148
 20
483.550013
 30
0.0
 10
270.414003
 20
483.550013
 30
0.0
  0
SPLINE
  5
121
100
AcDbEntity
  8
0
 62
7
100
AcDbSpline
 70
8
 71
3
 72
8
 73
4
 74
0
 40
0
 40
0
 40
0
 40
0
 40
1
 40
1
 40
1
 40
1
 10
270.414003
 20
483.550013
 30
0.0
 10
340.346858
 20
483.550013
 30
0.0
 10
397.038638
 20
426.858233
 30
0.0
 10
397.038638
 20
356.925378
 30
0.0
  0
LWPOLYLINE
  5
122
100
AcDbEntity
  8
0
 62
7
100
AcDbPolyline
 90
1
 70
1
 10
586.975591
 20
247.265227
 30
0.0
  0
SPLINE
  5
123
100
AcDbEntity
  8
0
 62
7
100
AcDbSpline
 70
8
 71
3
 72
8
 73
4
 74
0
 40
0
 40
0
 40
0
 40
0
 40
1
 40
1
 40
1
 40
1
 10
713.600227
 20
466.585529
 30
0.0
 10
713.600227
 20
396.652674
 30
0.0
 10
656.908446
 20
339.960893
 30
0.0
 10
586.975591
 20
339.960893
 30
0.0
  0
SPLINE
  5
124
100
AcDbEntity
  8
0
 62
7
100
AcDbSpline
 70
8
 71
3
 72
8
 73
4
 74
0
 40
0
 40
0
 40
0
 40
0
 40
1
 40
1
 40
1
 40
1
 10
586.975591
 20
339.960893
 30
0.0
 10
517.042736
 20
339.960893
 30
0.0
 10
460.350956
 20
396.652674
 30
0.0
 10
460.350956
 20
466.585529
 30
0.0
  0
SPLINE
  5
125
100
AcDbEntity
  8
0
 62
7
100
AcDbSpline
 70
8
 71
3
 72
8
 73
4
 74
0
 40
0
 40
0
 40
0
 40
0
 40
1
 40
1
 40
1
 40
1
 10
460.350956
 20
466.585529
 30
0.0
 10
460.350956
 20
536.518384
 30
0.0
 10
517.042736
 20
593.210164
 30
0.0
 10
586.975591
 20
593.210164
 30
0.0
  0
SPLINE
  5
126
100
AcDbEntity
  8
0
 62
7
100
AcDbSpline
 70
8
 71
3
 72
8
 73
4
 74
0
 40
0
 40
0
 40
0
 40
0
 40
1
 40
1
 40
1
 40
1
 10
586.975591
 20
593.210164
 30
0.0
 10
656.908446
 20
593.210164
 30
0.0
 10
713.600227
 20
536.518384
 30
0.0
 10
713.600227
 20
466.585529
 30
0.0
  0
LWPOLYLINE
  5
127
100
AcDbEntity
  8
0
 62
7
100
AcDbPolyline
 90
1
 70
1
 10
397.038638
 20
356.925378
 30
0.0
  0
SPLINE
  5
128
100
AcDbEntity
  8
0
 62
7
100
AcDbSpline
 70
8
 71
3
 72
8
 73
4
 74
0
 40
0
 40
0
 40
0
 40
0
 40
1
 40
1
 40
1
 40
1
 10
333.726320
 20
466.585529
 30
0.0
 10
333.726320
 20
396.652674
 30
0.0
 10
277.034540
 20
339.960893
 30
0.0
 10
207.101685
 20
339.960893
 30
0.0
  0
SPLINE
  5
129
100
AcDbEntity
  8
0
 62
7
100
AcDbSpline
 70
8
 71
3
 72
8
 73
4
 74
0
 40
0
 40
0
 40
0
 40
0
 40
1
 40
1
 40
1
 40
1
 10
207.101685
 20
339.960893
 30
0.0
 10
137.168830
 20
339.960893
 30
0.0
 10
80.477050
 20
396.652674
 30
0.0
 10
80.477050
 20
466.585529
 30
0.0
  0
SPLINE
  5
12a
100
AcDbEntity
  8
0
 62
7
100
AcDbSpline
 70
8
 71
3
 72
8
 73
4
 74
0
 40
0
 40
0
 40
0
 40
0
 40
1
 40
1
 40
1
 40
1
 10
80.477050
 20
466.585529
 30
0.0
 10
80.477050
 20
536.518384
 30
0.0
 10
137.168830
 20
593.210164
 30
0.0
 10
207.101685
 20
593.210164
 30
0.0
  0
SPLINE
  5
12b
100
AcDbEntity
  8
0
 62
7
100
AcDbSpline
 70
8
 71
3
 72
8
 73
4
 74
0
 40
0
 40
0
 40
0
 40
0
 40
1
 40
1
 40
1
 40
1
 10
207.101685
 20
593.210164
 30
0.0
 10
277.034540
 20
593.210164
 30
0.0
 10
333.726320
 20
536.518384
 30
0.0
 10
333.726320
 20
466.585529
 30
0.0
  0
LWPOLYLINE
  5
12c
100
AcDbEntity
  8
0
 62
7
100
AcDbPolyline
 90
1
 70
1
 10
713.600227
 20
466.585529
 30
0.0
  0
SPLINE
  5
12d
100
AcDbEntity
  8
0
 62
7
100
AcDbSpline
 70
8
 71
3
 72
8
 73
4
 74
0
 40
0
 40
0
 40
0
 40
0
 40
1
 40
1
 40
1
 40
1
 10
713.600227
 20
247.265227
 30
0.0
 10
713.600227
 20
177.332372
 30
0.0
 10
656.908446
 20
120.640591
 30
0.0
 10
586.975591
 20
120.640591
 30
0.0
  0
SPLINE
  5
12e
100
AcDbEntity
  8
0
 62
7
100
AcDbSpline
 70
8
 71
3
 72
8
 73
4
 74
0
 40
0
 40
0
 40
0
 40
0
 40
1
 40
1
 40
1
 40
1
 10
586.975591
 20
120.640591
 30
0.0
 10
517.042736
 20
120.640591
 30
0.0
 10
460.350956
 20
177.332372
 30
0.0
 10
460.350956
 20
247.265227
 30
0.0
  0
SPLINE
  5
12f
100
AcDbEntity
  8
0
 62
7
100
AcDbSpline
 70
8
 71
3
 72
8
 73
4
 74
0
 40
0
 40
0
 40
0
 40
0
 40
1
 40
1
 40
1
 40
1
 10
460.350956
 20
247.265227
 30
0.0
 10
460.350956
 20
317.198082
 30
0.0
 10
517.042736
 20
373.889862
 30
0.0
 10
586.975591
 20
373.889862
 30
0.0
  0
SPLINE
  5
130
100
AcDbEntity
  8
0
 62
7
100
AcDbSpline
 70
8
 71
3
 72
8
 73
4
 74
0
 40
0
 40
0
 40
0
 40
0
 40
1
 40
1
 40
1
 40
1
 10
586.975591
 20
373.889862
 30
0.0
 10
656.908446
 20
373.889862
 30
0.0
 10
713.600227
 20
317.198082
 30
0.0
 10
713.600227
 20
247.265227
 30
0.0
  0
LWPOLYLINE
  5
131
100
AcDbEntity
  8
0
 62
7
100
AcDbPolyline
 90
1
 70
1
 10
333.726320
 20
466.585529
 30
0.0
  0
SPLINE
  5
132
100
AcDbEntity
  8
0
 62
7
100
AcDbSpline
 70
8
 71
3
 72
8
 73
4
 74
0
 40
0
 40
0
 40
0
 40
0
 40
1
 40
1
 40
1
 40
1
 10
80.477050
 20
247.265227
 30
0.0
 10
133.694424
 20
216.540161
 30
0.0
 10
201.290083
 20
228.459100
 30
0.0
 10
240.789466
 20
275.532631
 30
0.0
  0
SPLINE
  5
133
100
AcDbEntity
  8
0
 62
7
100
AcDbSpline
 70
8
 71
3
 72
8
 73
4
 74
0
 40
0
 40
0
 40
0
 40
0
 40
1
 40
1
 40
1
 40
1
 10
240.789466
 20
275.532631
 30
0.0
 10
280.288848
 20
322.606162
 30
0.0
 10
280.288848
 20
391.244593
 30
0.0
 10
240.789466
 20
438.318124
 30
0.0
  0
SPLINE
  5
134
100
AcDbEntity
  8
0
 62
7
100
AcDbSpline
 70
8
 71
3
 72
8
 73
4
 74
0
 40
0
 40
0
 40
0
 40
0
 40
1
 40
1
 40
1
 40
1
 10
240.789466
 20
438.318124
 30
0.0
 10
201.290083
 20
485.391656
 30
0.0
 10
133.694424
 20
497.310594
 30
0.0
 10
80.477050
 20
466.585529
 30
0.0
  0
SPLINE
  5
135
100
AcDbEntity
  8
0
 62
7
100
AcDbSpline
 70
8
 71
3
 72
8
 73
4
 74
0
 40
0
 40
0
 40
0
 40
0
 40
1
 40
1
 40
1
 40
1
 10
80.477050
 20
466.585529
 30
0.0
 10
122.299329
 20
442.439424
 30
0.0
 10
174.214506
 20
444.184154
 30
0.0
 10
214.321280
 20
471.083673
 30
0.0
  0
SPLINE
  5
136
100
AcDbEntity
  8
0
 62
7
100
AcDbSpline
 70
8
 71
3
 72
8
 73
4
 74
0
 40
0
 40
0
 40
0
 40
0
 40
1
 40
1
 40
1
 40
1
 10
214.321280
 20
471.083673
 30
0.0
 10
254.428053
 20
497.983192
 30
0.0
 10
275.742381
 20
545.353321
 30
0.0
 10
269.272452
 20
593.210164
 30
0.0
  0
SPLINE
  5
137
100
AcDbEntity
  8
0
 62
7
100
AcDbSpline
 70
8
 71
3
 72
8
 73
4
 74
0
 40
0
 40
0
 40
0
 40
0
 40
1
 40
1
 40
1
 40
1
 10
144.930918
 20
593.210164
 30
0.0
 10
138.323758
 20
544.338248
 30
0.0
 10
160.692466
 20
496.076475
 30
0.0
 10
202.254837
 20
469.530515
 30
0.0
  0
SPLINE
  5
138
100
AcDbEntity
  8
0
 62
7
100
AcDbSpline
 70
8
 71
3
 72
8
 73
4
 74
0
 40
0
 40
0
 40
0
 40
0
 40
1
 40
1
 40
1
 40
1
 10
202.254837
 20
469.530515
 30
0.0
 10
243.817209
 20
442.984554
 30
0.0
 10
297.010797
 20
442.984554
 30
0.0
 10
338.573168
 20
469.530515
 30
0.0
  0
SPLINE
  5
139
100
AcDbEntity
  8
0
 62
7
100
AcDbSpline
 70
8
 71
3
 72
8
 73
4
 74
0
 40
0
 40
0
 40
0
 40
0
 40
1
 40
1
 40
1
 40
1
 10
338.573168
 20
469.530515
 30
0.0
 10
380.135540
 20
496.076475
 30
0.0
 10
402.504248
 20
544.338248
 30
0.0
 10
395.897087
 20
593.210164
 30
0.0
  0
SPLINE
  5
13a
100
AcDbEntity
  8
0
 62
7
100
AcDbSpline
 70
8
 71
3
 72
8
 73
4
 74
0
 40
0
 40
0
 40
0
 40
0
 40
1
 40
1
 40
1
 40
1
 10
80.477050
 20
339.960893
 30
0.0
 10
150.409905
 20
339.960893
 30
0.0
 10
207.101685
 20
396.652674
 30
0.0
 10
207.101685
 20
466.585529
 30
0.0
  0
SPLINE
  5
13b
100
AcDbEntity
  8
0
 62
7
100
AcDbSpline
 70
8
 71
3
 72
8
 73
4
 74
0
 40
0
 40
0
 40
0
 40
0
 40
1
 40
1
 40
1
 40
1
 10
207.101685
 20
466.585529
 30
0.0
 10
207.101685
 20
536.518384
 30
0.0
 10
150.409905
 20
593.210164
 30
0.0
 10
80.477050
 20
593.210164
 30
0.0
  0
SPLINE
  5
13c
100
AcDbEntity
  8
0
 62
7
100
AcDbSpline
 70
8
 71
3
 72
8
 73
4
 74
0
 40
0
 40
0
 40
0
 40
0
 40
1
 40
1
 40
1
 40
1
 10
80.477050
 20
373.889862
 30
0.0
 10
150.409905
 20
373.889862
 30
0.0
 10
207.101685
 20
317.198082
 30
0.0
 10
207.101685
 20
247.265227
 30
0.0
  0
SPLINE
  5
13d
100
AcDbEntity
  8
0
 62
7
100
AcDbSpline
 70
8
 71
3
 72
8
 73
4
 74
0
 40
0
 40
0
 40
0
 40
0
 40
1
 40
1
 40
1
 40
1
 10
207.101685
 20
247.265227
 30
0.0
 10
207.101685
 20
177.332372
 30
0.0
 10
150.409905
 20
120.640591
 30
0.0
 10
80.477050
 20
120.640591
 30
0.0
  0
SPLINE
  5
13e
100
AcDbEntity
  8
0
 62
7
100
AcDbSpline
 70
8
 71
3
 72
8
 73
4
 74
0
 40
0
 40
0
 40
0
 40
0
 40
1
 40
1
 40
1
 40
1
 10
80.477050
 20
247.265227
 30
0.0
 10
122.299329
 20
271.411331
 30
0.0
 10
174.214506
 20
269.666602
 30
0.0
 10
214.321280
 20
242.767082
 30
0.0
  0
SPLINE
  5
13f
100
AcDbEntity
  8
0
 62
7
100
AcDbSpline
 70
8
 71
3
 72
8
 73
4
 74
0
 40
0
 40
0
 40
0
 40
0
 40
1
 40
1
 40
1
 40
1
 10
214.321280
 20
242.767082
 30
0.0
 10
254.428053
 20
215.867563
 30
0.0
 10
275.742381
 20
168.497435
 30
0.0
 10
269.272452
 20
120.640591
 30
0.0
  0
SPLINE
  5
140
100
AcDbEntity
  8
0
 62
7
100
AcDbSpline
 70
8
 71
3
 72
8
 73
4
 74
0
 40
0
 40
0
 40
0
 40
0
 40
1
 40
1
 40
1
 40
1
 10
144.930918
 20
120.640591
 30
0.0
 10
138.323758
 20
169.512507
 30
0.0
 10
160.692466
 20
217.774280
 30
0.0
 10
202.254837
 20
244.320241
 30
0.0
  0
SPLINE
  5
141
100
AcDbEntity
  8
0
 62
7
100
AcDbSpline
 70
8
 71
3
 72
8
 73
4
 74
0
 40
0
 40
0
 40
0
 40
0
 40
1
 40
1
 40
1
 40
1
 10
202.254837
 20
244.320241
 30
0.0
 10
243.817209
 20
270.866201
 30
0.0
 10
297.010797
 20
270.866201
 30
0.0
 10
338.573168
 20
244.320241
 30
0.0
  0
SPLINE
  5
142
100
AcDbEntity
  8
0
 62
7
100
AcDbSpline
 70
8
 71
3
 72
8
 73
4
 74
0
 40
0
 40
0
 40
0
 40
0
 40
1
 40
1
 40
1
 40
1
 10
338.573168
 20
244.320241
 30
0.0
 10
380.135540
 20
217.774280
 30
0.0
 10
402.504248
 20
169.512507
 30
0.0
 10
395.897087
 20
120.640591
 30
0.0
  0
SPLINE
  5
143
100
AcDbEntity
  8
0
 62
7
100
AcDbSpline
 70
8
 71
3
 72
8
 73
4
 74
0
 40
0
 40
0
 40
0
 40
0
 40
1
 40
1
 40
1
 40
1
 10
649.146358
 20
593.210164
 30
0.0
 10
655.753519
 20
544.338248
 30
0.0
 10
633.384810
 20
496.076475
 30
0.0
 10
591.822439
 20
469.530515
 30
0.0
  0
SPLINE
  5
144
100
AcDbEntity
  8
0
 62
7
100
AcDbSpline
 70
8
 71
3
 72
8
 73
4
 74
0
 40
0
 40
0
 40
0
 40
0
 40
1
 40
1
 40
1
 40
1
 10
591.822439
 20
469.530515
 30
0.0
 10
550.260068
 20
442.984554
 30
0.0
 10
497.066479
 20
442.984554
 30
0.0
 10
455.504108
 20
469.530515
 30
0.0
  0
SPLINE
  5
145
100
AcDbEntity
  8
0
 62
7
100
AcDbSpline
 70
8
 71
3
 72
8
 73
4
 74
0
 40
0
 40
0
 40
0
 40
0
 40
1
 40
1
 40
1
 40
1
 10
455.504108
 20
469.530515
 30
0.0
 10
413.941736
 20
496.076475
 30
0.0
 10
391.573028
 20
544.338248
 30
0.0
 10
398.180189
 20
593.210164
 30
0.0
  0
SPLINE
  5
146
100
AcDbEntity
  8
0
 62
7
100
AcDbSpline
 70
8
 71
3
 72
8
 73
4
 74
0
 40
0
 40
0
 40
0
 40
0
 40
1
 40
1
 40
1
 40
1
 10
713.600227
 20
466.585529
 30
0.0
 10
671.777947
 20
442.439424
 30
0.0
 10
619.862770
 20
444.184154
 30
0.0
 10
579.755997
 20
471.083673
 30
0.0
  0
SPLINE
  5
147
100
AcDbEntity
  8
0
 62
7
100
AcDbSpline
 70
8
 71
3
 72
8
 73
4
 74
0
 40
0
 40
0
 40
0
 40
0
 40
1
 40
1
 40
1
 40
1
 10
579.755997
 20
471.083673
 30
0.0
 10
539.649223
 20
497.983192
 30
0.0
 10
518.334895
 20
545.353321
 30
0.0
 10
524.804824
 20
593.210164
 30
0.0
  0
SPLINE
  5
148
100
AcDbEntity
  8
0
 62
7
100
AcDbSpline
 70
8
 71
3
 72
8
 73
4
 74
0
 40
0
 40
0
 40
0
 40
0
 40
1
 40
1
 40
1
 40
1
 10
649.146358
 20
120.640591
 30
0.0
 10
655.753519
 20
169.512507
 30
0.0
 10
633.384810
 20
217.774280
 30
0.0
 10
591.822439
 20
244.320241
 30
0.0
  0
SPLINE
  5
149
100
AcDbEntity
  8
0
 62
7
100
AcDbSpline
 70
8
 71
3
 72
8
 73
4
 74
0
 40
0
 40
0
 40
0
 40
0
 40
1
 40
1
 40
1
 40
1
 10
591.822439
 20
244.320241
 30
0.0
 10
550.260068
 20
270.866201
 30
0.0
 10
497.066479
 20
270.866201
 30
0.0
 10
455.504108
 20
244.320241
 30
0.0
  0
SPLINE
  5
14a
100
AcDbEntity
  8
0
 62
7
100
AcDbSpline
 70
8
 71
3
 72
8
 73
4
 74
0
 40
0
 40
0
 40
0
 40
0
 40
1
 40
1
 40
1
 40
1
 10
455.504108
 20
244.320241
 30
0.0
 10
413.941736
 20
217.774280
 30
0.0
 10
391.573028
 20
169.512507
 30
0.0
 10
398.180189
 20
120.640591
 30
0.0
  0
SPLINE
  5
14b
100
AcDbEntity
  8
0
 62
7
100
AcDbSpline
 70
8
 71
3
 72
8
 73
4
 74
0
 40
0
 40
0
 40
0
 40
0
 40
1
 40
1
 40
1
 40
1
 10
713.600227
 20
373.889862
 30
0.0
 10
643.667371
 20
373.889862
 30
0.0
 10
586.975591
 20
317.198082
 30
0.0
 10
586.975591
 20
247.265227
 30
0.0
  0
SPLINE
  5
14c
100
AcDbEntity
  8
0
 62
7
100
AcDbSpline
 70
8
 71
3
 72
8
 73
4
 74
0
 40
0
 40
0
 40
0
 40
0
 40
1
 40
1
 40
1
 40
1
 10
586.975591
 20
247.265227
 30
0.0
 10
586.975591
 20
177.332372
 30
0.0
 10
643.667371
 20
120.640591
 30
0.0
 10
713.600227
 20
120.640591
 30
0.0
  0
SPLINE
  5
14d
100
AcDbEntity
  8
0
 62
7
100
AcDbSpline
 70
8
 71
3
 72
8
 73
4
 74
0
 40
0
 40
0
 40
0
 40
0
 40
1
 40
1
 40
1
 40
1
 10
713.600227
 20
247.265227
 30
0.0
 10
671.777947
 20
271.411331
 30
0.0
 10
619.862770
 20
269.666602
 30
0.0
 10
579.755997
 20
242.767082
 30
0.0
  0
SPLINE
  5
14e
100
AcDbEntity
  8
0
 62
7
100
AcDbSpline
 70
8
 71
3
 72
8
 73
4
 74
0
 40
0
 40
0
 40
0
 40
0
 40
1
 40
1
 40
1
 40
1
 10
579.755997
 20
242.767082
 30
0.0
 10
539.649223
 20
215.867563
 30
0.0
 10
518.334895
 20
168.497435
 30
0.0
 10
524.804824
 20
120.640591
 30
0.0
  0
SPLINE
  5
14f
100
AcDbEntity
  8
0
 62
7
100
AcDbSpline
 70
8
 71
3
 72
8
 73
4
 74
0
 40
0
 40
0
 40
0
 40
0
 40
1
 40
1
 40
1
 40
1
 10
713.600227
 20
247.265227
 30
0.0
 10
660.382852
 20
216.540161
 30
0.0
 10
592.787193
 20
228.459100
 30
0.0
 10
553.287811
 20
275.532631
 30
0.0
  0
SPLINE
  5
150
100
AcDbEntity
  8
0
 62
7
100
AcDbSpline
 70
8
 71
3
 72
8
 73
4
 74
0
 40
0
 40
0
 40
0
 40
0
 40
1
 40
1
 40
1
 40
1
 10
553.287811
 20
275.532631
 30
0.0
 10
513.788428
 20
322.606162
 30
0.0
 10
513.788428
 20
391.244593
 30
0.0
 10
553.287811
 20
438.318124
 30
0.0
  0
SPLINE
  5
151
100
AcDbEntity
  8
0
 62
7
100
AcDbSpline
 70
8
 71
3
 72
8
 73
4
 74
0
 40
0
 40
0
 40
0
 40
0
 40
1
 40
1
 40
1
 40
1
 10
553.287811
 20
438.318124
 30
0.0
 10
592.787193
 20
485.391656
 30
0.0
 10
660.382852
 20
497.310594
 30
0.0
 10
713.600227
 20
466.585529
 30
0.0
  0
SPLINE
  5
152
100
AcDbEntity
  8
0
 62
7
100
AcDbSpline
 70
8
 71
3
 72
8
 73
4
 74
0
 40
0
 40
0
 40
0
 40
0
 40
1
 40
1
 40
1
 40
1
 10
713.600227
 20
339.960893
 30
0.0
 10
643.667371
 20
339.960893
 30
0.0
 10
586.975591
 20
396.652674
 30
0.0
 10
586.975591
 20
466.585529
 30
0.0
  0
SPLINE
  5
153
100
AcDbEntity
  8
0
 62
7
100
AcDbSpline
 70
8
 71
3
 72
8
 73
4
 74
0
 40
0
 40
0
 40
0
 40
0
 40
1
 40
1
 40
1
 40
1
 10
586.975591
 20
466.585529
 30
0.0
 10
586.975591
 20
536.518384
 30
0.0
 10
643.667371
 20
593.210164
 30
0.0
 10
713.600227
 20
593.210164
 30
0.0
  0
SPLINE
  5
154
100
AcDbEntity
  8
0
 62
7
100
AcDbSpline
 70
8
 71
3
 72
8
 73
4
 74
0
 40
0
 40
0
 40
0
 40
0
 40
1
 40
1
 40
1
 40
1
 10
333.726320
 20
247.265227
 30
0.0
 10
289.234023
 20
221.577587
 30
0.0
 10
264.672571
 20
171.552711
 30
0.0
 10
271.555553
 20
120.640591
 30
0.0
  0
SPLINE
  5
155
100
AcDbEntity
  8
0
 62
7
100
AcDbSpline
 70
8
 71
3
 72
8
 73
4
 74
0
 40
0
 40
0
 40
0
 40
0
 40
1
 40
1
 40
1
 40
1
 10
460.350956
 20
247.265227
 30
0.0
 10
504.843253
 20
221.577587
 30
0.0
 10
529.404705
 20
171.552711
 30
0.0
 10
522.521723
 20
120.640591
 30
0.0
  0
SPLINE
  5
156
100
AcDbEntity
  8
0
 62
7
100
AcDbSpline
 70
8
 71
3
 72
8
 73
4
 74
0
 40
0
 40
0
 40
0
 40
0
 40
1
 40
1
 40
1
 40
1
 10
333.726320
 20
466.585529
 30
0.0
 10
289.234023
 20
492.273169
 30
0.0
 10
264.672571
 20
542.298045
 30
0.0
 10
271.555553
 20
593.210164
 30
0.0
  0
SPLINE
  5
157
100
AcDbEntity
  8
0
 62
7
100
AcDbSpline
 70
8
 71
3
 72
8
 73
4
 74
0
 40
0
 40
0
 40
0
 40
0
 40
1
 40
1
 40
1
 40
1
 10
460.350956
 20
466.585529
 30
0.0
 10
504.843253
 20
492.273169
 30
0.0
 10
529.404705
 20
542.298045
 30
0.0
 10
522.521723
 20
593.210164
 30
0.0
  0
SPLINE
  5
158
100
AcDbEntity
  8
0
 62
7
100
AcDbSpline
 70
8
 71
3
 72
8
 73
4
 74
0
 40
0
 40
0
 40
0
 40
0
 40
1
 40
1
 40
1
 40
1
 10
333.726320
 20
466.585529
 30
0.0
 10
294.548522
 20
443.966216
 30
0.0
 10
270.414003
 20
402.164003
 30
0.0
 10
270.414003
 20
356.925378
 30
0.0
  0
SPLINE
  5
159
100
AcDbEntity
  8
0
 62
7
100
AcDbSpline
 70
8
 71
3
 72
8
 73
4
 74
0
 40
0
 40
0
 40
0
 40
0
 40
1
 40
1
 40
1
 40
1
 10
270.414003
 20
356.925378
 30
0.0
 10
270.414003
 20
311.686753
 30
0.0
 10
294.548522
 20
269.884539
 30
0.0
 10
333.726320
 20
247.265227
 30
0.0
  0
SPLINE
  5
15a
100
AcDbEntity
  8
0
 62
7
100
AcDbSpline
 70
8
 71
3
 72
8
 73
4
 74
0
 40
0
 40
0
 40
0
 40
0
 40
1
 40
1
 40
1
 40
1
 10
460.350956
 20
466.585529
 30
0.0
 10
499.528754
 20
443.966216
 30
0.0
 10
523.663273
 20
402.164003
 30
0.0
 10
523.663273
 20
356.925378
 30
0.0
  0
SPLINE
  5
15b
100
AcDbEntity
  8
0
 62
7
100
AcDbSpline
 70
8
 71
3
 72
8
 73
4
 74
0
 40
0
 40
0
 40
0
 40
0
 40
1
 40
1
 40
1
 40
1
 10
523.663273
 20
356.925378
 30
0.0
 10
523.663273
 20
311.686753
 30
0.0
 10
499.528754
 20
269.884539
 30
0.0
 10
460.350956
 20
247.265227
 30
0.0
  0
SPLINE
  5
15c
100
AcDbEntity
  8
0
 62
7
100
AcDbSpline
 70
8
 71
3
 72
8
 73
4
 74
0
 40
0
 40
0
 40
0
 40
0
 40
1
 40
1
 40
1
 40
1
 10
586.975591
 20
466.585529
 30
0.0
 10
586.975591
 20
431.619101
 30
0.0
 10
558.629701
 20
403.273211
 30
0.0
 10
523.663273
 20
403.273211
 30
0.0
  0
SPLINE
  5
15d
100
AcDbEntity
  8
0
 62
7
100
AcDbSpline
 70
8
 71
3
 72
8
 73
4
 74
0
 40
0
 40
0
 40
0
 40
0
 40
1
 40
1
 40
1
 40
1
 10
523.663273
 20
403.273211
 30
0.0
 10
488.696846
 20
403.273211
 30
0.0
 10
460.350956
 20
431.619101
 30
0.0
 10
460.350956
 20
466.585529
 30
0.0
  0
SPLINE
  5
15e
100
AcDbEntity
  8
0
 62
7
100
AcDbSpline
 70
8
 71
3
 72
8
 73
4
 74
0
 40
0
 40
0
 40
0
 40
0
 40
1
 40
1
 40
1
 40
1
 10
460.350956
 20
466.585529
 30
0.0
 10
460.350956
 20
501.551956
 30
0.0
 10
488.696846
 20
529.897846
 30
0.0
 10
523.663273
 20
529.897846
 30
0.0
  0
SPLINE
  5
15f
100
AcDbEntity
  8
0
 62
7
100
AcDbSpline
 70
8
 71
3
 72
8
 73
4
 74
0
 40
0
 40
0
 40
0
 40
0
 40
1
 40
1
 40
1
 40
1
 10
523.663273
 20
529.897846
 30
0.0
 10
558.629701
 20
529.897846
 30
0.0
 10
586.975591
 20
501.551956
 30
0.0
 10
586.975591
 20
466.585529
 30
0.0
  0
LWPOLYLINE
  5
160
100
AcDbEntity
  8
0
 62
7
100
AcDbPolyline
 90
1
 70
1
 10
713.600227
 20
247.265227
 30
0.0
  0
SPLINE
  5
161
100
AcDbEntity
  8
0
 62
7
100
AcDbSpline
 70
8
 71
3
 72
8
 73
4
 74
0
 40
0
 40
0
 40
0
 40
0
 40
1
 40
1
 40
1
 40
1
 10
492.007115
 20
302.095302
 30
0.0
 10
492.007115
 20
267.128875
 30
0.0
 10
463.661224
 20
238.782985
 30
0.0
 10
428.694797
 20
238.782985
 30
0.0
  0
SPLINE
  5
162
100
AcDbEntity
  8
0
 62
7
100
AcDbSpline
 70
8
 71
3
 72
8
 73
4
 74
0
 40
0
 40
0
 40
0
 40
0
 40
1
 40
1
 40
1
 40
1
 10
428.694797
 20
238.782985
 30
0.0
 10
393.728369
 20
238.782985
 30
0.0
 10
365.382479
 20
267.128875
 30
0.0
 10
365.382479
 20
302.095302
 30
0.0
  0
SPLINE
  5
163
100
AcDbEntity
  8
0
 62
7
100
AcDbSpline
 70
8
 71
3
 72
8
 73
4
 74
0
 40
0
 40
0
 40
0
 40
0
 40
1
 40
1
 40
1
 40
1
 10
365.382479
 20
302.095302
 30
0.0
 10
365.382479
 20
337.061730
 30
0.0
 10
393.728369
 20
365.407620
 30
0.0
 10
428.694797
 20
365.407620
 30
0.0
  0
SPLINE
  5
164
100
AcDbEntity
  8
0
 62
7
100
AcDbSpline
 70
8
 71
3
 72
8
 73
4
 74
0
 40
0
 40
0
 40
0
 40
0
 40
1
 40
1
 40
1
 40
1
 10
428.694797
 20
365.407620
 30
0.0
 10
463.661224
 20
365.407620
 30
0.0
 10
492.007115
 20
337.061730
 30
0.0
 10
492.007115
 20
302.095302
 30
0.0
  0
LWPOLYLINE
  5
165
100
AcDbEntity
  8
0
 62
7
100
AcDbPolyline
 90
1
 70
1
 10
586.975591
 20
466.585529
 30
0.0
  0
SPLINE
  5
166
100
AcDbEntity
  8
0
 62
7
100
AcDbSpline
 70
8
 71
3
 72
8
 73
4
 74
0
 40
0
 40
0
 40
0
 40
0
 40
1
 40
1
 40
1
 40
1
 10
492.007115
 20
521.415604
 30
0.0
 10
492.007115
 20
486.449177
 30
0.0
 10
463.661224
 20
458.103287
 30
0.0
 10
428.694797
 20
458.103287
 30
0.0
  0
SPLINE
  5
167
100
AcDbEntity
  8
0
 62
7
100
AcDbSpline
 70
8
 71
3
 72
8
 73
4
 74
0
 40
0
 40
0
 40
0
 40
0
 40
1
 40
1
 40
1
 40
1
 10
428.694797
 20
458.103287
 30
0.0
 10
393.728369
 20
458.103287
 30
0.0
 10
365.382479
 20
486.449177
 30
0.0
 10
365.382479
 20
521.415604
 30
0.0
  0
SPLINE
  5
168
100
AcDbEntity
  8
0
 62
7
100
AcDbSpline
 70
8
 71
3
 72
8
 73
4
 74
0
 40
0
 40
0
 40
0
 40
0
 40
1
 40
1
 40
1
 40
1
 10
365.382479
 20
521.415604
 30
0.0
 10
365.382479
 20
556.382032
 30
0.0
 10
393.728369
 20
584.727922
 30
0.0
 10
428.694797
 20
584.727922
 30
0.0
  0
SPLINE
  5
169
100
AcDbEntity
  8
0
 62
7
100
AcDbSpline
 70
8
 71
3
 72
8
 73
4
 74
0
 40
0
 40
0
 40
0
 40
0
 40
1
 40
1
 40
1
 40
1
 10
428.694797
 20
584.727922
 30
0.0
 10
463.661224
 20
584.727922
 30
0.0
 10
492.007115
 20
556.382032
 30
0.0
 10
492.007115
 20
521.415604
 30
0.0
  0
LWPOLYLINE
  5
16a
100
AcDbEntity
  8
0
 62
7
100
AcDbPolyline
 90
1
 70
1
 10
492.007115
 20
302.095302
 30
0.0
  0
SPLINE
  5
16b
100
AcDbEntity
  8
0
 62
7
100
AcDbSpline
 70
8
 71
3
 72
8
 73
4
 74
0
 40
0
 40
0
 40
0
 40
0
 40
1
 40
1
 40
1
 40
1
 10
397.038638
 20
356.925378
 30
0.0
 10
397.038638
 20
321.958950
 30
0.0
 10
368.692748
 20
293.613060
 30
0.0
 10
333.726320
 20
293.613060
 30
0.0
  0
SPLINE
  5
16c
100
AcDbEntity
  8
0
 62
7
100
AcDbSpline
 70
8
 71
3
 72
8
 73
4
 74
0
 40
0
 40
0
 40
0
 40
0
 40
1
 40
1
 40
1
 40
1
 10
333.726320
 20
293.613060
 30
0.0
 10
298.759893
 20
293.613060
 30
0.0
 10
270.414003
 20
321.958950
 30
0.0
 10
270.414003
 20
356.925378
 30
0.0
  0
SPLINE
  5
16d
100
AcDbEntity
  8
0
 62
7
100
AcDbSpline
 70
8
 71
3
 72
8
 73
4
 74
0
 40
0
 40
0
 40
0
 40
0
 40
1
 40
1
 40
1
 40
1
 10
270.414003
 20
356.925378
 30
0.0
 10
270.414003
 20
391.891805
 30
0.0
 10
298.759893
 20
420.237695
 30
0.0
 10
333.726320
 20
420.237695
 30
0.0
  0
SPLINE
  5
16e
100
AcDbEntity
  8
0
 62
7
100
AcDbSpline
 70
8
 71
3
 72
8
 73
4
 74
0
 40
0
 40
0
 40
0
 40
0
 40
1
 40
1
 40
1
 40
1
 10
333.726320
 20
420.237695
 30
0.0
 10
368.692748
 20
420.237695
 30
0.0
 10
397.038638
 20
391.891805
 30
0.0
 10
397.038638
 20
356.925378
 30
0.0
  0
LWPOLYLINE
  5
16f
100
AcDbEntity
  8
0
 62
7
100
AcDbPolyline
 90
1
 70
1
 10
492.007115
 20
521.415604
 30
0.0
  0
SPLINE
  5
170
100
AcDbEntity
  8
0
 62
7
100
AcDbSpline
 70
8
 71
3
 72
8
 73
4
 74
0
 40
0
 40
0
 40
0
 40
0
 40
1
 40
1
 40
1
 40
1
 10
302.070162
 20
411.755453
 30
0.0
 10
302.070162
 20
376.789026
 30
0.0
 10
273.724271
 20
348.443136
 30
0.0
 10
238.757844
 20
348.443136
 30
0.0
  0
SPLINE
  5
171
100
AcDbEntity
  8
0
 62
7
100
AcDbSpline
 70
8
 71
3
 72
8
 73
4
 74
0
 40
0
 40
0
 40
0
 40
0
 40
1
 40
1
 40
1
 40
1
 10
238.757844
 20
348.443136
 30
0.0
 10
203.791416
 20
348.443136
 30
0.0
 10
175.445526
 20
376.789026
 30
0.0
 10
175.445526
 20
411.755453
 30
0.0
  0
SPLINE
  5
172
100
AcDbEntity
  8
0
 62
7
100
AcDbSpline
 70
8
 71
3
 72
8
 73
4
 74
0
 40
0
 40
0
 40
0
 40
0
 40
1
 40
1
 40
1
 40
1
 10
175.445526
 20
411.755453
 30
0.0
 10
175.445526
 20
446.721881
 30
0.0
 10
203.791416
 20
475.067771
 30
0.0
 10
238.757844
 20
475.067771
 30
0.0
  0
SPLINE
  5
173
100
AcDbEntity
  8
0
 62
7
100
AcDbSpline
 70
8
 71
3
 72
8
 73
4
 74
0
 40
0
 40
0
 40
0
 40
0
 40
1
 40
1
 40
1
 40
1
 10
238.757844
 20
475.067771
 30
0.0
 10
273.724271
 20
475.067771
 30
0.0
 10
302.070162
 20
446.721881
 30
0.0
 10
302.070162
 20
411.755453
 30
0.0
  0
LWPOLYLINE
  5
174
100
AcDbEntity
  8
0
 62
7
100
AcDbPolyline
 90
1
 70
1
 10
397.038638
 20
356.925378
 30
0.0
  0
SPLINE
  5
175
100
AcDbEntity
  8
0
 62
7
100
AcDbSpline
 70
8
 71
3
 72
8
 73
4
 74
0
 40
0
 40
0
 40
0
 40
0
 40
1
 40
1
 40
1
 40
1
 10
302.070162
 20
521.415604
 30
0.0
 10
302.070162
 20
486.449177
 30
0.0
 10
273.724271
 20
458.103287
 30
0.0
 10
238.757844
 20
458.103287
 30
0.0
  0
SPLINE
  5
176
100
AcDbEntity
  8
0
 62
7
100
AcDbSpline
 70
8
 71
3
 72
8
 73
4
 74
0
 40
0
 40
0
 40
0
 40
0
 40
1
 40
1
 40
1
 40
1
 10
238.757844
 20
458.103287
 30
0.0
 10
203.791416
 20
458.103287
 30
0.0
 10
175.445526
 20
486.449177
 30
0.0
 10
175.445526
 20
521.415604
 30
0.0
  0
SPLINE
  5
177
100
AcDbEntity
  8
0
 62
7
100
AcDbSpline
 70
8
 71
3
 72
8
 73
4
 74
0
 40
0
 40
0
 40
0
 40
0
 40
1
 40
1
 40
1
 40
1
 10
175.445526
 20
521.415604
 30
0.0
 10
175.445526
 20
556.382032
 30
0.0
 10
203.791416
 20
584.727922
 30
0.0
 10
238.757844
 20
584.727922
 30
0.0
  0
SPLINE
  5
178
100
AcDbEntity
  8
0
 62
7
100
AcDbSpline
 70
8
 71
3
 72
8
 73
4
 74
0
 40
0
 40
0
 40
0
 40
0
 40
1
 40
1
 40
1
 40
1
 10
238.757844
 20
584.727922
 30
0.0
 10
273.724271
 20
584.727922
 30
0.0
 10
302.070162
 20
556.382032
 30
0.0
 10
302.070162
 20
521.415604
 30
0.0
  0
LWPOLYLINE
  5
179
100
AcDbEntity
  8
0
 62
7
100
AcDbPolyline
 90
1
 70
1
 10
302.070162
 20
411.755453
 30
0.0
  0
SPLINE
  5
17a
100
AcDbEntity
  8
0
 62
7
100
AcDbSpline
 70
8
 71
3
 72
8
 73
4
 74
0
 40
0
 40
0
 40
0
 40
0
 40
1
 40
1
 40
1
 40
1
 10
302.070162
 20
302.095302
 30
0.0
 10
302.070162
 20
267.128875
 30
0.0
 10
273.724271
 20
238.782985
 30
0.0
 10
238.757844
 20
238.782985
 30
0.0
  0
SPLINE
  5
17b
100
AcDbEntity
  8
0
 62
7
100
AcDbSpline
 70
8
 71
3
 72
8
 73
4
 74
0
 40
0
 40
0
 40
0
 40
0
 40
1
 40
1
 40
1
 40
1
 10
238.757844
 20
238.782985
 30
0.0
 10
203.791416
 20
238.782985
 30
0.0
 10
175.445526
 20
267.128875
 30
0.0
 10
175.445526
 20
302.095302
 30
0.0
  0
SPLINE
  5
17c
100
AcDbEntity
  8
0
 62
7
100
AcDbSpline
 70
8
 71
3
 72
8
 73
4
 74
0
 40
0
 40
0
 40
0
 40
0
 40
1
 40
1
 40
1
 40
1
 10
175.445526
 20
302.095302
 30
0.0
 10
175.445526
 20
337.061730
 30
0.0
 10
203.791416
 20
365.407620
 30
0.0
 10
238.757844
 20
365.407620
 30
0.0
  0
SPLINE
  5
17d
100
AcDbEntity
  8
0
 62
7
100
AcDbSpline
 70
8
 71
3
 72
8
 73
4
 74
0
 40
0
 40
0
 40
0
 40
0
 40
1
 40
1
 40
1
 40
1
 10
238.757844
 20
365.407620
 30
0.0
 10
273.724271
 20
365.407620
 30
0.0
 10
302.070162
 20
337.061730
 30
0.0
 10
302.070162
 20
302.095302
 30
0.0
  0
LWPOLYLINE
  5
17e
100
AcDbEntity
  8
0
 62
7
100
AcDbPolyline
 90
1
 70
1
 10
302.070162
 20
521.415604
 30
0.0
  0
SPLINE
  5
17f
100
AcDbEntity
  8
0
 62
7
100
AcDbSpline
 70
8
 71
3
 72
8
 73
4
 74
0
 40
0
 40
0
 40
0
 40
0
 40
1
 40
1
 40
1
 40
1
 10
302.070162
 20
192.435151
 30
0.0
 10
302.070162
 20
157.468724
 30
0.0
 10
273.724271
 20
129.122834
 30
0.0
 10
238.757844
 20
129.122834
 30
0.0
  0
SPLINE
  5
180
100
AcDbEntity
  8
0
 62
7
100
AcDbSpline
 70
8
 71
3
 72
8
 73
4
 74
0
 40
0
 40
0
 40
0
 40
0
 40
1
 40
1
 40
1
 40
1
 10
238.757844
 20
129.122834
 30
0.0
 10
203.791416
 20
129.122834
 30
0.0
 10
175.445526
 20
157.468724
 30
0.0
 10
175.445526
 20
192.435151
 30
0.0
  0
SPLINE
  5
181
100
AcDbEntity
  8
0
 62
7
100
AcDbSpline
 70
8
 71
3
 72
8
 73
4
 74
0
 40
0
 40
0
 40
0
 40
0
 40
1
 40
1
 40
1
 40
1
 10
175.445526
 20
192.435151
 30
0.0
 10
175.445526
 20
227.401579
 30
0.0
 10
203.791416
 20
255.747469
 30
0.0
 10
238.757844
 20
255.747469
 30
0.0
  0
SPLINE
  5
182
100
AcDbEntity
  8
0
 62
7
100
AcDbSpline
 70
8
 71
3
 72
8
 73
4
 74
0
 40
0
 40
0
 40
0
 40
0
 40
1
 40
1
 40
1
 40
1
 10
238.757844
 20
255.747469
 30
0.0
 10
273.724271
 20
255.747469
 30
0.0
 10
302.070162
 20
227.401579
 30
0.0
 10
302.070162
 20
192.435151
 30
0.0
  0
LWPOLYLINE
  5
183
100
AcDbEntity
  8
0
 62
7
100
AcDbPolyline
 90
1
 70
1
 10
302.070162
 20
302.095302
 30
0.0
  0
SPLINE
  5
184
100
AcDbEntity
  8
0
 62
7
100
AcDbSpline
 70
8
 71
3
 72
8
 73
4
 74
0
 40
0
 40
0
 40
0
 40
0
 40
1
 40
1
 40
1
 40
1
 10
207.101685
 20
247.265227
 30
0.0
 10
207.101685
 20
212.298799
 30
0.0
 10
178.755795
 20
183.952909
 30
0.0
 10
143.789367
 20
183.952909
 30
0.0
  0
SPLINE
  5
185
100
AcDbEntity
  8
0
 62
7
100
AcDbSpline
 70
8
 71
3
 72
8
 73
4
 74
0
 40
0
 40
0
 40
0
 40
0
 40
1
 40
1
 40
1
 40
1
 10
143.789367
 20
183.952909
 30
0.0
 10
108.822940
 20
183.952909
 30
0.0
 10
80.477050
 20
212.298799
 30
0.0
 10
80.477050
 20
247.265227
 30
0.0
  0
SPLINE
  5
186
100
AcDbEntity
  8
0
 62
7
100
AcDbSpline
 70
8
 71
3
 72
8
 73
4
 74
0
 40
0
 40
0
 40
0
 40
0
 40
1
 40
1
 40
1
 40
1
 10
80.477050
 20
247.265227
 30
0.0
 10
80.477050
 20
282.231654
 30
0.0
 10
108.822940
 20
310.577544
 30
0.0
 10
143.789367
 20
310.577544
 30
0.0
  0
SPLINE
  5
187
100
AcDbEntity
  8
0
 62
7
100
AcDbSpline
 70
8
 71
3
 72
8
 73
4
 74
0
 40
0
 40
0
 40
0
 40
0
 40
1
 40
1
 40
1
 40
1
 10
143.789367
 20
310.577544
 30
0.0
 10
178.755795
 20
310.577544
 30
0.0
 10
207.101685
 20
282.231654
 30
0.0
 10
207.101685
 20
247.265227
 30
0.0
  0
LWPOLYLINE
  5
188
100
AcDbEntity
  8
0
 62
7
100
AcDbPolyline
 90
1
 70
1
 10
302.070162
 20
192.435151
 30
0.0
  0
SPLINE
  5
189
100
AcDbEntity
  8
0
 62
7
100
AcDbSpline
 70
8
 71
3
 72
8
 73
4
 74
0
 40
0
 40
0
 40
0
 40
0
 40
1
 40
1
 40
1
 40
1
 10
681.944068
 20
521.415604
 30
0.0
 10
681.944068
 20
486.449177
 30
0.0
 10
653.598178
 20
458.103287
 30
0.0
 10
618.631750
 20
458.103287
 30
0.0
  0
SPLINE
  5
18a
100
AcDbEntity
  8
0
 62
7
100
AcDbSpline
 70
8
 71
3
 72
8
 73
4
 74
0
 40
0
 40
0
 40
0
 40
0
 40
1
 40
1
 40
1
 40
1
 10
618.631750
 20
458.103287
 30
0.0
 10
583.665322
 20
458.103287
 30
0.0
 10
555.319432
 20
486.449177
 30
0.0
 10
555.319432
 20
521.415604
 30
0.0
  0
SPLINE
  5
18b
100
AcDbEntity
  8
0
 62
7
100
AcDbSpline
 70
8
 71
3
 72
8
 73
4
 74
0
 40
0
 40
0
 40
0
 40
0
 40
1
 40
1
 40
1
 40
1
 10
555.319432
 20
521.415604
 30
0.0
 10
555.319432
 20
556.382032
 30
0.0
 10
583.665322
 20
584.727922
 30
0.0
 10
618.631750
 20
584.727922
 30
0.0
  0
SPLINE
  5
18c
100
AcDbEntity
  8
0
 62
7
100
AcDbSpline
 70
8
 71
3
 72
8
 73
4
 74
0
 40
0
 40
0
 40
0
 40
0
 40
1
 40
1
 40
1
 40
1
 10
618.631750
 20
584.727922
 30
0.0
 10
653.598178
 20
584.727922
 30
0.0
 10
681.944068
 20
556.382032
 30
0.0
 10
681.944068
 20
521.415604
 30
0.0
  0
LWPOLYLINE
  5
18d
100
AcDbEntity
  8
0
 62
7
100
AcDbPolyline
 90
1
 70
1
 10
207.101685
 20
247.265227
 30
0.0
  0
SPLINE
  5
18e
100
AcDbEntity
  8
0
 62
7
100
AcDbSpline
 70
8
 71
3
 72
8
 73
4
 74
0
 40
0
 40
0
 40
0
 40
0
 40
1
 40
1
 40
1
 40
1
 10
365.382479
 20
411.755453
 30
0.0
 10
365.382479
 20
376.789026
 30
0.0
 10
337.036589
 20
348.443136
 30
0.0
 10
302.070162
 20
348.443136
 30
0.0
  0
SPLINE
  5
18f
100
AcDbEntity
  8
0
 62
7
100
AcDbSpline
 70
8
 71
3
 72
8
 73
4
 74
0
 40
0
 40
0
 40
0
 40
0
 40
1
 40
1
 40
1
 40
1
 10
302.070162
 20
348.443136
 30
0.0
 10
267.103734
 20
348.443136
 30
0.0
 10
238.757844
 20
376.789026
 30
0.0
 10
238.757844
 20
411.755453
 30
0.0
  0
SPLINE
  5
190
100
AcDbEntity
  8
0
 62
7
100
AcDbSpline
 70
8
 71
3
 72
8
 73
4
 74
0
 40
0
 40
0
 40
0
 40
0
 40
1
 40
1
 40
1
 40
1
 10
238.757844
 20
411.755453
 30
0.0
 10
238.757844
 20
446.721881
 30
0.0
 10
267.103734
 20
475.067771
 30
0.0
 10
302.070162
 20
475.067771
 30
0.0
  0
SPLINE
  5
191
100
AcDbEntity
  8
0
 62
7
100
AcDbSpline
 70
8
 71
3
 72
8
 73
4
 74
0
 40
0
 40
0
 40
0
 40
0
 40
1
 40
1
 40
1
 40
1
 10
302.070162
 20
475.067771
 30
0.0
 10
337.036589
 20
475.067771
 30
0.0
 10
365.382479
 20
446.721881
 30
0.0
 10
365.382479
 20
411.755453
 30
0.0
  0
LWPOLYLINE
  5
192
100
AcDbEntity
  8
0
 62
7
100
AcDbPolyline
 90
1
 70
1
 10
681.944068
 20
521.415604
 30
0.0
  0
SPLINE
  5
193
100
AcDbEntity
  8
0
 62
7
100
AcDbSpline
 70
8
 71
3
 72
8
 73
4
 74
0
 40
0
 40
0
 40
0
 40
0
 40
1
 40
1
 40
1
 40
1
 10
492.007115
 20
411.755453
 30
0.0
 10
492.007115
 20
376.789026
 30
0.0
 10
463.661224
 20
348.443136
 30
0.0
 10
428.694797
 20
348.443136
 30
0.0
  0
SPLINE
  5
194
100
AcDbEntity
  8
0
 62
7
100
AcDbSpline
 70
8
 71
3
 72
8
 73
4
 74
0
 40
0
 40
0
 40
0
 40
0
 40
1
 40
1
 40
1
 40
1
 10
428.694797
 20
348.443136
 30
0.0
 10
393.728369
 20
348.443136
 30
0.0
 10
365.382479
 20
376.789026
 30
0.0
 10
365.382479
 20
411.755453
 30
0.0
  0
SPLINE
  5
195
100
AcDbEntity
  8
0
 62
7
100
AcDbSpline
 70
8
 71
3
 72
8
 73
4
 74
0
 40
0
 40
0
 40
0
 40
0
 40
1
 40
1
 40
1
 40
1
 10
365.382479
 20
411.755453
 30
0.0
 10
365.382479
 20
446.721881
 30
0.0
 10
393.728369
 20
475.067771
 30
0.0
 10
428.694797
 20
475.067771
 30
0.0
  0
SPLINE
  5
196
100
AcDbEntity
  8
0
 62
7
100
AcDbSpline
 70
8
 71
3
 72
8
 73
4
 74
0
 40
0
 40
0
 40
0
 40
0
 40
1
 40
1
 40
1
 40
1
 10
428.694797
 20
475.067771
 30
0.0
 10
463.661224
 20
475.067771
 30
0.0
 10
492.007115
 20
446.721881
 30
0.0
 10
492.007115
 20
411.755453
 30
0.0
  0
LWPOLYLINE
  5
197
100
AcDbEntity
  8
0
 62
7
100
AcDbPolyline
 90
1
 70
1
 10
365.382479
 20
411.755453
 30
0.0
  0
SPLINE
  5
198
100
AcDbEntity
  8
0
 62
7
100
AcDbSpline
 70
8
 71
3
 72
8
 73
4
 74
0
 40
0
 40
0
 40
0
 40
0
 40
1
 40
1
 40
1
 40
1
 10
428.694797
 20
411.755453
 30
0.0
 10
428.694797
 20
376.789026
 30
0.0
 10
400.348907
 20
348.443136
 30
0.0
 10
365.382479
 20
348.443136
 30
0.0
  0
SPLINE
  5
199
100
AcDbEntity
  8
0
 62
7
100
AcDbSpline
 70
8
 71
3
 72
8
 73
4
 74
0
 40
0
 40
0
 40
0
 40
0
 40
1
 40
1
 40
1
 40
1
 10
365.382479
 20
348.443136
 30
0.0
 10
330.416052
 20
348.443136
 30
0.0
 10
302.070162
 20
376.789026
 30
0.0
 10
302.070162
 20
411.755453
 30
0.0
  0
SPLINE
  5
19a
100
AcDbEntity
  8
0
 62
7
100
AcDbSpline
 70
8
 71
3
 72
8
 73
4
 74
0
 40
0
 40
0
 40
0
 40
0
 40
1
 40
1
 40
1
 40
1
 10
302.070162
 20
411.755453
 30
0.0
 10
302.070162
 20
446.721881
 30
0.0
 10
330.416052
 20
475.067771
 30
0.0
 10
365.382479
 20
475.067771
 30
0.0
  0
SPLINE
  5
19b
100
AcDbEntity
  8
0
 62
7
100
AcDbSpline
 70
8
 71
3
 72
8
 73
4
 74
0
 40
0
 40
0
 40
0
 40
0
 40
1
 40
1
 40
1
 40
1
 10
365.382479
 20
475.067771
 30
0.0
 10
400.348907
 20
475.067771
 30
0.0
 10
428.694797
 20
446.721881
 30
0.0
 10
428.694797
 20
411.755453
 30
0.0
  0
LWPOLYLINE
  5
19c
100
AcDbEntity
  8
0
 62
7
100
AcDbPolyline
 90
1
 70
1
 10
492.007115
 20
411.755453
 30
0.0
  0
SPLINE
  5
19d
100
AcDbEntity
  8
0
 62
7
100
AcDbSpline
 70
8
 71
3
 72
8
 73
4
 74
0
 40
0
 40
0
 40
0
 40
0
 40
1
 40
1
 40
1
 40
1
 10
365.382479
 20
302.095302
 30
0.0
 10
365.382479
 20
267.128875
 30
0.0
 10
337.036589
 20
238.782985
 30
0.0
 10
302.070162
 20
238.782985
 30
0.0
  0
SPLINE
  5
19e
100
AcDbEntity
  8
0
 62
7
100
AcDbSpline
 70
8
 71
3
 72
8
 73
4
 74
0
 40
0
 40
0
 40
0
 40
0
 40
1
 40
1
 40
1
 40
1
 10
302.070162
 20
238.782985
 30
0.0
 10
267.103734
 20
238.782985
 30
0.0
 10
238.757844
 20
267.128875
 30
0.0
 10
238.757844
 20
302.095302
 30
0.0
  0
SPLINE
  5
19f
100
AcDbEntity
  8
0
 62
7
100
AcDbSpline
 70
8
 71
3
 72
8
 73
4
 74
0
 40
0
 40
0
 40
0
 40
0
 40
1
 40
1
 40
1
 40
1
 10
238.757844
 20
302.095302
 30
0.0
 10
238.757844
 20
337.061730
 30
0.0
 10
267.103734
 20
365.407620
 30
0.0
 10
302.070162
 20
365.407620
 30
0.0
  0
SPLINE
  5
1a0
100
AcDbEntity
  8
0
 62
7
100
AcDbSpline
 70
8
 71
3
 72
8
 73
4
 74
0
 40
0
 40
0
 40
0
 40
0
 40
1
 40
1
 40
1
 40
1
 10
302.070162
 20
365.407620
 30
0.0
 10
337.036589
 20
365.407620
 30
0.0
 10
365.382479
 20
337.061730
 30
0.0
 10
365.382479
 20
302.095302
 30
0.0
  0
LWPOLYLINE
  5
1a1
100
AcDbEntity
  8
0
 62
7
100
AcDbPolyline
 90
1
 70
1
 10
428.694797
 20
411.755453
 30
0.0
  0
SPLINE
  5
1a2
100
AcDbEntity
  8
0
 62
7
100
AcDbSpline
 70
8
 71
3
 72
8
 73
4
 74
0
 40
0
 40
0
 40
0
 40
0
 40
1
 40
1
 40
1
 40
1
 10
428.694797
 20
302.095302
 30
0.0
 10
428.694797
 20
267.128875
 30
0.0
 10
400.348907
 20
238.782985
 30
0.0
 10
365.382479
 20
238.782985
 30
0.0
  0
SPLINE
  5
1a3
100
AcDbEntity
  8
0
 62
7
100
AcDbSpline
 70
8
 71
3
 72
8
 73
4
 74
0
 40
0
 40
0
 40
0
 40
0
 40
1
 40
1
 40
1
 40
1
 10
365.382479
 20
238.782985
 30
0.0
 10
330.416052
 20
238.782985
 30
0.0
 10
302.070162
 20
267.128875
 30
0.0
 10
302.070162
 20
302.095302
 30
0.0
  0
SPLINE
  5
1a4
100
AcDbEntity
  8
0
 62
7
100
AcDbSpline
 70
8
 71
3
 72
8
 73
4
 74
0
 40
0
 40
0
 40
0
 40
0
 40
1
 40
1
 40
1
 40
1
 10
302.070162
 20
302.095302
 30
0.0
 10
302.070162
 20
337.061730
 30
0.0
 10
330.416052
 20
365.407620
 30
0.0
 10
365.382479
 20
365.407620
 30
0.0
  0
SPLINE
  5
1a5
100
AcDbEntity
  8
0
 62
7
100
AcDbSpline
 70
8
 71
3
 72
8
 73
4
 74
0
 40
0
 40
0
 40
0
 40
0
 40
1
 40
1
 40
1
 40
1
 10
365.382479
 20
365.407620
 30
0.0
 10
400.348907
 20
365.407620
 30
0.0
 10
428.694797
 20
337.061730
 30
0.0
 10
428.694797
 20
302.095302
 30
0.0
  0
LWPOLYLINE
  5
1a6
100
AcDbEntity
  8
0
 62
7
100
AcDbPolyline
 90
1
 70
1
 10
365.382479
 20
302.095302
 30
0.0
  0
SPLINE
  5
1a7
100
AcDbEntity
  8
0
 62
7
100
AcDbSpline
 70
8
 71
3
 72
8
 73
4
 74
0
 40
0
 40
0
 40
0
 40
0
 40
1
 40
1
 40
1
 40
1
 10
492.007115
 20
302.095302
 30
0.0
 10
492.007115
 20
267.128875
 30
0.0
 10
463.661224
 20
238.782985
 30
0.0
 10
428.694797
 20
238.782985
 30
0.0
  0
SPLINE
  5
1a8
100
AcDbEntity
  8
0
 62
7
100
AcDbSpline
 70
8
 71
3
 72
8
 73
4
 74
0
 40
0
 40
0
 40
0
 40
0
 40
1
 40
1
 40
1
 40
1
 10
428.694797
 20
238.782985
 30
0.0
 10
393.728369
 20
238.782985
 30
0.0
 10
365.382479
 20
267.128875
 30
0.0
 10
365.382479
 20
302.095302
 30
0.0
  0
SPLINE
  5
1a9
100
AcDbEntity
  8
0
 62
7
100
AcDbSpline
 70
8
 71
3
 72
8
 73
4
 74
0
 40
0
 40
0
 40
0
 40
0
 40
1
 40
1
 40
1
 40
1
 10
365.382479
 20
302.095302
 30
0.0
 10
365.382479
 20
337.061730
 30
0.0
 10
393.728369
 20
365.407620
 30
0.0
 10
428.694797
 20
365.407620
 30
0.0
  0
SPLINE
  5
1aa
100
AcDbEntity
  8
0
 62
7
100
AcDbSpline
 70
8
 71
3
 72
8
 73
4
 74
0
 40
0
 40
0
 40
0
 40
0
 40
1
 40
1
 40
1
 40
1
 10
428.694797
 20
365.407620
 30
0.0
 10
463.661224
 20
365.407620
 30
0.0
 10
492.007115
 20
337.061730
 30
0.0
 10
492.007115
 20
302.095302
 30
0.0
  0
LWPOLYLINE
  5
1ab
100
AcDbEntity
  8
0
 62
7
100
AcDbPolyline
 90
1
 70
1
 10
428.694797
 20
302.095302
 30
0.0
  0
SPLINE
  5
1ac
100
AcDbEntity
  8
0
 62
7
100
AcDbSpline
 70
8
 71
3
 72
8
 73
4
 74
0
 40
0
 40
0
 40
0
 40
0
 40
1
 40
1
 40
1
 40
1
 10
523.663273
 20
356.925378
 30
0.0
 10
523.663273
 20
321.958950
 30
0.0
 10
495.317383
 20
293.613060
 30
0.0
 10
460.350956
 20
293.613060
 30
0.0
  0
SPLINE
  5
1ad
100
AcDbEntity
  8
0
 62
7
100
AcDbSpline
 70
8
 71
3
 72
8
 73
4
 74
0
 40
0
 40
0
 40
0
 40
0
 40
1
 40
1
 40
1
 40
1
 10
460.350956
 20
293.613060
 30
0.0
 10
425.384528
 20
293.613060
 30
0.0
 10
397.038638
 20
321.958950
 30
0.0
 10
397.038638
 20
356.925378
 30
0.0
  0
SPLINE
  5
1ae
100
AcDbEntity
  8
0
 62
7
100
AcDbSpline
 70
8
 71
3
 72
8
 73
4
 74
0
 40
0
 40
0
 40
0
 40
0
 40
1
 40
1
 40
1
 40
1
 10
397.038638
 20
356.925378
 30
0.0
 10
397.038638
 20
391.891805
 30
0.0
 10
425.384528
 20
420.237695
 30
0.0
 10
460.350956
 20
420.237695
 30
0.0
  0
SPLINE
  5
1af
100
AcDbEntity
  8
0
 62
7
100
AcDbSpline
 70
8
 71
3
 72
8
 73
4
 74
0
 40
0
 40
0
 40
0
 40
0
 40
1
 40
1
 40
1
 40
1
 10
460.350956
 20
420.237695
 30
0.0
 10
495.317383
 20
420.237695
 30
0.0
 10
523.663273
 20
391.891805
 30
0.0
 10
523.663273
 20
356.925378
 30
0.0
  0
LWPOLYLINE
  5
1b0
100
AcDbEntity
  8
0
 62
7
100
AcDbPolyline
 90
1
 70
1
 10
492.007115
 20
302.095302
 30
0.0
  0
SPLINE
  5
1b1
100
AcDbEntity
  8
0
 62
7
100
AcDbSpline
 70
8
 71
3
 72
8
 73
4
 74
0
 40
0
 40
0
 40
0
 40
0
 40
1
 40
1
 40
1
 40
1
 10
618.631750
 20
302.095302
 30
0.0
 10
618.631750
 20
267.128875
 30
0.0
 10
590.285860
 20
238.782985
 30
0.0
 10
555.319432
 20
238.782985
 30
0.0
  0
SPLINE
  5
1b2
100
AcDbEntity
  8
0
 62
7
100
AcDbSpline
 70
8
 71
3
 72
8
 73
4
 74
0
 40
0
 40
0
 40
0
 40
0
 40
1
 40
1
 40
1
 40
1
 10
555.319432
 20
238.782985
 30
0.0
 10
520.353005
 20
238.782985
 30
0.0
 10
492.007115
 20
267.128875
 30
0.0
 10
492.007115
 20
302.095302
 30
0.0
  0
SPLINE
  5
1b3
100
AcDbEntity
  8
0
 62
7
100
AcDbSpline
 70
8
 71
3
 72
8
 73
4
 74
0
 40
0
 40
0
 40
0
 40
0
 40
1
 40
1
 40
1
 40
1
 10
492.007115
 20
302.095302
 30
0.0
 10
492.007115
 20
337.061730
 30
0.0
 10
520.353005
 20
365.407620
 30
0.0
 10
555.319432
 20
365.407620
 30
0.0
  0
SPLINE
  5
1b4
100
AcDbEntity
  8
0
 62
7
100
AcDbSpline
 70
8
 71
3
 72
8
 73
4
 74
0
 40
0
 40
0
 40
0
 40
0
 40
1
 40
1
 40
1
 40
1
 10
555.319432
 20
365.407620
 30
0.0
 10
590.285860
 20
365.407620
 30
0.0
 10
618.631750
 20
337.061730
 30
0.0
 10
618.631750
 20
302.095302
 30
0.0
  0
LWPOLYLINE
  5
1b5
100
AcDbEntity
  8
0
 62
7
100
AcDbPolyline
 90
1
 70
1
 10
523.663273
 20
356.925378
 30
0.0
  0
SPLINE
  5
1b6
100
AcDbEntity
  8
0
 62
7
100
AcDbSpline
 70
8
 71
3
 72
8
 73
4
 74
0
 40
0
 40
0
 40
0
 40
0
 40
1
 40
1
 40
1
 40
1
 10
618.631750
 20
411.755453
 30
0.0
 10
618.631750
 20
376.789026
 30
0.0
 10
590.285860
 20
348.443136
 30
0.0
 10
555.319432
 20
348.443136
 30
0.0
  0
SPLINE
  5
1b7
100
AcDbEntity
  8
0
 62
7
100
AcDbSpline
 70
8
 71
3
 72
8
 73
4
 74
0
 40
0
 40
0
 40
0
 40
0
 40
1
 40
1
 40
1
 40
1
 10
555.319432
 20
348.443136
 30
0.0
 10
520.353005
 20
348.443136
 30
0.0
 10
492.007115
 20
376.789026
 30
0.0
 10
492.007115
 20
411.755453
 30
0.0
  0
SPLINE
  5
1b8
100
AcDbEntity
  8
0
 62
7
100
AcDbSpline
 70
8
 71
3
 72
8
 73
4
 74
0
 40
0
 40
0
 40
0
 40
0
 40
1
 40
1
 40
1
 40
1
 10
492.007115
 20
411.755453
 30
0.0
 10
492.007115
 20
446.721881
 30
0.0
 10
520.353005
 20
475.067771
 30
0.0
 10
555.319432
 20
475.067771
 30
0.0
  0
SPLINE
  5
1b9
100
AcDbEntity
  8
0
 62
7
100
AcDbSpline
 70
8
 71
3
 72
8
 73
4
 74
0
 40
0
 40
0
 40
0
 40
0
 40
1
 40
1
 40
1
 40
1
 10
555.319432
 20
475.067771
 30
0.0
 10
590.285860
 20
475.067771
 30
0.0
 10
618.631750
 20
446.721881
 30
0.0
 10
618.631750
 20
411.755453
 30
0.0
  0
LWPOLYLINE
  5
1ba
100
AcDbEntity
  8
0
 62
7
100
AcDbPolyline
 90
1
 70
1
 10
618.631750
 20
302.095302
 30
0.0
  0
SPLINE
  5
1bb
100
AcDbEntity
  8
0
 62
7
100
AcDbSpline
 70
8
 71
3
 72
8
 73
4
 74
0
 40
0
 40
0
 40
0
 40
0
 40
1
 40
1
 40
1
 40
1
 10
618.631750
 20
521.415604
 30
0.0
 10
618.631750
 20
486.449177
 30
0.0
 10
590.285860
 20
458.103287
 30
0.0
 10
555.319432
 20
458.103287
 30
0.0
  0
SPLINE
  5
1bc
100
AcDbEntity
  8
0
 62
7
100
AcDbSpline
 70
8
 71
3
 72
8
 73
4
 74
0
 40
0
 40
0
 40
0
 40
0
 40
1
 40
1
 40
1
 40
1
 10
555.319432
 20
458.103287
 30
0.0
 10
520.353005
 20
458.103287
 30
0.0
 10
492.007115
 20
486.449177
 30
0.0
 10
492.007115
 20
521.415604
 30
0.0
  0
SPLINE
  5
1bd
100
AcDbEntity
  8
0
 62
7
100
AcDbSpline
 70
8
 71
3
 72
8
 73
4
 74
0
 40
0
 40
0
 40
0
 40
0
 40
1
 40
1
 40
1
 40
1
 10
492.007115
 20
521.415604
 30
0.0
 10
492.007115
 20
556.382032
 30
0.0
 10
520.353005
 20
584.727922
 30
0.0
 10
555.319432
 20
584.727922
 30
0.0
  0
SPLINE
  5
1be
100
AcDbEntity
  8
0
 62
7
100
AcDbSpline
 70
8
 71
3
 72
8
 73
4
 74
0
 40
0
 40
0
 40
0
 40
0
 40
1
 40
1
 40
1
 40
1
 10
555.319432
 20
584.727922
 30
0.0
 10
590.285860
 20
584.727922
 30
0.0
 10
618.631750
 20
556.382032
 30
0.0
 10
618.631750
 20
521.415604
 30
0.0
  0
LWPOLYLINE
  5
1bf
100
AcDbEntity
  8
0
 62
7
100
AcDbPolyline
 90
1
 70
1
 10
618.631750
 20
411.755453
 30
0.0
  0
SPLINE
  5
1c0
100
AcDbEntity
  8
0
 62
7
100
AcDbSpline
 70
8
 71
3
 72
8
 73
4
 74
0
 40
0
 40
0
 40
0
 40
0
 40
1
 40
1
 40
1
 40
1
 10
713.600227
 20
466.585529
 30
0.0
 10
713.600227
 20
431.619101
 30
0.0
 10
685.254336
 20
403.273211
 30
0.0
 10
650.287909
 20
403.273211
 30
0.0
  0
SPLINE
  5
1c1
100
AcDbEntity
  8
0
 62
7
100
AcDbSpline
 70
8
 71
3
 72
8
 73
4
 74
0
 40
0
 40
0
 40
0
 40
0
 40
1
 40
1
 40
1
 40
1
 10
650.287909
 20
403.273211
 30
0.0
 10
615.321481
 20
403.273211
 30
0.0
 10
586.975591
 20
431.619101
 30
0.0
 10
586.975591
 20
466.585529
 30
0.0
  0
SPLINE
  5
1c2
100
AcDbEntity
  8
0
 62
7
100
AcDbSpline
 70
8
 71
3
 72
8
 73
4
 74
0
 40
0
 40
0
 40
0
 40
0
 40
1
 40
1
 40
1
 40
1
 10
586.975591
 20
466.585529
 30
0.0
 10
586.975591
 20
501.551956
 30
0.0
 10
615.321481
 20
529.897846
 30
0.0
 10
650.287909
 20
529.897846
 30
0.0
  0
SPLINE
  5
1c3
100
AcDbEntity
  8
0
 62
7
100
AcDbSpline
 70
8
 71
3
 72
8
 73
4
 74
0
 40
0
 40
0
 40
0
 40
0
 40
1
 40
1
 40
1
 40
1
 10
650.287909
 20
529.897846
 30
0.0
 10
685.254336
 20
529.897846
 30
0.0
 10
713.600227
 20
501.551956
 30
0.0
 10
713.600227
 20
466.585529
 30
0.0
  0
LWPOLYLINE
  5
1c4
100
AcDbEntity
  8
0
 62
7
100
AcDbPolyline
 90
1
 70
1
 10
618.631750
 20
521.415604
 30
0.0
  0
SPLINE
  5
1c5
100
AcDbEntity
  8
0
 62
7
100
AcDbSpline
 70
8
 71
3
 72
8
 73
4
 74
0
 40
0
 40
0
 40
0
 40
0
 40
1
 40
1
 40
1
 40
1
 10
555.319432
 20
521.415604
 30
0.0
 10
555.319432
 20
486.449177
 30
0.0
 10
526.973542
 20
458.103287
 30
0.0
 10
492.007115
 20
458.103287
 30
0.0
  0
SPLINE
  5
1c6
100
AcDbEntity
  8
0
 62
7
100
AcDbSpline
 70
8
 71
3
 72
8
 73
4
 74
0
 40
0
 40
0
 40
0
 40
0
 40
1
 40
1
 40
1
 40
1
 10
492.007115
 20
458.103287
 30
0.0
 10
457.040687
 20
458.103287
 30
0.0
 10
428.694797
 20
486.449177
 30
0.0
 10
428.694797
 20
521.415604
 30
0.0
  0
SPLINE
  5
1c7
100
AcDbEntity
  8
0
 62
7
100
AcDbSpline
 70
8
 71
3
 72
8
 73
4
 74
0
 40
0
 40
0
 40
0
 40
0
 40
1
 40
1
 40
1
 40
1
 10
428.694797
 20
521.415604
 30
0.0
 10
428.694797
 20
556.382032
 30
0.0
 10
457.040687
 20
584.727922
 30
0.0
 10
492.007115
 20
584.727922
 30
0.0
  0
SPLINE
  5
1c8
100
AcDbEntity
  8
0
 62
7
100
AcDbSpline
 70
8
 71
3
 72
8
 73
4
 74
0
 40
0
 40
0
 40
0
 40
0
 40
1
 40
1
 40
1
 40
1
 10
492.007115
 20
584.727922
 30
0.0
 10
526.973542
 20
584.727922
 30
0.0
 10
555.319432
 20
556.382032
 30
0.0
 10
555.319432
 20
521.415604
 30
0.0
  0
LWPOLYLINE
  5
1c9
100
AcDbEntity
  8
0
 62
7
100
AcDbPolyline
 90
1
 70
1
 10
713.600227
 20
466.585529
 30
0.0
  0
SPLINE
  5
1ca
100
AcDbEntity
  8
0
 62
7
100
AcDbSpline
 70
8
 71
3
 72
8
 73
4
 74
0
 40
0
 40
0
 40
0
 40
0
 40
1
 40
1
 40
1
 40
1
 10
555.319432
 20
411.755453
 30
0.0
 10
555.319432
 20
376.789026
 30
0.0
 10
526.973542
 20
348.443136
 30
0.0
 10
492.007115
 20
348.443136
 30
0.0
  0
SPLINE
  5
1cb
100
AcDbEntity
  8
0
 62
7
100
AcDbSpline
 70
8
 71
3
 72
8
 73
4
 74
0
 40
0
 40
0
 40
0
 40
0
 40
1
 40
1
 40
1
 40
1
 10
492.007115
 20
348.443136
 30
0.0
 10
457.040687
 20
348.443136
 30
0.0
 10
428.694797
 20
376.789026
 30
0.0
 10
428.694797
 20
411.755453
 30
0.0
  0
SPLINE
  5
1cc
100
AcDbEntity
  8
0
 62
7
100
AcDbSpline
 70
8
 71
3
 72
8
 73
4
 74
0
 40
0
 40
0
 40
0
 40
0
 40
1
 40
1
 40
1
 40
1
 10
428.694797
 20
411.755453
 30
0.0
 10
428.694797
 20
446.721881
 30
0.0
 10
457.040687
 20
475.067771
 30
0.0
 10
492.007115
 20
475.067771
 30
0.0
  0
SPLINE
  5
1cd
100
AcDbEntity
  8
0
 62
7
100
AcDbSpline
 70
8
 71
3
 72
8
 73
4
 74
0
 40
0
 40
0
 40
0
 40
0
 40
1
 40
1
 40
1
 40
1
 10
492.007115
 20
475.067771
 30
0.0
 10
526.973542
 20
475.067771
 30
0.0
 10
555.319432
 20
446.721881
 30
0.0
 10
555.319432
 20
411.755453
 30
0.0
  0
LWPOLYLINE
  5
1ce
100
AcDbEntity
  8
0
 62
7
100
AcDbPolyline
 90
1
 70
1
 10
555.319432
 20
521.415604
 30
0.0
  0
SPLINE
  5
1cf
100
AcDbEntity
  8
0
 62
7
100
AcDbSpline
 70
8
 71
3
 72
8
 73
4
 74
0
 40
0
 40
0
 40
0
 40
0
 40
1
 40
1
 40
1
 40
1
 10
650.287909
 20
356.925378
 30
0.0
 10
650.287909
 20
321.958950
 30
0.0
 10
621.942019
 20
293.613060
 30
0.0
 10
586.975591
 20
293.613060
 30
0.0
  0
SPLINE
  5
1d0
100
AcDbEntity
  8
0
 62
7
100
AcDbSpline
 70
8
 71
3
 72
8
 73
4
 74
0
 40
0
 40
0
 40
0
 40
0
 40
1
 40
1
 40
1
 40
1
 10
586.975591
 20
293.613060
 30
0.0
 10
552.009164
 20
293.613060
 30
0.0
 10
523.663273
 20
321.958950
 30
0.0
 10
523.663273
 20
356.925378
 30
0.0
  0
SPLINE
  5
1d1
100
AcDbEntity
  8
0
 62
7
100
AcDbSpline
 70
8
 71
3
 72
8
 73
4
 74
0
 40
0
 40
0
 40
0
 40
0
 40
1
 40
1
 40
1
 40
1
 10
523.663273
 20
356.925378
 30
0.0
 10
523.663273
 20
391.891805
 30
0.0
 10
552.009164
 20
420.237695
 30
0.0
 10
586.975591
 20
420.237695
 30
0.0
  0
SPLINE
  5
1d2
100
AcDbEntity
  8
0
 62
7
100
AcDbSpline
 70
8
 71
3
 72
8
 73
4
 74
0
 40
0
 40
0
 40
0
 40
0
 40
1
 40
1
 40
1
 40
1
 10
586.975591
 20
420.237695
 30
0.0
 10
621.942019
 20
420.237695
 30
0.0
 10
650.287909
 20
391.891805
 30
0.0
 10
650.287909
 20
356.925378
 30
0.0
  0
LWPOLYLINE
  5
1d3
100
AcDbEntity
  8
0
 62
7
100
AcDbPolyline
 90
1
 70
1
 10
555.319432
 20
411.755453
 30
0.0
  0
SPLINE
  5
1d4
100
AcDbEntity
  8
0
 62
7
100
AcDbSpline
 70
8
 71
3
 72
8
 73
4
 74
0
 40
0
 40
0
 40
0
 40
0
 40
1
 40
1
 40
1
 40
1
 10
555.319432
 20
302.095302
 30
0.0
 10
555.319432
 20
267.128875
 30
0.0
 10
526.973542
 20
238.782985
 30
0.0
 10
492.007115
 20
238.782985
 30
0.0
  0
SPLINE
  5
1d5
100
AcDbEntity
  8
0
 62
7
100
AcDbSpline
 70
8
 71
3
 72
8
 73
4
 74
0
 40
0
 40
0
 40
0
 40
0
 40
1
 40
1
 40
1
 40
1
 10
492.007115
 20
238.782985
 30
0.0
 10
457.040687
 20
238.782985
 30
0.0
 10
428.694797
 20
267.128875
 30
0.0
 10
428.694797
 20
302.095302
 30
0.0
  0
SPLINE
  5
1d6
100
AcDbEntity
  8
0
 62
7
100
AcDbSpline
 70
8
 71
3
 72
8
 73
4
 74
0
 40
0
 40
0
 40
0
 40
0
 40
1
 40
1
 40
1
 40
1
 10
428.694797
 20
302.095302
 30
0.0
 10
428.694797
 20
337.061730
 30
0.0
 10
457.040687
 20
365.407620
 30
0.0
 10
492.007115
 20
365.407620
 30
0.0
  0
SPLINE
  5
1d7
100
AcDbEntity
  8
0
 62
7
100
AcDbSpline
 70
8
 71
3
 72
8
 73
4
 74
0
 40
0
 40
0
 40
0
 40
0
 40
1
 40
1
 40
1
 40
1
 10
492.007115
 20
365.407620
 30
0.0
 10
526.973542
 20
365.407620
 30
0.0
 10
555.319432
 20
337.061730
 30
0.0
 10
555.319432
 20
302.095302
 30
0.0
  0
LWPOLYLINE
  5
1d8
100
AcDbEntity
  8
0
 62
7
100
AcDbPolyline
 90
1
 70
1
 10
650.287909
 20
356.925378
 30
0.0
  0
SPLINE
  5
1d9
100
AcDbEntity
  8
0
 62
7
100
AcDbSpline
 70
8
 71
3
 72
8
 73
4
 74
0
 40
0
 40
0
 40
0
 40
0
 40
1
 40
1
 40
1
 40
1
 10
270.414003
 20
356.925378
 30
0.0
 10
270.414003
 20
321.958950
 30
0.0
 10
242.068113
 20
293.613060
 30
0.0
 10
207.101685
 20
293.613060
 30
0.0
  0
SPLINE
  5
1da
100
AcDbEntity
  8
0
 62
7
100
AcDbSpline
 70
8
 71
3
 72
8
 73
4
 74
0
 40
0
 40
0
 40
0
 40
0
 40
1
 40
1
 40
1
 40
1
 10
207.101685
 20
293.613060
 30
0.0
 10
172.135257
 20
293.613060
 30
0.0
 10
143.789367
 20
321.958950
 30
0.0
 10
143.789367
 20
356.925378
 30
0.0
  0
SPLINE
  5
1db
100
AcDbEntity
  8
0
 62
7
100
AcDbSpline
 70
8
 71
3
 72
8
 73
4
 74
0
 40
0
 40
0
 40
0
 40
0
 40
1
 40
1
 40
1
 40
1
 10
143.789367
 20
356.925378
 30
0.0
 10
143.789367
 20
391.891805
 30
0.0
 10
172.135257
 20
420.237695
 30
0.0
 10
207.101685
 20
420.237695
 30
0.0
  0
SPLINE
  5
1dc
100
AcDbEntity
  8
0
 62
7
100
AcDbSpline
 70
8
 71
3
 72
8
 73
4
 74
0
 40
0
 40
0
 40
0
 40
0
 40
1
 40
1
 40
1
 40
1
 10
207.101685
 20
420.237695
 30
0.0
 10
242.068113
 20
420.237695
 30
0.0
 10
270.414003
 20
391.891805
 30
0.0
 10
270.414003
 20
356.925378
 30
0.0
  0
LWPOLYLINE
  5
1dd
100
AcDbEntity
  8
0
 62
7
100
AcDbPolyline
 90
1
 70
1
 10
555.319432
 20
302.095302
 30
0.0
  0
SPLINE
  5
1de
100
AcDbEntity
  8
0
 62
7
100
AcDbSpline
 70
8
 71
3
 72
8
 73
4
 74
0
 40
0
 40
0
 40
0
 40
0
 40
1
 40
1
 40
1
 40
1
 10
207.101685
 20
466.585529
 30
0.0
 10
207.101685
 20
431.619101
 30
0.0
 10
178.755795
 20
403.273211
 30
0.0
 10
143.789367
 20
403.273211
 30
0.0
  0
SPLINE
  5
1df
100
AcDbEntity
  8
0
 62
7
100
AcDbSpline
 70
8
 71
3
 72
8
 73
4
 74
0
 40
0
 40
0
 40
0
 40
0
 40
1
 40
1
 40
1
 40
1
 10
143.789367
 20
403.273211
 30
0.0
 10
108.822940
 20
403.273211
 30
0.0
 10
80.477050
 20
431.619101
 30
0.0
 10
80.477050
 20
466.585529
 30
0.0
  0
SPLINE
  5
1e0
100
AcDbEntity
  8
0
 62
7
100
AcDbSpline
 70
8
 71
3
 72
8
 73
4
 74
0
 40
0
 40
0
 40
0
 40
0
 40
1
 40
1
 40
1
 40
1
 10
80.477050
 20
466.585529
 30
0.0
 10
80.477050
 20
501.551956
 30
0.0
 10
108.822940
 20
529.897846
 30
0.0
 10
143.789367
 20
529.897846
 30
0.0
  0
SPLINE
  5
1e1
100
AcDbEntity
  8
0
 62
7
100
AcDbSpline
 70
8
 71
3
 72
8
 73
4
 74
0
 40
0
 40
0
 40
0
 40
0
 40
1
 40
1
 40
1
 40
1
 10
143.789367
 20
529.897846
 30
0.0
 10
178.755795
 20
529.897846
 30
0.0
 10
207.101685
 20
501.551956
 30
0.0
 10
207.101685
 20
466.585529
 30
0.0
  0
LWPOLYLINE
  5
1e2
100
AcDbEntity
  8
0
 62
7
100
AcDbPolyline
 90
1
 70
1
 10
270.414003
 20
356.925378
 30
0.0
  0
SPLINE
  5
1e3
100
AcDbEntity
  8
0
 62
7
100
AcDbSpline
 70
8
 71
3
 72
8
 73
4
 74
0
 40
0
 40
0
 40
0
 40
0
 40
1
 40
1
 40
1
 40
1
 10
365.382479
 20
521.415604
 30
0.0
 10
365.382479
 20
486.449177
 30
0.0
 10
337.036589
 20
458.103287
 30
0.0
 10
302.070162
 20
458.103287
 30
0.0
  0
SPLINE
  5
1e4
100
AcDbEntity
  8
0
 62
7
100
AcDbSpline
 70
8
 71
3
 72
8
 73
4
 74
0
 40
0
 40
0
 40
0
 40
0
 40
1
 40
1
 40
1
 40
1
 10
302.070162
 20
458.103287
 30
0.0
 10
267.103734
 20
458.103287
 30
0.0
 10
238.757844
 20
486.449177
 30
0.0
 10
238.757844
 20
521.415604
 30
0.0
  0
SPLINE
  5
1e5
100
AcDbEntity
  8
0
 62
7
100
AcDbSpline
 70
8
 71
3
 72
8
 73
4
 74
0
 40
0
 40
0
 40
0
 40
0
 40
1
 40
1
 40
1
 40
1
 10
238.757844
 20
521.415604
 30
0.0
 10
238.757844
 20
556.382032
 30
0.0
 10
267.103734
 20
584.727922
 30
0.0
 10
302.070162
 20
584.727922
 30
0.0
  0
SPLINE
  5
1e6
100
AcDbEntity
  8
0
 62
7
100
AcDbSpline
 70
8
 71
3
 72
8
 73
4
 74
0
 40
0
 40
0
 40
0
 40
0
 40
1
 40
1
 40
1
 40
1
 10
302.070162
 20
584.727922
 30
0.0
 10
337.036589
 20
584.727922
 30
0.0
 10
365.382479
 20
556.382032
 30
0.0
 10
365.382479
 20
521.415604
 30
0.0
  0
LWPOLYLINE
  5
1e7
100
AcDbEntity
  8
0
 62
7
100
AcDbPolyline
 90
1
 70
1
 10
207.101685
 20
466.585529
 30
0.0
  0
SPLINE
  5
1e8
100
AcDbEntity
  8
0
 62
7
100
AcDbSpline
 70
8
 71
3
 72
8
 73
4
 74
0
 40
0
 40
0
 40
0
 40
0
 40
1
 40
1
 40
1
 40
1
 10
333.726320
 20
466.585529
 30
0.0
 10
333.726320
 20
431.619101
 30
0.0
 10
305.380430
 20
403.273211
 30
0.0
 10
270.414003
 20
403.273211
 30
0.0
  0
SPLINE
  5
1e9
100
AcDbEntity
  8
0
 62
7
100
AcDbSpline
 70
8
 71
3
 72
8
 73
4
 74
0
 40
0
 40
0
 40
0
 40
0
 40
1
 40
1
 40
1
 40
1
 10
270.414003
 20
403.273211
 30
0.0
 10
235.447575
 20
403.273211
 30
0.0
 10
207.101685
 20
431.619101
 30
0.0
 10
207.101685
 20
466.585529
 30
0.0
  0
SPLINE
  5
1ea
100
AcDbEntity
  8
0
 62
7
100
AcDbSpline
 70
8
 71
3
 72
8
 73
4
 74
0
 40
0
 40
0
 40
0
 40
0
 40
1
 40
1
 40
1
 40
1
 10
207.101685
 20
466.585529
 30
0.0
 10
207.101685
 20
501.551956
 30
0.0
 10
235.447575
 20
529.897846
 30
0.0
 10
270.414003
 20
529.897846
 30
0.0
  0
SPLINE
  5
1eb
100
AcDbEntity
  8
0
 62
7
100
AcDbSpline
 70
8
 71
3
 72
8
 73
4
 74
0
 40
0
 40
0
 40
0
 40
0
 40
1
 40
1
 40
1
 40
1
 10
270.414003
 20
529.897846
 30
0.0
 10
305.380430
 20
529.897846
 30
0.0
 10
333.726320
 20
501.551956
 30
0.0
 10
333.726320
 20
466.585529
 30
0.0
  0
LWPOLYLINE
  5
1ec
100
AcDbEntity
  8
0
 62
7
100
AcDbPolyline
 90
1
 70
1
 10
365.382479
 20
521.415604
 30
0.0
  0
SPLINE
  5
1ed
100
AcDbEntity
  8
0
 62
7
100
AcDbSpline
 70
8
 71
3
 72
8
 73
4
 74
0
 40
0
 40
0
 40
0
 40
0
 40
1
 40
1
 40
1
 40
1
 10
428.694797
 20
521.415604
 30
0.0
 10
428.694797
 20
486.449177
 30
0.0
 10
400.348907
 20
458.103287
 30
0.0
 10
365.382479
 20
458.103287
 30
0.0
  0
SPLINE
  5
1ee
100
AcDbEntity
  8
0
 62
7
100
AcDbSpline
 70
8
 71
3
 72
8
 73
4
 74
0
 40
0
 40
0
 40
0
 40
0
 40
1
 40
1
 40
1
 40
1
 10
365.382479
 20
458.103287
 30
0.0
 10
330.416052
 20
458.103287
 30
0.0
 10
302.070162
 20
486.449177
 30
0.0
 10
302.070162
 20
521.415604
 30
0.0
  0
SPLINE
  5
1ef
100
AcDbEntity
  8
0
 62
7
100
AcDbSpline
 70
8
 71
3
 72
8
 73
4
 74
0
 40
0
 40
0
 40
0
 40
0
 40
1
 40
1
 40
1
 40
1
 10
302.070162
 20
521.415604
 30
0.0
 10
302.070162
 20
556.382032
 30
0.0
 10
330.416052
 20
584.727922
 30
0.0
 10
365.382479
 20
584.727922
 30
0.0
  0
SPLINE
  5
1f0
100
AcDbEntity
  8
0
 62
7
100
AcDbSpline
 70
8
 71
3
 72
8
 73
4
 74
0
 40
0
 40
0
 40
0
 40
0
 40
1
 40
1
 40
1
 40
1
 10
365.382479
 20
584.727922
 30
0.0
 10
400.348907
 20
584.727922
 30
0.0
 10
428.694797
 20
556.382032
 30
0.0
 10
428.694797
 20
521.415604
 30
0.0
  0
LWPOLYLINE
  5
1f1
100
AcDbEntity
  8
0
 62
7
100
AcDbPolyline
 90
1
 70
1
 10
333.726320
 20
466.585529
 30
0.0
  0
SPLINE
  5
1f2
100
AcDbEntity
  8
0
 62
7
100
AcDbSpline
 70
8
 71
3
 72
8
 73
4
 74
0
 40
0
 40
0
 40
0
 40
0
 40
1
 40
1
 40
1
 40
1
 10
555.319432
 20
192.435151
 30
0.0
 10
555.319432
 20
157.468724
 30
0.0
 10
526.973542
 20
129.122834
 30
0.0
 10
492.007115
 20
129.122834
 30
0.0
  0
SPLINE
  5
1f3
100
AcDbEntity
  8
0
 62
7
100
AcDbSpline
 70
8
 71
3
 72
8
 73
4
 74
0
 40
0
 40
0
 40
0
 40
0
 40
1
 40
1
 40
1
 40
1
 10
492.007115
 20
129.122834
 30
0.0
 10
457.040687
 20
129.122834
 30
0.0
 10
428.694797
 20
157.468724
 30
0.0
 10
428.694797
 20
192.435151
 30
0.0
  0
SPLINE
  5
1f4
100
AcDbEntity
  8
0
 62
7
100
AcDbSpline
 70
8
 71
3
 72
8
 73
4
 74
0
 40
0
 40
0
 40
0
 40
0
 40
1
 40
1
 40
1
 40
1
 10
428.694797
 20
192.435151
 30
0.0
 10
428.694797
 20
227.401579
 30
0.0
 10
457.040687
 20
255.747469
 30
0.0
 10
492.007115
 20
255.747469
 30
0.0
  0
SPLINE
  5
1f5
100
AcDbEntity
  8
0
 62
7
100
AcDbSpline
 70
8
 71
3
 72
8
 73
4
 74
0
 40
0
 40
0
 40
0
 40
0
 40
1
 40
1
 40
1
 40
1
 10
492.007115
 20
255.747469
 30
0.0
 10
526.973542
 20
255.747469
 30
0.0
 10
555.319432
 20
227.401579
 30
0.0
 10
555.319432
 20
192.435151
 30
0.0
  0
LWPOLYLINE
  5
1f6
100
AcDbEntity
  8
0
 62
7
100
AcDbPolyline
 90
1
 70
1
 10
428.694797
 20
521.415604
 30
0.0
  0
SPLINE
  5
1f7
100
AcDbEntity
  8
0
 62
7
100
AcDbSpline
 70
8
 71
3
 72
8
 73
4
 74
0
 40
0
 40
0
 40
0
 40
0
 40
1
 40
1
 40
1
 40
1
 10
428.694797
 20
192.435151
 30
0.0
 10
428.694797
 20
157.468724
 30
0.0
 10
400.348907
 20
129.122834
 30
0.0
 10
365.382479
 20
129.122834
 30
0.0
  0
SPLINE
  5
1f8
100
AcDbEntity
  8
0
 62
7
100
AcDbSpline
 70
8
 71
3
 72
8
 73
4
 74
0
 40
0
 40
0
 40
0
 40
0
 40
1
 40
1
 40
1
 40
1
 10
365.382479
 20
129.122834
 30
0.0
 10
330.416052
 20
129.122834
 30
0.0
 10
302.070162
 20
157.468724
 30
0.0
 10
302.070162
 20
192.435151
 30
0.0
  0
SPLINE
  5
1f9
100
AcDbEntity
  8
0
 62
7
100
AcDbSpline
 70
8
 71
3
 72
8
 73
4
 74
0
 40
0
 40
0
 40
0
 40
0
 40
1
 40
1
 40
1
 40
1
 10
302.070162
 20
192.435151
 30
0.0
 10
302.070162
 20
227.401579
 30
0.0
 10
330.416052
 20
255.747469
 30
0.0
 10
365.382479
 20
255.747469
 30
0.0
  0
SPLINE
  5
1fa
100
AcDbEntity
  8
0
 62
7
100
AcDbSpline
 70
8
 71
3
 72
8
 73
4
 74
0
 40
0
 40
0
 40
0
 40
0
 40
1
 40
1
 40
1
 40
1
 10
365.382479
 20
255.747469
 30
0.0
 10
400.348907
 20
255.747469
 30
0.0
 10
428.694797
 20
227.401579
 30
0.0
 10
428.694797
 20
192.435151
 30
0.0
  0
LWPOLYLINE
  5
1fb
100
AcDbEntity
  8
0
 62
7
100
AcDbPolyline
 90
1
 70
1
 10
555.319432
 20
192.435151
 30
0.0
  0
SPLINE
  5
1fc
100
AcDbEntity
  8
0
 62
7
100
AcDbSpline
 70
8
 71
3
 72
8
 73
4
 74
0
 40
0
 40
0
 40
0
 40
0
 40
1
 40
1
 40
1
 40
1
 10
618.631750
 20
192.435151
 30
0.0
 10
618.631750
 20
157.468724
 30
0.0
 10
590.285860
 20
129.122834
 30
0.0
 10
555.319432
 20
129.122834
 30
0.0
  0
SPLINE
  5
1fd
100
AcDbEntity
  8
0
 62
7
100
AcDbSpline
 70
8
 71
3
 72
8
 73
4
 74
0
 40
0
 40
0
 40
0
 40
0
 40
1
 40
1
 40
1
 40
1
 10
555.319432
 20
129.122834
 30
0.0
 10
520.353005
 20
129.122834
 30
0.0
 10
492.007115
 20
157.468724
 30
0.0
 10
492.007115
 20
192.435151
 30
0.0
  0
SPLINE
  5
1fe
100
AcDbEntity
  8
0
 62
7
100
AcDbSpline
 70
8
 71
3
 72
8
 73
4
 74
0
 40
0
 40
0
 40
0
 40
0
 40
1
 40
1
 40
1
 40
1
 10
492.007115
 20
192.435151
 30
0.0
 10
492.007115
 20
227.401579
 30
0.0
 10
520.353005
 20
255.747469
 30
0.0
 10
555.319432
 20
255.747469
 30
0.0
  0
SPLINE
  5
1ff
100
AcDbEntity
  8
0
 62
7
100
AcDbSpline
 70
8
 71
3
 72
8
 73
4
 74
0
 40
0
 40
0
 40
0
 40
0
 40
1
 40
1
 40
1
 40
1
 10
555.319432
 20
255.747469
 30
0.0
 10
590.285860
 20
255.747469
 30
0.0
 10
618.631750
 20
227.401579
 30
0.0
 10
618.631750
 20
192.435151
 30
0.0
  0
LWPOLYLINE
  5
200
100
AcDbEntity
  8
0
 62
7
100
AcDbPolyline
 90
1
 70
1
 10
428.694797
 20
192.435151
 30
0.0
  0
SPLINE
  5
201
100
AcDbEntity
  8
0
 62
7
100
AcDbSpline
 70
8
 71
3
 72
8
 73
4
 74
0
 40
0
 40
0
 40
0
 40
0
 40
1
 40
1
 40
1
 40
1
 10
713.600227
 20
247.265227
 30
0.0
 10
713.600227
 20
212.298799
 30
0.0
 10
685.254336
 20
183.952909
 30
0.0
 10
650.287909
 20
183.952909
 30
0.0
  0
SPLINE
  5
202
100
AcDbEntity
  8
0
 62
7
100
AcDbSpline
 70
8
 71
3
 72
8
 73
4
 74
0
 40
0
 40
0
 40
0
 40
0
 40
1
 40
1
 40
1
 40
1
 10
650.287909
 20
183.952909
 30
0.0
 10
615.321481
 20
183.952909
 30
0.0
 10
586.975591
 20
212.298799
 30
0.0
 10
586.975591
 20
247.265227
 30
0.0
  0
SPLINE
  5
203
100
AcDbEntity
  8
0
 62
7
100
AcDbSpline
 70
8
 71
3
 72
8
 73
4
 74
0
 40
0
 40
0
 40
0
 40
0
 40
1
 40
1
 40
1
 40
1
 10
586.975591
 20
247.265227
 30
0.0
 10
586.975591
 20
282.231654
 30
0.0
 10
615.321481
 20
310.577544
 30
0.0
 10
650.287909
 20
310.577544
 30
0.0
  0
SPLINE
  5
204
100
AcDbEntity
  8
0
 62
7
100
AcDbSpline
 70
8
 71
3
 72
8
 73
4
 74
0
 40
0
 40
0
 40
0
 40
0
 40
1
 40
1
 40
1
 40
1
 10
650.287909
 20
310.577544
 30
0.0
 10
685.254336
 20
310.577544
 30
0.0
 10
713.600227
 20
282.231654
 30
0.0
 10
713.600227
 20
247.265227
 30
0.0
  0
LWPOLYLINE
  5
205
100
AcDbEntity
  8
0
 62
7
100
AcDbPolyline
 90
1
 70
1
 10
618.631750
 20
192.435151
 30
0.0
  0
SPLINE
  5
206
100
AcDbEntity
  8
0
 62
7
100
AcDbSpline
 70
8
 71
3
 72
8
 73
4
 74
0
 40
0
 40
0
 40
0
 40
0
 40
1
 40
1
 40
1
 40
1
 10
333.726320
 20
247.265227
 30
0.0
 10
333.726320
 20
212.298799
 30
0.0
 10
305.380430
 20
183.952909
 30
0.0
 10
270.414003
 20
183.952909
 30
0.0
  0
SPLINE
  5
207
100
AcDbEntity
  8
0
 62
7
100
AcDbSpline
 70
8
 71
3
 72
8
 73
4
 74
0
 40
0
 40
0
 40
0
 40
0
 40
1
 40
1
 40
1
 40
1
 10
270.414003
 20
183.952909
 30
0.0
 10
235.447575
 20
183.952909
 30
0.0
 10
207.101685
 20
212.298799
 30
0.0
 10
207.101685
 20
247.265227
 30
0.0
  0
SPLINE
  5
208
100
AcDbEntity
  8
0
 62
7
100
AcDbSpline
 70
8
 71
3
 72
8
 73
4
 74
0
 40
0
 40
0
 40
0
 40
0
 40
1
 40
1
 40
1
 40
1
 10
207.101685
 20
247.265227
 30
0.0
 10
207.101685
 20
282.231654
 30
0.0
 10
235.447575
 20
310.577544
 30
0.0
 10
270.414003
 20
310.577544
 30
0.0
  0
SPLINE
  5
209
100
AcDbEntity
  8
0
 62
7
100
AcDbSpline
 70
8
 71
3
 72
8
 73
4
 74
0
 40
0
 40
0
 40
0
 40
0
 40
1
 40
1
 40
1
 40
1
 10
270.414003
 20
310.577544
 30
0.0
 10
305.380430
 20
310.577544
 30
0.0
 10
333.726320
 20
282.231654
 30
0.0
 10
333.726320
 20
247.265227
 30
0.0
  0
LWPOLYLINE
  5
20a
100
AcDbEntity
  8
0
 62
7
100
AcDbPolyline
 90
1
 70
1
 10
713.600227
 20
247.265227
 30
0.0
  0
SPLINE
  5
20b
100
AcDbEntity
  8
0
 62
7
100
AcDbSpline
 70
8
 71
3
 72
8
 73
4
 74
0
 40
0
 40
0
 40
0
 40
0
 40
1
 40
1
 40
1
 40
1
 10
365.382479
 20
192.435151
 30
0.0
 10
365.382479
 20
157.468724
 30
0.0
 10
337.036589
 20
129.122834
 30
0.0
 10
302.070162
 20
129.122834
 30
0.0
  0
SPLINE
  5
20c
100
AcDbEntity
  8
0
 62
7
100
AcDbSpline
 70
8
 71
3
 72
8
 73
4
 74
0
 40
0
 40
0
 40
0
 40
0
 40
1
 40
1
 40
1
 40
1
 10
302.070162
 20
129.122834
 30
0.0
 10
267.103734
 20
129.122834
 30
0.0
 10
238.757844
 20
157.468724
 30
0.0
 10
238.757844
 20
192.435151
 30
0.0
  0
SPLINE
  5
20d
100
AcDbEntity
  8
0
 62
7
100
AcDbSpline
 70
8
 71
3
 72
8
 73
4
 74
0
 40
0
 40
0
 40
0
 40
0
 40
1
 40
1
 40
1
 40
1
 10
238.757844
 20
192.435151
 30
0.0
 10
238.757844
 20
227.401579
 30
0.0
 10
267.103734
 20
255.747469
 30
0.0
 10
302.070162
 20
255.747469
 30
0.0
  0
SPLINE
  5
20e
100
AcDbEntity
  8
0
 62
7
100
AcDbSpline
 70
8
 71
3
 72
8
 73
4
 74
0
 40
0
 40
0
 40
0
 40
0
 40
1
 40
1
 40
1
 40
1
 10
302.070162
 20
255.747469
 30
0.0
 10
337.036589
 20
255.747469
 30
0.0
 10
365.382479
 20
227.401579
 30
0.0
 10
365.382479
 20
192.435151
 30
0.0
  0
LWPOLYLINE
  5
20f
100
AcDbEntity
  8
0
 62
7
100
AcDbPolyline
 90
1
 70
1
 10
333.726320
 20
247.265227
 30
0.0
  0
SPLINE
  5
210
100
AcDbEntity
  8
0
 62
7
100
AcDbSpline
 70
8
 71
3
 72
8
 73
4
 74
0
 40
0
 40
0
 40
0
 40
0
 40
1
 40
1
 40
1
 40
1
 10
238.757844
 20
192.435151
 30
0.0
 10
238.757844
 20
157.468724
 30
0.0
 10
210.411954
 20
129.122834
 30
0.0
 10
175.445526
 20
129.122834
 30
0.0
  0
SPLINE
  5
211
100
AcDbEntity
  8
0
 62
7
100
AcDbSpline
 70
8
 71
3
 72
8
 73
4
 74
0
 40
0
 40
0
 40
0
 40
0
 40
1
 40
1
 40
1
 40
1
 10
175.445526
 20
129.122834
 30
0.0
 10
140.479099
 20
129.122834
 30
0.0
 10
112.133208
 20
157.468724
 30
0.0
 10
112.133208
 20
192.435151
 30
0.0
  0
SPLINE
  5
212
100
AcDbEntity
  8
0
 62
7
100
AcDbSpline
 70
8
 71
3
 72
8
 73
4
 74
0
 40
0
 40
0
 40
0
 40
0
 40
1
 40
1
 40
1
 40
1
 10
112.133208
 20
192.435151
 30
0.0
 10
112.133208
 20
227.401579
 30
0.0
 10
140.479099
 20
255.747469
 30
0.0
 10
175.445526
 20
255.747469
 30
0.0
  0
SPLINE
  5
213
100
AcDbEntity
  8
0
 62
7
100
AcDbSpline
 70
8
 71
3
 72
8
 73
4
 74
0
 40
0
 40
0
 40
0
 40
0
 40
1
 40
1
 40
1
 40
1
 10
175.445526
 20
255.747469
 30
0.0
 10
210.411954
 20
255.747469
 30
0.0
 10
238.757844
 20
227.401579
 30
0.0
 10
238.757844
 20
192.435151
 30
0.0
  0
LWPOLYLINE
  5
214
100
AcDbEntity
  8
0
 62
7
100
AcDbPolyline
 90
1
 70
1
 10
365.382479
 20
192.435151
 30
0.0
  0
SPLINE
  5
215
100
AcDbEntity
  8
0
 62
7
100
AcDbSpline
 70
8
 71
3
 72
8
 73
4
 74
0
 40
0
 40
0
 40
0
 40
0
 40
1
 40
1
 40
1
 40
1
 10
238.757844
 20
302.095302
 30
0.0
 10
238.757844
 20
267.128875
 30
0.0
 10
210.411954
 20
238.782985
 30
0.0
 10
175.445526
 20
238.782985
 30
0.0
  0
SPLINE
  5
216
100
AcDbEntity
  8
0
 62
7
100
AcDbSpline
 70
8
 71
3
 72
8
 73
4
 74
0
 40
0
 40
0
 40
0
 40
0
 40
1
 40
1
 40
1
 40
1
 10
175.445526
 20
238.782985
 30
0.0
 10
140.479099
 20
238.782985
 30
0.0
 10
112.133208
 20
267.128875
 30
0.0
 10
112.133208
 20
302.095302
 30
0.0
  0
SPLINE
  5
217
100
AcDbEntity
  8
0
 62
7
100
AcDbSpline
 70
8
 71
3
 72
8
 73
4
 74
0
 40
0
 40
0
 40
0
 40
0
 40
1
 40
1
 40
1
 40
1
 10
112.133208
 20
302.095302
 30
0.0
 10
112.133208
 20
337.061730
 30
0.0
 10
140.479099
 20
365.407620
 30
0.0
 10
175.445526
 20
365.407620
 30
0.0
  0
SPLINE
  5
218
100
AcDbEntity
  8
0
 62
7
100
AcDbSpline
 70
8
 71
3
 72
8
 73
4
 74
0
 40
0
 40
0
 40
0
 40
0
 40
1
 40
1
 40
1
 40
1
 10
175.445526
 20
365.407620
 30
0.0
 10
210.411954
 20
365.407620
 30
0.0
 10
238.757844
 20
337.061730
 30
0.0
 10
238.757844
 20
302.095302
 30
0.0
  0
LWPOLYLINE
  5
219
100
AcDbEntity
  8
0
 62
7
100
AcDbPolyline
 90
1
 70
1
 10
238.757844
 20
192.435151
 30
0.0
  0
SPLINE
  5
21a
100
AcDbEntity
  8
0
 62
7
100
AcDbSpline
 70
8
 71
3
 72
8
 73
4
 74
0
 40
0
 40
0
 40
0
 40
0
 40
1
 40
1
 40
1
 40
1
 10
238.757844
 20
411.755453
 30
0.0
 10
238.757844
 20
376.789026
 30
0.0
 10
210.411954
 20
348.443136
 30
0.0
 10
175.445526
 20
348.443136
 30
0.0
  0
SPLINE
  5
21b
100
AcDbEntity
  8
0
 62
7
100
AcDbSpline
 70
8
 71
3
 72
8
 73
4
 74
0
 40
0
 40
0
 40
0
 40
0
 40
1
 40
1
 40
1
 40
1
 10
175.445526
 20
348.443136
 30
0.0
 10
140.479099
 20
348.443136
 30
0.0
 10
112.133208
 20
376.789026
 30
0.0
 10
112.133208
 20
411.755453
 30
0.0
  0
SPLINE
  5
21c
100
AcDbEntity
  8
0
 62
7
100
AcDbSpline
 70
8
 71
3
 72
8
 73
4
 74
0
 40
0
 40
0
 40
0
 40
0
 40
1
 40
1
 40
1
 40
1
 10
112.133208
 20
411.755453
 30
0.0
 10
112.133208
 20
446.721881
 30
0.0
 10
140.479099
 20
475.067771
 30
0.0
 10
175.445526
 20
475.067771
 30
0.0
  0
SPLINE
  5
21d
100
AcDbEntity
  8
0
 62
7
100
AcDbSpline
 70
8
 71
3
 72
8
 73
4
 74
0
 40
0
 40
0
 40
0
 40
0
 40
1
 40
1
 40
1
 40
1
 10
175.445526
 20
475.067771
 30
0.0
 10
210.411954
 20
475.067771
 30
0.0
 10
238.757844
 20
446.721881
 30
0.0
 10
238.757844
 20
411.755453
 30
0.0
  0
LWPOLYLINE
  5
21e
100
AcDbEntity
  8
0
 62
7
100
AcDbPolyline
 90
1
 70
1
 10
238.757844
 20
302.095302
 30
0.0
  0
SPLINE
  5
21f
100
AcDbEntity
  8
0
 62
7
100
AcDbSpline
 70
8
 71
3
 72
8
 73
4
 74
0
 40
0
 40
0
 40
0
 40
0
 40
1
 40
1
 40
1
 40
1
 10
238.757844
 20
521.415604
 30
0.0
 10
238.757844
 20
486.449177
 30
0.0
 10
210.411954
 20
458.103287
 30
0.0
 10
175.445526
 20
458.103287
 30
0.0
  0
SPLINE
  5
220
100
AcDbEntity
  8
0
 62
7
100
AcDbSpline
 70
8
 71
3
 72
8
 73
4
 74
0
 40
0
 40
0
 40
0
 40
0
 40
1
 40
1
 40
1
 40
1
 10
175.445526
 20
458.103287
 30
0.0
 10
140.479099
 20
458.103287
 30
0.0
 10
112.133208
 20
486.449177
 30
0.0
 10
112.133208
 20
521.415604
 30
0.0
  0
SPLINE
  5
221
100
AcDbEntity
  8
0
 62
7
100
AcDbSpline
 70
8
 71
3
 72
8
 73
4
 74
0
 40
0
 40
0
 40
0
 40
0
 40
1
 40
1
 40
1
 40
1
 10
112.133208
 20
521.415604
 30
0.0
 10
112.133208
 20
556.382032
 30
0.0
 10
140.479099
 20
584.727922
 30
0.0
 10
175.445526
 20
584.727922
 30
0.0
  0
SPLINE
  5
222
100
AcDbEntity
  8
0
 62
7
100
AcDbSpline
 70
8
 71
3
 72
8
 73
4
 74
0
 40
0
 40
0
 40
0
 40
0
 40
1
 40
1
 40
1
 40
1
 10
175.445526
 20
584.727922
 30
0.0
 10
210.411954
 20
584.727922
 30
0.0
 10
238.757844
 20
556.382032
 30
0.0
 10
238.757844
 20
521.415604
 30
0.0
  0
LWPOLYLINE
  5
223
100
AcDbEntity
  8
0
 62
7
100
AcDbPolyline
 90
1
 70
1
 10
238.757844
 20
411.755453
 30
0.0
  0
SPLINE
  5
224
100
AcDbEntity
  8
0
 62
7
100
AcDbSpline
 70
8
 71
3
 72
8
 73
4
 74
0
 40
0
 40
0
 40
0
 40
0
 40
1
 40
1
 40
1
 40
1
 10
586.975591
 20
247.265227
 30
0.0
 10
586.975591
 20
212.298799
 30
0.0
 10
558.629701
 20
183.952909
 30
0.0
 10
523.663273
 20
183.952909
 30
0.0
  0
SPLINE
  5
225
100
AcDbEntity
  8
0
 62
7
100
AcDbSpline
 70
8
 71
3
 72
8
 73
4
 74
0
 40
0
 40
0
 40
0
 40
0
 40
1
 40
1
 40
1
 40
1
 10
523.663273
 20
183.952909
 30
0.0
 10
488.696846
 20
183.952909
 30
0.0
 10
460.350956
 20
212.298799
 30
0.0
 10
460.350956
 20
247.265227
 30
0.0
  0
SPLINE
  5
226
100
AcDbEntity
  8
0
 62
7
100
AcDbSpline
 70
8
 71
3
 72
8
 73
4
 74
0
 40
0
 40
0
 40
0
 40
0
 40
1
 40
1
 40
1
 40
1
 10
460.350956
 20
247.265227
 30
0.0
 10
460.350956
 20
282.231654
 30
0.0
 10
488.696846
 20
310.577544
 30
0.0
 10
523.663273
 20
310.577544
 30
0.0
  0
SPLINE
  5
227
100
AcDbEntity
  8
0
 62
7
100
AcDbSpline
 70
8
 71
3
 72
8
 73
4
 74
0
 40
0
 40
0
 40
0
 40
0
 40
1
 40
1
 40
1
 40
1
 10
523.663273
 20
310.577544
 30
0.0
 10
558.629701
 20
310.577544
 30
0.0
 10
586.975591
 20
282.231654
 30
0.0
 10
586.975591
 20
247.265227
 30
0.0
  0
LWPOLYLINE
  5
228
100
AcDbEntity
  8
0
 62
7
100
AcDbPolyline
 90
1
 70
1
 10
238.757844
 20
521.415604
 30
0.0
  0
SPLINE
  5
229
100
AcDbEntity
  8
0
 62
7
100
AcDbSpline
 70
8
 71
3
 72
8
 73
4
 74
0
 40
0
 40
0
 40
0
 40
0
 40
1
 40
1
 40
1
 40
1
 10
492.007115
 20
192.435151
 30
0.0
 10
492.007115
 20
157.468724
 30
0.0
 10
463.661224
 20
129.122834
 30
0.0
 10
428.694797
 20
129.122834
 30
0.0
  0
SPLINE
  5
22a
100
AcDbEntity
  8
0
 62
7
100
AcDbSpline
 70
8
 71
3
 72
8
 73
4
 74
0
 40
0
 40
0
 40
0
 40
0
 40
1
 40
1
 40
1
 40
1
 10
428.694797
 20
129.122834
 30
0.0
 10
393.728369
 20
129.122834
 30
0.0
 10
365.382479
 20
157.468724
 30
0.0
 10
365.382479
 20
192.435151
 30
0.0
  0
SPLINE
  5
22b
100
AcDbEntity
  8
0
 62
7
100
AcDbSpline
 70
8
 71
3
 72
8
 73
4
 74
0
 40
0
 40
0
 40
0
 40
0
 40
1
 40
1
 40
1
 40
1
 10
365.382479
 20
192.435151
 30
0.0
 10
365.382479
 20
227.401579
 30
0.0
 10
393.728369
 20
255.747469
 30
0.0
 10
428.694797
 20
255.747469
 30
0.0
  0
SPLINE
  5
22c
100
AcDbEntity
  8
0
 62
7
100
AcDbSpline
 70
8
 71
3
 72
8
 73
4
 74
0
 40
0
 40
0
 40
0
 40
0
 40
1
 40
1
 40
1
 40
1
 10
428.694797
 20
255.747469
 30
0.0
 10
463.661224
 20
255.747469
 30
0.0
 10
492.007115
 20
227.401579
 30
0.0
 10
492.007115
 20
192.435151
 30
0.0
  0
LWPOLYLINE
  5
22d
100
AcDbEntity
  8
0
 62
7
100
AcDbPolyline
 90
1
 70
1
 10
586.975591
 20
247.265227
 30
0.0
  0
SPLINE
  5
22e
100
AcDbEntity
  8
0
 62
7
100
AcDbSpline
 70
8
 71
3
 72
8
 73
4
 74
0
 40
0
 40
0
 40
0
 40
0
 40
1
 40
1
 40
1
 40
1
 10
681.944068
 20
192.435151
 30
0.0
 10
681.944068
 20
157.468724
 30
0.0
 10
653.598178
 20
129.122834
 30
0.0
 10
618.631750
 20
129.122834
 30
0.0
  0
SPLINE
  5
22f
100
AcDbEntity
  8
0
 62
7
100
AcDbSpline
 70
8
 71
3
 72
8
 73
4
 74
0
 40
0
 40
0
 40
0
 40
0
 40
1
 40
1
 40
1
 40
1
 10
618.631750
 20
129.122834
 30
0.0
 10
583.665322
 20
129.122834
 30
0.0
 10
555.319432
 20
157.468724
 30
0.0
 10
555.319432
 20
192.435151
 30
0.0
  0
SPLINE
  5
230
100
AcDbEntity
  8
0
 62
7
100
AcDbSpline
 70
8
 71
3
 72
8
 73
4
 74
0
 40
0
 40
0
 40
0
 40
0
 40
1
 40
1
 40
1
 40
1
 10
555.319432
 20
192.435151
 30
0.0
 10
555.319432
 20
227.401579
 30
0.0
 10
583.665322
 20
255.747469
 30
0.0
 10
618.631750
 20
255.747469
 30
0.0
  0
SPLINE
  5
231
100
AcDbEntity
  8
0
 62
7
100
AcDbSpline
 70
8
 71
3
 72
8
 73
4
 74
0
 40
0
 40
0
 40
0
 40
0
 40
1
 40
1
 40
1
 40
1
 10
618.631750
 20
255.747469
 30
0.0
 10
653.598178
 20
255.747469
 30
0.0
 10
681.944068
 20
227.401579
 30
0.0
 10
681.944068
 20
192.435151
 30
0.0
  0
LWPOLYLINE
  5
232
100
AcDbEntity
  8
0
 62
7
100
AcDbPolyline
 90
1
 70
1
 10
492.007115
 20
192.435151
 30
0.0
  0
SPLINE
  5
233
100
AcDbEntity
  8
0
 62
7
100
AcDbSpline
 70
8
 71
3
 72
8
 73
4
 74
0
 40
0
 40
0
 40
0
 40
0
 40
1
 40
1
 40
1
 40
1
 10
681.944068
 20
302.095302
 30
0.0
 10
681.944068
 20
267.128875
 30
0.0
 10
653.598178
 20
238.782985
 30
0.0
 10
618.631750
 20
238.782985
 30
0.0
  0
SPLINE
  5
234
100
AcDbEntity
  8
0
 62
7
100
AcDbSpline
 70
8
 71
3
 72
8
 73
4
 74
0
 40
0
 40
0
 40
0
 40
0
 40
1
 40
1
 40
1
 40
1
 10
618.631750
 20
238.782985
 30
0.0
 10
583.665322
 20
238.782985
 30
0.0
 10
555.319432
 20
267.128875
 30
0.0
 10
555.319432
 20
302.095302
 30
0.0
  0
SPLINE
  5
235
100
AcDbEntity
  8
0
 62
7
100
AcDbSpline
 70
8
 71
3
 72
8
 73
4
 74
0
 40
0
 40
0
 40
0
 40
0
 40
1
 40
1
 40
1
 40
1
 10
555.319432
 20
302.095302
 30
0.0
 10
555.319432
 20
337.061730
 30
0.0
 10
583.665322
 20
365.407620
 30
0.0
 10
618.631750
 20
365.407620
 30
0.0
  0
SPLINE
  5
236
100
AcDbEntity
  8
0
 62
7
100
AcDbSpline
 70
8
 71
3
 72
8
 73
4
 74
0
 40
0
 40
0
 40
0
 40
0
 40
1
 40
1
 40
1
 40
1
 10
618.631750
 20
365.407620
 30
0.0
 10
653.598178
 20
365.407620
 30
0.0
 10
681.944068
 20
337.061730
 30
0.0
 10
681.944068
 20
302.095302
 30
0.0
  0
LWPOLYLINE
  5
237
100
AcDbEntity
  8
0
 62
7
100
AcDbPolyline
 90
1
 70
1
 10
681.944068
 20
192.435151
 30
0.0
  0
SPLINE
  5
238
100
AcDbEntity
  8
0
 62
7
100
AcDbSpline
 70
8
 71
3
 72
8
 73
4
 74
0
 40
0
 40
0
 40
0
 40
0
 40
1
 40
1
 40
1
 40
1
 10
681.944068
 20
411.755453
 30
0.0
 10
681.944068
 20
376.789026
 30
0.0
 10
653.598178
 20
348.443136
 30
0.0
 10
618.631750
 20
348.443136
 30
0.0
  0
SPLINE
  5
239
100
AcDbEntity
  8
0
 62
7
100
AcDbSpline
 70
8
 71
3
 72
8
 73
4
 74
0
 40
0
 40
0
 40
0
 40
0
 40
1
 40
1
 40
1
 40
1
 10
618.631750
 20
348.443136
 30
0.0
 10
583.665322
 20
348.443136
 30
0.0
 10
555.319432
 20
376.789026
 30
0.0
 10
555.319432
 20
411.755453
 30
0.0
  0
SPLINE
  5
23a
100
AcDbEntity
  8
0
 62
7
100
AcDbSpline
 70
8
 71
3
 72
8
 73
4
 74
0
 40
0
 40
0
 40
0
 40
0
 40
1
 40
1
 40
1
 40
1
 10
555.319432
 20
411.755453
 30
0.0
 10
555.319432
 20
446.721881
 30
0.0
 10
583.665322
 20
475.067771
 30
0.0
 10
618.631750
 20
475.067771
 30
0.0
  0
SPLINE
  5
23b
100
AcDbEntity
  8
0
 62
7
100
AcDbSpline
 70
8
 71
3
 72
8
 73
4
 74
0
 40
0
 40
0
 40
0
 40
0
 40
1
 40
1
 40
1
 40
1
 10
618.631750
 20
475.067771
 30
0.0
 10
653.598178
 20
475.067771
 30
0.0
 10
681.944068
 20
446.721881
 30
0.0
 10
681.944068
 20
411.755453
 30
0.0
  0
LWPOLYLINE
  5
23c
100
AcDbEntity
  8
0
 62
7
100
AcDbPolyline
 90
1
 70
1
 10
681.944068
 20
302.095302
 30
0.0
  0
SPLINE
  5
23d
100
AcDbEntity
  8
0
 62
7
100
AcDbSpline
 70
8
 71
3
 72
8
 73
4
 74
0
 40
0
 40
0
 40
0
 40
0
 40
1
 40
1
 40
1
 40
1
 10
365.382479
 20
302.095302
 30
0.0
 10
345.793580
 20
290.785646
 30
0.0
 10
333.726320
 20
269.884539
 30
0.0
 10
333.726320
 20
247.265227
 30
0.0
  0
SPLINE
  5
23e
100
AcDbEntity
  8
0
 62
7
100
AcDbSpline
 70
8
 71
3
 72
8
 73
4
 74
0
 40
0
 40
0
 40
0
 40
0
 40
1
 40
1
 40
1
 40
1
 10
333.726320
 20
247.265227
 30
0.0
 10
333.726320
 20
224.645914
 30
0.0
 10
345.793580
 20
203.744807
 30
0.0
 10
365.382479
 20
192.435151
 30
0.0
  0
SPLINE
  5
23f
100
AcDbEntity
  8
0
 62
7
100
AcDbSpline
 70
8
 71
3
 72
8
 73
4
 74
0
 40
0
 40
0
 40
0
 40
0
 40
1
 40
1
 40
1
 40
1
 10
428.694797
 20
302.095302
 30
0.0
 10
448.283696
 20
290.785646
 30
0.0
 10
460.350956
 20
269.884539
 30
0.0
 10
460.350956
 20
247.265227
 30
0.0
  0
SPLINE
  5
240
100
AcDbEntity
  8
0
 62
7
100
AcDbSpline
 70
8
 71
3
 72
8
 73
4
 74
0
 40
0
 40
0
 40
0
 40
0
 40
1
 40
1
 40
1
 40
1
 10
460.350956
 20
247.265227
 30
0.0
 10
460.350956
 20
224.645914
 30
0.0
 10
448.283696
 20
203.744807
 30
0.0
 10
428.694797
 20
192.435151
 30
0.0
  0
SPLINE
  5
241
100
AcDbEntity
  8
0
 62
7
100
AcDbSpline
 70
8
 71
3
 72
8
 73
4
 74
0
 40
0
 40
0
 40
0
 40
0
 40
1
 40
1
 40
1
 40
1
 10
365.382479
 20
411.755453
 30
0.0
 10
345.793580
 20
423.065109
 30
0.0
 10
333.726320
 20
443.966216
 30
0.0
 10
333.726320
 20
466.585529
 30
0.0
  0
SPLINE
  5
242
100
AcDbEntity
  8
0
 62
7
100
AcDbSpline
 70
8
 71
3
 72
8
 73
4
 74
0
 40
0
 40
0
 40
0
 40
0
 40
1
 40
1
 40
1
 40
1
 10
333.726320
 20
466.585529
 30
0.0
 10
333.726320
 20
489.204841
 30
0.0
 10
345.793580
 20
510.105948
 30
0.0
 10
365.382479
 20
521.415604
 30
0.0
  0
SPLINE
  5
243
100
AcDbEntity
  8
0
 62
7
100
AcDbSpline
 70
8
 71
3
 72
8
 73
4
 74
0
 40
0
 40
0
 40
0
 40
0
 40
1
 40
1
 40
1
 40
1
 10
428.694797
 20
411.755453
 30
0.0
 10
448.283696
 20
423.065109
 30
0.0
 10
460.350956
 20
443.966216
 30
0.0
 10
460.350956
 20
466.585529
 30
0.0
  0
SPLINE
  5
244
100
AcDbEntity
  8
0
 62
7
100
AcDbSpline
 70
8
 71
3
 72
8
 73
4
 74
0
 40
0
 40
0
 40
0
 40
0
 40
1
 40
1
 40
1
 40
1
 10
460.350956
 20
466.585529
 30
0.0
 10
460.350956
 20
489.204841
 30
0.0
 10
448.283696
 20
510.105948
 30
0.0
 10
428.694797
 20
521.415604
 30
0.0
  0
SPLINE
  5
245
100
AcDbEntity
  8
0
 62
7
100
AcDbSpline
 70
8
 71
3
 72
8
 73
4
 74
0
 40
0
 40
0
 40
0
 40
0
 40
1
 40
1
 40
1
 40
1
 10
397.038638
 20
137.605076
 30
0.0
 10
397.038638
 20
160.224388
 30
0.0
 10
384.971379
 20
181.125495
 30
0.0
 10
365.382479
 20
192.435151
 30
0.0
  0
SPLINE
  5
246
100
AcDbEntity
  8
0
 62
7
100
AcDbSpline
 70
8
 71
3
 72
8
 73
4
 74
0
 40
0
 40
0
 40
0
 40
0
 40
1
 40
1
 40
1
 40
1
 10
397.038638
 20
137.605076
 30
0.0
 10
397.038638
 20
160.224388
 30
0.0
 10
409.105898
 20
181.125495
 30
0.0
 10
428.694797
 20
192.435151
 30
0.0
  0
SPLINE
  5
247
100
AcDbEntity
  8
0
 62
7
100
AcDbSpline
 70
8
 71
3
 72
8
 73
4
 74
0
 40
0
 40
0
 40
0
 40
0
 40
1
 40
1
 40
1
 40
1
 10
397.038638
 20
576.245680
 30
0.0
 10
397.038638
 20
553.626367
 30
0.0
 10
384.971379
 20
532.725260
 30
0.0
 10
365.382479
 20
521.415604
 30
0.0
  0
SPLINE
  5
248
100
AcDbEntity
  8
0
 62
7
100
AcDbSpline
 70
8
 71
3
 72
8
 73
4
 74
0
 40
0
 40
0
 40
0
 40
0
 40
1
 40
1
 40
1
 40
1
 10
397.038638
 20
576.245680
 30
0.0
 10
397.038638
 20
553.626367
 30
0.0
 10
384.971379
 20
532.725260
 30
0.0
 10
365.382479
 20
521.415604
 30
0.0
  0
SPLINE
  5
249
100
AcDbEntity
  8
0
 62
7
100
AcDbSpline
 70
8
 71
3
 72
8
 73
4
 74
0
 40
0
 40
0
 40
0
 40
0
 40
1
 40
1
 40
1
 40
1
 10
397.038638
 20
576.245680
 30
0.0
 10
397.038638
 20
553.626367
 30
0.0
 10
409.105898
 20
532.725260
 30
0.0
 10
428.694797
 20
521.415604
 30
0.0
  0
LWPOLYLINE
  5
24a
100
AcDbEntity
  8
0
 62
7
100
AcDbPolyline
 90
1
 70
1
 10
681.944068
 20
411.755453
 30
0.0
  0
LWPOLYLINE
  5
24b
100
AcDbEntity
  8
0
 62
7
100
AcDbPolyline
 90
2
 70
0
 10
80.477050
 20
593.210164
 30
0.0
 10
713.600227
 20
593.210164
 30
0.0
  0
LWPOLYLINE
  5
24c
100
AcDbEntity
  8
0
 62
7
100
AcDbPolyline
 90
2
 70
0
 10
713.600227
 20
120.640591
 30
0.0
 10
80.477050
 20
120.640591
 30
0.0
  0
SPLINE
  5
24d
100
AcDbEntity
  8
0
 62
7
100
AcDbSpline
 70
8
 71
3
 72
8
 73
4
 74
0
 40
0
 40
0
 40
0
 40
0
 40
1
 40
1
 40
1
 40
1
 10
477.334607
 20
466.585529
 30
0.0
 10
477.334607
 20
457.205717
 30
0.0
 10
469.730767
 20
449.601877
 30
0.0
 10
460.350956
 20
449.601877
 30
0.0
  0
SPLINE
  5
24e
100
AcDbEntity
  8
0
 62
7
100
AcDbSpline
 70
8
 71
3
 72
8
 73
4
 74
0
 40
0
 40
0
 40
0
 40
0
 40
1
 40
1
 40
1
 40
1
 10
460.350956
 20
449.601877
 30
0.0
 10
450.971144
 20
449.601877
 30
0.0
 10
443.367304
 20
457.205717
 30
0.0
 10
443.367304
 20
466.585529
 30
0.0
  0
SPLINE
  5
24f
100
AcDbEntity
  8
0
 62
7
100
AcDbSpline
 70
8
 71
3
 72
8
 73
4
 74
0
 40
0
 40
0
 40
0
 40
0
 40
1
 40
1
 40
1
 40
1
 10
443.367304
 20
466.585529
 30
0.0
 10
443.367304
 20
475.965340
 30
0.0
 10
450.971144
 20
483.569180
 30
0.0
 10
460.350956
 20
483.569180
 30
0.0
  0
SPLINE
  5
250
100
AcDbEntity
  8
0
 62
7
100
AcDbSpline
 70
8
 71
3
 72
8
 73
4
 74
0
 40
0
 40
0
 40
0
 40
0
 40
1
 40
1
 40
1
 40
1
 10
460.350956
 20
483.569180
 30
0.0
 10
469.730767
 20
483.569180
 30
0.0
 10
477.334607
 20
475.965340
 30
0.0
 10
477.334607
 20
466.585529
 30
0.0
  0
LWPOLYLINE
  5
251
100
AcDbEntity
  8
0
 62
7
100
AcDbPolyline
 90
2
 70
0
 10
713.600227
 20
120.640591
 30
0.0
 10
713.600227
 20
593.210164
 30
0.0
  0
SPLINE
  5
252
100
AcDbEntity
  8
0
 62
7
100
AcDbSpline
 70
8
 71
3
 72
8
 73
4
 74
0
 40
0
 40
0
 40
0
 40
0
 40
1
 40
1
 40
1
 40
1
 10
414.022289
 20
356.925378
 30
0.0
 10
414.022289
 20
347.545566
 30
0.0
 10
406.418450
 20
339.941726
 30
0.0
 10
397.038638
 20
339.941726
 30
0.0
  0
SPLINE
  5
253
100
AcDbEntity
  8
0
 62
7
100
AcDbSpline
 70
8
 71
3
 72
8
 73
4
 74
0
 40
0
 40
0
 40
0
 40
0
 40
1
 40
1
 40
1
 40
1
 10
397.038638
 20
339.941726
 30
0.0
 10
387.658826
 20
339.941726
 30
0.0
 10
380.054987
 20
347.545566
 30
0.0
 10
380.054987
 20
356.925378
 30
0.0
  0
SPLINE
  5
254
100
AcDbEntity
  8
0
 62
7
100
AcDbSpline
 70
8
 71
3
 72
8
 73
4
 74
0
 40
0
 40
0
 40
0
 40
0
 40
1
 40
1
 40
1
 40
1
 10
380.054987
 20
356.925378
 30
0.0
 10
380.054987
 20
366.305189
 30
0.0
 10
387.658826
 20
373.909029
 30
0.0
 10
397.038638
 20
373.909029
 30
0.0
  0
SPLINE
  5
255
100
AcDbEntity
  8
0
 62
7
100
AcDbSpline
 70
8
 71
3
 72
8
 73
4
 74
0
 40
0
 40
0
 40
0
 40
0
 40
1
 40
1
 40
1
 40
1
 10
397.038638
 20
373.909029
 30
0.0
 10
406.418450
 20
373.909029
 30
0.0
 10
414.022289
 20
366.305189
 30
0.0
 10
414.022289
 20
356.925378
 30
0.0
  0
LWPOLYLINE
  5
256
100
AcDbEntity
  8
0
 62
7
100
AcDbPolyline
 90
1
 70
1
 10
477.334607
 20
466.585529
 30
0.0
  0
SPLINE
  5
257
100
AcDbEntity
  8
0
 62
7
100
AcDbSpline
 70
8
 71
3
 72
8
 73
4
 74
0
 40
0
 40
0
 40
0
 40
0
 40
1
 40
1
 40
1
 40
1
 10
350.709972
 20
466.585529
 30
0.0
 10
350.709972
 20
457.205717
 30
0.0
 10
343.106132
 20
449.601877
 30
0.0
 10
333.726320
 20
449.601877
 30
0.0
  0
SPLINE
  5
258
100
AcDbEntity
  8
0
 62
7
100
AcDbSpline
 70
8
 71
3
 72
8
 73
4
 74
0
 40
0
 40
0
 40
0
 40
0
 40
1
 40
1
 40
1
 40
1
 10
333.726320
 20
449.601877
 30
0.0
 10
324.346509
 20
449.601877
 30
0.0
 10
316.742669
 20
457.205717
 30
0.0
 10
316.742669
 20
466.585529
 30
0.0
  0
SPLINE
  5
259
100
AcDbEntity
  8
0
 62
7
100
AcDbSpline
 70
8
 71
3
 72
8
 73
4
 74
0
 40
0
 40
0
 40
0
 40
0
 40
1
 40
1
 40
1
 40
1
 10
316.742669
 20
466.585529
 30
0.0
 10
316.742669
 20
475.965340
 30
0.0
 10
324.346509
 20
483.569180
 30
0.0
 10
333.726320
 20
483.569180
 30
0.0
  0
SPLINE
  5
25a
100
AcDbEntity
  8
0
 62
7
100
AcDbSpline
 70
8
 71
3
 72
8
 73
4
 74
0
 40
0
 40
0
 40
0
 40
0
 40
1
 40
1
 40
1
 40
1
 10
333.726320
 20
483.569180
 30
0.0
 10
343.106132
 20
483.569180
 30
0.0
 10
350.709972
 20
475.965340
 30
0.0
 10
350.709972
 20
466.585529
 30
0.0
  0
LWPOLYLINE
  5
25b
100
AcDbEntity
  8
0
 62
7
100
AcDbPolyline
 90
1
 70
1
 10
414.022289
 20
356.925378
 30
0.0
  0
SPLINE
  5
25c
100
AcDbEntity
  8
0
 62
7
100
AcDbSpline
 70
8
 71
3
 72
8
 73
4
 74
0
 40
0
 40
0
 40
0
 40
0
 40
1
 40
1
 40
1
 40
1
 10
287.397654
 20
356.925378
 30
0.0
 10
287.397654
 20
347.545566
 30
0.0
 10
279.793814
 20
339.941726
 30
0.0
 10
270.414003
 20
339.941726
 30
0.0
  0
SPLINE
  5
25d
100
AcDbEntity
  8
0
 62
7
100
AcDbSpline
 70
8
 71
3
 72
8
 73
4
 74
0
 40
0
 40
0
 40
0
 40
0
 40
1
 40
1
 40
1
 40
1
 10
270.414003
 20
339.941726
 30
0.0
 10
261.034191
 20
339.941726
 30
0.0
 10
253.430351
 20
347.545566
 30
0.0
 10
253.430351
 20
356.925378
 30
0.0
  0
SPLINE
  5
25e
100
AcDbEntity
  8
0
 62
7
100
AcDbSpline
 70
8
 71
3
 72
8
 73
4
 74
0
 40
0
 40
0
 40
0
 40
0
 40
1
 40
1
 40
1
 40
1
 10
253.430351
 20
356.925378
 30
0.0
 10
253.430351
 20
366.305189
 30
0.0
 10
261.034191
 20
373.909029
 30
0.0
 10
270.414003
 20
373.909029
 30
0.0
  0
SPLINE
  5
25f
100
AcDbEntity
  8
0
 62
7
100
AcDbSpline
 70
8
 71
3
 72
8
 73
4
 74
0
 40
0
 40
0
 40
0
 40
0
 40
1
 40
1
 40
1
 40
1
 10
270.414003
 20
373.909029
 30
0.0
 10
279.793814
 20
373.909029
 30
0.0
 10
287.397654
 20
366.305189
 30
0.0
 10
287.397654
 20
356.925378
 30
0.0
  0
LWPOLYLINE
  5
260
100
AcDbEntity
  8
0
 62
7
100
AcDbPolyline
 90
1
 70
1
 10
350.709972
 20
466.585529
 30
0.0
  0
SPLINE
  5
261
100
AcDbEntity
  8
0
 62
7
100
AcDbSpline
 70
8
 71
3
 72
8
 73
4
 74
0
 40
0
 40
0
 40
0
 40
0
 40
1
 40
1
 40
1
 40
1
 10
350.709972
 20
247.265227
 30
0.0
 10
350.709972
 20
237.885415
 30
0.0
 10
343.106132
 20
230.281575
 30
0.0
 10
333.726320
 20
230.281575
 30
0.0
  0
SPLINE
  5
262
100
AcDbEntity
  8
0
 62
7
100
AcDbSpline
 70
8
 71
3
 72
8
 73
4
 74
0
 40
0
 40
0
 40
0
 40
0
 40
1
 40
1
 40
1
 40
1
 10
333.726320
 20
230.281575
 30
0.0
 10
324.346509
 20
230.281575
 30
0.0
 10
316.742669
 20
237.885415
 30
0.0
 10
316.742669
 20
247.265227
 30
0.0
  0
SPLINE
  5
263
100
AcDbEntity
  8
0
 62
7
100
AcDbSpline
 70
8
 71
3
 72
8
 73
4
 74
0
 40
0
 40
0
 40
0
 40
0
 40
1
 40
1
 40
1
 40
1
 10
316.742669
 20
247.265227
 30
0.0
 10
316.742669
 20
256.645038
 30
0.0
 10
324.346509
 20
264.248878
 30
0.0
 10
333.726320
 20
264.248878
 30
0.0
  0
SPLINE
  5
264
100
AcDbEntity
  8
0
 62
7
100
AcDbSpline
 70
8
 71
3
 72
8
 73
4
 74
0
 40
0
 40
0
 40
0
 40
0
 40
1
 40
1
 40
1
 40
1
 10
333.726320
 20
264.248878
 30
0.0
 10
343.106132
 20
264.248878
 30
0.0
 10
350.709972
 20
256.645038
 30
0.0
 10
350.709972
 20
247.265227
 30
0.0
  0
LWPOLYLINE
  5
265
100
AcDbEntity
  8
0
 62
7
100
AcDbPolyline
 90
1
 70
1
 10
287.397654
 20
356.925378
 30
0.0
  0
SPLINE
  5
266
100
AcDbEntity
  8
0
 62
7
100
AcDbSpline
 70
8
 71
3
 72
8
 73
4
 74
0
 40
0
 40
0
 40
0
 40
0
 40
1
 40
1
 40
1
 40
1
 10
477.334607
 20
247.265227
 30
0.0
 10
477.334607
 20
237.885415
 30
0.0
 10
469.730767
 20
230.281575
 30
0.0
 10
460.350956
 20
230.281575
 30
0.0
  0
SPLINE
  5
267
100
AcDbEntity
  8
0
 62
7
100
AcDbSpline
 70
8
 71
3
 72
8
 73
4
 74
0
 40
0
 40
0
 40
0
 40
0
 40
1
 40
1
 40
1
 40
1
 10
460.350956
 20
230.281575
 30
0.0
 10
450.971144
 20
230.281575
 30
0.0
 10
443.367304
 20
237.885415
 30
0.0
 10
443.367304
 20
247.265227
 30
0.0
  0
SPLINE
  5
268
100
AcDbEntity
  8
0
 62
7
100
AcDbSpline
 70
8
 71
3
 72
8
 73
4
 74
0
 40
0
 40
0
 40
0
 40
0
 40
1
 40
1
 40
1
 40
1
 10
443.367304
 20
247.265227
 30
0.0
 10
443.367304
 20
256.645038
 30
0.0
 10
450.971144
 20
264.248878
 30
0.0
 10
460.350956
 20
264.248878
 30
0.0
  0
SPLINE
  5
269
100
AcDbEntity
  8
0
 62
7
100
AcDbSpline
 70
8
 71
3
 72
8
 73
4
 74
0
 40
0
 40
0
 40
0
 40
0
 40
1
 40
1
 40
1
 40
1
 10
460.350956
 20
264.248878
 30
0.0
 10
469.730767
 20
264.248878
 30
0.0
 10
477.334607
 20
256.645038
 30
0.0
 10
477.334607
 20
247.265227
 30
0.0
  0
LWPOLYLINE
  5
26a
100
AcDbEntity
  8
0
 62
7
100
AcDbPolyline
 90
1
 70
1
 10
350.709972
 20
247.265227
 30
0.0
  0
SPLINE
  5
26b
100
AcDbEntity
  8
0
 62
7
100
AcDbSpline
 70
8
 71
3
 72
8
 73
4
 74
0
 40
0
 40
0
 40
0
 40
0
 40
1
 40
1
 40
1
 40
1
 10
540.646925
 20
356.925378
 30
0.0
 10
540.646925
 20
347.545566
 30
0.0
 10
533.043085
 20
339.941726
 30
0.0
 10
523.663273
 20
339.941726
 30
0.0
  0
SPLINE
  5
26c
100
AcDbEntity
  8
0
 62
7
100
AcDbSpline
 70
8
 71
3
 72
8
 73
4
 74
0
 40
0
 40
0
 40
0
 40
0
 40
1
 40
1
 40
1
 40
1
 10
523.663273
 20
339.941726
 30
0.0
 10
514.283462
 20
339.941726
 30
0.0
 10
506.679622
 20
347.545566
 30
0.0
 10
506.679622
 20
356.925378
 30
0.0
  0
SPLINE
  5
26d
100
AcDbEntity
  8
0
 62
7
100
AcDbSpline
 70
8
 71
3
 72
8
 73
4
 74
0
 40
0
 40
0
 40
0
 40
0
 40
1
 40
1
 40
1
 40
1
 10
506.679622
 20
356.925378
 30
0.0
 10
506.679622
 20
366.305189
 30
0.0
 10
514.283462
 20
373.909029
 30
0.0
 10
523.663273
 20
373.909029
 30
0.0
  0
SPLINE
  5
26e
100
AcDbEntity
  8
0
 62
7
100
AcDbSpline
 70
8
 71
3
 72
8
 73
4
 74
0
 40
0
 40
0
 40
0
 40
0
 40
1
 40
1
 40
1
 40
1
 10
523.663273
 20
373.909029
 30
0.0
 10
533.043085
 20
373.909029
 30
0.0
 10
540.646925
 20
366.305189
 30
0.0
 10
540.646925
 20
356.925378
 30
0.0
  0
LWPOLYLINE
  5
26f
100
AcDbEntity
  8
0
 62
7
100
AcDbPolyline
 90
1
 70
1
 10
477.334607
 20
247.265227
 30
0.0
  0
SPLINE
  5
270
100
AcDbEntity
  8
0
 62
7
100
AcDbSpline
 70
8
 71
3
 72
8
 73
4
 74
0
 40
0
 40
0
 40
0
 40
0
 40
1
 40
1
 40
1
 40
1
 10
224.085336
 20
466.585529
 30
0.0
 10
224.085336
 20
457.205717
 30
0.0
 10
216.481497
 20
449.601877
 30
0.0
 10
207.101685
 20
449.601877
 30
0.0
  0
SPLINE
  5
271
100
AcDbEntity
  8
0
 62
7
100
AcDbSpline
 70
8
 71
3
 72
8
 73
4
 74
0
 40
0
 40
0
 40
0
 40
0
 40
1
 40
1
 40
1
 40
1
 10
207.101685
 20
449.601877
 30
0.0
 10
197.721873
 20
449.601877
 30
0.0
 10
190.118034
 20
457.205717
 30
0.0
 10
190.118034
 20
466.585529
 30
0.0
  0
SPLINE
  5
272
100
AcDbEntity
  8
0
 62
7
100
AcDbSpline
 70
8
 71
3
 72
8
 73
4
 74
0
 40
0
 40
0
 40
0
 40
0
 40
1
 40
1
 40
1
 40
1
 10
190.118034
 20
466.585529
 30
0.0
 10
190.118034
 20
475.965340
 30
0.0
 10
197.721873
 20
483.569180
 30
0.0
 10
207.101685
 20
483.569180
 30
0.0
  0
SPLINE
  5
273
100
AcDbEntity
  8
0
 62
7
100
AcDbSpline
 70
8
 71
3
 72
8
 73
4
 74
0
 40
0
 40
0
 40
0
 40
0
 40
1
 40
1
 40
1
 40
1
 10
207.101685
 20
483.569180
 30
0.0
 10
216.481497
 20
483.569180
 30
0.0
 10
224.085336
 20
475.965340
 30
0.0
 10
224.085336
 20
466.585529
 30
0.0
  0
LWPOLYLINE
  5
274
100
AcDbEntity
  8
0
 62
7
100
AcDbPolyline
 90
1
 70
1
 10
540.646925
 20
356.925378
 30
0.0
  0
SPLINE
  5
275
100
AcDbEntity
  8
0
 62
7
100
AcDbSpline
 70
8
 71
3
 72
8
 73
4
 74
0
 40
0
 40
0
 40
0
 40
0
 40
1
 40
1
 40
1
 40
1
 10
224.085336
 20
247.265227
 30
0.0
 10
224.085336
 20
237.885415
 30
0.0
 10
216.481497
 20
230.281575
 30
0.0
 10
207.101685
 20
230.281575
 30
0.0
  0
SPLINE
  5
276
100
AcDbEntity
  8
0
 62
7
100
AcDbSpline
 70
8
 71
3
 72
8
 73
4
 74
0
 40
0
 40
0
 40
0
 40
0
 40
1
 40
1
 40
1
 40
1
 10
207.101685
 20
230.281575
 30
0.0
 10
197.721873
 20
230.281575
 30
0.0
 10
190.118034
 20
237.885415
 30
0.0
 10
190.118034
 20
247.265227
 30
0.0
  0
SPLINE
  5
277
100
AcDbEntity
  8
0
 62
7
100
AcDbSpline
 70
8
 71
3
 72
8
 73
4
 74
0
 40
0
 40
0
 40
0
 40
0
 40
1
 40
1
 40
1
 40
1
 10
190.118034
 20
247.265227
 30
0.0
 10
190.118034
 20
256.645038
 30
0.0
 10
197.721873
 20
264.248878
 30
0.0
 10
207.101685
 20
264.248878
 30
0.0
  0
SPLINE
  5
278
100
AcDbEntity
  8
0
 62
7
100
AcDbSpline
 70
8
 71
3
 72
8
 73
4
 74
0
 40
0
 40
0
 40
0
 40
0
 40
1
 40
1
 40
1
 40
1
 10
207.101685
 20
264.248878
 30
0.0
 10
216.481497
 20
264.248878
 30
0.0
 10
224.085336
 20
256.645038
 30
0.0
 10
224.085336
 20
247.265227
 30
0.0
  0
LWPOLYLINE
  5
279
100
AcDbEntity
  8
0
 62
7
100
AcDbPolyline
 90
1
 70
1
 10
224.085336
 20
466.585529
 30
0.0
  0
SPLINE
  5
27a
100
AcDbEntity
  8
0
 62
7
100
AcDbSpline
 70
8
 71
3
 72
8
 73
4
 74
0
 40
0
 40
0
 40
0
 40
0
 40
1
 40
1
 40
1
 40
1
 10
603.959243
 20
247.265227
 30
0.0
 10
603.959243
 20
237.885415
 30
0.0
 10
596.355403
 20
230.281575
 30
0.0
 10
586.975591
 20
230.281575
 30
0.0
  0
SPLINE
  5
27b
100
AcDbEntity
  8
0
 62
7
100
AcDbSpline
 70
8
 71
3
 72
8
 73
4
 74
0
 40
0
 40
0
 40
0
 40
0
 40
1
 40
1
 40
1
 40
1
 10
586.975591
 20
230.281575
 30
0.0
 10
577.595780
 20
230.281575
 30
0.0
 10
569.991940
 20
237.885415
 30
0.0
 10
569.991940
 20
247.265227
 30
0.0
  0
SPLINE
  5
27c
100
AcDbEntity
  8
0
 62
7
100
AcDbSpline
 70
8
 71
3
 72
8
 73
4
 74
0
 40
0
 40
0
 40
0
 40
0
 40
1
 40
1
 40
1
 40
1
 10
569.991940
 20
247.265227
 30
0.0
 10
569.991940
 20
256.645038
 30
0.0
 10
577.595780
 20
264.248878
 30
0.0
 10
586.975591
 20
264.248878
 30
0.0
  0
SPLINE
  5
27d
100
AcDbEntity
  8
0
 62
7
100
AcDbSpline
 70
8
 71
3
 72
8
 73
4
 74
0
 40
0
 40
0
 40
0
 40
0
 40
1
 40
1
 40
1
 40
1
 10
586.975591
 20
264.248878
 30
0.0
 10
596.355403
 20
264.248878
 30
0.0
 10
603.959243
 20
256.645038
 30
0.0
 10
603.959243
 20
247.265227
 30
0.0
  0
LWPOLYLINE
  5
27e
100
AcDbEntity
  8
0
 62
7
100
AcDbPolyline
 90
1
 70
1
 10
224.085336
 20
247.265227
 30
0.0
  0
SPLINE
  5
27f
100
AcDbEntity
  8
0
 62
7
100
AcDbSpline
 70
8
 71
3
 72
8
 73
4
 74
0
 40
0
 40
0
 40
0
 40
0
 40
1
 40
1
 40
1
 40
1
 10
603.959243
 20
466.585529
 30
0.0
 10
603.959243
 20
457.205717
 30
0.0
 10
596.355403
 20
449.601877
 30
0.0
 10
586.975591
 20
449.601877
 30
0.0
  0
SPLINE
  5
280
100
AcDbEntity
  8
0
 62
7
100
AcDbSpline
 70
8
 71
3
 72
8
 73
4
 74
0
 40
0
 40
0
 40
0
 40
0
 40
1
 40
1
 40
1
 40
1
 10
586.975591
 20
449.601877
 30
0.0
 10
577.595780
 20
449.601877
 30
0.0
 10
569.991940
 20
457.205717
 30
0.0
 10
569.991940
 20
466.585529
 30
0.0
  0
SPLINE
  5
281
100
AcDbEntity
  8
0
 62
7
100
AcDbSpline
 70
8
 71
3
 72
8
 73
4
 74
0
 40
0
 40
0
 40
0
 40
0
 40
1
 40
1
 40
1
 40
1
 10
569.991940
 20
466.585529
 30
0.0
 10
569.991940
 20
475.965340
 30
0.0
 10
577.595780
 20
483.569180
 30
0.0
 10
586.975591
 20
483.569180
 30
0.0
  0
SPLINE
  5
282
100
AcDbEntity
  8
0
 62
7
100
AcDbSpline
 70
8
 71
3
 72
8
 73
4
 74
0
 40
0
 40
0
 40
0
 40
0
 40
1
 40
1
 40
1
 40
1
 10
586.975591
 20
483.569180
 30
0.0
 10
596.355403
 20
483.569180
 30
0.0
 10
603.959243
 20
475.965340
 30
0.0
 10
603.959243
 20
466.585529
 30
0.0
  0
LWPOLYLINE
  5
283
100
AcDbEntity
  8
0
 62
7
100
AcDbPolyline
 90
1
 70
1
 10
603.959243
 20
247.265227
 30
0.0
  0
LWPOLYLINE
  5
284
100
AcDbEntity
  8
0
 62
7
100
AcDbPolyline
 90
1
 70
1
 10
603.959243
 20
466.585529
 30
0.0
  0
LWPOLYLINE
  5
285
100
AcDbEntity
  8
0
 62
7
100
AcDbPolyline
 90
2
 70
0
 10
80.477050
 20
593.210164
 30
0.0
 10
80.477050
 20
120.640591
 30
0.0
  0
ENDSEC
  0
SECTION
  2
OBJECTS
  0
DICTIONARY
  5
C
330
0
100
AcDbDictionary
  3
ACAD_GROUP
350
D
  3
ACAD_MLINESTYLE
350
17
  0
DICTIONARY
  5
D
330
C
100
AcDbDictionary
  0
DICTIONARY
  5
1A
330
C
100
AcDbDictionary
  0
DICTIONARY
  5
17
330
C
100
AcDbDictionary
  3
STANDARD
350
18
  0
DICTIONARY
  5
19
330
C
100
AcDbDictionary
  0
ENDSEC
  0
EOF
