  0
SECTION
  2
HEADER
  9
$ACADVER
  1
AC1014
  9
$HANDSEED
  5
FFFF
  9
$MEASUREMENT
 70
     1
  0
ENDSEC
  0
SECTION
  2
TABLES
  0
TABLE
  2
VPORT
  5
8
330
0
100
AcDbSymbolTable
 70
     4
  0
VPORT
  5
2E
330
8
100
AcDbSymbolTableRecord
100
AcDbViewportTableRecord
  2
*ACTIVE
 70
     0
 10
0.0
 20
0.0
 11
1.0
 21
1.0
 12
210.0
 22
148.5
 13
0.0
 23
0.0
 14
10.0
 24
10.0
 15
10.0
 25
10.0
 16
0.0
 26
0.0
 36
1.0
 17
0.0
 27
0.0
 37
0.0
 40
341.0
 41
1.24
 42
50.0
 43
0.0
 44
0.0
 50
0.0
 51
0.0
 71
     0
 72
   100
 73
     1
 74
     3
 75
     0
 76
     0
 77
     0
 78
     0
  0
ENDTAB
  0
TABLE
  2
LTYPE
  5
5
330
0
100
AcDbSymbolTable
 70
     1
  0
LTYPE
  5
14
330
5
100
AcDbSymbolTableRecord
100
AcDbLinetypeTableRecord
  2
BYBLOCK
 70
     0
  3

 72
    65
 73
     0
 40
0.0
  0
LTYPE
  5
15
330
5
100
AcDbSymbolTableRecord
100
AcDbLinetypeTableRecord
  2
BYLAYER
 70
     0
  3

 72
    65
 73
     0
 40
0.0
  0
LTYPE
  5
16
330
5
100
AcDbSymbolTableRecord
100
AcDbLinetypeTableRecord
  2
CONTINUOUS
 70
     0
  3
Solid line
 72
    65
 73
     0
 40
0.0
  0
ENDTAB
  0
TABLE
  2
LAYER
  5
2
100
AcDbSymbolTable
 70
1
  0
LAYER
  5
50
100
AcDbSymbolTableRecord
100
AcDbLayerTableRecord
  2
0
 70
0
  6
CONTINUOUS
  0
ENDTAB
  0
TABLE
  2
STYLE
  5
3
330
0
100
AcDbSymbolTable
 70
     1
  0
STYLE
  5
11
330
3
100
AcDbSymbolTableRecord
100
AcDbTextStyleTableRecord
  2
STANDARD
 70
     0
 40
0.0
 41
1.0
 50
0.0
 71
     0
 42
2.5
  3
txt
  4

  0
ENDTAB
  0
TABLE
  2
VIEW
  5
6
330
0
100
AcDbSymbolTable
 70
     0
  0
ENDTAB
  0
TABLE
  2
UCS
  5
7
330
0
100
AcDbSymbolTable
 70
     0
  0
ENDTAB
  0
TABLE
  2
APPID
  5
9
330
0
100
AcDbSymbolTable
 70
     2
  0
APPID
  5
12
330
9
100
AcDbSymbolTableRecord
100
AcDbRegAppTableRecord
  2
ACAD
 70
     0
  0
ENDTAB
  0
TABLE
  2
DIMSTYLE
  5
A
330
0
100
AcDbSymbolTable
 70
     1
  0
DIMSTYLE
105
27
330
A
100
AcDbSymbolTableRecord
100
AcDbDimStyleTableRecord
  2
ISO-25
 70
     0
  3

  4

  5

  6

  7

 40
1.0
 41
2.5
 42
0.625
 43
3.75
 44
1.25
 45
0.0
 46
0.0
 47
0.0
 48
0.0
140
2.5
141
2.5
142
0.0
143
0.03937007874016
144
1.0
145
0.0
146
1.0
147
0.625
 71
     0
 72
     0
 73
     0
 74
     0
 75
     0
 76
     0
 77
     1
 78
     8
170
     0
171
     3
172
     1
173
     0
174
     0
175
     0
176
     0
177
     0
178
     0
270
     2
271
     2
272
     2
273
     2
274
     3
340
11
275
     0
280
     0
281
     0
282
     0
283
     0
284
     8
285
     0
286
     0
287
     3
288
     0
  0
ENDTAB
  0
TABLE
  2
BLOCK_RECORD
  5
1
330
0
100
AcDbSymbolTable
 70
     1
  0
BLOCK_RECORD
  5
1F
330
1
100
AcDbSymbolTableRecord
100
AcDbBlockTableRecord
  2
*MODEL_SPACE
  0
BLOCK_RECORD
  5
1B
330
1
100
AcDbSymbolTableRecord
100
AcDbBlockTableRecord
  2
*PAPER_SPACE
  0
ENDTAB
  0
ENDSEC
  0
SECTION
  2
BLOCKS
  0
BLOCK
  5
20
330
1F
100
AcDbEntity
  8
0
100
AcDbBlockBegin
  2
*MODEL_SPACE
 70
     0
 10
0.0
 20
0.0
 30
0.0
  3
*MODEL_SPACE
  1

  0
ENDBLK
  5
21
330
1F
100
AcDbEntity
  8
0
100
AcDbBlockEnd
  0
BLOCK
  5
1C
330
1B
100
AcDbEntity
 67
     1
  8
0
100
AcDbBlockBegin
  2
*PAPER_SPACE
  1

  0
ENDBLK
  5
1D
330
1B
100
AcDbEntity
 67
     1
  8
0
100
AcDbBlockEnd
  0
ENDSEC
  0
SECTION
  2
ENTITIES
  0
SPLINE
  5
100
100
AcDbEntity
  8
0
 62
4
100
AcDbSpline
 70
8
 71
3
 72
8
 73
4
 74
0
 40
0
 40
0
 40
0
 40
0
 40
1
 40
1
 40
1
 40
1
 10
551.237079
 20
446.262250
 30
0.0
 10
551.237079
 20
401.684980
 30
0.0
 10
515.100062
 20
365.547970
 30
0.0
 10
470.522799
 20
365.547970
 30
0.0
  0
SPLINE
  5
101
100
AcDbEntity
  8
0
 62
4
100
AcDbSpline
 70
8
 71
3
 72
8
 73
4
 74
0
 40
0
 40
0
 40
0
 40
0
 40
1
 40
1
 40
1
 40
1
 10
470.522799
 20
365.547970
 30
0.0
 10
425.945536
 20
365.547970
 30
0.0
 10
389.808519
 20
401.684980
 30
0.0
 10
389.808519
 20
446.262250
 30
0.0
  0
SPLINE
  5
102
100
AcDbEntity
  8
0
 62
4
100
AcDbSpline
 70
8
 71
3
 72
8
 73
4
 74
0
 40
0
 40
0
 40
0
 40
0
 40
1
 40
1
 40
1
 40
1
 10
389.808519
 20
446.262250
 30
0.0
 10
389.808519
 20
490.839512
 30
0.0
 10
425.945536
 20
526.976522
 30
0.0
 10
470.522799
 20
526.976522
 30
0.0
  0
SPLINE
  5
103
100
AcDbEntity
  8
0
 62
4
100
AcDbSpline
 70
8
 71
3
 72
8
 73
4
 74
0
 40
0
 40
0
 40
0
 40
0
 40
1
 40
1
 40
1
 40
1
 10
470.522799
 20
526.976522
 30
0.0
 10
515.100061
 20
526.976522
 30
0.0
 10
551.237079
 20
490.839512
 30
0.0
 10
551.237079
 20
446.262250
 30
0.0
  0
LWPOLYLINE
  5
104
100
AcDbEntity
  8
0
 62
7
100
AcDbPolyline
 90
4
 70
1
 10
60.525601
 20
770.571850
 30
0.0
 10
1203.525601
 20
770.571850
 30
0.0
 10
1203.525601
 20
37.071850
 30
0.0
 10
60.525601
 20
37.071850
 30
0.0
  0
SPLINE
  5
105
100
AcDbEntity
  8
0
 62
4
100
AcDbSpline
 70
8
 71
3
 72
8
 73
4
 74
0
 40
0
 40
0
 40
0
 40
0
 40
1
 40
1
 40
1
 40
1
 10
470.522814
 20
446.212502
 30
0.0
 10
470.522814
 20
401.635232
 30
0.0
 10
434.385804
 20
365.498222
 30
0.0
 10
389.808541
 20
365.498222
 30
0.0
  0
SPLINE
  5
106
100
AcDbEntity
  8
0
 62
4
100
AcDbSpline
 70
8
 71
3
 72
8
 73
4
 74
0
 40
0
 40
0
 40
0
 40
0
 40
1
 40
1
 40
1
 40
1
 10
389.808541
 20
365.498222
 30
0.0
 10
345.231272
 20
365.498222
 30
0.0
 10
309.094262
 20
401.635232
 30
0.0
 10
309.094262
 20
446.212502
 30
0.0
  0
SPLINE
  5
107
100
AcDbEntity
  8
0
 62
4
100
AcDbSpline
 70
8
 71
3
 72
8
 73
4
 74
0
 40
0
 40
0
 40
0
 40
0
 40
1
 40
1
 40
1
 40
1
 10
309.094262
 20
446.212502
 30
0.0
 10
309.094262
 20
490.789765
 30
0.0
 10
345.231272
 20
526.926775
 30
0.0
 10
389.808541
 20
526.926775
 30
0.0
  0
SPLINE
  5
108
100
AcDbEntity
  8
0
 62
4
100
AcDbSpline
 70
8
 71
3
 72
8
 73
4
 74
0
 40
0
 40
0
 40
0
 40
0
 40
1
 40
1
 40
1
 40
1
 10
389.808541
 20
526.926775
 30
0.0
 10
434.385804
 20
526.926775
 30
0.0
 10
470.522814
 20
490.789765
 30
0.0
 10
470.522814
 20
446.212502
 30
0.0
  0
LWPOLYLINE
  5
109
100
AcDbEntity
  8
0
 62
4
100
AcDbPolyline
 90
1
 70
1
 10
551.237079
 20
446.262250
 30
0.0
  0
SPLINE
  5
10a
100
AcDbEntity
  8
0
 62
4
100
AcDbSpline
 70
8
 71
3
 72
8
 73
4
 74
0
 40
0
 40
0
 40
0
 40
0
 40
1
 40
1
 40
1
 40
1
 10
510.923026
 20
376.336772
 30
0.0
 10
510.923026
 20
331.759510
 30
0.0
 10
474.786016
 20
295.622492
 30
0.0
 10
430.208754
 20
295.622492
 30
0.0
  0
SPLINE
  5
10b
100
AcDbEntity
  8
0
 62
4
100
AcDbSpline
 70
8
 71
3
 72
8
 73
4
 74
0
 40
0
 40
0
 40
0
 40
0
 40
1
 40
1
 40
1
 40
1
 10
430.208754
 20
295.622492
 30
0.0
 10
385.631484
 20
295.622492
 30
0.0
 10
349.494474
 20
331.759510
 30
0.0
 10
349.494474
 20
376.336772
 30
0.0
  0
SPLINE
  5
10c
100
AcDbEntity
  8
0
 62
4
100
AcDbSpline
 70
8
 71
3
 72
8
 73
4
 74
0
 40
0
 40
0
 40
0
 40
0
 40
1
 40
1
 40
1
 40
1
 10
349.494474
 20
376.336772
 30
0.0
 10
349.494474
 20
420.914035
 30
0.0
 10
385.631484
 20
457.051052
 30
0.0
 10
430.208754
 20
457.051052
 30
0.0
  0
SPLINE
  5
10d
100
AcDbEntity
  8
0
 62
4
100
AcDbSpline
 70
8
 71
3
 72
8
 73
4
 74
0
 40
0
 40
0
 40
0
 40
0
 40
1
 40
1
 40
1
 40
1
 10
430.208754
 20
457.051052
 30
0.0
 10
474.786016
 20
457.051052
 30
0.0
 10
510.923026
 20
420.914035
 30
0.0
 10
510.923026
 20
376.336772
 30
0.0
  0
LWPOLYLINE
  5
10e
100
AcDbEntity
  8
0
 62
4
100
AcDbPolyline
 90
1
 70
1
 10
470.522814
 20
446.212502
 30
0.0
  0
SPLINE
  5
10f
100
AcDbEntity
  8
0
 62
4
100
AcDbSpline
 70
8
 71
3
 72
8
 73
4
 74
0
 40
0
 40
0
 40
0
 40
0
 40
1
 40
1
 40
1
 40
1
 10
430.208769
 20
376.287025
 30
0.0
 10
430.208769
 20
331.709762
 30
0.0
 10
394.071752
 20
295.572745
 30
0.0
 10
349.494489
 20
295.572745
 30
0.0
  0
SPLINE
  5
110
100
AcDbEntity
  8
0
 62
4
100
AcDbSpline
 70
8
 71
3
 72
8
 73
4
 74
0
 40
0
 40
0
 40
0
 40
0
 40
1
 40
1
 40
1
 40
1
 10
349.494489
 20
295.572745
 30
0.0
 10
304.917226
 20
295.572745
 30
0.0
 10
268.780216
 20
331.709762
 30
0.0
 10
268.780216
 20
376.287025
 30
0.0
  0
SPLINE
  5
111
100
AcDbEntity
  8
0
 62
4
100
AcDbSpline
 70
8
 71
3
 72
8
 73
4
 74
0
 40
0
 40
0
 40
0
 40
0
 40
1
 40
1
 40
1
 40
1
 10
268.780216
 20
376.287025
 30
0.0
 10
268.780216
 20
420.864287
 30
0.0
 10
304.917226
 20
457.001305
 30
0.0
 10
349.494489
 20
457.001305
 30
0.0
  0
SPLINE
  5
112
100
AcDbEntity
  8
0
 62
4
100
AcDbSpline
 70
8
 71
3
 72
8
 73
4
 74
0
 40
0
 40
0
 40
0
 40
0
 40
1
 40
1
 40
1
 40
1
 10
349.494489
 20
457.001305
 30
0.0
 10
394.071752
 20
457.001305
 30
0.0
 10
430.208769
 20
420.864287
 30
0.0
 10
430.208769
 20
376.287025
 30
0.0
  0
LWPOLYLINE
  5
113
100
AcDbEntity
  8
0
 62
4
100
AcDbPolyline
 90
1
 70
1
 10
510.923026
 20
376.336772
 30
0.0
  0
SPLINE
  5
114
100
AcDbEntity
  8
0
 62
4
100
AcDbSpline
 70
8
 71
3
 72
8
 73
4
 74
0
 40
0
 40
0
 40
0
 40
0
 40
1
 40
1
 40
1
 40
1
 10
591.637291
 20
376.386520
 30
0.0
 10
591.637291
 20
331.809257
 30
0.0
 10
555.500274
 20
295.672240
 30
0.0
 10
510.923011
 20
295.672240
 30
0.0
  0
SPLINE
  5
115
100
AcDbEntity
  8
0
 62
4
100
AcDbSpline
 70
8
 71
3
 72
8
 73
4
 74
0
 40
0
 40
0
 40
0
 40
0
 40
1
 40
1
 40
1
 40
1
 10
510.923011
 20
295.672240
 30
0.0
 10
466.345749
 20
295.672240
 30
0.0
 10
430.208739
 20
331.809257
 30
0.0
 10
430.208739
 20
376.386520
 30
0.0
  0
SPLINE
  5
116
100
AcDbEntity
  8
0
 62
4
100
AcDbSpline
 70
8
 71
3
 72
8
 73
4
 74
0
 40
0
 40
0
 40
0
 40
0
 40
1
 40
1
 40
1
 40
1
 10
430.208739
 20
376.386520
 30
0.0
 10
430.208739
 20
420.963782
 30
0.0
 10
466.345749
 20
457.100800
 30
0.0
 10
510.923011
 20
457.100800
 30
0.0
  0
SPLINE
  5
117
100
AcDbEntity
  8
0
 62
4
100
AcDbSpline
 70
8
 71
3
 72
8
 73
4
 74
0
 40
0
 40
0
 40
0
 40
0
 40
1
 40
1
 40
1
 40
1
 10
510.923011
 20
457.100800
 30
0.0
 10
555.500274
 20
457.100800
 30
0.0
 10
591.637291
 20
420.963782
 30
0.0
 10
591.637291
 20
376.386520
 30
0.0
  0
LWPOLYLINE
  5
118
100
AcDbEntity
  8
0
 62
4
100
AcDbPolyline
 90
1
 70
1
 10
430.208769
 20
376.287025
 30
0.0
  0
SPLINE
  5
119
100
AcDbEntity
  8
0
 62
4
100
AcDbSpline
 70
8
 71
3
 72
8
 73
4
 74
0
 40
0
 40
0
 40
0
 40
0
 40
1
 40
1
 40
1
 40
1
 10
470.608981
 20
306.411295
 30
0.0
 10
470.608981
 20
261.834032
 30
0.0
 10
434.471971
 20
225.697022
 30
0.0
 10
389.894701
 20
225.697022
 30
0.0
  0
SPLINE
  5
11a
100
AcDbEntity
  8
0
 62
4
100
AcDbSpline
 70
8
 71
3
 72
8
 73
4
 74
0
 40
0
 40
0
 40
0
 40
0
 40
1
 40
1
 40
1
 40
1
 10
389.894701
 20
225.697022
 30
0.0
 10
345.317439
 20
225.697022
 30
0.0
 10
309.180429
 20
261.834032
 30
0.0
 10
309.180429
 20
306.411295
 30
0.0
  0
SPLINE
  5
11b
100
AcDbEntity
  8
0
 62
4
100
AcDbSpline
 70
8
 71
3
 72
8
 73
4
 74
0
 40
0
 40
0
 40
0
 40
0
 40
1
 40
1
 40
1
 40
1
 10
309.180429
 20
306.411295
 30
0.0
 10
309.180429
 20
350.988565
 30
0.0
 10
345.317439
 20
387.125575
 30
0.0
 10
389.894701
 20
387.125575
 30
0.0
  0
SPLINE
  5
11c
100
AcDbEntity
  8
0
 62
4
100
AcDbSpline
 70
8
 71
3
 72
8
 73
4
 74
0
 40
0
 40
0
 40
0
 40
0
 40
1
 40
1
 40
1
 40
1
 10
389.894701
 20
387.125575
 30
0.0
 10
434.471971
 20
387.125575
 30
0.0
 10
470.608981
 20
350.988565
 30
0.0
 10
470.608981
 20
306.411295
 30
0.0
  0
LWPOLYLINE
  5
11d
100
AcDbEntity
  8
0
 62
4
100
AcDbPolyline
 90
1
 70
1
 10
591.637291
 20
376.386520
 30
0.0
  0
SPLINE
  5
11e
100
AcDbEntity
  8
0
 62
4
100
AcDbSpline
 70
8
 71
3
 72
8
 73
4
 74
0
 40
0
 40
0
 40
0
 40
0
 40
1
 40
1
 40
1
 40
1
 10
430.122601
 20
516.088225
 30
0.0
 10
430.122601
 20
471.510962
 30
0.0
 10
393.985591
 20
435.373952
 30
0.0
 10
349.408321
 20
435.373952
 30
0.0
  0
SPLINE
  5
11f
100
AcDbEntity
  8
0
 62
4
100
AcDbSpline
 70
8
 71
3
 72
8
 73
4
 74
0
 40
0
 40
0
 40
0
 40
0
 40
1
 40
1
 40
1
 40
1
 10
349.408321
 20
435.373952
 30
0.0
 10
304.831059
 20
435.373952
 30
0.0
 10
268.694049
 20
471.510962
 30
0.0
 10
268.694049
 20
516.088225
 30
0.0
  0
SPLINE
  5
120
100
AcDbEntity
  8
0
 62
4
100
AcDbSpline
 70
8
 71
3
 72
8
 73
4
 74
0
 40
0
 40
0
 40
0
 40
0
 40
1
 40
1
 40
1
 40
1
 10
268.694049
 20
516.088225
 30
0.0
 10
268.694049
 20
560.665487
 30
0.0
 10
304.831059
 20
596.802505
 30
0.0
 10
349.408321
 20
596.802505
 30
0.0
  0
SPLINE
  5
121
100
AcDbEntity
  8
0
 62
4
100
AcDbSpline
 70
8
 71
3
 72
8
 73
4
 74
0
 40
0
 40
0
 40
0
 40
0
 40
1
 40
1
 40
1
 40
1
 10
349.408321
 20
596.802505
 30
0.0
 10
393.985591
 20
596.802505
 30
0.0
 10
430.122601
 20
560.665487
 30
0.0
 10
430.122601
 20
516.088225
 30
0.0
  0
LWPOLYLINE
  5
122
100
AcDbEntity
  8
0
 62
4
100
AcDbPolyline
 90
1
 70
1
 10
470.608981
 20
306.411295
 30
0.0
  0
SPLINE
  5
123
100
AcDbEntity
  8
0
 62
4
100
AcDbSpline
 70
8
 71
3
 72
8
 73
4
 74
0
 40
0
 40
0
 40
0
 40
0
 40
1
 40
1
 40
1
 40
1
 10
349.494504
 20
376.237277
 30
0.0
 10
349.494504
 20
331.660015
 30
0.0
 10
313.357494
 20
295.522997
 30
0.0
 10
268.780232
 20
295.522997
 30
0.0
  0
SPLINE
  5
124
100
AcDbEntity
  8
0
 62
4
100
AcDbSpline
 70
8
 71
3
 72
8
 73
4
 74
0
 40
0
 40
0
 40
0
 40
0
 40
1
 40
1
 40
1
 40
1
 10
268.780232
 20
295.522997
 30
0.0
 10
224.202961
 20
295.522997
 30
0.0
 10
188.065952
 20
331.660015
 30
0.0
 10
188.065952
 20
376.237277
 30
0.0
  0
SPLINE
  5
125
100
AcDbEntity
  8
0
 62
4
100
AcDbSpline
 70
8
 71
3
 72
8
 73
4
 74
0
 40
0
 40
0
 40
0
 40
0
 40
1
 40
1
 40
1
 40
1
 10
188.065952
 20
376.237277
 30
0.0
 10
188.065952
 20
420.814540
 30
0.0
 10
224.202962
 20
456.951550
 30
0.0
 10
268.780232
 20
456.951550
 30
0.0
  0
SPLINE
  5
126
100
AcDbEntity
  8
0
 62
4
100
AcDbSpline
 70
8
 71
3
 72
8
 73
4
 74
0
 40
0
 40
0
 40
0
 40
0
 40
1
 40
1
 40
1
 40
1
 10
268.780232
 20
456.951550
 30
0.0
 10
313.357494
 20
456.951550
 30
0.0
 10
349.494504
 20
420.814540
 30
0.0
 10
349.494504
 20
376.237277
 30
0.0
  0
LWPOLYLINE
  5
127
100
AcDbEntity
  8
0
 62
4
100
AcDbPolyline
 90
1
 70
1
 10
430.122601
 20
516.088225
 30
0.0
  0
SPLINE
  5
128
100
AcDbEntity
  8
0
 62
4
100
AcDbSpline
 70
8
 71
3
 72
8
 73
4
 74
0
 40
0
 40
0
 40
0
 40
0
 40
1
 40
1
 40
1
 40
1
 10
309.094291
 20
446.113000
 30
0.0
 10
309.094291
 20
401.535737
 30
0.0
 10
272.957281
 20
365.398727
 30
0.0
 10
228.380011
 20
365.398727
 30
0.0
  0
SPLINE
  5
129
100
AcDbEntity
  8
0
 62
4
100
AcDbSpline
 70
8
 71
3
 72
8
 73
4
 74
0
 40
0
 40
0
 40
0
 40
0
 40
1
 40
1
 40
1
 40
1
 10
228.380011
 20
365.398727
 30
0.0
 10
183.802749
 20
365.398727
 30
0.0
 10
147.665739
 20
401.535737
 30
0.0
 10
147.665739
 20
446.113000
 30
0.0
  0
SPLINE
  5
12a
100
AcDbEntity
  8
0
 62
4
100
AcDbSpline
 70
8
 71
3
 72
8
 73
4
 74
0
 40
0
 40
0
 40
0
 40
0
 40
1
 40
1
 40
1
 40
1
 10
147.665739
 20
446.113000
 30
0.0
 10
147.665739
 20
490.690270
 30
0.0
 10
183.802749
 20
526.827280
 30
0.0
 10
228.380011
 20
526.827280
 30
0.0
  0
SPLINE
  5
12b
100
AcDbEntity
  8
0
 62
4
100
AcDbSpline
 70
8
 71
3
 72
8
 73
4
 74
0
 40
0
 40
0
 40
0
 40
0
 40
1
 40
1
 40
1
 40
1
 10
228.380011
 20
526.827280
 30
0.0
 10
272.957281
 20
526.827280
 30
0.0
 10
309.094291
 20
490.690270
 30
0.0
 10
309.094291
 20
446.113000
 30
0.0
  0
LWPOLYLINE
  5
12c
100
AcDbEntity
  8
0
 62
4
100
AcDbPolyline
 90
1
 70
1
 10
349.494504
 20
376.237277
 30
0.0
  0
SPLINE
  5
12d
100
AcDbEntity
  8
0
 62
4
100
AcDbSpline
 70
8
 71
3
 72
8
 73
4
 74
0
 40
0
 40
0
 40
0
 40
0
 40
1
 40
1
 40
1
 40
1
 10
349.408337
 20
516.038477
 30
0.0
 10
349.408337
 20
471.461215
 30
0.0
 10
313.271326
 20
435.324205
 30
0.0
 10
268.694064
 20
435.324205
 30
0.0
  0
SPLINE
  5
12e
100
AcDbEntity
  8
0
 62
4
100
AcDbSpline
 70
8
 71
3
 72
8
 73
4
 74
0
 40
0
 40
0
 40
0
 40
0
 40
1
 40
1
 40
1
 40
1
 10
268.694064
 20
435.324205
 30
0.0
 10
224.116802
 20
435.324205
 30
0.0
 10
187.979784
 20
471.461215
 30
0.0
 10
187.979784
 20
516.038477
 30
0.0
  0
SPLINE
  5
12f
100
AcDbEntity
  8
0
 62
4
100
AcDbSpline
 70
8
 71
3
 72
8
 73
4
 74
0
 40
0
 40
0
 40
0
 40
0
 40
1
 40
1
 40
1
 40
1
 10
187.979784
 20
516.038477
 30
0.0
 10
187.979784
 20
560.615740
 30
0.0
 10
224.116802
 20
596.752757
 30
0.0
 10
268.694064
 20
596.752757
 30
0.0
  0
SPLINE
  5
130
100
AcDbEntity
  8
0
 62
4
100
AcDbSpline
 70
8
 71
3
 72
8
 73
4
 74
0
 40
0
 40
0
 40
0
 40
0
 40
1
 40
1
 40
1
 40
1
 10
268.694064
 20
596.752757
 30
0.0
 10
313.271326
 20
596.752757
 30
0.0
 10
349.408337
 20
560.615740
 30
0.0
 10
349.408337
 20
516.038477
 30
0.0
  0
LWPOLYLINE
  5
131
100
AcDbEntity
  8
0
 62
4
100
AcDbPolyline
 90
1
 70
1
 10
309.094291
 20
446.113000
 30
0.0
  0
SPLINE
  5
132
100
AcDbEntity
  8
0
 62
4
100
AcDbSpline
 70
8
 71
3
 72
8
 73
4
 74
0
 40
0
 40
0
 40
0
 40
0
 40
1
 40
1
 40
1
 40
1
 10
349.580671
 20
236.436077
 30
0.0
 10
349.580671
 20
191.858807
 30
0.0
 10
313.443662
 20
155.721797
 30
0.0
 10
268.866392
 20
155.721797
 30
0.0
  0
SPLINE
  5
133
100
AcDbEntity
  8
0
 62
4
100
AcDbSpline
 70
8
 71
3
 72
8
 73
4
 74
0
 40
0
 40
0
 40
0
 40
0
 40
1
 40
1
 40
1
 40
1
 10
268.866392
 20
155.721797
 30
0.0
 10
224.289129
 20
155.721797
 30
0.0
 10
188.152119
 20
191.858807
 30
0.0
 10
188.152119
 20
236.436077
 30
0.0
  0
SPLINE
  5
134
100
AcDbEntity
  8
0
 62
4
100
AcDbSpline
 70
8
 71
3
 72
8
 73
4
 74
0
 40
0
 40
0
 40
0
 40
0
 40
1
 40
1
 40
1
 40
1
 10
188.152119
 20
236.436077
 30
0.0
 10
188.152119
 20
281.013340
 30
0.0
 10
224.289129
 20
317.150350
 30
0.0
 10
268.866392
 20
317.150350
 30
0.0
  0
SPLINE
  5
135
100
AcDbEntity
  8
0
 62
4
100
AcDbSpline
 70
8
 71
3
 72
8
 73
4
 74
0
 40
0
 40
0
 40
0
 40
0
 40
1
 40
1
 40
1
 40
1
 10
268.866392
 20
317.150350
 30
0.0
 10
313.443662
 20
317.150350
 30
0.0
 10
349.580671
 20
281.013340
 30
0.0
 10
349.580671
 20
236.436077
 30
0.0
  0
LWPOLYLINE
  5
136
100
AcDbEntity
  8
0
 62
4
100
AcDbPolyline
 90
1
 70
1
 10
349.408337
 20
516.038477
 30
0.0
  0
SPLINE
  5
137
100
AcDbEntity
  8
0
 62
4
100
AcDbSpline
 70
8
 71
3
 72
8
 73
4
 74
0
 40
0
 40
0
 40
0
 40
0
 40
1
 40
1
 40
1
 40
1
 10
591.723459
 20
236.585320
 30
0.0
 10
591.723459
 20
192.008057
 30
0.0
 10
555.586442
 20
155.871040
 30
0.0
 10
511.009179
 20
155.871040
 30
0.0
  0
SPLINE
  5
138
100
AcDbEntity
  8
0
 62
4
100
AcDbSpline
 70
8
 71
3
 72
8
 73
4
 74
0
 40
0
 40
0
 40
0
 40
0
 40
1
 40
1
 40
1
 40
1
 10
511.009179
 20
155.871040
 30
0.0
 10
466.431917
 20
155.871040
 30
0.0
 10
430.294899
 20
192.008057
 30
0.0
 10
430.294899
 20
236.585320
 30
0.0
  0
SPLINE
  5
139
100
AcDbEntity
  8
0
 62
4
100
AcDbSpline
 70
8
 71
3
 72
8
 73
4
 74
0
 40
0
 40
0
 40
0
 40
0
 40
1
 40
1
 40
1
 40
1
 10
430.294899
 20
236.585320
 30
0.0
 10
430.294899
 20
281.162582
 30
0.0
 10
466.431917
 20
317.299592
 30
0.0
 10
511.009179
 20
317.299592
 30
0.0
  0
SPLINE
  5
13a
100
AcDbEntity
  8
0
 62
4
100
AcDbSpline
 70
8
 71
3
 72
8
 73
4
 74
0
 40
0
 40
0
 40
0
 40
0
 40
1
 40
1
 40
1
 40
1
 10
511.009179
 20
317.299592
 30
0.0
 10
555.586441
 20
317.299592
 30
0.0
 10
591.723459
 20
281.162582
 30
0.0
 10
591.723459
 20
236.585320
 30
0.0
  0
LWPOLYLINE
  5
13b
100
AcDbEntity
  8
0
 62
4
100
AcDbPolyline
 90
1
 70
1
 10
349.580671
 20
236.436077
 30
0.0
  0
SPLINE
  5
13c
100
AcDbEntity
  8
0
 62
4
100
AcDbSpline
 70
8
 71
3
 72
8
 73
4
 74
0
 40
0
 40
0
 40
0
 40
0
 40
1
 40
1
 40
1
 40
1
 10
712.751761
 20
306.560537
 30
0.0
 10
712.751761
 20
261.983275
 30
0.0
 10
676.614752
 20
225.846265
 30
0.0
 10
632.037489
 20
225.846265
 30
0.0
  0
SPLINE
  5
13d
100
AcDbEntity
  8
0
 62
4
100
AcDbSpline
 70
8
 71
3
 72
8
 73
4
 74
0
 40
0
 40
0
 40
0
 40
0
 40
1
 40
1
 40
1
 40
1
 10
632.037489
 20
225.846265
 30
0.0
 10
587.460227
 20
225.846265
 30
0.0
 10
551.323209
 20
261.983275
 30
0.0
 10
551.323209
 20
306.560537
 30
0.0
  0
SPLINE
  5
13e
100
AcDbEntity
  8
0
 62
4
100
AcDbSpline
 70
8
 71
3
 72
8
 73
4
 74
0
 40
0
 40
0
 40
0
 40
0
 40
1
 40
1
 40
1
 40
1
 10
551.323209
 20
306.560537
 30
0.0
 10
551.323209
 20
351.137807
 30
0.0
 10
587.460226
 20
387.274817
 30
0.0
 10
632.037489
 20
387.274817
 30
0.0
  0
SPLINE
  5
13f
100
AcDbEntity
  8
0
 62
4
100
AcDbSpline
 70
8
 71
3
 72
8
 73
4
 74
0
 40
0
 40
0
 40
0
 40
0
 40
1
 40
1
 40
1
 40
1
 10
632.037489
 20
387.274817
 30
0.0
 10
676.614752
 20
387.274817
 30
0.0
 10
712.751761
 20
351.137807
 30
0.0
 10
712.751761
 20
306.560537
 30
0.0
  0
LWPOLYLINE
  5
140
100
AcDbEntity
  8
0
 62
4
100
AcDbPolyline
 90
1
 70
1
 10
591.723459
 20
236.585320
 30
0.0
  0
SPLINE
  5
141
100
AcDbEntity
  8
0
 62
4
100
AcDbSpline
 70
8
 71
3
 72
8
 73
4
 74
0
 40
0
 40
0
 40
0
 40
0
 40
1
 40
1
 40
1
 40
1
 10
712.665601
 20
446.361745
 30
0.0
 10
712.665601
 20
401.784475
 30
0.0
 10
676.528584
 20
365.647465
 30
0.0
 10
631.951321
 20
365.647465
 30
0.0
  0
SPLINE
  5
142
100
AcDbEntity
  8
0
 62
4
100
AcDbSpline
 70
8
 71
3
 72
8
 73
4
 74
0
 40
0
 40
0
 40
0
 40
0
 40
1
 40
1
 40
1
 40
1
 10
631.951321
 20
365.647465
 30
0.0
 10
587.374059
 20
365.647465
 30
0.0
 10
551.237049
 20
401.784475
 30
0.0
 10
551.237049
 20
446.361745
 30
0.0
  0
SPLINE
  5
143
100
AcDbEntity
  8
0
 62
4
100
AcDbSpline
 70
8
 71
3
 72
8
 73
4
 74
0
 40
0
 40
0
 40
0
 40
0
 40
1
 40
1
 40
1
 40
1
 10
551.237049
 20
446.361745
 30
0.0
 10
551.237049
 20
490.939007
 30
0.0
 10
587.374059
 20
527.076017
 30
0.0
 10
631.951321
 20
527.076017
 30
0.0
  0
SPLINE
  5
144
100
AcDbEntity
  8
0
 62
4
100
AcDbSpline
 70
8
 71
3
 72
8
 73
4
 74
0
 40
0
 40
0
 40
0
 40
0
 40
1
 40
1
 40
1
 40
1
 10
631.951321
 20
527.076017
 30
0.0
 10
676.528584
 20
527.076017
 30
0.0
 10
712.665601
 20
490.939007
 30
0.0
 10
712.665601
 20
446.361745
 30
0.0
  0
LWPOLYLINE
  5
145
100
AcDbEntity
  8
0
 62
4
100
AcDbPolyline
 90
1
 70
1
 10
712.751761
 20
306.560537
 30
0.0
  0
SPLINE
  5
146
100
AcDbEntity
  8
0
 62
4
100
AcDbSpline
 70
8
 71
3
 72
8
 73
4
 74
0
 40
0
 40
0
 40
0
 40
0
 40
1
 40
1
 40
1
 40
1
 10
591.551124
 20
516.187720
 30
0.0
 10
591.551124
 20
471.610457
 30
0.0
 10
555.414114
 20
435.473447
 30
0.0
 10
510.836844
 20
435.473447
 30
0.0
  0
SPLINE
  5
147
100
AcDbEntity
  8
0
 62
4
100
AcDbSpline
 70
8
 71
3
 72
8
 73
4
 74
0
 40
0
 40
0
 40
0
 40
0
 40
1
 40
1
 40
1
 40
1
 10
510.836844
 20
435.473447
 30
0.0
 10
466.259582
 20
435.473447
 30
0.0
 10
430.122571
 20
471.610457
 30
0.0
 10
430.122571
 20
516.187720
 30
0.0
  0
SPLINE
  5
148
100
AcDbEntity
  8
0
 62
4
100
AcDbSpline
 70
8
 71
3
 72
8
 73
4
 74
0
 40
0
 40
0
 40
0
 40
0
 40
1
 40
1
 40
1
 40
1
 10
430.122571
 20
516.187720
 30
0.0
 10
430.122571
 20
560.764982
 30
0.0
 10
466.259581
 20
596.902000
 30
0.0
 10
510.836844
 20
596.902000
 30
0.0
  0
SPLINE
  5
149
100
AcDbEntity
  8
0
 62
4
100
AcDbSpline
 70
8
 71
3
 72
8
 73
4
 74
0
 40
0
 40
0
 40
0
 40
0
 40
1
 40
1
 40
1
 40
1
 10
510.836844
 20
596.902000
 30
0.0
 10
555.414114
 20
596.902000
 30
0.0
 10
591.551124
 20
560.764982
 30
0.0
 10
591.551124
 20
516.187720
 30
0.0
  0
LWPOLYLINE
  5
14a
100
AcDbEntity
  8
0
 62
4
100
AcDbPolyline
 90
1
 70
1
 10
712.665601
 20
446.361745
 30
0.0
  0
SPLINE
  5
14b
100
AcDbEntity
  8
0
 62
2
100
AcDbSpline
 70
8
 71
3
 72
8
 73
4
 74
0
 40
0
 40
0
 40
0
 40
0
 40
1
 40
1
 40
1
 40
1
 10
490.722916
 20
411.299507
 30
0.0
 10
490.722916
 20
389.010880
 30
0.0
 10
472.654404
 20
370.942375
 30
0.0
 10
450.365776
 20
370.942375
 30
0.0
  0
SPLINE
  5
14c
100
AcDbEntity
  8
0
 62
2
100
AcDbSpline
 70
8
 71
3
 72
8
 73
4
 74
0
 40
0
 40
0
 40
0
 40
0
 40
1
 40
1
 40
1
 40
1
 10
450.365776
 20
370.942375
 30
0.0
 10
428.077141
 20
370.942375
 30
0.0
 10
410.008636
 20
389.010880
 30
0.0
 10
410.008636
 20
411.299507
 30
0.0
  0
SPLINE
  5
14d
100
AcDbEntity
  8
0
 62
2
100
AcDbSpline
 70
8
 71
3
 72
8
 73
4
 74
0
 40
0
 40
0
 40
0
 40
0
 40
1
 40
1
 40
1
 40
1
 10
410.008636
 20
411.299507
 30
0.0
 10
410.008636
 20
433.588142
 30
0.0
 10
428.077141
 20
451.656647
 30
0.0
 10
450.365776
 20
451.656647
 30
0.0
  0
SPLINE
  5
14e
100
AcDbEntity
  8
0
 62
2
100
AcDbSpline
 70
8
 71
3
 72
8
 73
4
 74
0
 40
0
 40
0
 40
0
 40
0
 40
1
 40
1
 40
1
 40
1
 10
450.365776
 20
451.656647
 30
0.0
 10
472.654404
 20
451.656647
 30
0.0
 10
490.722916
 20
433.588142
 30
0.0
 10
490.722916
 20
411.299507
 30
0.0
  0
LWPOLYLINE
  5
14f
100
AcDbEntity
  8
0
 62
4
100
AcDbPolyline
 90
1
 70
1
 10
591.551124
 20
516.187720
 30
0.0
  0
SPLINE
  5
150
100
AcDbEntity
  8
0
 62
2
100
AcDbSpline
 70
8
 71
3
 72
8
 73
4
 74
0
 40
0
 40
0
 40
0
 40
0
 40
1
 40
1
 40
1
 40
1
 10
551.237071
 20
446.287120
 30
0.0
 10
551.237071
 20
423.998492
 30
0.0
 10
533.168559
 20
405.929980
 30
0.0
 10
510.879931
 20
405.929980
 30
0.0
  0
SPLINE
  5
151
100
AcDbEntity
  8
0
 62
2
100
AcDbSpline
 70
8
 71
3
 72
8
 73
4
 74
0
 40
0
 40
0
 40
0
 40
0
 40
1
 40
1
 40
1
 40
1
 10
510.879931
 20
405.929980
 30
0.0
 10
488.591296
 20
405.929980
 30
0.0
 10
470.522791
 20
423.998492
 30
0.0
 10
470.522791
 20
446.287120
 30
0.0
  0
SPLINE
  5
152
100
AcDbEntity
  8
0
 62
2
100
AcDbSpline
 70
8
 71
3
 72
8
 73
4
 74
0
 40
0
 40
0
 40
0
 40
0
 40
1
 40
1
 40
1
 40
1
 10
470.522791
 20
446.287120
 30
0.0
 10
470.522791
 20
468.575755
 30
0.0
 10
488.591296
 20
486.644260
 30
0.0
 10
510.879931
 20
486.644260
 30
0.0
  0
SPLINE
  5
153
100
AcDbEntity
  8
0
 62
2
100
AcDbSpline
 70
8
 71
3
 72
8
 73
4
 74
0
 40
0
 40
0
 40
0
 40
0
 40
1
 40
1
 40
1
 40
1
 10
510.879931
 20
486.644260
 30
0.0
 10
533.168559
 20
486.644260
 30
0.0
 10
551.237071
 20
468.575755
 30
0.0
 10
551.237071
 20
446.287120
 30
0.0
  0
LWPOLYLINE
  5
154
100
AcDbEntity
  8
0
 62
2
100
AcDbPolyline
 90
1
 70
1
 10
490.722916
 20
411.299507
 30
0.0
  0
SPLINE
  5
155
100
AcDbEntity
  8
0
 62
2
100
AcDbSpline
 70
8
 71
3
 72
8
 73
4
 74
0
 40
0
 40
0
 40
0
 40
0
 40
1
 40
1
 40
1
 40
1
 10
490.765997
 20
341.398907
 30
0.0
 10
490.765997
 20
319.110280
 30
0.0
 10
472.697492
 20
301.041767
 30
0.0
 10
450.408856
 20
301.041767
 30
0.0
  0
SPLINE
  5
156
100
AcDbEntity
  8
0
 62
2
100
AcDbSpline
 70
8
 71
3
 72
8
 73
4
 74
0
 40
0
 40
0
 40
0
 40
0
 40
1
 40
1
 40
1
 40
1
 10
450.408856
 20
301.041767
 30
0.0
 10
428.120229
 20
301.041767
 30
0.0
 10
410.051716
 20
319.110280
 30
0.0
 10
410.051716
 20
341.398907
 30
0.0
  0
SPLINE
  5
157
100
AcDbEntity
  8
0
 62
2
100
AcDbSpline
 70
8
 71
3
 72
8
 73
4
 74
0
 40
0
 40
0
 40
0
 40
0
 40
1
 40
1
 40
1
 40
1
 10
410.051716
 20
341.398907
 30
0.0
 10
410.051716
 20
363.687542
 30
0.0
 10
428.120229
 20
381.756047
 30
0.0
 10
450.408856
 20
381.756047
 30
0.0
  0
SPLINE
  5
158
100
AcDbEntity
  8
0
 62
2
100
AcDbSpline
 70
8
 71
3
 72
8
 73
4
 74
0
 40
0
 40
0
 40
0
 40
0
 40
1
 40
1
 40
1
 40
1
 10
450.408856
 20
381.756047
 30
0.0
 10
472.697491
 20
381.756047
 30
0.0
 10
490.765997
 20
363.687542
 30
0.0
 10
490.765997
 20
341.398907
 30
0.0
  0
LWPOLYLINE
  5
159
100
AcDbEntity
  8
0
 62
2
100
AcDbPolyline
 90
1
 70
1
 10
551.237071
 20
446.287120
 30
0.0
  0
SPLINE
  5
15a
100
AcDbEntity
  8
0
 62
2
100
AcDbSpline
 70
8
 71
3
 72
8
 73
4
 74
0
 40
0
 40
0
 40
0
 40
0
 40
1
 40
1
 40
1
 40
1
 10
490.679829
 20
481.200107
 30
0.0
 10
490.679829
 20
458.911480
 30
0.0
 10
472.611324
 20
440.842975
 30
0.0
 10
450.322689
 20
440.842975
 30
0.0
  0
SPLINE
  5
15b
100
AcDbEntity
  8
0
 62
2
100
AcDbSpline
 70
8
 71
3
 72
8
 73
4
 74
0
 40
0
 40
0
 40
0
 40
0
 40
1
 40
1
 40
1
 40
1
 10
450.322689
 20
440.842975
 30
0.0
 10
428.034061
 20
440.842975
 30
0.0
 10
409.965556
 20
458.911480
 30
0.0
 10
409.965556
 20
481.200107
 30
0.0
  0
SPLINE
  5
15c
100
AcDbEntity
  8
0
 62
2
100
AcDbSpline
 70
8
 71
3
 72
8
 73
4
 74
0
 40
0
 40
0
 40
0
 40
0
 40
1
 40
1
 40
1
 40
1
 10
409.965556
 20
481.200107
 30
0.0
 10
409.965556
 20
503.488742
 30
0.0
 10
428.034061
 20
521.557247
 30
0.0
 10
450.322689
 20
521.557247
 30
0.0
  0
SPLINE
  5
15d
100
AcDbEntity
  8
0
 62
2
100
AcDbSpline
 70
8
 71
3
 72
8
 73
4
 74
0
 40
0
 40
0
 40
0
 40
0
 40
1
 40
1
 40
1
 40
1
 10
450.322689
 20
521.557247
 30
0.0
 10
472.611324
 20
521.557247
 30
0.0
 10
490.679829
 20
503.488742
 30
0.0
 10
490.679829
 20
481.200107
 30
0.0
  0
LWPOLYLINE
  5
15e
100
AcDbEntity
  8
0
 62
2
100
AcDbPolyline
 90
1
 70
1
 10
490.765997
 20
341.398907
 30
0.0
  0
SPLINE
  5
15f
100
AcDbEntity
  8
0
 62
2
100
AcDbSpline
 70
8
 71
3
 72
8
 73
4
 74
0
 40
0
 40
0
 40
0
 40
0
 40
1
 40
1
 40
1
 40
1
 10
430.208762
 20
376.311895
 30
0.0
 10
430.208762
 20
354.023267
 30
0.0
 10
412.140257
 20
335.954762
 30
0.0
 10
389.851621
 20
335.954762
 30
0.0
  0
SPLINE
  5
160
100
AcDbEntity
  8
0
 62
2
100
AcDbSpline
 70
8
 71
3
 72
8
 73
4
 74
0
 40
0
 40
0
 40
0
 40
0
 40
1
 40
1
 40
1
 40
1
 10
389.851621
 20
335.954762
 30
0.0
 10
367.562986
 20
335.954762
 30
0.0
 10
349.494482
 20
354.023267
 30
0.0
 10
349.494482
 20
376.311895
 30
0.0
  0
SPLINE
  5
161
100
AcDbEntity
  8
0
 62
2
100
AcDbSpline
 70
8
 71
3
 72
8
 73
4
 74
0
 40
0
 40
0
 40
0
 40
0
 40
1
 40
1
 40
1
 40
1
 10
349.494482
 20
376.311895
 30
0.0
 10
349.494482
 20
398.600530
 30
0.0
 10
367.562986
 20
416.669035
 30
0.0
 10
389.851621
 20
416.669035
 30
0.0
  0
SPLINE
  5
162
100
AcDbEntity
  8
0
 62
2
100
AcDbSpline
 70
8
 71
3
 72
8
 73
4
 74
0
 40
0
 40
0
 40
0
 40
0
 40
1
 40
1
 40
1
 40
1
 10
389.851621
 20
416.669035
 30
0.0
 10
412.140257
 20
416.669035
 30
0.0
 10
430.208762
 20
398.600530
 30
0.0
 10
430.208762
 20
376.311895
 30
0.0
  0
LWPOLYLINE
  5
163
100
AcDbEntity
  8
0
 62
2
100
AcDbPolyline
 90
1
 70
1
 10
490.679829
 20
481.200107
 30
0.0
  0
SPLINE
  5
164
100
AcDbEntity
  8
0
 62
2
100
AcDbSpline
 70
8
 71
3
 72
8
 73
4
 74
0
 40
0
 40
0
 40
0
 40
0
 40
1
 40
1
 40
1
 40
1
 10
369.651519
 20
411.224890
 30
0.0
 10
369.651519
 20
388.936255
 30
0.0
 10
351.583014
 20
370.867750
 30
0.0
 10
329.294386
 20
370.867750
 30
0.0
  0
SPLINE
  5
165
100
AcDbEntity
  8
0
 62
2
100
AcDbSpline
 70
8
 71
3
 72
8
 73
4
 74
0
 40
0
 40
0
 40
0
 40
0
 40
1
 40
1
 40
1
 40
1
 10
329.294386
 20
370.867750
 30
0.0
 10
307.005751
 20
370.867750
 30
0.0
 10
288.937247
 20
388.936255
 30
0.0
 10
288.937247
 20
411.224890
 30
0.0
  0
SPLINE
  5
166
100
AcDbEntity
  8
0
 62
2
100
AcDbSpline
 70
8
 71
3
 72
8
 73
4
 74
0
 40
0
 40
0
 40
0
 40
0
 40
1
 40
1
 40
1
 40
1
 10
288.937247
 20
411.224890
 30
0.0
 10
288.937247
 20
433.513517
 30
0.0
 10
307.005751
 20
451.582030
 30
0.0
 10
329.294386
 20
451.582030
 30
0.0
  0
SPLINE
  5
167
100
AcDbEntity
  8
0
 62
2
100
AcDbSpline
 70
8
 71
3
 72
8
 73
4
 74
0
 40
0
 40
0
 40
0
 40
0
 40
1
 40
1
 40
1
 40
1
 10
329.294386
 20
451.582030
 30
0.0
 10
351.583014
 20
451.582030
 30
0.0
 10
369.651519
 20
433.513517
 30
0.0
 10
369.651519
 20
411.224890
 30
0.0
  0
LWPOLYLINE
  5
168
100
AcDbEntity
  8
0
 62
2
100
AcDbPolyline
 90
1
 70
1
 10
430.208762
 20
376.311895
 30
0.0
  0
SPLINE
  5
169
100
AcDbEntity
  8
0
 62
2
100
AcDbSpline
 70
8
 71
3
 72
8
 73
4
 74
0
 40
0
 40
0
 40
0
 40
0
 40
1
 40
1
 40
1
 40
1
 10
369.608439
 20
481.125490
 30
0.0
 10
369.608439
 20
458.836855
 30
0.0
 10
351.539934
 20
440.768350
 30
0.0
 10
329.251299
 20
440.768350
 30
0.0
  0
SPLINE
  5
16a
100
AcDbEntity
  8
0
 62
2
100
AcDbSpline
 70
8
 71
3
 72
8
 73
4
 74
0
 40
0
 40
0
 40
0
 40
0
 40
1
 40
1
 40
1
 40
1
 10
329.251299
 20
440.768350
 30
0.0
 10
306.962671
 20
440.768350
 30
0.0
 10
288.894159
 20
458.836855
 30
0.0
 10
288.894159
 20
481.125490
 30
0.0
  0
SPLINE
  5
16b
100
AcDbEntity
  8
0
 62
2
100
AcDbSpline
 70
8
 71
3
 72
8
 73
4
 74
0
 40
0
 40
0
 40
0
 40
0
 40
1
 40
1
 40
1
 40
1
 10
288.894159
 20
481.125490
 30
0.0
 10
288.894159
 20
503.414117
 30
0.0
 10
306.962671
 20
521.482630
 30
0.0
 10
329.251299
 20
521.482630
 30
0.0
  0
SPLINE
  5
16c
100
AcDbEntity
  8
0
 62
2
100
AcDbSpline
 70
8
 71
3
 72
8
 73
4
 74
0
 40
0
 40
0
 40
0
 40
0
 40
1
 40
1
 40
1
 40
1
 10
329.251299
 20
521.482630
 30
0.0
 10
351.539934
 20
521.482630
 30
0.0
 10
369.608439
 20
503.414117
 30
0.0
 10
369.608439
 20
481.125490
 30
0.0
  0
LWPOLYLINE
  5
16d
100
AcDbEntity
  8
0
 62
2
100
AcDbPolyline
 90
1
 70
1
 10
369.651519
 20
411.224890
 30
0.0
  0
SPLINE
  5
16e
100
AcDbEntity
  8
0
 62
2
100
AcDbSpline
 70
8
 71
3
 72
8
 73
4
 74
0
 40
0
 40
0
 40
0
 40
0
 40
1
 40
1
 40
1
 40
1
 10
369.694607
 20
341.324290
 30
0.0
 10
369.694607
 20
319.035655
 30
0.0
 10
351.626102
 20
300.967150
 30
0.0
 10
329.337467
 20
300.967150
 30
0.0
  0
SPLINE
  5
16f
100
AcDbEntity
  8
0
 62
2
100
AcDbSpline
 70
8
 71
3
 72
8
 73
4
 74
0
 40
0
 40
0
 40
0
 40
0
 40
1
 40
1
 40
1
 40
1
 10
329.337467
 20
300.967150
 30
0.0
 10
307.048832
 20
300.967150
 30
0.0
 10
288.980326
 20
319.035655
 30
0.0
 10
288.980326
 20
341.324290
 30
0.0
  0
SPLINE
  5
170
100
AcDbEntity
  8
0
 62
2
100
AcDbSpline
 70
8
 71
3
 72
8
 73
4
 74
0
 40
0
 40
0
 40
0
 40
0
 40
1
 40
1
 40
1
 40
1
 10
288.980326
 20
341.324290
 30
0.0
 10
288.980326
 20
363.612917
 30
0.0
 10
307.048832
 20
381.681422
 30
0.0
 10
329.337467
 20
381.681422
 30
0.0
  0
SPLINE
  5
171
100
AcDbEntity
  8
0
 62
2
100
AcDbSpline
 70
8
 71
3
 72
8
 73
4
 74
0
 40
0
 40
0
 40
0
 40
0
 40
1
 40
1
 40
1
 40
1
 10
329.337467
 20
381.681422
 30
0.0
 10
351.626102
 20
381.681422
 30
0.0
 10
369.694607
 20
363.612917
 30
0.0
 10
369.694607
 20
341.324290
 30
0.0
  0
LWPOLYLINE
  5
172
100
AcDbEntity
  8
0
 62
2
100
AcDbPolyline
 90
1
 70
1
 10
369.608439
 20
481.125490
 30
0.0
  0
SPLINE
  5
173
100
AcDbEntity
  8
0
 62
2
100
AcDbSpline
 70
8
 71
3
 72
8
 73
4
 74
0
 40
0
 40
0
 40
0
 40
0
 40
1
 40
1
 40
1
 40
1
 10
369.737686
 20
271.423690
 30
0.0
 10
369.737686
 20
249.135055
 30
0.0
 10
351.669181
 20
231.066550
 30
0.0
 10
329.380546
 20
231.066550
 30
0.0
  0
SPLINE
  5
174
100
AcDbEntity
  8
0
 62
2
100
AcDbSpline
 70
8
 71
3
 72
8
 73
4
 74
0
 40
0
 40
0
 40
0
 40
0
 40
1
 40
1
 40
1
 40
1
 10
329.380546
 20
231.066550
 30
0.0
 10
307.091919
 20
231.066550
 30
0.0
 10
289.023414
 20
249.135055
 30
0.0
 10
289.023414
 20
271.423690
 30
0.0
  0
SPLINE
  5
175
100
AcDbEntity
  8
0
 62
2
100
AcDbSpline
 70
8
 71
3
 72
8
 73
4
 74
0
 40
0
 40
0
 40
0
 40
0
 40
1
 40
1
 40
1
 40
1
 10
289.023414
 20
271.423690
 30
0.0
 10
289.023414
 20
293.712317
 30
0.0
 10
307.091919
 20
311.780822
 30
0.0
 10
329.380546
 20
311.780822
 30
0.0
  0
SPLINE
  5
176
100
AcDbEntity
  8
0
 62
2
100
AcDbSpline
 70
8
 71
3
 72
8
 73
4
 74
0
 40
0
 40
0
 40
0
 40
0
 40
1
 40
1
 40
1
 40
1
 10
329.380546
 20
311.780822
 30
0.0
 10
351.669181
 20
311.780822
 30
0.0
 10
369.737686
 20
293.712317
 30
0.0
 10
369.737686
 20
271.423690
 30
0.0
  0
LWPOLYLINE
  5
177
100
AcDbEntity
  8
0
 62
2
100
AcDbPolyline
 90
1
 70
1
 10
369.694607
 20
341.324290
 30
0.0
  0
SPLINE
  5
178
100
AcDbEntity
  8
0
 62
2
100
AcDbSpline
 70
8
 71
3
 72
8
 73
4
 74
0
 40
0
 40
0
 40
0
 40
0
 40
1
 40
1
 40
1
 40
1
 10
309.180452
 20
306.336677
 30
0.0
 10
309.180452
 20
284.048042
 30
0.0
 10
291.111946
 20
265.979537
 30
0.0
 10
268.823311
 20
265.979537
 30
0.0
  0
SPLINE
  5
179
100
AcDbEntity
  8
0
 62
2
100
AcDbSpline
 70
8
 71
3
 72
8
 73
4
 74
0
 40
0
 40
0
 40
0
 40
0
 40
1
 40
1
 40
1
 40
1
 10
268.823311
 20
265.979537
 30
0.0
 10
246.534676
 20
265.979537
 30
0.0
 10
228.466172
 20
284.048042
 30
0.0
 10
228.466172
 20
306.336677
 30
0.0
  0
SPLINE
  5
17a
100
AcDbEntity
  8
0
 62
2
100
AcDbSpline
 70
8
 71
3
 72
8
 73
4
 74
0
 40
0
 40
0
 40
0
 40
0
 40
1
 40
1
 40
1
 40
1
 10
228.466172
 20
306.336677
 30
0.0
 10
228.466172
 20
328.625305
 30
0.0
 10
246.534676
 20
346.693817
 30
0.0
 10
268.823311
 20
346.693817
 30
0.0
  0
SPLINE
  5
17b
100
AcDbEntity
  8
0
 62
2
100
AcDbSpline
 70
8
 71
3
 72
8
 73
4
 74
0
 40
0
 40
0
 40
0
 40
0
 40
1
 40
1
 40
1
 40
1
 10
268.823311
 20
346.693817
 30
0.0
 10
291.111946
 20
346.693817
 30
0.0
 10
309.180452
 20
328.625305
 30
0.0
 10
309.180452
 20
306.336677
 30
0.0
  0
LWPOLYLINE
  5
17c
100
AcDbEntity
  8
0
 62
2
100
AcDbPolyline
 90
1
 70
1
 10
369.737686
 20
271.423690
 30
0.0
  0
SPLINE
  5
17d
100
AcDbEntity
  8
0
 62
2
100
AcDbSpline
 70
8
 71
3
 72
8
 73
4
 74
0
 40
0
 40
0
 40
0
 40
0
 40
1
 40
1
 40
1
 40
1
 10
611.751227
 20
481.274732
 30
0.0
 10
611.751227
 20
458.986097
 30
0.0
 10
593.682714
 20
440.917592
 30
0.0
 10
571.394086
 20
440.917592
 30
0.0
  0
SPLINE
  5
17e
100
AcDbEntity
  8
0
 62
2
100
AcDbSpline
 70
8
 71
3
 72
8
 73
4
 74
0
 40
0
 40
0
 40
0
 40
0
 40
1
 40
1
 40
1
 40
1
 10
571.394086
 20
440.917592
 30
0.0
 10
549.105451
 20
440.917592
 30
0.0
 10
531.036946
 20
458.986097
 30
0.0
 10
531.036946
 20
481.274732
 30
0.0
  0
SPLINE
  5
17f
100
AcDbEntity
  8
0
 62
2
100
AcDbSpline
 70
8
 71
3
 72
8
 73
4
 74
0
 40
0
 40
0
 40
0
 40
0
 40
1
 40
1
 40
1
 40
1
 10
531.036946
 20
481.274732
 30
0.0
 10
531.036946
 20
503.563367
 30
0.0
 10
549.105451
 20
521.631872
 30
0.0
 10
571.394086
 20
521.631872
 30
0.0
  0
SPLINE
  5
180
100
AcDbEntity
  8
0
 62
2
100
AcDbSpline
 70
8
 71
3
 72
8
 73
4
 74
0
 40
0
 40
0
 40
0
 40
0
 40
1
 40
1
 40
1
 40
1
 10
571.394086
 20
521.631872
 30
0.0
 10
593.682714
 20
521.631872
 30
0.0
 10
611.751227
 20
503.563367
 30
0.0
 10
611.751227
 20
481.274732
 30
0.0
  0
LWPOLYLINE
  5
181
100
AcDbEntity
  8
0
 62
2
100
AcDbPolyline
 90
1
 70
1
 10
309.180452
 20
306.336677
 30
0.0
  0
SPLINE
  5
182
100
AcDbEntity
  8
0
 62
4
100
AcDbSpline
 70
8
 71
3
 72
8
 73
4
 74
0
 40
0
 40
0
 40
0
 40
0
 40
1
 40
1
 40
1
 40
1
 10
551.323239
 20
306.461042
 30
0.0
 10
551.323239
 20
261.883780
 30
0.0
 10
515.186229
 20
225.746770
 30
0.0
 10
470.608967
 20
225.746770
 30
0.0
  0
SPLINE
  5
183
100
AcDbEntity
  8
0
 62
4
100
AcDbSpline
 70
8
 71
3
 72
8
 73
4
 74
0
 40
0
 40
0
 40
0
 40
0
 40
1
 40
1
 40
1
 40
1
 10
470.608967
 20
225.746770
 30
0.0
 10
426.031704
 20
225.746770
 30
0.0
 10
389.894687
 20
261.883780
 30
0.0
 10
389.894687
 20
306.461042
 30
0.0
  0
SPLINE
  5
184
100
AcDbEntity
  8
0
 62
4
100
AcDbSpline
 70
8
 71
3
 72
8
 73
4
 74
0
 40
0
 40
0
 40
0
 40
0
 40
1
 40
1
 40
1
 40
1
 10
389.894687
 20
306.461042
 30
0.0
 10
389.894687
 20
351.038312
 30
0.0
 10
426.031704
 20
387.175322
 30
0.0
 10
470.608967
 20
387.175322
 30
0.0
  0
SPLINE
  5
185
100
AcDbEntity
  8
0
 62
4
100
AcDbSpline
 70
8
 71
3
 72
8
 73
4
 74
0
 40
0
 40
0
 40
0
 40
0
 40
1
 40
1
 40
1
 40
1
 10
470.608967
 20
387.175322
 30
0.0
 10
515.186229
 20
387.175322
 30
0.0
 10
551.323239
 20
351.038312
 30
0.0
 10
551.323239
 20
306.461042
 30
0.0
  0
LWPOLYLINE
  5
186
100
AcDbEntity
  8
0
 62
2
100
AcDbPolyline
 90
1
 70
1
 10
611.751227
 20
481.274732
 30
0.0
  0
SPLINE
  5
187
100
AcDbEntity
  8
0
 62
4
100
AcDbSpline
 70
8
 71
3
 72
8
 73
4
 74
0
 40
0
 40
0
 40
0
 40
0
 40
1
 40
1
 40
1
 40
1
 10
672.351549
 20
376.436267
 30
0.0
 10
672.351549
 20
331.859005
 30
0.0
 10
636.214539
 20
295.721987
 30
0.0
 10
591.637276
 20
295.721987
 30
0.0
  0
SPLINE
  5
188
100
AcDbEntity
  8
0
 62
4
100
AcDbSpline
 70
8
 71
3
 72
8
 73
4
 74
0
 40
0
 40
0
 40
0
 40
0
 40
1
 40
1
 40
1
 40
1
 10
591.637276
 20
295.721987
 30
0.0
 10
547.060014
 20
295.721987
 30
0.0
 10
510.922996
 20
331.859005
 30
0.0
 10
510.922996
 20
376.436267
 30
0.0
  0
SPLINE
  5
189
100
AcDbEntity
  8
0
 62
4
100
AcDbSpline
 70
8
 71
3
 72
8
 73
4
 74
0
 40
0
 40
0
 40
0
 40
0
 40
1
 40
1
 40
1
 40
1
 10
510.922996
 20
376.436267
 30
0.0
 10
510.922996
 20
421.013530
 30
0.0
 10
547.060014
 20
457.150547
 30
0.0
 10
591.637276
 20
457.150547
 30
0.0
  0
SPLINE
  5
18a
100
AcDbEntity
  8
0
 62
4
100
AcDbSpline
 70
8
 71
3
 72
8
 73
4
 74
0
 40
0
 40
0
 40
0
 40
0
 40
1
 40
1
 40
1
 40
1
 10
591.637276
 20
457.150547
 30
0.0
 10
636.214539
 20
457.150547
 30
0.0
 10
672.351549
 20
421.013530
 30
0.0
 10
672.351549
 20
376.436267
 30
0.0
  0
LWPOLYLINE
  5
18b
100
AcDbEntity
  8
0
 62
4
100
AcDbPolyline
 90
1
 70
1
 10
551.323239
 20
306.461042
 30
0.0
  0
SPLINE
  5
18c
100
AcDbEntity
  8
0
 62
4
100
AcDbSpline
 70
8
 71
3
 72
8
 73
4
 74
0
 40
0
 40
0
 40
0
 40
0
 40
1
 40
1
 40
1
 40
1
 10
672.437717
 20
236.635067
 30
0.0
 10
672.437717
 20
192.057805
 30
0.0
 10
636.300707
 20
155.920787
 30
0.0
 10
591.723436
 20
155.920787
 30
0.0
  0
SPLINE
  5
18d
100
AcDbEntity
  8
0
 62
4
100
AcDbSpline
 70
8
 71
3
 72
8
 73
4
 74
0
 40
0
 40
0
 40
0
 40
0
 40
1
 40
1
 40
1
 40
1
 10
591.723436
 20
155.920787
 30
0.0
 10
547.146174
 20
155.920787
 30
0.0
 10
511.009164
 20
192.057805
 30
0.0
 10
511.009164
 20
236.635067
 30
0.0
  0
SPLINE
  5
18e
100
AcDbEntity
  8
0
 62
4
100
AcDbSpline
 70
8
 71
3
 72
8
 73
4
 74
0
 40
0
 40
0
 40
0
 40
0
 40
1
 40
1
 40
1
 40
1
 10
511.009164
 20
236.635067
 30
0.0
 10
511.009164
 20
281.212330
 30
0.0
 10
547.146174
 20
317.349340
 30
0.0
 10
591.723436
 20
317.349340
 30
0.0
  0
SPLINE
  5
18f
100
AcDbEntity
  8
0
 62
4
100
AcDbSpline
 70
8
 71
3
 72
8
 73
4
 74
0
 40
0
 40
0
 40
0
 40
0
 40
1
 40
1
 40
1
 40
1
 10
591.723436
 20
317.349340
 30
0.0
 10
636.300707
 20
317.349340
 30
0.0
 10
672.437717
 20
281.212330
 30
0.0
 10
672.437717
 20
236.635067
 30
0.0
  0
LWPOLYLINE
  5
190
100
AcDbEntity
  8
0
 62
4
100
AcDbPolyline
 90
1
 70
1
 10
672.351549
 20
376.436267
 30
0.0
  0
SPLINE
  5
191
100
AcDbEntity
  8
0
 62
4
100
AcDbSpline
 70
8
 71
3
 72
8
 73
4
 74
0
 40
0
 40
0
 40
0
 40
0
 40
1
 40
1
 40
1
 40
1
 10
430.294929
 20
236.485825
 30
0.0
 10
430.294929
 20
191.908555
 30
0.0
 10
394.157919
 20
155.771545
 30
0.0
 10
349.580657
 20
155.771545
 30
0.0
  0
SPLINE
  5
192
100
AcDbEntity
  8
0
 62
4
100
AcDbSpline
 70
8
 71
3
 72
8
 73
4
 74
0
 40
0
 40
0
 40
0
 40
0
 40
1
 40
1
 40
1
 40
1
 10
349.580657
 20
155.771545
 30
0.0
 10
305.003394
 20
155.771545
 30
0.0
 10
268.866377
 20
191.908555
 30
0.0
 10
268.866377
 20
236.485825
 30
0.0
  0
SPLINE
  5
193
100
AcDbEntity
  8
0
 62
4
100
AcDbSpline
 70
8
 71
3
 72
8
 73
4
 74
0
 40
0
 40
0
 40
0
 40
0
 40
1
 40
1
 40
1
 40
1
 10
268.866377
 20
236.485825
 30
0.0
 10
268.866377
 20
281.063087
 30
0.0
 10
305.003394
 20
317.200097
 30
0.0
 10
349.580657
 20
317.200097
 30
0.0
  0
SPLINE
  5
194
100
AcDbEntity
  8
0
 62
4
100
AcDbSpline
 70
8
 71
3
 72
8
 73
4
 74
0
 40
0
 40
0
 40
0
 40
0
 40
1
 40
1
 40
1
 40
1
 10
349.580657
 20
317.200097
 30
0.0
 10
394.157919
 20
317.200097
 30
0.0
 10
430.294929
 20
281.063087
 30
0.0
 10
430.294929
 20
236.485825
 30
0.0
  0
LWPOLYLINE
  5
195
100
AcDbEntity
  8
0
 62
4
100
AcDbPolyline
 90
1
 70
1
 10
672.437717
 20
236.635067
 30
0.0
  0
SPLINE
  5
196
100
AcDbEntity
  8
0
 62
4
100
AcDbSpline
 70
8
 71
3
 72
8
 73
4
 74
0
 40
0
 40
0
 40
0
 40
0
 40
1
 40
1
 40
1
 40
1
 10
309.180459
 20
306.311800
 30
0.0
 10
309.180459
 20
261.734537
 30
0.0
 10
273.043441
 20
225.597527
 30
0.0
 10
228.466179
 20
225.597527
 30
0.0
  0
SPLINE
  5
197
100
AcDbEntity
  8
0
 62
4
100
AcDbSpline
 70
8
 71
3
 72
8
 73
4
 74
0
 40
0
 40
0
 40
0
 40
0
 40
1
 40
1
 40
1
 40
1
 10
228.466179
 20
225.597527
 30
0.0
 10
183.888916
 20
225.597527
 30
0.0
 10
147.751907
 20
261.734537
 30
0.0
 10
147.751907
 20
306.311800
 30
0.0
  0
SPLINE
  5
198
100
AcDbEntity
  8
0
 62
4
100
AcDbSpline
 70
8
 71
3
 72
8
 73
4
 74
0
 40
0
 40
0
 40
0
 40
0
 40
1
 40
1
 40
1
 40
1
 10
147.751907
 20
306.311800
 30
0.0
 10
147.751907
 20
350.889062
 30
0.0
 10
183.888916
 20
387.026080
 30
0.0
 10
228.466179
 20
387.026080
 30
0.0
  0
SPLINE
  5
199
100
AcDbEntity
  8
0
 62
4
100
AcDbSpline
 70
8
 71
3
 72
8
 73
4
 74
0
 40
0
 40
0
 40
0
 40
0
 40
1
 40
1
 40
1
 40
1
 10
228.466179
 20
387.026080
 30
0.0
 10
273.043441
 20
387.026080
 30
0.0
 10
309.180459
 20
350.889062
 30
0.0
 10
309.180459
 20
306.311800
 30
0.0
  0
LWPOLYLINE
  5
19a
100
AcDbEntity
  8
0
 62
4
100
AcDbPolyline
 90
1
 70
1
 10
430.294929
 20
236.485825
 30
0.0
  0
SPLINE
  5
19b
100
AcDbEntity
  8
0
 62
4
100
AcDbSpline
 70
8
 71
3
 72
8
 73
4
 74
0
 40
0
 40
0
 40
0
 40
0
 40
1
 40
1
 40
1
 40
1
 10
511.009194
 20
236.535572
 30
0.0
 10
511.009194
 20
191.958310
 30
0.0
 10
474.872184
 20
155.821292
 30
0.0
 10
430.294914
 20
155.821292
 30
0.0
  0
SPLINE
  5
19c
100
AcDbEntity
  8
0
 62
4
100
AcDbSpline
 70
8
 71
3
 72
8
 73
4
 74
0
 40
0
 40
0
 40
0
 40
0
 40
1
 40
1
 40
1
 40
1
 10
430.294914
 20
155.821292
 30
0.0
 10
385.717651
 20
155.821292
 30
0.0
 10
349.580641
 20
191.958310
 30
0.0
 10
349.580641
 20
236.535572
 30
0.0
  0
SPLINE
  5
19d
100
AcDbEntity
  8
0
 62
4
100
AcDbSpline
 70
8
 71
3
 72
8
 73
4
 74
0
 40
0
 40
0
 40
0
 40
0
 40
1
 40
1
 40
1
 40
1
 10
349.580641
 20
236.535572
 30
0.0
 10
349.580641
 20
281.112835
 30
0.0
 10
385.717651
 20
317.249845
 30
0.0
 10
430.294914
 20
317.249845
 30
0.0
  0
SPLINE
  5
19e
100
AcDbEntity
  8
0
 62
4
100
AcDbSpline
 70
8
 71
3
 72
8
 73
4
 74
0
 40
0
 40
0
 40
0
 40
0
 40
1
 40
1
 40
1
 40
1
 10
430.294914
 20
317.249845
 30
0.0
 10
474.872184
 20
317.249845
 30
0.0
 10
511.009194
 20
281.112835
 30
0.0
 10
511.009194
 20
236.535572
 30
0.0
  0
LWPOLYLINE
  5
19f
100
AcDbEntity
  8
0
 62
4
100
AcDbPolyline
 90
1
 70
1
 10
309.180459
 20
306.311800
 30
0.0
  0
SPLINE
  5
1a0
100
AcDbEntity
  8
0
 62
4
100
AcDbSpline
 70
8
 71
3
 72
8
 73
4
 74
0
 40
0
 40
0
 40
0
 40
0
 40
1
 40
1
 40
1
 40
1
 10
389.894716
 20
306.361547
 30
0.0
 10
389.894716
 20
261.784285
 30
0.0
 10
353.757706
 20
225.647275
 30
0.0
 10
309.180444
 20
225.647275
 30
0.0
  0
SPLINE
  5
1a1
100
AcDbEntity
  8
0
 62
4
100
AcDbSpline
 70
8
 71
3
 72
8
 73
4
 74
0
 40
0
 40
0
 40
0
 40
0
 40
1
 40
1
 40
1
 40
1
 10
309.180444
 20
225.647275
 30
0.0
 10
264.603182
 20
225.647275
 30
0.0
 10
228.466164
 20
261.784285
 30
0.0
 10
228.466164
 20
306.361547
 30
0.0
  0
SPLINE
  5
1a2
100
AcDbEntity
  8
0
 62
4
100
AcDbSpline
 70
8
 71
3
 72
8
 73
4
 74
0
 40
0
 40
0
 40
0
 40
0
 40
1
 40
1
 40
1
 40
1
 10
228.466164
 20
306.361547
 30
0.0
 10
228.466164
 20
350.938817
 30
0.0
 10
264.603182
 20
387.075827
 30
0.0
 10
309.180444
 20
387.075827
 30
0.0
  0
SPLINE
  5
1a3
100
AcDbEntity
  8
0
 62
4
100
AcDbSpline
 70
8
 71
3
 72
8
 73
4
 74
0
 40
0
 40
0
 40
0
 40
0
 40
1
 40
1
 40
1
 40
1
 10
309.180444
 20
387.075827
 30
0.0
 10
353.757706
 20
387.075827
 30
0.0
 10
389.894716
 20
350.938817
 30
0.0
 10
389.894716
 20
306.361547
 30
0.0
  0
LWPOLYLINE
  5
1a4
100
AcDbEntity
  8
0
 62
4
100
AcDbPolyline
 90
1
 70
1
 10
511.009194
 20
236.535572
 30
0.0
  0
SPLINE
  5
1a5
100
AcDbEntity
  8
0
 62
2
100
AcDbSpline
 70
8
 71
3
 72
8
 73
4
 74
0
 40
0
 40
0
 40
0
 40
0
 40
1
 40
1
 40
1
 40
1
 10
470.522807
 20
446.237372
 30
0.0
 10
470.522807
 20
423.948737
 30
0.0
 10
452.454302
 20
405.880232
 30
0.0
 10
430.165667
 20
405.880232
 30
0.0
  0
SPLINE
  5
1a6
100
AcDbEntity
  8
0
 62
2
100
AcDbSpline
 70
8
 71
3
 72
8
 73
4
 74
0
 40
0
 40
0
 40
0
 40
0
 40
1
 40
1
 40
1
 40
1
 10
430.165667
 20
405.880232
 30
0.0
 10
407.877039
 20
405.880232
 30
0.0
 10
389.808534
 20
423.948737
 30
0.0
 10
389.808534
 20
446.237372
 30
0.0
  0
SPLINE
  5
1a7
100
AcDbEntity
  8
0
 62
2
100
AcDbSpline
 70
8
 71
3
 72
8
 73
4
 74
0
 40
0
 40
0
 40
0
 40
0
 40
1
 40
1
 40
1
 40
1
 10
389.808534
 20
446.237372
 30
0.0
 10
389.808534
 20
468.526007
 30
0.0
 10
407.877039
 20
486.594512
 30
0.0
 10
430.165667
 20
486.594512
 30
0.0
  0
SPLINE
  5
1a8
100
AcDbEntity
  8
0
 62
2
100
AcDbSpline
 70
8
 71
3
 72
8
 73
4
 74
0
 40
0
 40
0
 40
0
 40
0
 40
1
 40
1
 40
1
 40
1
 10
430.165667
 20
486.594512
 30
0.0
 10
452.454301
 20
486.594512
 30
0.0
 10
470.522807
 20
468.526007
 30
0.0
 10
470.522807
 20
446.237372
 30
0.0
  0
LWPOLYLINE
  5
1a9
100
AcDbEntity
  8
0
 62
4
100
AcDbPolyline
 90
1
 70
1
 10
389.894716
 20
306.361547
 30
0.0
  0
SPLINE
  5
1aa
100
AcDbEntity
  8
0
 62
2
100
AcDbSpline
 70
8
 71
3
 72
8
 73
4
 74
0
 40
0
 40
0
 40
0
 40
0
 40
1
 40
1
 40
1
 40
1
 10
410.008651
 20
411.249760
 30
0.0
 10
410.008651
 20
388.961132
 30
0.0
 10
391.940146
 20
370.892620
 30
0.0
 10
369.651511
 20
370.892620
 30
0.0
  0
SPLINE
  5
1ab
100
AcDbEntity
  8
0
 62
2
100
AcDbSpline
 70
8
 71
3
 72
8
 73
4
 74
0
 40
0
 40
0
 40
0
 40
0
 40
1
 40
1
 40
1
 40
1
 10
369.651511
 20
370.892620
 30
0.0
 10
347.362884
 20
370.892620
 30
0.0
 10
329.294379
 20
388.961132
 30
0.0
 10
329.294379
 20
411.249760
 30
0.0
  0
SPLINE
  5
1ac
100
AcDbEntity
  8
0
 62
2
100
AcDbSpline
 70
8
 71
3
 72
8
 73
4
 74
0
 40
0
 40
0
 40
0
 40
0
 40
1
 40
1
 40
1
 40
1
 10
329.294379
 20
411.249760
 30
0.0
 10
329.294379
 20
433.538395
 30
0.0
 10
347.362884
 20
451.606900
 30
0.0
 10
369.651511
 20
451.606900
 30
0.0
  0
SPLINE
  5
1ad
100
AcDbEntity
  8
0
 62
2
100
AcDbSpline
 70
8
 71
3
 72
8
 73
4
 74
0
 40
0
 40
0
 40
0
 40
0
 40
1
 40
1
 40
1
 40
1
 10
369.651511
 20
451.606900
 30
0.0
 10
391.940146
 20
451.606900
 30
0.0
 10
410.008651
 20
433.538395
 30
0.0
 10
410.008651
 20
411.249760
 30
0.0
  0
LWPOLYLINE
  5
1ae
100
AcDbEntity
  8
0
 62
2
100
AcDbPolyline
 90
1
 70
1
 10
470.522807
 20
446.237372
 30
0.0
  0
SPLINE
  5
1af
100
AcDbEntity
  8
0
 62
2
100
AcDbSpline
 70
8
 71
3
 72
8
 73
4
 74
0
 40
0
 40
0
 40
0
 40
0
 40
1
 40
1
 40
1
 40
1
 10
490.722916
 20
411.299507
 30
0.0
 10
490.722916
 20
389.010880
 30
0.0
 10
472.654404
 20
370.942375
 30
0.0
 10
450.365776
 20
370.942375
 30
0.0
  0
SPLINE
  5
1b0
100
AcDbEntity
  8
0
 62
2
100
AcDbSpline
 70
8
 71
3
 72
8
 73
4
 74
0
 40
0
 40
0
 40
0
 40
0
 40
1
 40
1
 40
1
 40
1
 10
450.365776
 20
370.942375
 30
0.0
 10
428.077141
 20
370.942375
 30
0.0
 10
410.008636
 20
389.010880
 30
0.0
 10
410.008636
 20
411.299507
 30
0.0
  0
SPLINE
  5
1b1
100
AcDbEntity
  8
0
 62
2
100
AcDbSpline
 70
8
 71
3
 72
8
 73
4
 74
0
 40
0
 40
0
 40
0
 40
0
 40
1
 40
1
 40
1
 40
1
 10
410.008636
 20
411.299507
 30
0.0
 10
410.008636
 20
433.588142
 30
0.0
 10
428.077141
 20
451.656647
 30
0.0
 10
450.365776
 20
451.656647
 30
0.0
  0
SPLINE
  5
1b2
100
AcDbEntity
  8
0
 62
2
100
AcDbSpline
 70
8
 71
3
 72
8
 73
4
 74
0
 40
0
 40
0
 40
0
 40
0
 40
1
 40
1
 40
1
 40
1
 10
450.365776
 20
451.656647
 30
0.0
 10
472.654404
 20
451.656647
 30
0.0
 10
490.722916
 20
433.588142
 30
0.0
 10
490.722916
 20
411.299507
 30
0.0
  0
LWPOLYLINE
  5
1b3
100
AcDbEntity
  8
0
 62
2
100
AcDbPolyline
 90
1
 70
1
 10
410.008651
 20
411.249760
 30
0.0
  0
SPLINE
  5
1b4
100
AcDbEntity
  8
0
 62
4
100
AcDbSpline
 70
8
 71
3
 72
8
 73
4
 74
0
 40
0
 40
0
 40
0
 40
0
 40
1
 40
1
 40
1
 40
1
 10
430.208769
 20
376.287025
 30
0.0
 10
430.208769
 20
331.709762
 30
0.0
 10
394.071752
 20
295.572745
 30
0.0
 10
349.494489
 20
295.572745
 30
0.0
  0
SPLINE
  5
1b5
100
AcDbEntity
  8
0
 62
4
100
AcDbSpline
 70
8
 71
3
 72
8
 73
4
 74
0
 40
0
 40
0
 40
0
 40
0
 40
1
 40
1
 40
1
 40
1
 10
349.494489
 20
295.572745
 30
0.0
 10
304.917226
 20
295.572745
 30
0.0
 10
268.780216
 20
331.709762
 30
0.0
 10
268.780216
 20
376.287025
 30
0.0
  0
SPLINE
  5
1b6
100
AcDbEntity
  8
0
 62
4
100
AcDbSpline
 70
8
 71
3
 72
8
 73
4
 74
0
 40
0
 40
0
 40
0
 40
0
 40
1
 40
1
 40
1
 40
1
 10
268.780216
 20
376.287025
 30
0.0
 10
268.780216
 20
420.864287
 30
0.0
 10
304.917226
 20
457.001305
 30
0.0
 10
349.494489
 20
457.001305
 30
0.0
  0
SPLINE
  5
1b7
100
AcDbEntity
  8
0
 62
4
100
AcDbSpline
 70
8
 71
3
 72
8
 73
4
 74
0
 40
0
 40
0
 40
0
 40
0
 40
1
 40
1
 40
1
 40
1
 10
349.494489
 20
457.001305
 30
0.0
 10
394.071752
 20
457.001305
 30
0.0
 10
430.208769
 20
420.864287
 30
0.0
 10
430.208769
 20
376.287025
 30
0.0
  0
LWPOLYLINE
  5
1b8
100
AcDbEntity
  8
0
 62
2
100
AcDbPolyline
 90
1
 70
1
 10
490.722916
 20
411.299507
 30
0.0
  0
SPLINE
  5
1b9
100
AcDbEntity
  8
0
 62
2
100
AcDbSpline
 70
8
 71
3
 72
8
 73
4
 74
0
 40
0
 40
0
 40
0
 40
0
 40
1
 40
1
 40
1
 40
1
 10
450.365784
 20
411.274637
 30
0.0
 10
450.365784
 20
388.986002
 30
0.0
 10
432.297279
 20
370.917497
 30
0.0
 10
410.008644
 20
370.917497
 30
0.0
  0
SPLINE
  5
1ba
100
AcDbEntity
  8
0
 62
2
100
AcDbSpline
 70
8
 71
3
 72
8
 73
4
 74
0
 40
0
 40
0
 40
0
 40
0
 40
1
 40
1
 40
1
 40
1
 10
410.008644
 20
370.917497
 30
0.0
 10
387.720017
 20
370.917497
 30
0.0
 10
369.651504
 20
388.986002
 30
0.0
 10
369.651504
 20
411.274637
 30
0.0
  0
SPLINE
  5
1bb
100
AcDbEntity
  8
0
 62
2
100
AcDbSpline
 70
8
 71
3
 72
8
 73
4
 74
0
 40
0
 40
0
 40
0
 40
0
 40
1
 40
1
 40
1
 40
1
 10
369.651504
 20
411.274637
 30
0.0
 10
369.651504
 20
433.563265
 30
0.0
 10
387.720016
 20
451.631777
 30
0.0
 10
410.008644
 20
451.631777
 30
0.0
  0
SPLINE
  5
1bc
100
AcDbEntity
  8
0
 62
2
100
AcDbSpline
 70
8
 71
3
 72
8
 73
4
 74
0
 40
0
 40
0
 40
0
 40
0
 40
1
 40
1
 40
1
 40
1
 10
410.008644
 20
451.631777
 30
0.0
 10
432.297279
 20
451.631777
 30
0.0
 10
450.365784
 20
433.563265
 30
0.0
 10
450.365784
 20
411.274637
 30
0.0
  0
LWPOLYLINE
  5
1bd
100
AcDbEntity
  8
0
 62
4
100
AcDbPolyline
 90
1
 70
1
 10
430.208769
 20
376.287025
 30
0.0
  0
SPLINE
  5
1be
100
AcDbEntity
  8
0
 62
2
100
AcDbSpline
 70
8
 71
3
 72
8
 73
4
 74
0
 40
0
 40
0
 40
0
 40
0
 40
1
 40
1
 40
1
 40
1
 10
410.051739
 20
341.349160
 30
0.0
 10
410.051739
 20
319.060532
 30
0.0
 10
391.983227
 20
300.992020
 30
0.0
 10
369.694599
 20
300.992020
 30
0.0
  0
SPLINE
  5
1bf
100
AcDbEntity
  8
0
 62
2
100
AcDbSpline
 70
8
 71
3
 72
8
 73
4
 74
0
 40
0
 40
0
 40
0
 40
0
 40
1
 40
1
 40
1
 40
1
 10
369.694599
 20
300.992020
 30
0.0
 10
347.405964
 20
300.992020
 30
0.0
 10
329.337459
 20
319.060532
 30
0.0
 10
329.337459
 20
341.349160
 30
0.0
  0
SPLINE
  5
1c0
100
AcDbEntity
  8
0
 62
2
100
AcDbSpline
 70
8
 71
3
 72
8
 73
4
 74
0
 40
0
 40
0
 40
0
 40
0
 40
1
 40
1
 40
1
 40
1
 10
329.337459
 20
341.349160
 30
0.0
 10
329.337459
 20
363.637795
 30
0.0
 10
347.405964
 20
381.706300
 30
0.0
 10
369.694599
 20
381.706300
 30
0.0
  0
SPLINE
  5
1c1
100
AcDbEntity
  8
0
 62
2
100
AcDbSpline
 70
8
 71
3
 72
8
 73
4
 74
0
 40
0
 40
0
 40
0
 40
0
 40
1
 40
1
 40
1
 40
1
 10
369.694599
 20
381.706300
 30
0.0
 10
391.983227
 20
381.706300
 30
0.0
 10
410.051739
 20
363.637795
 30
0.0
 10
410.051739
 20
341.349160
 30
0.0
  0
LWPOLYLINE
  5
1c2
100
AcDbEntity
  8
0
 62
2
100
AcDbPolyline
 90
1
 70
1
 10
450.365784
 20
411.274637
 30
0.0
  0
SPLINE
  5
1c3
100
AcDbEntity
  8
0
 62
2
100
AcDbSpline
 70
8
 71
3
 72
8
 73
4
 74
0
 40
0
 40
0
 40
0
 40
0
 40
1
 40
1
 40
1
 40
1
 10
450.408864
 20
341.374037
 30
0.0
 10
450.408864
 20
319.085402
 30
0.0
 10
432.340359
 20
301.016897
 30
0.0
 10
410.051724
 20
301.016897
 30
0.0
  0
SPLINE
  5
1c4
100
AcDbEntity
  8
0
 62
2
100
AcDbSpline
 70
8
 71
3
 72
8
 73
4
 74
0
 40
0
 40
0
 40
0
 40
0
 40
1
 40
1
 40
1
 40
1
 10
410.051724
 20
301.016897
 30
0.0
 10
387.763096
 20
301.016897
 30
0.0
 10
369.694591
 20
319.085402
 30
0.0
 10
369.694591
 20
341.374037
 30
0.0
  0
SPLINE
  5
1c5
100
AcDbEntity
  8
0
 62
2
100
AcDbSpline
 70
8
 71
3
 72
8
 73
4
 74
0
 40
0
 40
0
 40
0
 40
0
 40
1
 40
1
 40
1
 40
1
 10
369.694591
 20
341.374037
 30
0.0
 10
369.694591
 20
363.662665
 30
0.0
 10
387.763096
 20
381.731170
 30
0.0
 10
410.051724
 20
381.731170
 30
0.0
  0
SPLINE
  5
1c6
100
AcDbEntity
  8
0
 62
2
100
AcDbSpline
 70
8
 71
3
 72
8
 73
4
 74
0
 40
0
 40
0
 40
0
 40
0
 40
1
 40
1
 40
1
 40
1
 10
410.051724
 20
381.731170
 30
0.0
 10
432.340359
 20
381.731170
 30
0.0
 10
450.408864
 20
363.662665
 30
0.0
 10
450.408864
 20
341.374037
 30
0.0
  0
LWPOLYLINE
  5
1c7
100
AcDbEntity
  8
0
 62
2
100
AcDbPolyline
 90
1
 70
1
 10
410.051739
 20
341.349160
 30
0.0
  0
SPLINE
  5
1c8
100
AcDbEntity
  8
0
 62
2
100
AcDbSpline
 70
8
 71
3
 72
8
 73
4
 74
0
 40
0
 40
0
 40
0
 40
0
 40
1
 40
1
 40
1
 40
1
 10
490.765997
 20
341.398907
 30
0.0
 10
490.765997
 20
319.110280
 30
0.0
 10
472.697492
 20
301.041767
 30
0.0
 10
450.408856
 20
301.041767
 30
0.0
  0
SPLINE
  5
1c9
100
AcDbEntity
  8
0
 62
2
100
AcDbSpline
 70
8
 71
3
 72
8
 73
4
 74
0
 40
0
 40
0
 40
0
 40
0
 40
1
 40
1
 40
1
 40
1
 10
450.408856
 20
301.041767
 30
0.0
 10
428.120229
 20
301.041767
 30
0.0
 10
410.051716
 20
319.110280
 30
0.0
 10
410.051716
 20
341.398907
 30
0.0
  0
SPLINE
  5
1ca
100
AcDbEntity
  8
0
 62
2
100
AcDbSpline
 70
8
 71
3
 72
8
 73
4
 74
0
 40
0
 40
0
 40
0
 40
0
 40
1
 40
1
 40
1
 40
1
 10
410.051716
 20
341.398907
 30
0.0
 10
410.051716
 20
363.687542
 30
0.0
 10
428.120229
 20
381.756047
 30
0.0
 10
450.408856
 20
381.756047
 30
0.0
  0
SPLINE
  5
1cb
100
AcDbEntity
  8
0
 62
2
100
AcDbSpline
 70
8
 71
3
 72
8
 73
4
 74
0
 40
0
 40
0
 40
0
 40
0
 40
1
 40
1
 40
1
 40
1
 10
450.408856
 20
381.756047
 30
0.0
 10
472.697491
 20
381.756047
 30
0.0
 10
490.765997
 20
363.687542
 30
0.0
 10
490.765997
 20
341.398907
 30
0.0
  0
LWPOLYLINE
  5
1cc
100
AcDbEntity
  8
0
 62
2
100
AcDbPolyline
 90
1
 70
1
 10
450.408864
 20
341.374037
 30
0.0
  0
SPLINE
  5
1cd
100
AcDbEntity
  8
0
 62
2
100
AcDbSpline
 70
8
 71
3
 72
8
 73
4
 74
0
 40
0
 40
0
 40
0
 40
0
 40
1
 40
1
 40
1
 40
1
 10
510.923019
 20
376.361650
 30
0.0
 10
510.923019
 20
354.073015
 30
0.0
 10
492.854514
 20
336.004510
 30
0.0
 10
470.565879
 20
336.004510
 30
0.0
  0
SPLINE
  5
1ce
100
AcDbEntity
  8
0
 62
2
100
AcDbSpline
 70
8
 71
3
 72
8
 73
4
 74
0
 40
0
 40
0
 40
0
 40
0
 40
1
 40
1
 40
1
 40
1
 10
470.565879
 20
336.004510
 30
0.0
 10
448.277252
 20
336.004510
 30
0.0
 10
430.208747
 20
354.073015
 30
0.0
 10
430.208747
 20
376.361650
 30
0.0
  0
SPLINE
  5
1cf
100
AcDbEntity
  8
0
 62
2
100
AcDbSpline
 70
8
 71
3
 72
8
 73
4
 74
0
 40
0
 40
0
 40
0
 40
0
 40
1
 40
1
 40
1
 40
1
 10
430.208747
 20
376.361650
 30
0.0
 10
430.208747
 20
398.650277
 30
0.0
 10
448.277252
 20
416.718782
 30
0.0
 10
470.565879
 20
416.718782
 30
0.0
  0
SPLINE
  5
1d0
100
AcDbEntity
  8
0
 62
2
100
AcDbSpline
 70
8
 71
3
 72
8
 73
4
 74
0
 40
0
 40
0
 40
0
 40
0
 40
1
 40
1
 40
1
 40
1
 10
470.565879
 20
416.718782
 30
0.0
 10
492.854514
 20
416.718782
 30
0.0
 10
510.923019
 20
398.650277
 30
0.0
 10
510.923019
 20
376.361650
 30
0.0
  0
LWPOLYLINE
  5
1d1
100
AcDbEntity
  8
0
 62
2
100
AcDbPolyline
 90
1
 70
1
 10
490.765997
 20
341.398907
 30
0.0
  0
SPLINE
  5
1d2
100
AcDbEntity
  8
0
 62
2
100
AcDbSpline
 70
8
 71
3
 72
8
 73
4
 74
0
 40
0
 40
0
 40
0
 40
0
 40
1
 40
1
 40
1
 40
1
 10
571.480261
 20
341.448655
 30
0.0
 10
571.480261
 20
319.160027
 30
0.0
 10
553.411749
 20
301.091515
 30
0.0
 10
531.123122
 20
301.091515
 30
0.0
  0
SPLINE
  5
1d3
100
AcDbEntity
  8
0
 62
2
100
AcDbSpline
 70
8
 71
3
 72
8
 73
4
 74
0
 40
0
 40
0
 40
0
 40
0
 40
1
 40
1
 40
1
 40
1
 10
531.123122
 20
301.091515
 30
0.0
 10
508.834487
 20
301.091515
 30
0.0
 10
490.765981
 20
319.160027
 30
0.0
 10
490.765981
 20
341.448655
 30
0.0
  0
SPLINE
  5
1d4
100
AcDbEntity
  8
0
 62
2
100
AcDbSpline
 70
8
 71
3
 72
8
 73
4
 74
0
 40
0
 40
0
 40
0
 40
0
 40
1
 40
1
 40
1
 40
1
 10
490.765981
 20
341.448655
 30
0.0
 10
490.765981
 20
363.737290
 30
0.0
 10
508.834486
 20
381.805795
 30
0.0
 10
531.123122
 20
381.805795
 30
0.0
  0
SPLINE
  5
1d5
100
AcDbEntity
  8
0
 62
2
100
AcDbSpline
 70
8
 71
3
 72
8
 73
4
 74
0
 40
0
 40
0
 40
0
 40
0
 40
1
 40
1
 40
1
 40
1
 10
531.123122
 20
381.805795
 30
0.0
 10
553.411749
 20
381.805795
 30
0.0
 10
571.480261
 20
363.737290
 30
0.0
 10
571.480261
 20
341.448655
 30
0.0
  0
LWPOLYLINE
  5
1d6
100
AcDbEntity
  8
0
 62
2
100
AcDbPolyline
 90
1
 70
1
 10
510.923019
 20
376.361650
 30
0.0
  0
SPLINE
  5
1d7
100
AcDbEntity
  8
0
 62
2
100
AcDbSpline
 70
8
 71
3
 72
8
 73
4
 74
0
 40
0
 40
0
 40
0
 40
0
 40
1
 40
1
 40
1
 40
1
 10
571.437174
 20
411.349255
 30
0.0
 10
571.437174
 20
389.060627
 30
0.0
 10
553.368669
 20
370.992122
 30
0.0
 10
531.080034
 20
370.992122
 30
0.0
  0
SPLINE
  5
1d8
100
AcDbEntity
  8
0
 62
2
100
AcDbSpline
 70
8
 71
3
 72
8
 73
4
 74
0
 40
0
 40
0
 40
0
 40
0
 40
1
 40
1
 40
1
 40
1
 10
531.080034
 20
370.992122
 30
0.0
 10
508.791406
 20
370.992122
 30
0.0
 10
490.722901
 20
389.060627
 30
0.0
 10
490.722901
 20
411.349255
 30
0.0
  0
SPLINE
  5
1d9
100
AcDbEntity
  8
0
 62
2
100
AcDbSpline
 70
8
 71
3
 72
8
 73
4
 74
0
 40
0
 40
0
 40
0
 40
0
 40
1
 40
1
 40
1
 40
1
 10
490.722901
 20
411.349255
 30
0.0
 10
490.722901
 20
433.637890
 30
0.0
 10
508.791406
 20
451.706395
 30
0.0
 10
531.080034
 20
451.706395
 30
0.0
  0
SPLINE
  5
1da
100
AcDbEntity
  8
0
 62
2
100
AcDbSpline
 70
8
 71
3
 72
8
 73
4
 74
0
 40
0
 40
0
 40
0
 40
0
 40
1
 40
1
 40
1
 40
1
 10
531.080034
 20
451.706395
 30
0.0
 10
553.368669
 20
451.706395
 30
0.0
 10
571.437174
 20
433.637890
 30
0.0
 10
571.437174
 20
411.349255
 30
0.0
  0
LWPOLYLINE
  5
1db
100
AcDbEntity
  8
0
 62
2
100
AcDbPolyline
 90
1
 70
1
 10
571.480261
 20
341.448655
 30
0.0
  0
SPLINE
  5
1dc
100
AcDbEntity
  8
0
 62
2
100
AcDbSpline
 70
8
 71
3
 72
8
 73
4
 74
0
 40
0
 40
0
 40
0
 40
0
 40
1
 40
1
 40
1
 40
1
 10
571.394094
 20
481.249855
 30
0.0
 10
571.394094
 20
458.961227
 30
0.0
 10
553.325589
 20
440.892722
 30
0.0
 10
531.036954
 20
440.892722
 30
0.0
  0
SPLINE
  5
1dd
100
AcDbEntity
  8
0
 62
2
100
AcDbSpline
 70
8
 71
3
 72
8
 73
4
 74
0
 40
0
 40
0
 40
0
 40
0
 40
1
 40
1
 40
1
 40
1
 10
531.036954
 20
440.892722
 30
0.0
 10
508.748319
 20
440.892722
 30
0.0
 10
490.679814
 20
458.961227
 30
0.0
 10
490.679814
 20
481.249855
 30
0.0
  0
SPLINE
  5
1de
100
AcDbEntity
  8
0
 62
2
100
AcDbSpline
 70
8
 71
3
 72
8
 73
4
 74
0
 40
0
 40
0
 40
0
 40
0
 40
1
 40
1
 40
1
 40
1
 10
490.679814
 20
481.249855
 30
0.0
 10
490.679814
 20
503.538490
 30
0.0
 10
508.748319
 20
521.606995
 30
0.0
 10
531.036954
 20
521.606995
 30
0.0
  0
SPLINE
  5
1df
100
AcDbEntity
  8
0
 62
2
100
AcDbSpline
 70
8
 71
3
 72
8
 73
4
 74
0
 40
0
 40
0
 40
0
 40
0
 40
1
 40
1
 40
1
 40
1
 10
531.036954
 20
521.606995
 30
0.0
 10
553.325589
 20
521.606995
 30
0.0
 10
571.394094
 20
503.538490
 30
0.0
 10
571.394094
 20
481.249855
 30
0.0
  0
LWPOLYLINE
  5
1e0
100
AcDbEntity
  8
0
 62
2
100
AcDbPolyline
 90
1
 70
1
 10
571.437174
 20
411.349255
 30
0.0
  0
SPLINE
  5
1e1
100
AcDbEntity
  8
0
 62
2
100
AcDbSpline
 70
8
 71
3
 72
8
 73
4
 74
0
 40
0
 40
0
 40
0
 40
0
 40
1
 40
1
 40
1
 40
1
 10
631.951329
 20
446.336867
 30
0.0
 10
631.951329
 20
424.048240
 30
0.0
 10
613.882824
 20
405.979727
 30
0.0
 10
591.594189
 20
405.979727
 30
0.0
  0
SPLINE
  5
1e2
100
AcDbEntity
  8
0
 62
2
100
AcDbSpline
 70
8
 71
3
 72
8
 73
4
 74
0
 40
0
 40
0
 40
0
 40
0
 40
1
 40
1
 40
1
 40
1
 10
591.594189
 20
405.979727
 30
0.0
 10
569.305562
 20
405.979727
 30
0.0
 10
551.237056
 20
424.048240
 30
0.0
 10
551.237056
 20
446.336867
 30
0.0
  0
SPLINE
  5
1e3
100
AcDbEntity
  8
0
 62
2
100
AcDbSpline
 70
8
 71
3
 72
8
 73
4
 74
0
 40
0
 40
0
 40
0
 40
0
 40
1
 40
1
 40
1
 40
1
 10
551.237056
 20
446.336867
 30
0.0
 10
551.237056
 20
468.625502
 30
0.0
 10
569.305561
 20
486.694007
 30
0.0
 10
591.594189
 20
486.694007
 30
0.0
  0
SPLINE
  5
1e4
100
AcDbEntity
  8
0
 62
2
100
AcDbSpline
 70
8
 71
3
 72
8
 73
4
 74
0
 40
0
 40
0
 40
0
 40
0
 40
1
 40
1
 40
1
 40
1
 10
591.594189
 20
486.694007
 30
0.0
 10
613.882824
 20
486.694007
 30
0.0
 10
631.951329
 20
468.625502
 30
0.0
 10
631.951329
 20
446.336867
 30
0.0
  0
LWPOLYLINE
  5
1e5
100
AcDbEntity
  8
0
 62
2
100
AcDbPolyline
 90
1
 70
1
 10
571.394094
 20
481.249855
 30
0.0
  0
SPLINE
  5
1e6
100
AcDbEntity
  8
0
 62
2
100
AcDbSpline
 70
8
 71
3
 72
8
 73
4
 74
0
 40
0
 40
0
 40
0
 40
0
 40
1
 40
1
 40
1
 40
1
 10
531.036961
 20
481.224985
 30
0.0
 10
531.036961
 20
458.936350
 30
0.0
 10
512.968457
 20
440.867845
 30
0.0
 10
490.679822
 20
440.867845
 30
0.0
  0
SPLINE
  5
1e7
100
AcDbEntity
  8
0
 62
2
100
AcDbSpline
 70
8
 71
3
 72
8
 73
4
 74
0
 40
0
 40
0
 40
0
 40
0
 40
1
 40
1
 40
1
 40
1
 10
490.679822
 20
440.867845
 30
0.0
 10
468.391194
 20
440.867845
 30
0.0
 10
450.322681
 20
458.936350
 30
0.0
 10
450.322681
 20
481.224985
 30
0.0
  0
SPLINE
  5
1e8
100
AcDbEntity
  8
0
 62
2
100
AcDbSpline
 70
8
 71
3
 72
8
 73
4
 74
0
 40
0
 40
0
 40
0
 40
0
 40
1
 40
1
 40
1
 40
1
 10
450.322681
 20
481.224985
 30
0.0
 10
450.322681
 20
503.513620
 30
0.0
 10
468.391194
 20
521.582125
 30
0.0
 10
490.679822
 20
521.582125
 30
0.0
  0
SPLINE
  5
1e9
100
AcDbEntity
  8
0
 62
2
100
AcDbSpline
 70
8
 71
3
 72
8
 73
4
 74
0
 40
0
 40
0
 40
0
 40
0
 40
1
 40
1
 40
1
 40
1
 10
490.679822
 20
521.582125
 30
0.0
 10
512.968457
 20
521.582125
 30
0.0
 10
531.036961
 20
503.513620
 30
0.0
 10
531.036961
 20
481.224985
 30
0.0
  0
LWPOLYLINE
  5
1ea
100
AcDbEntity
  8
0
 62
2
100
AcDbPolyline
 90
1
 70
1
 10
631.951329
 20
446.336867
 30
0.0
  0
SPLINE
  5
1eb
100
AcDbEntity
  8
0
 62
2
100
AcDbSpline
 70
8
 71
3
 72
8
 73
4
 74
0
 40
0
 40
0
 40
0
 40
0
 40
1
 40
1
 40
1
 40
1
 10
531.080041
 20
411.324385
 30
0.0
 10
531.080041
 20
389.035750
 30
0.0
 10
513.011537
 20
370.967245
 30
0.0
 10
490.722909
 20
370.967245
 30
0.0
  0
SPLINE
  5
1ec
100
AcDbEntity
  8
0
 62
2
100
AcDbSpline
 70
8
 71
3
 72
8
 73
4
 74
0
 40
0
 40
0
 40
0
 40
0
 40
1
 40
1
 40
1
 40
1
 10
490.722909
 20
370.967245
 30
0.0
 10
468.434274
 20
370.967245
 30
0.0
 10
450.365769
 20
389.035750
 30
0.0
 10
450.365769
 20
411.324385
 30
0.0
  0
SPLINE
  5
1ed
100
AcDbEntity
  8
0
 62
2
100
AcDbSpline
 70
8
 71
3
 72
8
 73
4
 74
0
 40
0
 40
0
 40
0
 40
0
 40
1
 40
1
 40
1
 40
1
 10
450.365769
 20
411.324385
 30
0.0
 10
450.365769
 20
433.613012
 30
0.0
 10
468.434274
 20
451.681525
 30
0.0
 10
490.722909
 20
451.681525
 30
0.0
  0
SPLINE
  5
1ee
100
AcDbEntity
  8
0
 62
2
100
AcDbSpline
 70
8
 71
3
 72
8
 73
4
 74
0
 40
0
 40
0
 40
0
 40
0
 40
1
 40
1
 40
1
 40
1
 10
490.722909
 20
451.681525
 30
0.0
 10
513.011536
 20
451.681525
 30
0.0
 10
531.080041
 20
433.613012
 30
0.0
 10
531.080041
 20
411.324385
 30
0.0
  0
LWPOLYLINE
  5
1ef
100
AcDbEntity
  8
0
 62
2
100
AcDbPolyline
 90
1
 70
1
 10
531.036961
 20
481.224985
 30
0.0
  0
SPLINE
  5
1f0
100
AcDbEntity
  8
0
 62
2
100
AcDbSpline
 70
8
 71
3
 72
8
 73
4
 74
0
 40
0
 40
0
 40
0
 40
0
 40
1
 40
1
 40
1
 40
1
 10
591.637284
 20
376.411397
 30
0.0
 10
591.637284
 20
354.122762
 30
0.0
 10
573.568779
 20
336.054257
 30
0.0
 10
551.280144
 20
336.054257
 30
0.0
  0
SPLINE
  5
1f1
100
AcDbEntity
  8
0
 62
2
100
AcDbSpline
 70
8
 71
3
 72
8
 73
4
 74
0
 40
0
 40
0
 40
0
 40
0
 40
1
 40
1
 40
1
 40
1
 10
551.280144
 20
336.054257
 30
0.0
 10
528.991509
 20
336.054257
 30
0.0
 10
510.923004
 20
354.122762
 30
0.0
 10
510.923004
 20
376.411397
 30
0.0
  0
SPLINE
  5
1f2
100
AcDbEntity
  8
0
 62
2
100
AcDbSpline
 70
8
 71
3
 72
8
 73
4
 74
0
 40
0
 40
0
 40
0
 40
0
 40
1
 40
1
 40
1
 40
1
 10
510.923004
 20
376.411397
 30
0.0
 10
510.923004
 20
398.700025
 30
0.0
 10
528.991509
 20
416.768530
 30
0.0
 10
551.280144
 20
416.768530
 30
0.0
  0
SPLINE
  5
1f3
100
AcDbEntity
  8
0
 62
2
100
AcDbSpline
 70
8
 71
3
 72
8
 73
4
 74
0
 40
0
 40
0
 40
0
 40
0
 40
1
 40
1
 40
1
 40
1
 10
551.280144
 20
416.768530
 30
0.0
 10
573.568779
 20
416.768530
 30
0.0
 10
591.637284
 20
398.700025
 30
0.0
 10
591.637284
 20
376.411397
 30
0.0
  0
LWPOLYLINE
  5
1f4
100
AcDbEntity
  8
0
 62
2
100
AcDbPolyline
 90
1
 70
1
 10
531.080041
 20
411.324385
 30
0.0
  0
SPLINE
  5
1f5
100
AcDbEntity
  8
0
 62
2
100
AcDbSpline
 70
8
 71
3
 72
8
 73
4
 74
0
 40
0
 40
0
 40
0
 40
0
 40
1
 40
1
 40
1
 40
1
 10
531.123129
 20
341.423785
 30
0.0
 10
531.123129
 20
319.135150
 30
0.0
 10
513.054624
 20
301.066645
 30
0.0
 10
490.765989
 20
301.066645
 30
0.0
  0
SPLINE
  5
1f6
100
AcDbEntity
  8
0
 62
2
100
AcDbSpline
 70
8
 71
3
 72
8
 73
4
 74
0
 40
0
 40
0
 40
0
 40
0
 40
1
 40
1
 40
1
 40
1
 10
490.765989
 20
301.066645
 30
0.0
 10
468.477354
 20
301.066645
 30
0.0
 10
450.408849
 20
319.135150
 30
0.0
 10
450.408849
 20
341.423785
 30
0.0
  0
SPLINE
  5
1f7
100
AcDbEntity
  8
0
 62
2
100
AcDbSpline
 70
8
 71
3
 72
8
 73
4
 74
0
 40
0
 40
0
 40
0
 40
0
 40
1
 40
1
 40
1
 40
1
 10
450.408849
 20
341.423785
 30
0.0
 10
450.408849
 20
363.712412
 30
0.0
 10
468.477354
 20
381.780917
 30
0.0
 10
490.765989
 20
381.780917
 30
0.0
  0
SPLINE
  5
1f8
100
AcDbEntity
  8
0
 62
2
100
AcDbSpline
 70
8
 71
3
 72
8
 73
4
 74
0
 40
0
 40
0
 40
0
 40
0
 40
1
 40
1
 40
1
 40
1
 10
490.765989
 20
381.780917
 30
0.0
 10
513.054624
 20
381.780917
 30
0.0
 10
531.123129
 20
363.712412
 30
0.0
 10
531.123129
 20
341.423785
 30
0.0
  0
LWPOLYLINE
  5
1f9
100
AcDbEntity
  8
0
 62
2
100
AcDbPolyline
 90
1
 70
1
 10
591.637284
 20
376.411397
 30
0.0
  0
SPLINE
  5
1fa
100
AcDbEntity
  8
0
 62
2
100
AcDbSpline
 70
8
 71
3
 72
8
 73
4
 74
0
 40
0
 40
0
 40
0
 40
0
 40
1
 40
1
 40
1
 40
1
 10
349.494496
 20
376.262147
 30
0.0
 10
349.494496
 20
353.973520
 30
0.0
 10
331.425992
 20
335.905015
 30
0.0
 10
309.137356
 20
335.905015
 30
0.0
  0
SPLINE
  5
1fb
100
AcDbEntity
  8
0
 62
2
100
AcDbSpline
 70
8
 71
3
 72
8
 73
4
 74
0
 40
0
 40
0
 40
0
 40
0
 40
1
 40
1
 40
1
 40
1
 10
309.137356
 20
335.905015
 30
0.0
 10
286.848729
 20
335.905015
 30
0.0
 10
268.780224
 20
353.973520
 30
0.0
 10
268.780224
 20
376.262147
 30
0.0
  0
SPLINE
  5
1fc
100
AcDbEntity
  8
0
 62
2
100
AcDbSpline
 70
8
 71
3
 72
8
 73
4
 74
0
 40
0
 40
0
 40
0
 40
0
 40
1
 40
1
 40
1
 40
1
 10
268.780224
 20
376.262147
 30
0.0
 10
268.780224
 20
398.550782
 30
0.0
 10
286.848729
 20
416.619287
 30
0.0
 10
309.137356
 20
416.619287
 30
0.0
  0
SPLINE
  5
1fd
100
AcDbEntity
  8
0
 62
2
100
AcDbSpline
 70
8
 71
3
 72
8
 73
4
 74
0
 40
0
 40
0
 40
0
 40
0
 40
1
 40
1
 40
1
 40
1
 10
309.137356
 20
416.619287
 30
0.0
 10
331.425992
 20
416.619287
 30
0.0
 10
349.494496
 20
398.550782
 30
0.0
 10
349.494496
 20
376.262147
 30
0.0
  0
LWPOLYLINE
  5
1fe
100
AcDbEntity
  8
0
 62
2
100
AcDbPolyline
 90
1
 70
1
 10
531.123129
 20
341.423785
 30
0.0
  0
SPLINE
  5
1ff
100
AcDbEntity
  8
0
 62
2
100
AcDbSpline
 70
8
 71
3
 72
8
 73
4
 74
0
 40
0
 40
0
 40
0
 40
0
 40
1
 40
1
 40
1
 40
1
 10
309.094284
 20
446.137877
 30
0.0
 10
309.094284
 20
423.849242
 30
0.0
 10
291.025779
 20
405.780737
 30
0.0
 10
268.737144
 20
405.780737
 30
0.0
  0
SPLINE
  5
200
100
AcDbEntity
  8
0
 62
2
100
AcDbSpline
 70
8
 71
3
 72
8
 73
4
 74
0
 40
0
 40
0
 40
0
 40
0
 40
1
 40
1
 40
1
 40
1
 10
268.737144
 20
405.780737
 30
0.0
 10
246.448516
 20
405.780737
 30
0.0
 10
228.380004
 20
423.849242
 30
0.0
 10
228.380004
 20
446.137877
 30
0.0
  0
SPLINE
  5
201
100
AcDbEntity
  8
0
 62
2
100
AcDbSpline
 70
8
 71
3
 72
8
 73
4
 74
0
 40
0
 40
0
 40
0
 40
0
 40
1
 40
1
 40
1
 40
1
 10
228.380004
 20
446.137877
 30
0.0
 10
228.380004
 20
468.426512
 30
0.0
 10
246.448516
 20
486.495017
 30
0.0
 10
268.737144
 20
486.495017
 30
0.0
  0
SPLINE
  5
202
100
AcDbEntity
  8
0
 62
2
100
AcDbSpline
 70
8
 71
3
 72
8
 73
4
 74
0
 40
0
 40
0
 40
0
 40
0
 40
1
 40
1
 40
1
 40
1
 10
268.737144
 20
486.495017
 30
0.0
 10
291.025779
 20
486.495017
 30
0.0
 10
309.094284
 20
468.426512
 30
0.0
 10
309.094284
 20
446.137877
 30
0.0
  0
LWPOLYLINE
  5
203
100
AcDbEntity
  8
0
 62
2
100
AcDbPolyline
 90
1
 70
1
 10
349.494496
 20
376.262147
 30
0.0
  0
SPLINE
  5
204
100
AcDbEntity
  8
0
 62
4
100
AcDbSpline
 70
8
 71
3
 72
8
 73
4
 74
0
 40
0
 40
0
 40
0
 40
0
 40
1
 40
1
 40
1
 40
1
 10
672.265389
 20
516.237467
 30
0.0
 10
672.265389
 20
471.660205
 30
0.0
 10
636.128371
 20
435.523195
 30
0.0
 10
591.551109
 20
435.523195
 30
0.0
  0
SPLINE
  5
205
100
AcDbEntity
  8
0
 62
4
100
AcDbSpline
 70
8
 71
3
 72
8
 73
4
 74
0
 40
0
 40
0
 40
0
 40
0
 40
1
 40
1
 40
1
 40
1
 10
591.551109
 20
435.523195
 30
0.0
 10
546.973847
 20
435.523195
 30
0.0
 10
510.836829
 20
471.660205
 30
0.0
 10
510.836829
 20
516.237467
 30
0.0
  0
SPLINE
  5
206
100
AcDbEntity
  8
0
 62
4
100
AcDbSpline
 70
8
 71
3
 72
8
 73
4
 74
0
 40
0
 40
0
 40
0
 40
0
 40
1
 40
1
 40
1
 40
1
 10
510.836829
 20
516.237467
 30
0.0
 10
510.836829
 20
560.814737
 30
0.0
 10
546.973846
 20
596.951747
 30
0.0
 10
591.551109
 20
596.951747
 30
0.0
  0
SPLINE
  5
207
100
AcDbEntity
  8
0
 62
4
100
AcDbSpline
 70
8
 71
3
 72
8
 73
4
 74
0
 40
0
 40
0
 40
0
 40
0
 40
1
 40
1
 40
1
 40
1
 10
591.551109
 20
596.951747
 30
0.0
 10
636.128371
 20
596.951747
 30
0.0
 10
672.265389
 20
560.814737
 30
0.0
 10
672.265389
 20
516.237467
 30
0.0
  0
LWPOLYLINE
  5
208
100
AcDbEntity
  8
0
 62
2
100
AcDbPolyline
 90
1
 70
1
 10
309.094284
 20
446.137877
 30
0.0
  0
SPLINE
  5
209
100
AcDbEntity
  8
0
 62
4
100
AcDbSpline
 70
8
 71
3
 72
8
 73
4
 74
0
 40
0
 40
0
 40
0
 40
0
 40
1
 40
1
 40
1
 40
1
 10
510.836859
 20
516.137972
 30
0.0
 10
510.836859
 20
471.560710
 30
0.0
 10
474.699849
 20
435.423700
 30
0.0
 10
430.122587
 20
435.423700
 30
0.0
  0
SPLINE
  5
20a
100
AcDbEntity
  8
0
 62
4
100
AcDbSpline
 70
8
 71
3
 72
8
 73
4
 74
0
 40
0
 40
0
 40
0
 40
0
 40
1
 40
1
 40
1
 40
1
 10
430.122587
 20
435.423700
 30
0.0
 10
385.545324
 20
435.423700
 30
0.0
 10
349.408307
 20
471.560710
 30
0.0
 10
349.408307
 20
516.137972
 30
0.0
  0
SPLINE
  5
20b
100
AcDbEntity
  8
0
 62
4
100
AcDbSpline
 70
8
 71
3
 72
8
 73
4
 74
0
 40
0
 40
0
 40
0
 40
0
 40
1
 40
1
 40
1
 40
1
 10
349.408307
 20
516.137972
 30
0.0
 10
349.408307
 20
560.715235
 30
0.0
 10
385.545324
 20
596.852252
 30
0.0
 10
430.122587
 20
596.852252
 30
0.0
  0
SPLINE
  5
20c
100
AcDbEntity
  8
0
 62
4
100
AcDbSpline
 70
8
 71
3
 72
8
 73
4
 74
0
 40
0
 40
0
 40
0
 40
0
 40
1
 40
1
 40
1
 40
1
 10
430.122587
 20
596.852252
 30
0.0
 10
474.699849
 20
596.852252
 30
0.0
 10
510.836859
 20
560.715235
 30
0.0
 10
510.836859
 20
516.137972
 30
0.0
  0
LWPOLYLINE
  5
20d
100
AcDbEntity
  8
0
 62
4
100
AcDbPolyline
 90
1
 70
1
 10
672.265389
 20
516.237467
 30
0.0
  0
SPLINE
  5
20e
100
AcDbEntity
  8
0
 62
4
100
AcDbSpline
 70
8
 71
3
 72
8
 73
4
 74
0
 40
0
 40
0
 40
0
 40
0
 40
1
 40
1
 40
1
 40
1
 10
631.951337
 20
446.311997
 30
0.0
 10
631.951337
 20
401.734727
 30
0.0
 10
595.814326
 20
365.597717
 30
0.0
 10
551.237064
 20
365.597717
 30
0.0
  0
SPLINE
  5
20f
100
AcDbEntity
  8
0
 62
4
100
AcDbSpline
 70
8
 71
3
 72
8
 73
4
 74
0
 40
0
 40
0
 40
0
 40
0
 40
1
 40
1
 40
1
 40
1
 10
551.237064
 20
365.597717
 30
0.0
 10
506.659794
 20
365.597717
 30
0.0
 10
470.522784
 20
401.734727
 30
0.0
 10
470.522784
 20
446.311997
 30
0.0
  0
SPLINE
  5
210
100
AcDbEntity
  8
0
 62
4
100
AcDbSpline
 70
8
 71
3
 72
8
 73
4
 74
0
 40
0
 40
0
 40
0
 40
0
 40
1
 40
1
 40
1
 40
1
 10
470.522784
 20
446.311997
 30
0.0
 10
470.522784
 20
490.889260
 30
0.0
 10
506.659794
 20
527.026270
 30
0.0
 10
551.237064
 20
527.026270
 30
0.0
  0
SPLINE
  5
211
100
AcDbEntity
  8
0
 62
4
100
AcDbSpline
 70
8
 71
3
 72
8
 73
4
 74
0
 40
0
 40
0
 40
0
 40
0
 40
1
 40
1
 40
1
 40
1
 10
551.237064
 20
527.026270
 30
0.0
 10
595.814326
 20
527.026270
 30
0.0
 10
631.951337
 20
490.889260
 30
0.0
 10
631.951337
 20
446.311997
 30
0.0
  0
LWPOLYLINE
  5
212
100
AcDbEntity
  8
0
 62
4
100
AcDbPolyline
 90
1
 70
1
 10
510.836859
 20
516.137972
 30
0.0
  0
SPLINE
  5
213
100
AcDbEntity
  8
0
 62
4
100
AcDbSpline
 70
8
 71
3
 72
8
 73
4
 74
0
 40
0
 40
0
 40
0
 40
0
 40
1
 40
1
 40
1
 40
1
 10
389.808557
 20
446.162755
 30
0.0
 10
389.808557
 20
401.585485
 30
0.0
 10
353.671539
 20
365.448475
 30
0.0
 10
309.094277
 20
365.448475
 30
0.0
  0
SPLINE
  5
214
100
AcDbEntity
  8
0
 62
4
100
AcDbSpline
 70
8
 71
3
 72
8
 73
4
 74
0
 40
0
 40
0
 40
0
 40
0
 40
1
 40
1
 40
1
 40
1
 10
309.094277
 20
365.448475
 30
0.0
 10
264.517014
 20
365.448475
 30
0.0
 10
228.379997
 20
401.585485
 30
0.0
 10
228.379997
 20
446.162755
 30
0.0
  0
SPLINE
  5
215
100
AcDbEntity
  8
0
 62
4
100
AcDbSpline
 70
8
 71
3
 72
8
 73
4
 74
0
 40
0
 40
0
 40
0
 40
0
 40
1
 40
1
 40
1
 40
1
 10
228.379997
 20
446.162755
 30
0.0
 10
228.379997
 20
490.740017
 30
0.0
 10
264.517014
 20
526.877027
 30
0.0
 10
309.094277
 20
526.877027
 30
0.0
  0
SPLINE
  5
216
100
AcDbEntity
  8
0
 62
4
100
AcDbSpline
 70
8
 71
3
 72
8
 73
4
 74
0
 40
0
 40
0
 40
0
 40
0
 40
1
 40
1
 40
1
 40
1
 10
309.094277
 20
526.877027
 30
0.0
 10
353.671539
 20
526.877027
 30
0.0
 10
389.808557
 20
490.740017
 30
0.0
 10
389.808557
 20
446.162755
 30
0.0
  0
LWPOLYLINE
  5
217
100
AcDbEntity
  8
0
 62
4
100
AcDbPolyline
 90
1
 70
1
 10
631.951337
 20
446.311997
 30
0.0
  0
SPLINE
  5
218
100
AcDbEntity
  8
0
 62
2
100
AcDbSpline
 70
8
 71
3
 72
8
 73
4
 74
0
 40
0
 40
0
 40
0
 40
0
 40
1
 40
1
 40
1
 40
1
 10
409.965572
 20
481.150360
 30
0.0
 10
409.965572
 20
458.861732
 30
0.0
 10
391.897066
 20
440.793227
 30
0.0
 10
369.608431
 20
440.793227
 30
0.0
  0
SPLINE
  5
219
100
AcDbEntity
  8
0
 62
2
100
AcDbSpline
 70
8
 71
3
 72
8
 73
4
 74
0
 40
0
 40
0
 40
0
 40
0
 40
1
 40
1
 40
1
 40
1
 10
369.608431
 20
440.793227
 30
0.0
 10
347.319796
 20
440.793227
 30
0.0
 10
329.251291
 20
458.861732
 30
0.0
 10
329.251291
 20
481.150360
 30
0.0
  0
SPLINE
  5
21a
100
AcDbEntity
  8
0
 62
2
100
AcDbSpline
 70
8
 71
3
 72
8
 73
4
 74
0
 40
0
 40
0
 40
0
 40
0
 40
1
 40
1
 40
1
 40
1
 10
329.251291
 20
481.150360
 30
0.0
 10
329.251291
 20
503.438995
 30
0.0
 10
347.319796
 20
521.507500
 30
0.0
 10
369.608431
 20
521.507500
 30
0.0
  0
SPLINE
  5
21b
100
AcDbEntity
  8
0
 62
2
100
AcDbSpline
 70
8
 71
3
 72
8
 73
4
 74
0
 40
0
 40
0
 40
0
 40
0
 40
1
 40
1
 40
1
 40
1
 10
369.608431
 20
521.507500
 30
0.0
 10
391.897066
 20
521.507500
 30
0.0
 10
409.965572
 20
503.438995
 30
0.0
 10
409.965572
 20
481.150360
 30
0.0
  0
LWPOLYLINE
  5
21c
100
AcDbEntity
  8
0
 62
4
100
AcDbPolyline
 90
1
 70
1
 10
389.808557
 20
446.162755
 30
0.0
  0
SPLINE
  5
21d
100
AcDbEntity
  8
0
 62
2
100
AcDbSpline
 70
8
 71
3
 72
8
 73
4
 74
0
 40
0
 40
0
 40
0
 40
0
 40
1
 40
1
 40
1
 40
1
 10
389.808549
 20
446.187625
 30
0.0
 10
389.808549
 20
423.898990
 30
0.0
 10
371.740036
 20
405.830485
 30
0.0
 10
349.451409
 20
405.830485
 30
0.0
  0
SPLINE
  5
21e
100
AcDbEntity
  8
0
 62
2
100
AcDbSpline
 70
8
 71
3
 72
8
 73
4
 74
0
 40
0
 40
0
 40
0
 40
0
 40
1
 40
1
 40
1
 40
1
 10
349.451409
 20
405.830485
 30
0.0
 10
327.162774
 20
405.830485
 30
0.0
 10
309.094269
 20
423.898990
 30
0.0
 10
309.094269
 20
446.187625
 30
0.0
  0
SPLINE
  5
21f
100
AcDbEntity
  8
0
 62
2
100
AcDbSpline
 70
8
 71
3
 72
8
 73
4
 74
0
 40
0
 40
0
 40
0
 40
0
 40
1
 40
1
 40
1
 40
1
 10
309.094269
 20
446.187625
 30
0.0
 10
309.094269
 20
468.476260
 30
0.0
 10
327.162774
 20
486.544765
 30
0.0
 10
349.451409
 20
486.544765
 30
0.0
  0
SPLINE
  5
220
100
AcDbEntity
  8
0
 62
2
100
AcDbSpline
 70
8
 71
3
 72
8
 73
4
 74
0
 40
0
 40
0
 40
0
 40
0
 40
1
 40
1
 40
1
 40
1
 10
349.451409
 20
486.544765
 30
0.0
 10
371.740036
 20
486.544765
 30
0.0
 10
389.808549
 20
468.476260
 30
0.0
 10
389.808549
 20
446.187625
 30
0.0
  0
LWPOLYLINE
  5
221
100
AcDbEntity
  8
0
 62
2
100
AcDbPolyline
 90
1
 70
1
 10
409.965572
 20
481.150360
 30
0.0
  0
SPLINE
  5
222
100
AcDbEntity
  8
0
 62
2
100
AcDbSpline
 70
8
 71
3
 72
8
 73
4
 74
0
 40
0
 40
0
 40
0
 40
0
 40
1
 40
1
 40
1
 40
1
 10
450.322704
 20
481.175237
 30
0.0
 10
450.322704
 20
458.886602
 30
0.0
 10
432.254191
 20
440.818097
 30
0.0
 10
409.965564
 20
440.818097
 30
0.0
  0
SPLINE
  5
223
100
AcDbEntity
  8
0
 62
2
100
AcDbSpline
 70
8
 71
3
 72
8
 73
4
 74
0
 40
0
 40
0
 40
0
 40
0
 40
1
 40
1
 40
1
 40
1
 10
409.965564
 20
440.818097
 30
0.0
 10
387.676929
 20
440.818097
 30
0.0
 10
369.608424
 20
458.886602
 30
0.0
 10
369.608424
 20
481.175237
 30
0.0
  0
SPLINE
  5
224
100
AcDbEntity
  8
0
 62
2
100
AcDbSpline
 70
8
 71
3
 72
8
 73
4
 74
0
 40
0
 40
0
 40
0
 40
0
 40
1
 40
1
 40
1
 40
1
 10
369.608424
 20
481.175237
 30
0.0
 10
369.608424
 20
503.463865
 30
0.0
 10
387.676929
 20
521.532377
 30
0.0
 10
409.965564
 20
521.532377
 30
0.0
  0
SPLINE
  5
225
100
AcDbEntity
  8
0
 62
2
100
AcDbSpline
 70
8
 71
3
 72
8
 73
4
 74
0
 40
0
 40
0
 40
0
 40
0
 40
1
 40
1
 40
1
 40
1
 10
409.965564
 20
521.532377
 30
0.0
 10
432.254191
 20
521.532377
 30
0.0
 10
450.322704
 20
503.463865
 30
0.0
 10
450.322704
 20
481.175237
 30
0.0
  0
LWPOLYLINE
  5
226
100
AcDbEntity
  8
0
 62
2
100
AcDbPolyline
 90
1
 70
1
 10
389.808549
 20
446.187625
 30
0.0
  0
SPLINE
  5
227
100
AcDbEntity
  8
0
 62
2
100
AcDbSpline
 70
8
 71
3
 72
8
 73
4
 74
0
 40
0
 40
0
 40
0
 40
0
 40
1
 40
1
 40
1
 40
1
 10
531.166209
 20
271.523185
 30
0.0
 10
531.166209
 20
249.234550
 30
0.0
 10
513.097704
 20
231.166045
 30
0.0
 10
490.809069
 20
231.166045
 30
0.0
  0
SPLINE
  5
228
100
AcDbEntity
  8
0
 62
2
100
AcDbSpline
 70
8
 71
3
 72
8
 73
4
 74
0
 40
0
 40
0
 40
0
 40
0
 40
1
 40
1
 40
1
 40
1
 10
490.809069
 20
231.166045
 30
0.0
 10
468.520441
 20
231.166045
 30
0.0
 10
450.451936
 20
249.234550
 30
0.0
 10
450.451936
 20
271.523185
 30
0.0
  0
SPLINE
  5
229
100
AcDbEntity
  8
0
 62
2
100
AcDbSpline
 70
8
 71
3
 72
8
 73
4
 74
0
 40
0
 40
0
 40
0
 40
0
 40
1
 40
1
 40
1
 40
1
 10
450.451936
 20
271.523185
 30
0.0
 10
450.451936
 20
293.811812
 30
0.0
 10
468.520441
 20
311.880317
 30
0.0
 10
490.809069
 20
311.880317
 30
0.0
  0
SPLINE
  5
22a
100
AcDbEntity
  8
0
 62
2
100
AcDbSpline
 70
8
 71
3
 72
8
 73
4
 74
0
 40
0
 40
0
 40
0
 40
0
 40
1
 40
1
 40
1
 40
1
 10
490.809069
 20
311.880317
 30
0.0
 10
513.097704
 20
311.880317
 30
0.0
 10
531.166209
 20
293.811812
 30
0.0
 10
531.166209
 20
271.523185
 30
0.0
  0
LWPOLYLINE
  5
22b
100
AcDbEntity
  8
0
 62
2
100
AcDbPolyline
 90
1
 70
1
 10
450.322704
 20
481.175237
 30
0.0
  0
SPLINE
  5
22c
100
AcDbEntity
  8
0
 62
2
100
AcDbSpline
 70
8
 71
3
 72
8
 73
4
 74
0
 40
0
 40
0
 40
0
 40
0
 40
1
 40
1
 40
1
 40
1
 10
450.451951
 20
271.473437
 30
0.0
 10
450.451951
 20
249.184802
 30
0.0
 10
432.383439
 20
231.116297
 30
0.0
 10
410.094811
 20
231.116297
 30
0.0
  0
SPLINE
  5
22d
100
AcDbEntity
  8
0
 62
2
100
AcDbSpline
 70
8
 71
3
 72
8
 73
4
 74
0
 40
0
 40
0
 40
0
 40
0
 40
1
 40
1
 40
1
 40
1
 10
410.094811
 20
231.116297
 30
0.0
 10
387.806176
 20
231.116297
 30
0.0
 10
369.737671
 20
249.184802
 30
0.0
 10
369.737671
 20
271.473437
 30
0.0
  0
SPLINE
  5
22e
100
AcDbEntity
  8
0
 62
2
100
AcDbSpline
 70
8
 71
3
 72
8
 73
4
 74
0
 40
0
 40
0
 40
0
 40
0
 40
1
 40
1
 40
1
 40
1
 10
369.737671
 20
271.473437
 30
0.0
 10
369.737671
 20
293.762065
 30
0.0
 10
387.806176
 20
311.830570
 30
0.0
 10
410.094811
 20
311.830570
 30
0.0
  0
SPLINE
  5
22f
100
AcDbEntity
  8
0
 62
2
100
AcDbSpline
 70
8
 71
3
 72
8
 73
4
 74
0
 40
0
 40
0
 40
0
 40
0
 40
1
 40
1
 40
1
 40
1
 10
410.094811
 20
311.830570
 30
0.0
 10
432.383439
 20
311.830570
 30
0.0
 10
450.451951
 20
293.762065
 30
0.0
 10
450.451951
 20
271.473437
 30
0.0
  0
LWPOLYLINE
  5
230
100
AcDbEntity
  8
0
 62
2
100
AcDbPolyline
 90
1
 70
1
 10
531.166209
 20
271.523185
 30
0.0
  0
SPLINE
  5
231
100
AcDbEntity
  8
0
 62
2
100
AcDbSpline
 70
8
 71
3
 72
8
 73
4
 74
0
 40
0
 40
0
 40
0
 40
0
 40
1
 40
1
 40
1
 40
1
 10
571.523342
 20
271.548055
 30
0.0
 10
571.523342
 20
249.259427
 30
0.0
 10
553.454837
 20
231.190915
 30
0.0
 10
531.166201
 20
231.190915
 30
0.0
  0
SPLINE
  5
232
100
AcDbEntity
  8
0
 62
2
100
AcDbSpline
 70
8
 71
3
 72
8
 73
4
 74
0
 40
0
 40
0
 40
0
 40
0
 40
1
 40
1
 40
1
 40
1
 10
531.166201
 20
231.190915
 30
0.0
 10
508.877574
 20
231.190915
 30
0.0
 10
490.809061
 20
249.259427
 30
0.0
 10
490.809061
 20
271.548055
 30
0.0
  0
SPLINE
  5
233
100
AcDbEntity
  8
0
 62
2
100
AcDbSpline
 70
8
 71
3
 72
8
 73
4
 74
0
 40
0
 40
0
 40
0
 40
0
 40
1
 40
1
 40
1
 40
1
 10
490.809061
 20
271.548055
 30
0.0
 10
490.809061
 20
293.836690
 30
0.0
 10
508.877574
 20
311.905195
 30
0.0
 10
531.166201
 20
311.905195
 30
0.0
  0
SPLINE
  5
234
100
AcDbEntity
  8
0
 62
2
100
AcDbSpline
 70
8
 71
3
 72
8
 73
4
 74
0
 40
0
 40
0
 40
0
 40
0
 40
1
 40
1
 40
1
 40
1
 10
531.166201
 20
311.905195
 30
0.0
 10
553.454836
 20
311.905195
 30
0.0
 10
571.523342
 20
293.836690
 30
0.0
 10
571.523342
 20
271.548055
 30
0.0
  0
LWPOLYLINE
  5
235
100
AcDbEntity
  8
0
 62
2
100
AcDbPolyline
 90
1
 70
1
 10
450.451951
 20
271.473437
 30
0.0
  0
SPLINE
  5
236
100
AcDbEntity
  8
0
 62
2
100
AcDbSpline
 70
8
 71
3
 72
8
 73
4
 74
0
 40
0
 40
0
 40
0
 40
0
 40
1
 40
1
 40
1
 40
1
 10
470.608974
 20
306.436172
 30
0.0
 10
470.608974
 20
284.147537
 30
0.0
 10
452.540469
 20
266.079032
 30
0.0
 10
430.251834
 20
266.079032
 30
0.0
  0
SPLINE
  5
237
100
AcDbEntity
  8
0
 62
2
100
AcDbSpline
 70
8
 71
3
 72
8
 73
4
 74
0
 40
0
 40
0
 40
0
 40
0
 40
1
 40
1
 40
1
 40
1
 10
430.251834
 20
266.079032
 30
0.0
 10
407.963199
 20
266.079032
 30
0.0
 10
389.894694
 20
284.147537
 30
0.0
 10
389.894694
 20
306.436172
 30
0.0
  0
SPLINE
  5
238
100
AcDbEntity
  8
0
 62
2
100
AcDbSpline
 70
8
 71
3
 72
8
 73
4
 74
0
 40
0
 40
0
 40
0
 40
0
 40
1
 40
1
 40
1
 40
1
 10
389.894694
 20
306.436172
 30
0.0
 10
389.894694
 20
328.724800
 30
0.0
 10
407.963199
 20
346.793312
 30
0.0
 10
430.251834
 20
346.793312
 30
0.0
  0
SPLINE
  5
239
100
AcDbEntity
  8
0
 62
2
100
AcDbSpline
 70
8
 71
3
 72
8
 73
4
 74
0
 40
0
 40
0
 40
0
 40
0
 40
1
 40
1
 40
1
 40
1
 10
430.251834
 20
346.793312
 30
0.0
 10
452.540469
 20
346.793312
 30
0.0
 10
470.608974
 20
328.724800
 30
0.0
 10
470.608974
 20
306.436172
 30
0.0
  0
LWPOLYLINE
  5
23a
100
AcDbEntity
  8
0
 62
2
100
AcDbPolyline
 90
1
 70
1
 10
571.523342
 20
271.548055
 30
0.0
  0
SPLINE
  5
23b
100
AcDbEntity
  8
0
 62
2
100
AcDbSpline
 70
8
 71
3
 72
8
 73
4
 74
0
 40
0
 40
0
 40
0
 40
0
 40
1
 40
1
 40
1
 40
1
 10
632.037496
 20
306.535667
 30
0.0
 10
632.037496
 20
284.247032
 30
0.0
 10
613.968992
 20
266.178527
 30
0.0
 10
591.680357
 20
266.178527
 30
0.0
  0
SPLINE
  5
23c
100
AcDbEntity
  8
0
 62
2
100
AcDbSpline
 70
8
 71
3
 72
8
 73
4
 74
0
 40
0
 40
0
 40
0
 40
0
 40
1
 40
1
 40
1
 40
1
 10
591.680357
 20
266.178527
 30
0.0
 10
569.391722
 20
266.178527
 30
0.0
 10
551.323216
 20
284.247032
 30
0.0
 10
551.323216
 20
306.535667
 30
0.0
  0
SPLINE
  5
23d
100
AcDbEntity
  8
0
 62
2
100
AcDbSpline
 70
8
 71
3
 72
8
 73
4
 74
0
 40
0
 40
0
 40
0
 40
0
 40
1
 40
1
 40
1
 40
1
 10
551.323216
 20
306.535667
 30
0.0
 10
551.323216
 20
328.824302
 30
0.0
 10
569.391721
 20
346.892807
 30
0.0
 10
591.680357
 20
346.892807
 30
0.0
  0
SPLINE
  5
23e
100
AcDbEntity
  8
0
 62
2
100
AcDbSpline
 70
8
 71
3
 72
8
 73
4
 74
0
 40
0
 40
0
 40
0
 40
0
 40
1
 40
1
 40
1
 40
1
 10
591.680357
 20
346.892807
 30
0.0
 10
613.968991
 20
346.892807
 30
0.0
 10
632.037496
 20
328.824302
 30
0.0
 10
632.037496
 20
306.535667
 30
0.0
  0
LWPOLYLINE
  5
23f
100
AcDbEntity
  8
0
 62
2
100
AcDbPolyline
 90
1
 70
1
 10
470.608974
 20
306.436172
 30
0.0
  0
SPLINE
  5
240
100
AcDbEntity
  8
0
 62
2
100
AcDbSpline
 70
8
 71
3
 72
8
 73
4
 74
0
 40
0
 40
0
 40
0
 40
0
 40
1
 40
1
 40
1
 40
1
 10
389.894709
 20
306.386425
 30
0.0
 10
389.894709
 20
284.097790
 30
0.0
 10
371.826204
 20
266.029285
 30
0.0
 10
349.537577
 20
266.029285
 30
0.0
  0
SPLINE
  5
241
100
AcDbEntity
  8
0
 62
2
100
AcDbSpline
 70
8
 71
3
 72
8
 73
4
 74
0
 40
0
 40
0
 40
0
 40
0
 40
1
 40
1
 40
1
 40
1
 10
349.537577
 20
266.029285
 30
0.0
 10
327.248942
 20
266.029285
 30
0.0
 10
309.180436
 20
284.097790
 30
0.0
 10
309.180436
 20
306.386425
 30
0.0
  0
SPLINE
  5
242
100
AcDbEntity
  8
0
 62
2
100
AcDbSpline
 70
8
 71
3
 72
8
 73
4
 74
0
 40
0
 40
0
 40
0
 40
0
 40
1
 40
1
 40
1
 40
1
 10
309.180436
 20
306.386425
 30
0.0
 10
309.180436
 20
328.675052
 30
0.0
 10
327.248942
 20
346.743565
 30
0.0
 10
349.537577
 20
346.743565
 30
0.0
  0
SPLINE
  5
243
100
AcDbEntity
  8
0
 62
2
100
AcDbSpline
 70
8
 71
3
 72
8
 73
4
 74
0
 40
0
 40
0
 40
0
 40
0
 40
1
 40
1
 40
1
 40
1
 10
349.537577
 20
346.743565
 30
0.0
 10
371.826204
 20
346.743565
 30
0.0
 10
389.894709
 20
328.675052
 30
0.0
 10
389.894709
 20
306.386425
 30
0.0
  0
LWPOLYLINE
  5
244
100
AcDbEntity
  8
0
 62
2
100
AcDbPolyline
 90
1
 70
1
 10
632.037496
 20
306.535667
 30
0.0
  0
SPLINE
  5
245
100
AcDbEntity
  8
0
 62
2
100
AcDbSpline
 70
8
 71
3
 72
8
 73
4
 74
0
 40
0
 40
0
 40
0
 40
0
 40
1
 40
1
 40
1
 40
1
 10
410.094819
 20
271.448560
 30
0.0
 10
410.094819
 20
249.159925
 30
0.0
 10
392.026314
 20
231.091420
 30
0.0
 10
369.737679
 20
231.091420
 30
0.0
  0
SPLINE
  5
246
100
AcDbEntity
  8
0
 62
2
100
AcDbSpline
 70
8
 71
3
 72
8
 73
4
 74
0
 40
0
 40
0
 40
0
 40
0
 40
1
 40
1
 40
1
 40
1
 10
369.737679
 20
231.091420
 30
0.0
 10
347.449044
 20
231.091420
 30
0.0
 10
329.380539
 20
249.159925
 30
0.0
 10
329.380539
 20
271.448560
 30
0.0
  0
SPLINE
  5
247
100
AcDbEntity
  8
0
 62
2
100
AcDbSpline
 70
8
 71
3
 72
8
 73
4
 74
0
 40
0
 40
0
 40
0
 40
0
 40
1
 40
1
 40
1
 40
1
 10
329.380539
 20
271.448560
 30
0.0
 10
329.380539
 20
293.737195
 30
0.0
 10
347.449044
 20
311.805700
 30
0.0
 10
369.737679
 20
311.805700
 30
0.0
  0
SPLINE
  5
248
100
AcDbEntity
  8
0
 62
2
100
AcDbSpline
 70
8
 71
3
 72
8
 73
4
 74
0
 40
0
 40
0
 40
0
 40
0
 40
1
 40
1
 40
1
 40
1
 10
369.737679
 20
311.805700
 30
0.0
 10
392.026314
 20
311.805700
 30
0.0
 10
410.094819
 20
293.737195
 30
0.0
 10
410.094819
 20
271.448560
 30
0.0
  0
LWPOLYLINE
  5
249
100
AcDbEntity
  8
0
 62
2
100
AcDbPolyline
 90
1
 70
1
 10
389.894709
 20
306.386425
 30
0.0
  0
SPLINE
  5
24a
100
AcDbEntity
  8
0
 62
2
100
AcDbSpline
 70
8
 71
3
 72
8
 73
4
 74
0
 40
0
 40
0
 40
0
 40
0
 40
1
 40
1
 40
1
 40
1
 10
329.380554
 20
271.398812
 30
0.0
 10
329.380554
 20
249.110177
 30
0.0
 10
311.312049
 20
231.041672
 30
0.0
 10
289.023422
 20
231.041672
 30
0.0
  0
SPLINE
  5
24b
100
AcDbEntity
  8
0
 62
2
100
AcDbSpline
 70
8
 71
3
 72
8
 73
4
 74
0
 40
0
 40
0
 40
0
 40
0
 40
1
 40
1
 40
1
 40
1
 10
289.023422
 20
231.041672
 30
0.0
 10
266.734786
 20
231.041672
 30
0.0
 10
248.666282
 20
249.110177
 30
0.0
 10
248.666282
 20
271.398812
 30
0.0
  0
SPLINE
  5
24c
100
AcDbEntity
  8
0
 62
2
100
AcDbSpline
 70
8
 71
3
 72
8
 73
4
 74
0
 40
0
 40
0
 40
0
 40
0
 40
1
 40
1
 40
1
 40
1
 10
248.666282
 20
271.398812
 30
0.0
 10
248.666282
 20
293.687447
 30
0.0
 10
266.734786
 20
311.755952
 30
0.0
 10
289.023422
 20
311.755952
 30
0.0
  0
SPLINE
  5
24d
100
AcDbEntity
  8
0
 62
2
100
AcDbSpline
 70
8
 71
3
 72
8
 73
4
 74
0
 40
0
 40
0
 40
0
 40
0
 40
1
 40
1
 40
1
 40
1
 10
289.023422
 20
311.755952
 30
0.0
 10
311.312049
 20
311.755952
 30
0.0
 10
329.380554
 20
293.687447
 30
0.0
 10
329.380554
 20
271.398812
 30
0.0
  0
LWPOLYLINE
  5
24e
100
AcDbEntity
  8
0
 62
2
100
AcDbPolyline
 90
1
 70
1
 10
410.094819
 20
271.448560
 30
0.0
  0
SPLINE
  5
24f
100
AcDbEntity
  8
0
 62
2
100
AcDbSpline
 70
8
 71
3
 72
8
 73
4
 74
0
 40
0
 40
0
 40
0
 40
0
 40
1
 40
1
 40
1
 40
1
 10
329.337474
 20
341.299412
 30
0.0
 10
329.337474
 20
319.010777
 30
0.0
 10
311.268969
 20
300.942272
 30
0.0
 10
288.980334
 20
300.942272
 30
0.0
  0
SPLINE
  5
250
100
AcDbEntity
  8
0
 62
2
100
AcDbSpline
 70
8
 71
3
 72
8
 73
4
 74
0
 40
0
 40
0
 40
0
 40
0
 40
1
 40
1
 40
1
 40
1
 10
288.980334
 20
300.942272
 30
0.0
 10
266.691707
 20
300.942272
 30
0.0
 10
248.623194
 20
319.010777
 30
0.0
 10
248.623194
 20
341.299412
 30
0.0
  0
SPLINE
  5
251
100
AcDbEntity
  8
0
 62
2
100
AcDbSpline
 70
8
 71
3
 72
8
 73
4
 74
0
 40
0
 40
0
 40
0
 40
0
 40
1
 40
1
 40
1
 40
1
 10
248.623194
 20
341.299412
 30
0.0
 10
248.623194
 20
363.588047
 30
0.0
 10
266.691707
 20
381.656552
 30
0.0
 10
288.980334
 20
381.656552
 30
0.0
  0
SPLINE
  5
252
100
AcDbEntity
  8
0
 62
2
100
AcDbSpline
 70
8
 71
3
 72
8
 73
4
 74
0
 40
0
 40
0
 40
0
 40
0
 40
1
 40
1
 40
1
 40
1
 10
288.980334
 20
381.656552
 30
0.0
 10
311.268969
 20
381.656552
 30
0.0
 10
329.337474
 20
363.588047
 30
0.0
 10
329.337474
 20
341.299412
 30
0.0
  0
LWPOLYLINE
  5
253
100
AcDbEntity
  8
0
 62
2
100
AcDbPolyline
 90
1
 70
1
 10
329.380554
 20
271.398812
 30
0.0
  0
SPLINE
  5
254
100
AcDbEntity
  8
0
 62
2
100
AcDbSpline
 70
8
 71
3
 72
8
 73
4
 74
0
 40
0
 40
0
 40
0
 40
0
 40
1
 40
1
 40
1
 40
1
 10
329.294394
 20
411.200012
 30
0.0
 10
329.294394
 20
388.911385
 30
0.0
 10
311.225882
 20
370.842872
 30
0.0
 10
288.937254
 20
370.842872
 30
0.0
  0
SPLINE
  5
255
100
AcDbEntity
  8
0
 62
2
100
AcDbSpline
 70
8
 71
3
 72
8
 73
4
 74
0
 40
0
 40
0
 40
0
 40
0
 40
1
 40
1
 40
1
 40
1
 10
288.937254
 20
370.842872
 30
0.0
 10
266.648619
 20
370.842872
 30
0.0
 10
248.580114
 20
388.911385
 30
0.0
 10
248.580114
 20
411.200012
 30
0.0
  0
SPLINE
  5
256
100
AcDbEntity
  8
0
 62
2
100
AcDbSpline
 70
8
 71
3
 72
8
 73
4
 74
0
 40
0
 40
0
 40
0
 40
0
 40
1
 40
1
 40
1
 40
1
 10
248.580114
 20
411.200012
 30
0.0
 10
248.580114
 20
433.488647
 30
0.0
 10
266.648619
 20
451.557152
 30
0.0
 10
288.937254
 20
451.557152
 30
0.0
  0
SPLINE
  5
257
100
AcDbEntity
  8
0
 62
2
100
AcDbSpline
 70
8
 71
3
 72
8
 73
4
 74
0
 40
0
 40
0
 40
0
 40
0
 40
1
 40
1
 40
1
 40
1
 10
288.937254
 20
451.557152
 30
0.0
 10
311.225881
 20
451.557152
 30
0.0
 10
329.294394
 20
433.488647
 30
0.0
 10
329.294394
 20
411.200012
 30
0.0
  0
LWPOLYLINE
  5
258
100
AcDbEntity
  8
0
 62
2
100
AcDbPolyline
 90
1
 70
1
 10
329.337474
 20
341.299412
 30
0.0
  0
SPLINE
  5
259
100
AcDbEntity
  8
0
 62
2
100
AcDbSpline
 70
8
 71
3
 72
8
 73
4
 74
0
 40
0
 40
0
 40
0
 40
0
 40
1
 40
1
 40
1
 40
1
 10
329.251306
 20
481.100612
 30
0.0
 10
329.251306
 20
458.811985
 30
0.0
 10
311.182801
 20
440.743480
 30
0.0
 10
288.894166
 20
440.743480
 30
0.0
  0
SPLINE
  5
25a
100
AcDbEntity
  8
0
 62
2
100
AcDbSpline
 70
8
 71
3
 72
8
 73
4
 74
0
 40
0
 40
0
 40
0
 40
0
 40
1
 40
1
 40
1
 40
1
 10
288.894166
 20
440.743480
 30
0.0
 10
266.605539
 20
440.743480
 30
0.0
 10
248.537034
 20
458.811985
 30
0.0
 10
248.537034
 20
481.100612
 30
0.0
  0
SPLINE
  5
25b
100
AcDbEntity
  8
0
 62
2
100
AcDbSpline
 70
8
 71
3
 72
8
 73
4
 74
0
 40
0
 40
0
 40
0
 40
0
 40
1
 40
1
 40
1
 40
1
 10
248.537034
 20
481.100612
 30
0.0
 10
248.537034
 20
503.389247
 30
0.0
 10
266.605539
 20
521.457752
 30
0.0
 10
288.894166
 20
521.457752
 30
0.0
  0
SPLINE
  5
25c
100
AcDbEntity
  8
0
 62
2
100
AcDbSpline
 70
8
 71
3
 72
8
 73
4
 74
0
 40
0
 40
0
 40
0
 40
0
 40
1
 40
1
 40
1
 40
1
 10
288.894166
 20
521.457752
 30
0.0
 10
311.182801
 20
521.457752
 30
0.0
 10
329.251306
 20
503.389247
 30
0.0
 10
329.251306
 20
481.100612
 30
0.0
  0
LWPOLYLINE
  5
25d
100
AcDbEntity
  8
0
 62
2
100
AcDbPolyline
 90
1
 70
1
 10
329.294394
 20
411.200012
 30
0.0
  0
SPLINE
  5
25e
100
AcDbEntity
  8
0
 62
4
100
AcDbSpline
 70
8
 71
3
 72
8
 73
4
 74
0
 40
0
 40
0
 40
0
 40
0
 40
1
 40
1
 40
1
 40
1
 10
632.037504
 20
306.510790
 30
0.0
 10
632.037504
 20
261.933527
 30
0.0
 10
595.900494
 20
225.796517
 30
0.0
 10
551.323224
 20
225.796517
 30
0.0
  0
SPLINE
  5
25f
100
AcDbEntity
  8
0
 62
4
100
AcDbSpline
 70
8
 71
3
 72
8
 73
4
 74
0
 40
0
 40
0
 40
0
 40
0
 40
1
 40
1
 40
1
 40
1
 10
551.323224
 20
225.796517
 30
0.0
 10
506.745961
 20
225.796517
 30
0.0
 10
470.608951
 20
261.933527
 30
0.0
 10
470.608951
 20
306.510790
 30
0.0
  0
SPLINE
  5
260
100
AcDbEntity
  8
0
 62
4
100
AcDbSpline
 70
8
 71
3
 72
8
 73
4
 74
0
 40
0
 40
0
 40
0
 40
0
 40
1
 40
1
 40
1
 40
1
 10
470.608951
 20
306.510790
 30
0.0
 10
470.608951
 20
351.088060
 30
0.0
 10
506.745961
 20
387.225070
 30
0.0
 10
551.323224
 20
387.225070
 30
0.0
  0
SPLINE
  5
261
100
AcDbEntity
  8
0
 62
4
100
AcDbSpline
 70
8
 71
3
 72
8
 73
4
 74
0
 40
0
 40
0
 40
0
 40
0
 40
1
 40
1
 40
1
 40
1
 10
551.323224
 20
387.225070
 30
0.0
 10
595.900494
 20
387.225070
 30
0.0
 10
632.037504
 20
351.088060
 30
0.0
 10
632.037504
 20
306.510790
 30
0.0
  0
LWPOLYLINE
  5
262
100
AcDbEntity
  8
0
 62
2
100
AcDbPolyline
 90
1
 70
1
 10
329.251306
 20
481.100612
 30
0.0
  0
SPLINE
  5
263
100
AcDbEntity
  8
0
 62
2
100
AcDbSpline
 70
8
 71
3
 72
8
 73
4
 74
0
 40
0
 40
0
 40
0
 40
0
 40
1
 40
1
 40
1
 40
1
 10
551.323232
 20
306.485920
 30
0.0
 10
551.323232
 20
284.197285
 30
0.0
 10
533.254727
 20
266.128780
 30
0.0
 10
510.966099
 20
266.128780
 30
0.0
  0
SPLINE
  5
264
100
AcDbEntity
  8
0
 62
2
100
AcDbSpline
 70
8
 71
3
 72
8
 73
4
 74
0
 40
0
 40
0
 40
0
 40
0
 40
1
 40
1
 40
1
 40
1
 10
510.966099
 20
266.128780
 30
0.0
 10
488.677464
 20
266.128780
 30
0.0
 10
470.608959
 20
284.197285
 30
0.0
 10
470.608959
 20
306.485920
 30
0.0
  0
SPLINE
  5
265
100
AcDbEntity
  8
0
 62
2
100
AcDbSpline
 70
8
 71
3
 72
8
 73
4
 74
0
 40
0
 40
0
 40
0
 40
0
 40
1
 40
1
 40
1
 40
1
 10
470.608959
 20
306.485920
 30
0.0
 10
470.608959
 20
328.774555
 30
0.0
 10
488.677464
 20
346.843060
 30
0.0
 10
510.966099
 20
346.843060
 30
0.0
  0
SPLINE
  5
266
100
AcDbEntity
  8
0
 62
2
100
AcDbSpline
 70
8
 71
3
 72
8
 73
4
 74
0
 40
0
 40
0
 40
0
 40
0
 40
1
 40
1
 40
1
 40
1
 10
510.966099
 20
346.843060
 30
0.0
 10
533.254726
 20
346.843060
 30
0.0
 10
551.323232
 20
328.774555
 30
0.0
 10
551.323232
 20
306.485920
 30
0.0
  0
LWPOLYLINE
  5
267
100
AcDbEntity
  8
0
 62
4
100
AcDbPolyline
 90
1
 70
1
 10
632.037504
 20
306.510790
 30
0.0
  0
SPLINE
  5
268
100
AcDbEntity
  8
0
 62
2
100
AcDbSpline
 70
8
 71
3
 72
8
 73
4
 74
0
 40
0
 40
0
 40
0
 40
0
 40
1
 40
1
 40
1
 40
1
 10
490.809077
 20
271.498307
 30
0.0
 10
490.809077
 20
249.209672
 30
0.0
 10
472.740572
 20
231.141167
 30
0.0
 10
450.451944
 20
231.141167
 30
0.0
  0
SPLINE
  5
269
100
AcDbEntity
  8
0
 62
2
100
AcDbSpline
 70
8
 71
3
 72
8
 73
4
 74
0
 40
0
 40
0
 40
0
 40
0
 40
1
 40
1
 40
1
 40
1
 10
450.451944
 20
231.141167
 30
0.0
 10
428.163309
 20
231.141167
 30
0.0
 10
410.094804
 20
249.209672
 30
0.0
 10
410.094804
 20
271.498307
 30
0.0
  0
SPLINE
  5
26a
100
AcDbEntity
  8
0
 62
2
100
AcDbSpline
 70
8
 71
3
 72
8
 73
4
 74
0
 40
0
 40
0
 40
0
 40
0
 40
1
 40
1
 40
1
 40
1
 10
410.094804
 20
271.498307
 30
0.0
 10
410.094804
 20
293.786942
 30
0.0
 10
428.163309
 20
311.855447
 30
0.0
 10
450.451944
 20
311.855447
 30
0.0
  0
SPLINE
  5
26b
100
AcDbEntity
  8
0
 62
2
100
AcDbSpline
 70
8
 71
3
 72
8
 73
4
 74
0
 40
0
 40
0
 40
0
 40
0
 40
1
 40
1
 40
1
 40
1
 10
450.451944
 20
311.855447
 30
0.0
 10
472.740571
 20
311.855447
 30
0.0
 10
490.809077
 20
293.786942
 30
0.0
 10
490.809077
 20
271.498307
 30
0.0
  0
LWPOLYLINE
  5
26c
100
AcDbEntity
  8
0
 62
2
100
AcDbPolyline
 90
1
 70
1
 10
551.323232
 20
306.485920
 30
0.0
  0
SPLINE
  5
26d
100
AcDbEntity
  8
0
 62
2
100
AcDbSpline
 70
8
 71
3
 72
8
 73
4
 74
0
 40
0
 40
0
 40
0
 40
0
 40
1
 40
1
 40
1
 40
1
 10
611.880474
 20
271.572932
 30
0.0
 10
611.880474
 20
249.284297
 30
0.0
 10
593.811969
 20
231.215792
 30
0.0
 10
571.523334
 20
231.215792
 30
0.0
  0
SPLINE
  5
26e
100
AcDbEntity
  8
0
 62
2
100
AcDbSpline
 70
8
 71
3
 72
8
 73
4
 74
0
 40
0
 40
0
 40
0
 40
0
 40
1
 40
1
 40
1
 40
1
 10
571.523334
 20
231.215792
 30
0.0
 10
549.234699
 20
231.215792
 30
0.0
 10
531.166194
 20
249.284297
 30
0.0
 10
531.166194
 20
271.572932
 30
0.0
  0
SPLINE
  5
26f
100
AcDbEntity
  8
0
 62
2
100
AcDbSpline
 70
8
 71
3
 72
8
 73
4
 74
0
 40
0
 40
0
 40
0
 40
0
 40
1
 40
1
 40
1
 40
1
 10
531.166194
 20
271.572932
 30
0.0
 10
531.166194
 20
293.861560
 30
0.0
 10
549.234699
 20
311.930065
 30
0.0
 10
571.523334
 20
311.930065
 30
0.0
  0
SPLINE
  5
270
100
AcDbEntity
  8
0
 62
2
100
AcDbSpline
 70
8
 71
3
 72
8
 73
4
 74
0
 40
0
 40
0
 40
0
 40
0
 40
1
 40
1
 40
1
 40
1
 10
571.523334
 20
311.930065
 30
0.0
 10
593.811969
 20
311.930065
 30
0.0
 10
611.880474
 20
293.861560
 30
0.0
 10
611.880474
 20
271.572932
 30
0.0
  0
LWPOLYLINE
  5
271
100
AcDbEntity
  8
0
 62
2
100
AcDbPolyline
 90
1
 70
1
 10
490.809077
 20
271.498307
 30
0.0
  0
SPLINE
  5
272
100
AcDbEntity
  8
0
 62
2
100
AcDbSpline
 70
8
 71
3
 72
8
 73
4
 74
0
 40
0
 40
0
 40
0
 40
0
 40
1
 40
1
 40
1
 40
1
 10
611.837386
 20
341.473532
 30
0.0
 10
611.837386
 20
319.184897
 30
0.0
 10
593.768882
 20
301.116392
 30
0.0
 10
571.480254
 20
301.116392
 30
0.0
  0
SPLINE
  5
273
100
AcDbEntity
  8
0
 62
2
100
AcDbSpline
 70
8
 71
3
 72
8
 73
4
 74
0
 40
0
 40
0
 40
0
 40
0
 40
1
 40
1
 40
1
 40
1
 10
571.480254
 20
301.116392
 30
0.0
 10
549.191619
 20
301.116392
 30
0.0
 10
531.123114
 20
319.184897
 30
0.0
 10
531.123114
 20
341.473532
 30
0.0
  0
SPLINE
  5
274
100
AcDbEntity
  8
0
 62
2
100
AcDbSpline
 70
8
 71
3
 72
8
 73
4
 74
0
 40
0
 40
0
 40
0
 40
0
 40
1
 40
1
 40
1
 40
1
 10
531.123114
 20
341.473532
 30
0.0
 10
531.123114
 20
363.762160
 30
0.0
 10
549.191619
 20
381.830672
 30
0.0
 10
571.480254
 20
381.830672
 30
0.0
  0
SPLINE
  5
275
100
AcDbEntity
  8
0
 62
2
100
AcDbSpline
 70
8
 71
3
 72
8
 73
4
 74
0
 40
0
 40
0
 40
0
 40
0
 40
1
 40
1
 40
1
 40
1
 10
571.480254
 20
381.830672
 30
0.0
 10
593.768881
 20
381.830672
 30
0.0
 10
611.837386
 20
363.762160
 30
0.0
 10
611.837386
 20
341.473532
 30
0.0
  0
LWPOLYLINE
  5
276
100
AcDbEntity
  8
0
 62
2
100
AcDbPolyline
 90
1
 70
1
 10
611.880474
 20
271.572932
 30
0.0
  0
SPLINE
  5
277
100
AcDbEntity
  8
0
 62
2
100
AcDbSpline
 70
8
 71
3
 72
8
 73
4
 74
0
 40
0
 40
0
 40
0
 40
0
 40
1
 40
1
 40
1
 40
1
 10
611.794306
 20
411.374132
 30
0.0
 10
611.794306
 20
389.085497
 30
0.0
 10
593.725801
 20
371.016992
 30
0.0
 10
571.437166
 20
371.016992
 30
0.0
  0
SPLINE
  5
278
100
AcDbEntity
  8
0
 62
2
100
AcDbSpline
 70
8
 71
3
 72
8
 73
4
 74
0
 40
0
 40
0
 40
0
 40
0
 40
1
 40
1
 40
1
 40
1
 10
571.437166
 20
371.016992
 30
0.0
 10
549.148539
 20
371.016992
 30
0.0
 10
531.080027
 20
389.085497
 30
0.0
 10
531.080027
 20
411.374132
 30
0.0
  0
SPLINE
  5
279
100
AcDbEntity
  8
0
 62
2
100
AcDbSpline
 70
8
 71
3
 72
8
 73
4
 74
0
 40
0
 40
0
 40
0
 40
0
 40
1
 40
1
 40
1
 40
1
 10
531.080027
 20
411.374132
 30
0.0
 10
531.080027
 20
433.662760
 30
0.0
 10
549.148539
 20
451.731272
 30
0.0
 10
571.437166
 20
451.731272
 30
0.0
  0
SPLINE
  5
27a
100
AcDbEntity
  8
0
 62
2
100
AcDbSpline
 70
8
 71
3
 72
8
 73
4
 74
0
 40
0
 40
0
 40
0
 40
0
 40
1
 40
1
 40
1
 40
1
 10
571.437166
 20
451.731272
 30
0.0
 10
593.725801
 20
451.731272
 30
0.0
 10
611.794306
 20
433.662760
 30
0.0
 10
611.794306
 20
411.374132
 30
0.0
  0
LWPOLYLINE
  5
27b
100
AcDbEntity
  8
0
 62
2
100
AcDbPolyline
 90
1
 70
1
 10
611.837386
 20
341.473532
 30
0.0
  0
SPLINE
  5
27c
100
AcDbEntity
  8
0
 62
1
100
AcDbSpline
 70
8
 71
3
 72
8
 73
4
 74
0
 40
0
 40
0
 40
0
 40
0
 40
1
 40
1
 40
1
 40
1
 10
478.579951
 20
446.262250
 30
0.0
 10
478.579951
 20
441.812402
 30
0.0
 10
474.972639
 20
438.205097
 30
0.0
 10
470.522799
 20
438.205097
 30
0.0
  0
SPLINE
  5
27d
100
AcDbEntity
  8
0
 62
1
100
AcDbSpline
 70
8
 71
3
 72
8
 73
4
 74
0
 40
0
 40
0
 40
0
 40
0
 40
1
 40
1
 40
1
 40
1
 10
470.522799
 20
438.205097
 30
0.0
 10
466.072959
 20
438.205097
 30
0.0
 10
462.465646
 20
441.812402
 30
0.0
 10
462.465646
 20
446.262250
 30
0.0
  0
SPLINE
  5
27e
100
AcDbEntity
  8
0
 62
1
100
AcDbSpline
 70
8
 71
3
 72
8
 73
4
 74
0
 40
0
 40
0
 40
0
 40
0
 40
1
 40
1
 40
1
 40
1
 10
462.465646
 20
446.262250
 30
0.0
 10
462.465646
 20
450.712090
 30
0.0
 10
466.072959
 20
454.319402
 30
0.0
 10
470.522799
 20
454.319402
 30
0.0
  0
SPLINE
  5
27f
100
AcDbEntity
  8
0
 62
1
100
AcDbSpline
 70
8
 71
3
 72
8
 73
4
 74
0
 40
0
 40
0
 40
0
 40
0
 40
1
 40
1
 40
1
 40
1
 10
470.522799
 20
454.319402
 30
0.0
 10
474.972639
 20
454.319402
 30
0.0
 10
478.579951
 20
450.712090
 30
0.0
 10
478.579951
 20
446.262250
 30
0.0
  0
LWPOLYLINE
  5
280
100
AcDbEntity
  8
0
 62
2
100
AcDbPolyline
 90
1
 70
1
 10
611.794306
 20
411.374132
 30
0.0
  0
SPLINE
  5
281
100
AcDbEntity
  8
0
 62
1
100
AcDbSpline
 70
8
 71
3
 72
8
 73
4
 74
0
 40
0
 40
0
 40
0
 40
0
 40
1
 40
1
 40
1
 40
1
 10
438.265907
 20
376.336772
 30
0.0
 10
438.265907
 20
371.886932
 30
0.0
 10
434.658594
 20
368.279620
 30
0.0
 10
430.208754
 20
368.279620
 30
0.0
  0
SPLINE
  5
282
100
AcDbEntity
  8
0
 62
1
100
AcDbSpline
 70
8
 71
3
 72
8
 73
4
 74
0
 40
0
 40
0
 40
0
 40
0
 40
1
 40
1
 40
1
 40
1
 10
430.208754
 20
368.279620
 30
0.0
 10
425.758907
 20
368.279620
 30
0.0
 10
422.151602
 20
371.886932
 30
0.0
 10
422.151602
 20
376.336772
 30
0.0
  0
SPLINE
  5
283
100
AcDbEntity
  8
0
 62
1
100
AcDbSpline
 70
8
 71
3
 72
8
 73
4
 74
0
 40
0
 40
0
 40
0
 40
0
 40
1
 40
1
 40
1
 40
1
 10
422.151602
 20
376.336772
 30
0.0
 10
422.151602
 20
380.786612
 30
0.0
 10
425.758907
 20
384.393925
 30
0.0
 10
430.208754
 20
384.393925
 30
0.0
  0
SPLINE
  5
284
100
AcDbEntity
  8
0
 62
1
100
AcDbSpline
 70
8
 71
3
 72
8
 73
4
 74
0
 40
0
 40
0
 40
0
 40
0
 40
1
 40
1
 40
1
 40
1
 10
430.208754
 20
384.393925
 30
0.0
 10
434.658594
 20
384.393925
 30
0.0
 10
438.265907
 20
380.786612
 30
0.0
 10
438.265907
 20
376.336772
 30
0.0
  0
LWPOLYLINE
  5
285
100
AcDbEntity
  8
0
 62
1
100
AcDbPolyline
 90
1
 70
1
 10
478.579951
 20
446.262250
 30
0.0
  0
SPLINE
  5
286
100
AcDbEntity
  8
0
 62
1
100
AcDbSpline
 70
8
 71
3
 72
8
 73
4
 74
0
 40
0
 40
0
 40
0
 40
0
 40
1
 40
1
 40
1
 40
1
 10
397.865694
 20
446.212502
 30
0.0
 10
397.865694
 20
441.762655
 30
0.0
 10
394.258381
 20
438.155350
 30
0.0
 10
389.808541
 20
438.155350
 30
0.0
  0
SPLINE
  5
287
100
AcDbEntity
  8
0
 62
1
100
AcDbSpline
 70
8
 71
3
 72
8
 73
4
 74
0
 40
0
 40
0
 40
0
 40
0
 40
1
 40
1
 40
1
 40
1
 10
389.808541
 20
438.155350
 30
0.0
 10
385.358694
 20
438.155350
 30
0.0
 10
381.751389
 20
441.762655
 30
0.0
 10
381.751389
 20
446.212502
 30
0.0
  0
SPLINE
  5
288
100
AcDbEntity
  8
0
 62
1
100
AcDbSpline
 70
8
 71
3
 72
8
 73
4
 74
0
 40
0
 40
0
 40
0
 40
0
 40
1
 40
1
 40
1
 40
1
 10
381.751389
 20
446.212502
 30
0.0
 10
381.751389
 20
450.662342
 30
0.0
 10
385.358694
 20
454.269655
 30
0.0
 10
389.808541
 20
454.269655
 30
0.0
  0
SPLINE
  5
289
100
AcDbEntity
  8
0
 62
1
100
AcDbSpline
 70
8
 71
3
 72
8
 73
4
 74
0
 40
0
 40
0
 40
0
 40
0
 40
1
 40
1
 40
1
 40
1
 10
389.808541
 20
454.269655
 30
0.0
 10
394.258381
 20
454.269655
 30
0.0
 10
397.865694
 20
450.662342
 30
0.0
 10
397.865694
 20
446.212502
 30
0.0
  0
LWPOLYLINE
  5
28a
100
AcDbEntity
  8
0
 62
1
100
AcDbPolyline
 90
1
 70
1
 10
438.265907
 20
376.336772
 30
0.0
  0
SPLINE
  5
28b
100
AcDbEntity
  8
0
 62
1
100
AcDbSpline
 70
8
 71
3
 72
8
 73
4
 74
0
 40
0
 40
0
 40
0
 40
0
 40
1
 40
1
 40
1
 40
1
 10
357.551641
 20
376.287025
 30
0.0
 10
357.551641
 20
371.837185
 30
0.0
 10
353.944329
 20
368.229872
 30
0.0
 10
349.494489
 20
368.229872
 30
0.0
  0
SPLINE
  5
28c
100
AcDbEntity
  8
0
 62
1
100
AcDbSpline
 70
8
 71
3
 72
8
 73
4
 74
0
 40
0
 40
0
 40
0
 40
0
 40
1
 40
1
 40
1
 40
1
 10
349.494489
 20
368.229872
 30
0.0
 10
345.044649
 20
368.229872
 30
0.0
 10
341.437337
 20
371.837185
 30
0.0
 10
341.437337
 20
376.287025
 30
0.0
  0
SPLINE
  5
28d
100
AcDbEntity
  8
0
 62
1
100
AcDbSpline
 70
8
 71
3
 72
8
 73
4
 74
0
 40
0
 40
0
 40
0
 40
0
 40
1
 40
1
 40
1
 40
1
 10
341.437337
 20
376.287025
 30
0.0
 10
341.437337
 20
380.736865
 30
0.0
 10
345.044649
 20
384.344177
 30
0.0
 10
349.494489
 20
384.344177
 30
0.0
  0
SPLINE
  5
28e
100
AcDbEntity
  8
0
 62
1
100
AcDbSpline
 70
8
 71
3
 72
8
 73
4
 74
0
 40
0
 40
0
 40
0
 40
0
 40
1
 40
1
 40
1
 40
1
 10
349.494489
 20
384.344177
 30
0.0
 10
353.944329
 20
384.344177
 30
0.0
 10
357.551641
 20
380.736865
 30
0.0
 10
357.551641
 20
376.287025
 30
0.0
  0
LWPOLYLINE
  5
28f
100
AcDbEntity
  8
0
 62
1
100
AcDbPolyline
 90
1
 70
1
 10
397.865694
 20
446.212502
 30
0.0
  0
SPLINE
  5
290
100
AcDbEntity
  8
0
 62
1
100
AcDbSpline
 70
8
 71
3
 72
8
 73
4
 74
0
 40
0
 40
0
 40
0
 40
0
 40
1
 40
1
 40
1
 40
1
 10
397.951854
 20
306.411295
 30
0.0
 10
397.951854
 20
301.961455
 30
0.0
 10
394.344549
 20
298.354142
 30
0.0
 10
389.894701
 20
298.354142
 30
0.0
  0
SPLINE
  5
291
100
AcDbEntity
  8
0
 62
1
100
AcDbSpline
 70
8
 71
3
 72
8
 73
4
 74
0
 40
0
 40
0
 40
0
 40
0
 40
1
 40
1
 40
1
 40
1
 10
389.894701
 20
298.354142
 30
0.0
 10
385.444862
 20
298.354142
 30
0.0
 10
381.837549
 20
301.961455
 30
0.0
 10
381.837549
 20
306.411295
 30
0.0
  0
SPLINE
  5
292
100
AcDbEntity
  8
0
 62
1
100
AcDbSpline
 70
8
 71
3
 72
8
 73
4
 74
0
 40
0
 40
0
 40
0
 40
0
 40
1
 40
1
 40
1
 40
1
 10
381.837549
 20
306.411295
 30
0.0
 10
381.837549
 20
310.861142
 30
0.0
 10
385.444862
 20
314.468447
 30
0.0
 10
389.894701
 20
314.468447
 30
0.0
  0
SPLINE
  5
293
100
AcDbEntity
  8
0
 62
1
100
AcDbSpline
 70
8
 71
3
 72
8
 73
4
 74
0
 40
0
 40
0
 40
0
 40
0
 40
1
 40
1
 40
1
 40
1
 10
389.894701
 20
314.468447
 30
0.0
 10
394.344549
 20
314.468447
 30
0.0
 10
397.951854
 20
310.861142
 30
0.0
 10
397.951854
 20
306.411295
 30
0.0
  0
LWPOLYLINE
  5
294
100
AcDbEntity
  8
0
 62
1
100
AcDbPolyline
 90
1
 70
1
 10
357.551641
 20
376.287025
 30
0.0
  0
SPLINE
  5
295
100
AcDbEntity
  8
0
 62
1
100
AcDbSpline
 70
8
 71
3
 72
8
 73
4
 74
0
 40
0
 40
0
 40
0
 40
0
 40
1
 40
1
 40
1
 40
1
 10
478.666119
 20
306.461042
 30
0.0
 10
478.666119
 20
302.011202
 30
0.0
 10
475.058806
 20
298.403890
 30
0.0
 10
470.608966
 20
298.403890
 30
0.0
  0
SPLINE
  5
296
100
AcDbEntity
  8
0
 62
1
100
AcDbSpline
 70
8
 71
3
 72
8
 73
4
 74
0
 40
0
 40
0
 40
0
 40
0
 40
1
 40
1
 40
1
 40
1
 10
470.608966
 20
298.403890
 30
0.0
 10
466.159119
 20
298.403890
 30
0.0
 10
462.551814
 20
302.011202
 30
0.0
 10
462.551814
 20
306.461042
 30
0.0
  0
SPLINE
  5
297
100
AcDbEntity
  8
0
 62
1
100
AcDbSpline
 70
8
 71
3
 72
8
 73
4
 74
0
 40
0
 40
0
 40
0
 40
0
 40
1
 40
1
 40
1
 40
1
 10
462.551814
 20
306.461042
 30
0.0
 10
462.551814
 20
310.910890
 30
0.0
 10
466.159119
 20
314.518195
 30
0.0
 10
470.608966
 20
314.518195
 30
0.0
  0
SPLINE
  5
298
100
AcDbEntity
  8
0
 62
1
100
AcDbSpline
 70
8
 71
3
 72
8
 73
4
 74
0
 40
0
 40
0
 40
0
 40
0
 40
1
 40
1
 40
1
 40
1
 10
470.608966
 20
314.518195
 30
0.0
 10
475.058806
 20
314.518195
 30
0.0
 10
478.666119
 20
310.910890
 30
0.0
 10
478.666119
 20
306.461042
 30
0.0
  0
LWPOLYLINE
  5
299
100
AcDbEntity
  8
0
 62
1
100
AcDbPolyline
 90
1
 70
1
 10
397.951854
 20
306.411295
 30
0.0
  0
SPLINE
  5
29a
100
AcDbEntity
  8
0
 62
1
100
AcDbSpline
 70
8
 71
3
 72
8
 73
4
 74
0
 40
0
 40
0
 40
0
 40
0
 40
1
 40
1
 40
1
 40
1
 10
518.980164
 20
376.386520
 30
0.0
 10
518.980164
 20
371.936680
 30
0.0
 10
515.372859
 20
368.329367
 30
0.0
 10
510.923011
 20
368.329367
 30
0.0
  0
SPLINE
  5
29b
100
AcDbEntity
  8
0
 62
1
100
AcDbSpline
 70
8
 71
3
 72
8
 73
4
 74
0
 40
0
 40
0
 40
0
 40
0
 40
1
 40
1
 40
1
 40
1
 10
510.923011
 20
368.329367
 30
0.0
 10
506.473171
 20
368.329367
 30
0.0
 10
502.865859
 20
371.936680
 30
0.0
 10
502.865859
 20
376.386520
 30
0.0
  0
SPLINE
  5
29c
100
AcDbEntity
  8
0
 62
1
100
AcDbSpline
 70
8
 71
3
 72
8
 73
4
 74
0
 40
0
 40
0
 40
0
 40
0
 40
1
 40
1
 40
1
 40
1
 10
502.865859
 20
376.386520
 30
0.0
 10
502.865859
 20
380.836360
 30
0.0
 10
506.473171
 20
384.443672
 30
0.0
 10
510.923011
 20
384.443672
 30
0.0
  0
SPLINE
  5
29d
100
AcDbEntity
  8
0
 62
1
100
AcDbSpline
 70
8
 71
3
 72
8
 73
4
 74
0
 40
0
 40
0
 40
0
 40
0
 40
1
 40
1
 40
1
 40
1
 10
510.923011
 20
384.443672
 30
0.0
 10
515.372859
 20
384.443672
 30
0.0
 10
518.980164
 20
380.836360
 30
0.0
 10
518.980164
 20
376.386520
 30
0.0
  0
LWPOLYLINE
  5
29e
100
AcDbEntity
  8
0
 62
1
100
AcDbPolyline
 90
1
 70
1
 10
478.666119
 20
306.461042
 30
0.0
  0
SPLINE
  5
29f
100
AcDbEntity
  8
0
 62
1
100
AcDbSpline
 70
8
 71
3
 72
8
 73
4
 74
0
 40
0
 40
0
 40
0
 40
0
 40
1
 40
1
 40
1
 40
1
 10
317.151429
 20
446.162755
 30
0.0
 10
317.151429
 20
441.712907
 30
0.0
 10
313.544116
 20
438.105602
 30
0.0
 10
309.094277
 20
438.105602
 30
0.0
  0
SPLINE
  5
2a0
100
AcDbEntity
  8
0
 62
1
100
AcDbSpline
 70
8
 71
3
 72
8
 73
4
 74
0
 40
0
 40
0
 40
0
 40
0
 40
1
 40
1
 40
1
 40
1
 10
309.094277
 20
438.105602
 30
0.0
 10
304.644437
 20
438.105602
 30
0.0
 10
301.037124
 20
441.712907
 30
0.0
 10
301.037124
 20
446.162755
 30
0.0
  0
SPLINE
  5
2a1
100
AcDbEntity
  8
0
 62
1
100
AcDbSpline
 70
8
 71
3
 72
8
 73
4
 74
0
 40
0
 40
0
 40
0
 40
0
 40
1
 40
1
 40
1
 40
1
 10
301.037124
 20
446.162755
 30
0.0
 10
301.037124
 20
450.612595
 30
0.0
 10
304.644437
 20
454.219907
 30
0.0
 10
309.094277
 20
454.219907
 30
0.0
  0
SPLINE
  5
2a2
100
AcDbEntity
  8
0
 62
1
100
AcDbSpline
 70
8
 71
3
 72
8
 73
4
 74
0
 40
0
 40
0
 40
0
 40
0
 40
1
 40
1
 40
1
 40
1
 10
309.094277
 20
454.219907
 30
0.0
 10
313.544116
 20
454.219907
 30
0.0
 10
317.151429
 20
450.612595
 30
0.0
 10
317.151429
 20
446.162755
 30
0.0
  0
LWPOLYLINE
  5
2a3
100
AcDbEntity
  8
0
 62
1
100
AcDbPolyline
 90
1
 70
1
 10
518.980164
 20
376.386520
 30
0.0
  0
SPLINE
  5
2a4
100
AcDbEntity
  8
0
 62
1
100
AcDbSpline
 70
8
 71
3
 72
8
 73
4
 74
0
 40
0
 40
0
 40
0
 40
0
 40
1
 40
1
 40
1
 40
1
 10
317.237596
 20
306.361547
 30
0.0
 10
317.237596
 20
301.911707
 30
0.0
 10
313.630284
 20
298.304395
 30
0.0
 10
309.180444
 20
298.304395
 30
0.0
  0
SPLINE
  5
2a5
100
AcDbEntity
  8
0
 62
1
100
AcDbSpline
 70
8
 71
3
 72
8
 73
4
 74
0
 40
0
 40
0
 40
0
 40
0
 40
1
 40
1
 40
1
 40
1
 10
309.180444
 20
298.304395
 30
0.0
 10
304.730597
 20
298.304395
 30
0.0
 10
301.123292
 20
301.911707
 30
0.0
 10
301.123292
 20
306.361547
 30
0.0
  0
SPLINE
  5
2a6
100
AcDbEntity
  8
0
 62
1
100
AcDbSpline
 70
8
 71
3
 72
8
 73
4
 74
0
 40
0
 40
0
 40
0
 40
0
 40
1
 40
1
 40
1
 40
1
 10
301.123292
 20
306.361547
 30
0.0
 10
301.123292
 20
310.811395
 30
0.0
 10
304.730597
 20
314.418700
 30
0.0
 10
309.180444
 20
314.418700
 30
0.0
  0
SPLINE
  5
2a7
100
AcDbEntity
  8
0
 62
1
100
AcDbSpline
 70
8
 71
3
 72
8
 73
4
 74
0
 40
0
 40
0
 40
0
 40
0
 40
1
 40
1
 40
1
 40
1
 10
309.180444
 20
314.418700
 30
0.0
 10
313.630284
 20
314.418700
 30
0.0
 10
317.237596
 20
310.811395
 30
0.0
 10
317.237596
 20
306.361547
 30
0.0
  0
LWPOLYLINE
  5
2a8
100
AcDbEntity
  8
0
 62
1
100
AcDbPolyline
 90
1
 70
1
 10
317.151429
 20
446.162755
 30
0.0
  0
SPLINE
  5
2a9
100
AcDbEntity
  8
0
 62
1
100
AcDbSpline
 70
8
 71
3
 72
8
 73
4
 74
0
 40
0
 40
0
 40
0
 40
0
 40
1
 40
1
 40
1
 40
1
 10
559.380377
 20
306.510790
 30
0.0
 10
559.380377
 20
302.060950
 30
0.0
 10
555.773071
 20
298.453637
 30
0.0
 10
551.323224
 20
298.453637
 30
0.0
  0
SPLINE
  5
2aa
100
AcDbEntity
  8
0
 62
1
100
AcDbSpline
 70
8
 71
3
 72
8
 73
4
 74
0
 40
0
 40
0
 40
0
 40
0
 40
1
 40
1
 40
1
 40
1
 10
551.323224
 20
298.453637
 30
0.0
 10
546.873384
 20
298.453637
 30
0.0
 10
543.266071
 20
302.060950
 30
0.0
 10
543.266071
 20
306.510790
 30
0.0
  0
SPLINE
  5
2ab
100
AcDbEntity
  8
0
 62
1
100
AcDbSpline
 70
8
 71
3
 72
8
 73
4
 74
0
 40
0
 40
0
 40
0
 40
0
 40
1
 40
1
 40
1
 40
1
 10
543.266071
 20
306.510790
 30
0.0
 10
543.266071
 20
310.960637
 30
0.0
 10
546.873384
 20
314.567942
 30
0.0
 10
551.323224
 20
314.567942
 30
0.0
  0
SPLINE
  5
2ac
100
AcDbEntity
  8
0
 62
1
100
AcDbSpline
 70
8
 71
3
 72
8
 73
4
 74
0
 40
0
 40
0
 40
0
 40
0
 40
1
 40
1
 40
1
 40
1
 10
551.323224
 20
314.567942
 30
0.0
 10
555.773071
 20
314.567942
 30
0.0
 10
559.380377
 20
310.960637
 30
0.0
 10
559.380377
 20
306.510790
 30
0.0
  0
LWPOLYLINE
  5
2ad
100
AcDbEntity
  8
0
 62
1
100
AcDbPolyline
 90
1
 70
1
 10
317.237596
 20
306.361547
 30
0.0
  0
SPLINE
  5
2ae
100
AcDbEntity
  8
0
 62
1
100
AcDbSpline
 70
8
 71
3
 72
8
 73
4
 74
0
 40
0
 40
0
 40
0
 40
0
 40
1
 40
1
 40
1
 40
1
 10
559.294216
 20
446.311997
 30
0.0
 10
559.294216
 20
441.862150
 30
0.0
 10
555.686904
 20
438.254845
 30
0.0
 10
551.237064
 20
438.254845
 30
0.0
  0
SPLINE
  5
2af
100
AcDbEntity
  8
0
 62
1
100
AcDbSpline
 70
8
 71
3
 72
8
 73
4
 74
0
 40
0
 40
0
 40
0
 40
0
 40
1
 40
1
 40
1
 40
1
 10
551.237064
 20
438.254845
 30
0.0
 10
546.787216
 20
438.254845
 30
0.0
 10
543.179911
 20
441.862150
 30
0.0
 10
543.179911
 20
446.311997
 30
0.0
  0
SPLINE
  5
2b0
100
AcDbEntity
  8
0
 62
1
100
AcDbSpline
 70
8
 71
3
 72
8
 73
4
 74
0
 40
0
 40
0
 40
0
 40
0
 40
1
 40
1
 40
1
 40
1
 10
543.179911
 20
446.311997
 30
0.0
 10
543.179911
 20
450.761837
 30
0.0
 10
546.787216
 20
454.369150
 30
0.0
 10
551.237064
 20
454.369150
 30
0.0
  0
SPLINE
  5
2b1
100
AcDbEntity
  8
0
 62
1
100
AcDbSpline
 70
8
 71
3
 72
8
 73
4
 74
0
 40
0
 40
0
 40
0
 40
0
 40
1
 40
1
 40
1
 40
1
 10
551.237064
 20
454.369150
 30
0.0
 10
555.686904
 20
454.369150
 30
0.0
 10
559.294216
 20
450.761837
 30
0.0
 10
559.294216
 20
446.311997
 30
0.0
  0
LWPOLYLINE
  5
2b2
100
AcDbEntity
  8
0
 62
1
100
AcDbPolyline
 90
1
 70
1
 10
559.380377
 20
306.510790
 30
0.0
  0
LWPOLYLINE
  5
2b3
100
AcDbEntity
  8
0
 62
1
100
AcDbPolyline
 90
1
 70
1
 10
559.294216
 20
446.311997
 30
0.0
  0
ENDSEC
  0
SECTION
  2
OBJECTS
  0
DICTIONARY
  5
C
330
0
100
AcDbDictionary
  3
ACAD_GROUP
350
D
  3
ACAD_MLINESTYLE
350
17
  0
DICTIONARY
  5
D
330
C
100
AcDbDictionary
  0
DICTIONARY
  5
1A
330
C
100
AcDbDictionary
  0
DICTIONARY
  5
17
330
C
100
AcDbDictionary
  3
STANDARD
350
18
  0
DICTIONARY
  5
19
330
C
100
AcDbDictionary
  0
ENDSEC
  0
EOF
