  0
SECTION
  2
HEADER
  9
$ACADVER
  1
AC1014
  9
$HANDSEED
  5
FFFF
  9
$MEASUREMENT
 70
     1
  0
ENDSEC
  0
SECTION
  2
TABLES
  0
TABLE
  2
VPORT
  5
8
330
0
100
AcDbSymbolTable
 70
     4
  0
VPORT
  5
2E
330
8
100
AcDbSymbolTableRecord
100
AcDbViewportTableRecord
  2
*ACTIVE
 70
     0
 10
0.0
 20
0.0
 11
1.0
 21
1.0
 12
210.0
 22
148.5
 13
0.0
 23
0.0
 14
10.0
 24
10.0
 15
10.0
 25
10.0
 16
0.0
 26
0.0
 36
1.0
 17
0.0
 27
0.0
 37
0.0
 40
341.0
 41
1.24
 42
50.0
 43
0.0
 44
0.0
 50
0.0
 51
0.0
 71
     0
 72
   100
 73
     1
 74
     3
 75
     0
 76
     0
 77
     0
 78
     0
  0
ENDTAB
  0
TABLE
  2
LTYPE
  5
5
330
0
100
AcDbSymbolTable
 70
     1
  0
LTYPE
  5
14
330
5
100
AcDbSymbolTableRecord
100
AcDbLinetypeTableRecord
  2
BYBLOCK
 70
     0
  3

 72
    65
 73
     0
 40
0.0
  0
LTYPE
  5
15
330
5
100
AcDbSymbolTableRecord
100
AcDbLinetypeTableRecord
  2
BYLAYER
 70
     0
  3

 72
    65
 73
     0
 40
0.0
  0
LTYPE
  5
16
330
5
100
AcDbSymbolTableRecord
100
AcDbLinetypeTableRecord
  2
CONTINUOUS
 70
     0
  3
Solid line
 72
    65
 73
     0
 40
0.0
  0
ENDTAB
  0
TABLE
  2
LAYER
  5
2
100
AcDbSymbolTable
 70
1
  0
LAYER
  5
50
100
AcDbSymbolTableRecord
100
AcDbLayerTableRecord
  2
0
 70
0
  6
CONTINUOUS
  0
ENDTAB
  0
TABLE
  2
STYLE
  5
3
330
0
100
AcDbSymbolTable
 70
     1
  0
STYLE
  5
11
330
3
100
AcDbSymbolTableRecord
100
AcDbTextStyleTableRecord
  2
STANDARD
 70
     0
 40
0.0
 41
1.0
 50
0.0
 71
     0
 42
2.5
  3
txt
  4

  0
ENDTAB
  0
TABLE
  2
VIEW
  5
6
330
0
100
AcDbSymbolTable
 70
     0
  0
ENDTAB
  0
TABLE
  2
UCS
  5
7
330
0
100
AcDbSymbolTable
 70
     0
  0
ENDTAB
  0
TABLE
  2
APPID
  5
9
330
0
100
AcDbSymbolTable
 70
     2
  0
APPID
  5
12
330
9
100
AcDbSymbolTableRecord
100
AcDbRegAppTableRecord
  2
ACAD
 70
     0
  0
ENDTAB
  0
TABLE
  2
DIMSTYLE
  5
A
330
0
100
AcDbSymbolTable
 70
     1
  0
DIMSTYLE
105
27
330
A
100
AcDbSymbolTableRecord
100
AcDbDimStyleTableRecord
  2
ISO-25
 70
     0
  3

  4

  5

  6

  7

 40
1.0
 41
2.5
 42
0.625
 43
3.75
 44
1.25
 45
0.0
 46
0.0
 47
0.0
 48
0.0
140
2.5
141
2.5
142
0.0
143
0.03937007874016
144
1.0
145
0.0
146
1.0
147
0.625
 71
     0
 72
     0
 73
     0
 74
     0
 75
     0
 76
     0
 77
     1
 78
     8
170
     0
171
     3
172
     1
173
     0
174
     0
175
     0
176
     0
177
     0
178
     0
270
     2
271
     2
272
     2
273
     2
274
     3
340
11
275
     0
280
     0
281
     0
282
     0
283
     0
284
     8
285
     0
286
     0
287
     3
288
     0
  0
ENDTAB
  0
TABLE
  2
BLOCK_RECORD
  5
1
330
0
100
AcDbSymbolTable
 70
     1
  0
BLOCK_RECORD
  5
1F
330
1
100
AcDbSymbolTableRecord
100
AcDbBlockTableRecord
  2
*MODEL_SPACE
  0
BLOCK_RECORD
  5
1B
330
1
100
AcDbSymbolTableRecord
100
AcDbBlockTableRecord
  2
*PAPER_SPACE
  0
ENDTAB
  0
ENDSEC
  0
SECTION
  2
BLOCKS
  0
BLOCK
  5
20
330
1F
100
AcDbEntity
  8
0
100
AcDbBlockBegin
  2
*MODEL_SPACE
 70
     0
 10
0.0
 20
0.0
 30
0.0
  3
*MODEL_SPACE
  1

  0
ENDBLK
  5
21
330
1F
100
AcDbEntity
  8
0
100
AcDbBlockEnd
  0
BLOCK
  5
1C
330
1B
100
AcDbEntity
 67
     1
  8
0
100
AcDbBlockBegin
  2
*PAPER_SPACE
  1

  0
ENDBLK
  5
1D
330
1B
100
AcDbEntity
 67
     1
  8
0
100
AcDbBlockEnd
  0
ENDSEC
  0
SECTION
  2
ENTITIES
  0
SPLINE
  5
100
100
AcDbEntity
  8
0
 62
7
100
AcDbSpline
 70
8
 71
3
 72
8
 73
4
 74
0
 40
0
 40
0
 40
0
 40
0
 40
1
 40
1
 40
1
 40
1
 10
570.823079
 20
461.439064
 30
0.0
 10
570.823079
 20
392.940266
 30
0.0
 10
515.293831
 20
337.411018
 30
0.0
 10
446.795033
 20
337.411018
 30
0.0
  0
SPLINE
  5
101
100
AcDbEntity
  8
0
 62
7
100
AcDbSpline
 70
8
 71
3
 72
8
 73
4
 74
0
 40
0
 40
0
 40
0
 40
0
 40
1
 40
1
 40
1
 40
1
 10
446.795033
 20
337.411018
 30
0.0
 10
378.296235
 20
337.411018
 30
0.0
 10
322.766988
 20
392.940266
 30
0.0
 10
322.766988
 20
461.439064
 30
0.0
  0
SPLINE
  5
102
100
AcDbEntity
  8
0
 62
7
100
AcDbSpline
 70
8
 71
3
 72
8
 73
4
 74
0
 40
0
 40
0
 40
0
 40
0
 40
1
 40
1
 40
1
 40
1
 10
322.766988
 20
461.439064
 30
0.0
 10
322.766988
 20
529.937862
 30
0.0
 10
378.296235
 20
585.467109
 30
0.0
 10
446.795033
 20
585.467109
 30
0.0
  0
SPLINE
  5
103
100
AcDbEntity
  8
0
 62
7
100
AcDbSpline
 70
8
 71
3
 72
8
 73
4
 74
0
 40
0
 40
0
 40
0
 40
0
 40
1
 40
1
 40
1
 40
1
 10
446.795033
 20
585.467109
 30
0.0
 10
515.293831
 20
585.467109
 30
0.0
 10
570.823079
 20
529.937862
 30
0.0
 10
570.823079
 20
461.439064
 30
0.0
  0
LWPOLYLINE
  5
104
100
AcDbEntity
  8
0
 62
7
100
AcDbPolyline
 90
4
 70
1
 10
0.000000
 20
733.500000
 30
0.0
 10
1143.000000
 20
733.500000
 30
0.0
 10
1143.000000
 20
0.000000
 30
0.0
 10
0.000000
 20
0.000000
 30
0.0
  0
SPLINE
  5
105
100
AcDbEntity
  8
0
 62
7
100
AcDbSpline
 70
8
 71
3
 72
8
 73
4
 74
0
 40
0
 40
0
 40
0
 40
0
 40
1
 40
1
 40
1
 40
1
 10
446.795033
 20
461.439064
 30
0.0
 10
446.795033
 20
392.940266
 30
0.0
 10
391.265786
 20
337.411018
 30
0.0
 10
322.766988
 20
337.411018
 30
0.0
  0
SPLINE
  5
106
100
AcDbEntity
  8
0
 62
7
100
AcDbSpline
 70
8
 71
3
 72
8
 73
4
 74
0
 40
0
 40
0
 40
0
 40
0
 40
1
 40
1
 40
1
 40
1
 10
322.766988
 20
337.411018
 30
0.0
 10
254.268190
 20
337.411018
 30
0.0
 10
198.738942
 20
392.940266
 30
0.0
 10
198.738942
 20
461.439064
 30
0.0
  0
SPLINE
  5
107
100
AcDbEntity
  8
0
 62
7
100
AcDbSpline
 70
8
 71
3
 72
8
 73
4
 74
0
 40
0
 40
0
 40
0
 40
0
 40
1
 40
1
 40
1
 40
1
 10
198.738942
 20
461.439064
 30
0.0
 10
198.738942
 20
529.937862
 30
0.0
 10
254.268190
 20
585.467109
 30
0.0
 10
322.766988
 20
585.467109
 30
0.0
  0
SPLINE
  5
108
100
AcDbEntity
  8
0
 62
7
100
AcDbSpline
 70
8
 71
3
 72
8
 73
4
 74
0
 40
0
 40
0
 40
0
 40
0
 40
1
 40
1
 40
1
 40
1
 10
322.766988
 20
585.467109
 30
0.0
 10
391.265786
 20
585.467109
 30
0.0
 10
446.795033
 20
529.937862
 30
0.0
 10
446.795033
 20
461.439064
 30
0.0
  0
LWPOLYLINE
  5
109
100
AcDbEntity
  8
0
 62
7
100
AcDbPolyline
 90
1
 70
1
 10
570.823079
 20
461.439064
 30
0.0
  0
SPLINE
  5
10a
100
AcDbEntity
  8
0
 62
7
100
AcDbSpline
 70
8
 71
3
 72
8
 73
4
 74
0
 40
0
 40
0
 40
0
 40
0
 40
1
 40
1
 40
1
 40
1
 10
508.809056
 20
354.027626
 30
0.0
 10
508.809056
 20
285.528828
 30
0.0
 10
453.279809
 20
229.999580
 30
0.0
 10
384.781011
 20
229.999580
 30
0.0
  0
SPLINE
  5
10b
100
AcDbEntity
  8
0
 62
7
100
AcDbSpline
 70
8
 71
3
 72
8
 73
4
 74
0
 40
0
 40
0
 40
0
 40
0
 40
1
 40
1
 40
1
 40
1
 10
384.781011
 20
229.999580
 30
0.0
 10
316.282212
 20
229.999580
 30
0.0
 10
260.752965
 20
285.528828
 30
0.0
 10
260.752965
 20
354.027626
 30
0.0
  0
SPLINE
  5
10c
100
AcDbEntity
  8
0
 62
7
100
AcDbSpline
 70
8
 71
3
 72
8
 73
4
 74
0
 40
0
 40
0
 40
0
 40
0
 40
1
 40
1
 40
1
 40
1
 10
260.752965
 20
354.027626
 30
0.0
 10
260.752965
 20
422.526424
 30
0.0
 10
316.282212
 20
478.055671
 30
0.0
 10
384.781011
 20
478.055671
 30
0.0
  0
SPLINE
  5
10d
100
AcDbEntity
  8
0
 62
7
100
AcDbSpline
 70
8
 71
3
 72
8
 73
4
 74
0
 40
0
 40
0
 40
0
 40
0
 40
1
 40
1
 40
1
 40
1
 10
384.781011
 20
478.055671
 30
0.0
 10
453.279809
 20
478.055671
 30
0.0
 10
508.809056
 20
422.526424
 30
0.0
 10
508.809056
 20
354.027626
 30
0.0
  0
LWPOLYLINE
  5
10e
100
AcDbEntity
  8
0
 62
7
100
AcDbPolyline
 90
1
 70
1
 10
446.795033
 20
461.439064
 30
0.0
  0
SPLINE
  5
10f
100
AcDbEntity
  8
0
 62
7
100
AcDbSpline
 70
8
 71
3
 72
8
 73
4
 74
0
 40
0
 40
0
 40
0
 40
0
 40
1
 40
1
 40
1
 40
1
 10
384.781011
 20
354.027626
 30
0.0
 10
384.781011
 20
285.528828
 30
0.0
 10
329.251763
 20
229.999580
 30
0.0
 10
260.752965
 20
229.999580
 30
0.0
  0
SPLINE
  5
110
100
AcDbEntity
  8
0
 62
7
100
AcDbSpline
 70
8
 71
3
 72
8
 73
4
 74
0
 40
0
 40
0
 40
0
 40
0
 40
1
 40
1
 40
1
 40
1
 10
260.752965
 20
229.999580
 30
0.0
 10
192.254167
 20
229.999580
 30
0.0
 10
136.724920
 20
285.528828
 30
0.0
 10
136.724920
 20
354.027626
 30
0.0
  0
SPLINE
  5
111
100
AcDbEntity
  8
0
 62
7
100
AcDbSpline
 70
8
 71
3
 72
8
 73
4
 74
0
 40
0
 40
0
 40
0
 40
0
 40
1
 40
1
 40
1
 40
1
 10
136.724920
 20
354.027626
 30
0.0
 10
136.724920
 20
422.526424
 30
0.0
 10
192.254167
 20
478.055671
 30
0.0
 10
260.752965
 20
478.055671
 30
0.0
  0
SPLINE
  5
112
100
AcDbEntity
  8
0
 62
7
100
AcDbSpline
 70
8
 71
3
 72
8
 73
4
 74
0
 40
0
 40
0
 40
0
 40
0
 40
1
 40
1
 40
1
 40
1
 10
260.752965
 20
478.055671
 30
0.0
 10
329.251763
 20
478.055671
 30
0.0
 10
384.781011
 20
422.526424
 30
0.0
 10
384.781011
 20
354.027626
 30
0.0
  0
LWPOLYLINE
  5
113
100
AcDbEntity
  8
0
 62
7
100
AcDbPolyline
 90
1
 70
1
 10
508.809056
 20
354.027626
 30
0.0
  0
SPLINE
  5
114
100
AcDbEntity
  8
0
 62
7
100
AcDbSpline
 70
8
 71
3
 72
8
 73
4
 74
0
 40
0
 40
0
 40
0
 40
0
 40
1
 40
1
 40
1
 40
1
 10
446.795033
 20
246.616187
 30
0.0
 10
446.795033
 20
178.117389
 30
0.0
 10
391.265786
 20
122.588142
 30
0.0
 10
322.766988
 20
122.588142
 30
0.0
  0
SPLINE
  5
115
100
AcDbEntity
  8
0
 62
7
100
AcDbSpline
 70
8
 71
3
 72
8
 73
4
 74
0
 40
0
 40
0
 40
0
 40
0
 40
1
 40
1
 40
1
 40
1
 10
322.766988
 20
122.588142
 30
0.0
 10
254.268190
 20
122.588142
 30
0.0
 10
198.738942
 20
178.117389
 30
0.0
 10
198.738942
 20
246.616187
 30
0.0
  0
SPLINE
  5
116
100
AcDbEntity
  8
0
 62
7
100
AcDbSpline
 70
8
 71
3
 72
8
 73
4
 74
0
 40
0
 40
0
 40
0
 40
0
 40
1
 40
1
 40
1
 40
1
 10
198.738942
 20
246.616187
 30
0.0
 10
198.738942
 20
315.114986
 30
0.0
 10
254.268190
 20
370.644233
 30
0.0
 10
322.766988
 20
370.644233
 30
0.0
  0
SPLINE
  5
117
100
AcDbEntity
  8
0
 62
7
100
AcDbSpline
 70
8
 71
3
 72
8
 73
4
 74
0
 40
0
 40
0
 40
0
 40
0
 40
1
 40
1
 40
1
 40
1
 10
322.766988
 20
370.644233
 30
0.0
 10
391.265786
 20
370.644233
 30
0.0
 10
446.795033
 20
315.114986
 30
0.0
 10
446.795033
 20
246.616187
 30
0.0
  0
LWPOLYLINE
  5
118
100
AcDbEntity
  8
0
 62
7
100
AcDbPolyline
 90
1
 70
1
 10
384.781011
 20
354.027626
 30
0.0
  0
SPLINE
  5
119
100
AcDbEntity
  8
0
 62
7
100
AcDbSpline
 70
8
 71
3
 72
8
 73
4
 74
0
 40
0
 40
0
 40
0
 40
0
 40
1
 40
1
 40
1
 40
1
 10
570.823079
 20
246.616187
 30
0.0
 10
570.823079
 20
178.117389
 30
0.0
 10
515.293831
 20
122.588142
 30
0.0
 10
446.795033
 20
122.588142
 30
0.0
  0
SPLINE
  5
11a
100
AcDbEntity
  8
0
 62
7
100
AcDbSpline
 70
8
 71
3
 72
8
 73
4
 74
0
 40
0
 40
0
 40
0
 40
0
 40
1
 40
1
 40
1
 40
1
 10
446.795033
 20
122.588142
 30
0.0
 10
378.296235
 20
122.588142
 30
0.0
 10
322.766988
 20
178.117389
 30
0.0
 10
322.766988
 20
246.616187
 30
0.0
  0
SPLINE
  5
11b
100
AcDbEntity
  8
0
 62
7
100
AcDbSpline
 70
8
 71
3
 72
8
 73
4
 74
0
 40
0
 40
0
 40
0
 40
0
 40
1
 40
1
 40
1
 40
1
 10
322.766988
 20
246.616187
 30
0.0
 10
322.766988
 20
315.114986
 30
0.0
 10
378.296235
 20
370.644233
 30
0.0
 10
446.795033
 20
370.644233
 30
0.0
  0
SPLINE
  5
11c
100
AcDbEntity
  8
0
 62
7
100
AcDbSpline
 70
8
 71
3
 72
8
 73
4
 74
0
 40
0
 40
0
 40
0
 40
0
 40
1
 40
1
 40
1
 40
1
 10
446.795033
 20
370.644233
 30
0.0
 10
515.293831
 20
370.644233
 30
0.0
 10
570.823079
 20
315.114986
 30
0.0
 10
570.823079
 20
246.616187
 30
0.0
  0
LWPOLYLINE
  5
11d
100
AcDbEntity
  8
0
 62
7
100
AcDbPolyline
 90
1
 70
1
 10
446.795033
 20
246.616187
 30
0.0
  0
SPLINE
  5
11e
100
AcDbEntity
  8
0
 62
7
100
AcDbSpline
 70
8
 71
3
 72
8
 73
4
 74
0
 40
0
 40
0
 40
0
 40
0
 40
1
 40
1
 40
1
 40
1
 10
322.766988
 20
246.616187
 30
0.0
 10
322.766988
 20
178.117389
 30
0.0
 10
267.237740
 20
122.588142
 30
0.0
 10
198.738942
 20
122.588142
 30
0.0
  0
SPLINE
  5
11f
100
AcDbEntity
  8
0
 62
7
100
AcDbSpline
 70
8
 71
3
 72
8
 73
4
 74
0
 40
0
 40
0
 40
0
 40
0
 40
1
 40
1
 40
1
 40
1
 10
198.738942
 20
122.588142
 30
0.0
 10
130.240144
 20
122.588142
 30
0.0
 10
74.710897
 20
178.117389
 30
0.0
 10
74.710897
 20
246.616187
 30
0.0
  0
SPLINE
  5
120
100
AcDbEntity
  8
0
 62
7
100
AcDbSpline
 70
8
 71
3
 72
8
 73
4
 74
0
 40
0
 40
0
 40
0
 40
0
 40
1
 40
1
 40
1
 40
1
 10
74.710897
 20
246.616187
 30
0.0
 10
74.710897
 20
315.114986
 30
0.0
 10
130.240144
 20
370.644233
 30
0.0
 10
198.738942
 20
370.644233
 30
0.0
  0
SPLINE
  5
121
100
AcDbEntity
  8
0
 62
7
100
AcDbSpline
 70
8
 71
3
 72
8
 73
4
 74
0
 40
0
 40
0
 40
0
 40
0
 40
1
 40
1
 40
1
 40
1
 10
198.738942
 20
370.644233
 30
0.0
 10
267.237740
 20
370.644233
 30
0.0
 10
322.766988
 20
315.114986
 30
0.0
 10
322.766988
 20
246.616187
 30
0.0
  0
LWPOLYLINE
  5
122
100
AcDbEntity
  8
0
 62
7
100
AcDbPolyline
 90
1
 70
1
 10
570.823079
 20
246.616187
 30
0.0
  0
SPLINE
  5
123
100
AcDbEntity
  8
0
 62
7
100
AcDbSpline
 70
8
 71
3
 72
8
 73
4
 74
0
 40
0
 40
0
 40
0
 40
0
 40
1
 40
1
 40
1
 40
1
 10
384.781011
 20
354.027626
 30
0.0
 10
384.781011
 20
285.528828
 30
0.0
 10
329.251763
 20
229.999580
 30
0.0
 10
260.752965
 20
229.999580
 30
0.0
  0
SPLINE
  5
124
100
AcDbEntity
  8
0
 62
7
100
AcDbSpline
 70
8
 71
3
 72
8
 73
4
 74
0
 40
0
 40
0
 40
0
 40
0
 40
1
 40
1
 40
1
 40
1
 10
260.752965
 20
229.999580
 30
0.0
 10
192.254167
 20
229.999580
 30
0.0
 10
136.724920
 20
285.528828
 30
0.0
 10
136.724920
 20
354.027626
 30
0.0
  0
SPLINE
  5
125
100
AcDbEntity
  8
0
 62
7
100
AcDbSpline
 70
8
 71
3
 72
8
 73
4
 74
0
 40
0
 40
0
 40
0
 40
0
 40
1
 40
1
 40
1
 40
1
 10
136.724920
 20
354.027626
 30
0.0
 10
136.724920
 20
422.526424
 30
0.0
 10
192.254167
 20
478.055671
 30
0.0
 10
260.752965
 20
478.055671
 30
0.0
  0
SPLINE
  5
126
100
AcDbEntity
  8
0
 62
7
100
AcDbSpline
 70
8
 71
3
 72
8
 73
4
 74
0
 40
0
 40
0
 40
0
 40
0
 40
1
 40
1
 40
1
 40
1
 10
260.752965
 20
478.055671
 30
0.0
 10
329.251763
 20
478.055671
 30
0.0
 10
384.781011
 20
422.526424
 30
0.0
 10
384.781011
 20
354.027626
 30
0.0
  0
LWPOLYLINE
  5
127
100
AcDbEntity
  8
0
 62
7
100
AcDbPolyline
 90
1
 70
1
 10
322.766988
 20
246.616187
 30
0.0
  0
SPLINE
  5
128
100
AcDbEntity
  8
0
 62
7
100
AcDbSpline
 70
8
 71
3
 72
8
 73
4
 74
0
 40
0
 40
0
 40
0
 40
0
 40
1
 40
1
 40
1
 40
1
 10
322.766988
 20
461.439064
 30
0.0
 10
322.766988
 20
392.940266
 30
0.0
 10
267.237740
 20
337.411018
 30
0.0
 10
198.738942
 20
337.411018
 30
0.0
  0
SPLINE
  5
129
100
AcDbEntity
  8
0
 62
7
100
AcDbSpline
 70
8
 71
3
 72
8
 73
4
 74
0
 40
0
 40
0
 40
0
 40
0
 40
1
 40
1
 40
1
 40
1
 10
198.738942
 20
337.411018
 30
0.0
 10
130.240144
 20
337.411018
 30
0.0
 10
74.710897
 20
392.940266
 30
0.0
 10
74.710897
 20
461.439064
 30
0.0
  0
SPLINE
  5
12a
100
AcDbEntity
  8
0
 62
7
100
AcDbSpline
 70
8
 71
3
 72
8
 73
4
 74
0
 40
0
 40
0
 40
0
 40
0
 40
1
 40
1
 40
1
 40
1
 10
74.710897
 20
461.439064
 30
0.0
 10
74.710897
 20
529.937862
 30
0.0
 10
130.240144
 20
585.467109
 30
0.0
 10
198.738942
 20
585.467109
 30
0.0
  0
SPLINE
  5
12b
100
AcDbEntity
  8
0
 62
7
100
AcDbSpline
 70
8
 71
3
 72
8
 73
4
 74
0
 40
0
 40
0
 40
0
 40
0
 40
1
 40
1
 40
1
 40
1
 10
198.738942
 20
585.467109
 30
0.0
 10
267.237740
 20
585.467109
 30
0.0
 10
322.766988
 20
529.937862
 30
0.0
 10
322.766988
 20
461.439064
 30
0.0
  0
LWPOLYLINE
  5
12c
100
AcDbEntity
  8
0
 62
7
100
AcDbPolyline
 90
1
 70
1
 10
384.781011
 20
354.027626
 30
0.0
  0
SPLINE
  5
12d
100
AcDbEntity
  8
0
 62
7
100
AcDbSpline
 70
8
 71
3
 72
8
 73
4
 74
0
 40
0
 40
0
 40
0
 40
0
 40
1
 40
1
 40
1
 40
1
 10
74.710897
 20
246.616187
 30
0.0
 10
126.836985
 20
216.521176
 30
0.0
 10
193.046514
 20
228.195703
 30
0.0
 10
231.735915
 20
274.303935
 30
0.0
  0
SPLINE
  5
12e
100
AcDbEntity
  8
0
 62
7
100
AcDbSpline
 70
8
 71
3
 72
8
 73
4
 74
0
 40
0
 40
0
 40
0
 40
0
 40
1
 40
1
 40
1
 40
1
 10
231.735915
 20
274.303935
 30
0.0
 10
270.425315
 20
320.412167
 30
0.0
 10
270.425315
 20
387.643084
 30
0.0
 10
231.735915
 20
433.751317
 30
0.0
  0
SPLINE
  5
12f
100
AcDbEntity
  8
0
 62
7
100
AcDbSpline
 70
8
 71
3
 72
8
 73
4
 74
0
 40
0
 40
0
 40
0
 40
0
 40
1
 40
1
 40
1
 40
1
 10
231.735915
 20
433.751317
 30
0.0
 10
193.046514
 20
479.859549
 30
0.0
 10
126.836985
 20
491.534075
 30
0.0
 10
74.710897
 20
461.439064
 30
0.0
  0
SPLINE
  5
130
100
AcDbEntity
  8
0
 62
7
100
AcDbSpline
 70
8
 71
3
 72
8
 73
4
 74
0
 40
0
 40
0
 40
0
 40
0
 40
1
 40
1
 40
1
 40
1
 10
74.710897
 20
461.439064
 30
0.0
 10
115.675560
 20
437.788104
 30
0.0
 10
166.526154
 20
439.497056
 30
0.0
 10
205.810490
 20
465.844968
 30
0.0
  0
SPLINE
  5
131
100
AcDbEntity
  8
0
 62
7
100
AcDbSpline
 70
8
 71
3
 72
8
 73
4
 74
0
 40
0
 40
0
 40
0
 40
0
 40
1
 40
1
 40
1
 40
1
 10
205.810490
 20
465.844968
 30
0.0
 10
245.094827
 20
492.192881
 30
0.0
 10
265.972079
 20
538.591628
 30
0.0
 10
259.634823
 20
585.467109
 30
0.0
  0
SPLINE
  5
132
100
AcDbEntity
  8
0
 62
7
100
AcDbSpline
 70
8
 71
3
 72
8
 73
4
 74
0
 40
0
 40
0
 40
0
 40
0
 40
1
 40
1
 40
1
 40
1
 10
137.843061
 20
585.467109
 30
0.0
 10
131.371389
 20
537.597371
 30
0.0
 10
153.281400
 20
490.325263
 30
0.0
 10
193.991485
 20
464.323659
 30
0.0
  0
SPLINE
  5
133
100
AcDbEntity
  8
0
 62
7
100
AcDbSpline
 70
8
 71
3
 72
8
 73
4
 74
0
 40
0
 40
0
 40
0
 40
0
 40
1
 40
1
 40
1
 40
1
 10
193.991485
 20
464.323659
 30
0.0
 10
234.701570
 20
438.322056
 30
0.0
 10
286.804360
 20
438.322056
 30
0.0
 10
327.514445
 20
464.323659
 30
0.0
  0
SPLINE
  5
134
100
AcDbEntity
  8
0
 62
7
100
AcDbSpline
 70
8
 71
3
 72
8
 73
4
 74
0
 40
0
 40
0
 40
0
 40
0
 40
1
 40
1
 40
1
 40
1
 10
327.514445
 20
464.323659
 30
0.0
 10
368.224530
 20
490.325263
 30
0.0
 10
390.134541
 20
537.597371
 30
0.0
 10
383.662869
 20
585.467109
 30
0.0
  0
SPLINE
  5
135
100
AcDbEntity
  8
0
 62
7
100
AcDbSpline
 70
8
 71
3
 72
8
 73
4
 74
0
 40
0
 40
0
 40
0
 40
0
 40
1
 40
1
 40
1
 40
1
 10
74.710897
 20
337.411018
 30
0.0
 10
143.209695
 20
337.411018
 30
0.0
 10
198.738942
 20
392.940266
 30
0.0
 10
198.738942
 20
461.439064
 30
0.0
  0
SPLINE
  5
136
100
AcDbEntity
  8
0
 62
7
100
AcDbSpline
 70
8
 71
3
 72
8
 73
4
 74
0
 40
0
 40
0
 40
0
 40
0
 40
1
 40
1
 40
1
 40
1
 10
198.738942
 20
461.439064
 30
0.0
 10
198.738942
 20
529.937862
 30
0.0
 10
143.209695
 20
585.467109
 30
0.0
 10
74.710897
 20
585.467109
 30
0.0
  0
SPLINE
  5
137
100
AcDbEntity
  8
0
 62
7
100
AcDbSpline
 70
8
 71
3
 72
8
 73
4
 74
0
 40
0
 40
0
 40
0
 40
0
 40
1
 40
1
 40
1
 40
1
 10
74.710897
 20
370.644233
 30
0.0
 10
143.209695
 20
370.644233
 30
0.0
 10
198.738942
 20
315.114986
 30
0.0
 10
198.738942
 20
246.616187
 30
0.0
  0
SPLINE
  5
138
100
AcDbEntity
  8
0
 62
7
100
AcDbSpline
 70
8
 71
3
 72
8
 73
4
 74
0
 40
0
 40
0
 40
0
 40
0
 40
1
 40
1
 40
1
 40
1
 10
198.738942
 20
246.616187
 30
0.0
 10
198.738942
 20
178.117389
 30
0.0
 10
143.209695
 20
122.588142
 30
0.0
 10
74.710897
 20
122.588142
 30
0.0
  0
SPLINE
  5
139
100
AcDbEntity
  8
0
 62
7
100
AcDbSpline
 70
8
 71
3
 72
8
 73
4
 74
0
 40
0
 40
0
 40
0
 40
0
 40
1
 40
1
 40
1
 40
1
 10
74.710897
 20
246.616187
 30
0.0
 10
115.675560
 20
270.267147
 30
0.0
 10
166.526154
 20
268.558195
 30
0.0
 10
205.810490
 20
242.210283
 30
0.0
  0
SPLINE
  5
13a
100
AcDbEntity
  8
0
 62
7
100
AcDbSpline
 70
8
 71
3
 72
8
 73
4
 74
0
 40
0
 40
0
 40
0
 40
0
 40
1
 40
1
 40
1
 40
1
 10
205.810490
 20
242.210283
 30
0.0
 10
245.094827
 20
215.862371
 30
0.0
 10
265.972079
 20
169.463623
 30
0.0
 10
259.634823
 20
122.588142
 30
0.0
  0
SPLINE
  5
13b
100
AcDbEntity
  8
0
 62
7
100
AcDbSpline
 70
8
 71
3
 72
8
 73
4
 74
0
 40
0
 40
0
 40
0
 40
0
 40
1
 40
1
 40
1
 40
1
 10
137.843061
 20
122.588142
 30
0.0
 10
131.371389
 20
170.457881
 30
0.0
 10
153.281400
 20
217.729988
 30
0.0
 10
193.991485
 20
243.731592
 30
0.0
  0
SPLINE
  5
13c
100
AcDbEntity
  8
0
 62
7
100
AcDbSpline
 70
8
 71
3
 72
8
 73
4
 74
0
 40
0
 40
0
 40
0
 40
0
 40
1
 40
1
 40
1
 40
1
 10
193.991485
 20
243.731592
 30
0.0
 10
234.701570
 20
269.733196
 30
0.0
 10
286.804360
 20
269.733196
 30
0.0
 10
327.514445
 20
243.731592
 30
0.0
  0
SPLINE
  5
13d
100
AcDbEntity
  8
0
 62
7
100
AcDbSpline
 70
8
 71
3
 72
8
 73
4
 74
0
 40
0
 40
0
 40
0
 40
0
 40
1
 40
1
 40
1
 40
1
 10
327.514445
 20
243.731592
 30
0.0
 10
368.224530
 20
217.729988
 30
0.0
 10
390.134541
 20
170.457881
 30
0.0
 10
383.662869
 20
122.588142
 30
0.0
  0
SPLINE
  5
13e
100
AcDbEntity
  8
0
 62
7
100
AcDbSpline
 70
8
 71
3
 72
8
 73
4
 74
0
 40
0
 40
0
 40
0
 40
0
 40
1
 40
1
 40
1
 40
1
 10
322.766988
 20
246.616187
 30
0.0
 10
279.187058
 20
221.455303
 30
0.0
 10
255.129268
 20
172.456247
 30
0.0
 10
261.871107
 20
122.588142
 30
0.0
  0
SPLINE
  5
13f
100
AcDbEntity
  8
0
 62
7
100
AcDbSpline
 70
8
 71
3
 72
8
 73
4
 74
0
 40
0
 40
0
 40
0
 40
0
 40
1
 40
1
 40
1
 40
1
 10
446.795033
 20
246.616187
 30
0.0
 10
490.374963
 20
221.455303
 30
0.0
 10
514.432753
 20
172.456247
 30
0.0
 10
507.690914
 20
122.588142
 30
0.0
  0
SPLINE
  5
140
100
AcDbEntity
  8
0
 62
7
100
AcDbSpline
 70
8
 71
3
 72
8
 73
4
 74
0
 40
0
 40
0
 40
0
 40
0
 40
1
 40
1
 40
1
 40
1
 10
322.766988
 20
461.439064
 30
0.0
 10
279.187058
 20
486.599948
 30
0.0
 10
255.129268
 20
535.599004
 30
0.0
 10
261.871107
 20
585.467109
 30
0.0
  0
SPLINE
  5
141
100
AcDbEntity
  8
0
 62
7
100
AcDbSpline
 70
8
 71
3
 72
8
 73
4
 74
0
 40
0
 40
0
 40
0
 40
0
 40
1
 40
1
 40
1
 40
1
 10
446.795033
 20
461.439064
 30
0.0
 10
490.374963
 20
486.599948
 30
0.0
 10
514.432753
 20
535.599004
 30
0.0
 10
507.690914
 20
585.467109
 30
0.0
  0
SPLINE
  5
142
100
AcDbEntity
  8
0
 62
7
100
AcDbSpline
 70
8
 71
3
 72
8
 73
4
 74
0
 40
0
 40
0
 40
0
 40
0
 40
1
 40
1
 40
1
 40
1
 10
322.766988
 20
461.439064
 30
0.0
 10
284.392577
 20
439.283587
 30
0.0
 10
260.752965
 20
398.338578
 30
0.0
 10
260.752965
 20
354.027626
 30
0.0
  0
SPLINE
  5
143
100
AcDbEntity
  8
0
 62
7
100
AcDbSpline
 70
8
 71
3
 72
8
 73
4
 74
0
 40
0
 40
0
 40
0
 40
0
 40
1
 40
1
 40
1
 40
1
 10
260.752965
 20
354.027626
 30
0.0
 10
260.752965
 20
309.716673
 30
0.0
 10
284.392577
 20
268.771664
 30
0.0
 10
322.766988
 20
246.616187
 30
0.0
  0
SPLINE
  5
144
100
AcDbEntity
  8
0
 62
7
100
AcDbSpline
 70
8
 71
3
 72
8
 73
4
 74
0
 40
0
 40
0
 40
0
 40
0
 40
1
 40
1
 40
1
 40
1
 10
446.795033
 20
461.439064
 30
0.0
 10
485.169444
 20
439.283587
 30
0.0
 10
508.809056
 20
398.338578
 30
0.0
 10
508.809056
 20
354.027626
 30
0.0
  0
SPLINE
  5
145
100
AcDbEntity
  8
0
 62
7
100
AcDbSpline
 70
8
 71
3
 72
8
 73
4
 74
0
 40
0
 40
0
 40
0
 40
0
 40
1
 40
1
 40
1
 40
1
 10
508.809056
 20
354.027626
 30
0.0
 10
508.809056
 20
309.716673
 30
0.0
 10
485.169444
 20
268.771664
 30
0.0
 10
446.795033
 20
246.616187
 30
0.0
  0
SPLINE
  5
146
100
AcDbEntity
  8
0
 62
7
100
AcDbSpline
 70
8
 71
3
 72
8
 73
4
 74
0
 40
0
 40
0
 40
0
 40
0
 40
1
 40
1
 40
1
 40
1
 10
477.802045
 20
300.321907
 30
0.0
 10
477.802045
 20
266.072508
 30
0.0
 10
450.037421
 20
238.307884
 30
0.0
 10
415.788022
 20
238.307884
 30
0.0
  0
SPLINE
  5
147
100
AcDbEntity
  8
0
 62
7
100
AcDbSpline
 70
8
 71
3
 72
8
 73
4
 74
0
 40
0
 40
0
 40
0
 40
0
 40
1
 40
1
 40
1
 40
1
 10
415.788022
 20
238.307884
 30
0.0
 10
381.538623
 20
238.307884
 30
0.0
 10
353.773999
 20
266.072508
 30
0.0
 10
353.773999
 20
300.321907
 30
0.0
  0
SPLINE
  5
148
100
AcDbEntity
  8
0
 62
7
100
AcDbSpline
 70
8
 71
3
 72
8
 73
4
 74
0
 40
0
 40
0
 40
0
 40
0
 40
1
 40
1
 40
1
 40
1
 10
353.773999
 20
300.321907
 30
0.0
 10
353.773999
 20
334.571306
 30
0.0
 10
381.538623
 20
362.335929
 30
0.0
 10
415.788022
 20
362.335929
 30
0.0
  0
SPLINE
  5
149
100
AcDbEntity
  8
0
 62
7
100
AcDbSpline
 70
8
 71
3
 72
8
 73
4
 74
0
 40
0
 40
0
 40
0
 40
0
 40
1
 40
1
 40
1
 40
1
 10
415.788022
 20
362.335929
 30
0.0
 10
450.037421
 20
362.335929
 30
0.0
 10
477.802045
 20
334.571306
 30
0.0
 10
477.802045
 20
300.321907
 30
0.0
  0
LWPOLYLINE
  5
14a
100
AcDbEntity
  8
0
 62
7
100
AcDbPolyline
 90
1
 70
1
 10
322.766988
 20
461.439064
 30
0.0
  0
SPLINE
  5
14b
100
AcDbEntity
  8
0
 62
7
100
AcDbSpline
 70
8
 71
3
 72
8
 73
4
 74
0
 40
0
 40
0
 40
0
 40
0
 40
1
 40
1
 40
1
 40
1
 10
477.802045
 20
515.144783
 30
0.0
 10
477.802045
 20
480.895384
 30
0.0
 10
450.037421
 20
453.130760
 30
0.0
 10
415.788022
 20
453.130760
 30
0.0
  0
SPLINE
  5
14c
100
AcDbEntity
  8
0
 62
7
100
AcDbSpline
 70
8
 71
3
 72
8
 73
4
 74
0
 40
0
 40
0
 40
0
 40
0
 40
1
 40
1
 40
1
 40
1
 10
415.788022
 20
453.130760
 30
0.0
 10
381.538623
 20
453.130760
 30
0.0
 10
353.773999
 20
480.895384
 30
0.0
 10
353.773999
 20
515.144783
 30
0.0
  0
SPLINE
  5
14d
100
AcDbEntity
  8
0
 62
7
100
AcDbSpline
 70
8
 71
3
 72
8
 73
4
 74
0
 40
0
 40
0
 40
0
 40
0
 40
1
 40
1
 40
1
 40
1
 10
353.773999
 20
515.144783
 30
0.0
 10
353.773999
 20
549.394182
 30
0.0
 10
381.538623
 20
577.158806
 30
0.0
 10
415.788022
 20
577.158806
 30
0.0
  0
SPLINE
  5
14e
100
AcDbEntity
  8
0
 62
7
100
AcDbSpline
 70
8
 71
3
 72
8
 73
4
 74
0
 40
0
 40
0
 40
0
 40
0
 40
1
 40
1
 40
1
 40
1
 10
415.788022
 20
577.158806
 30
0.0
 10
450.037421
 20
577.158806
 30
0.0
 10
477.802045
 20
549.394182
 30
0.0
 10
477.802045
 20
515.144783
 30
0.0
  0
LWPOLYLINE
  5
14f
100
AcDbEntity
  8
0
 62
7
100
AcDbPolyline
 90
1
 70
1
 10
477.802045
 20
300.321907
 30
0.0
  0
SPLINE
  5
150
100
AcDbEntity
  8
0
 62
7
100
AcDbSpline
 70
8
 71
3
 72
8
 73
4
 74
0
 40
0
 40
0
 40
0
 40
0
 40
1
 40
1
 40
1
 40
1
 10
384.781011
 20
354.027626
 30
0.0
 10
384.781011
 20
319.778227
 30
0.0
 10
357.016387
 20
292.013603
 30
0.0
 10
322.766988
 20
292.013603
 30
0.0
  0
SPLINE
  5
151
100
AcDbEntity
  8
0
 62
7
100
AcDbSpline
 70
8
 71
3
 72
8
 73
4
 74
0
 40
0
 40
0
 40
0
 40
0
 40
1
 40
1
 40
1
 40
1
 10
322.766988
 20
292.013603
 30
0.0
 10
288.517589
 20
292.013603
 30
0.0
 10
260.752965
 20
319.778227
 30
0.0
 10
260.752965
 20
354.027626
 30
0.0
  0
SPLINE
  5
152
100
AcDbEntity
  8
0
 62
7
100
AcDbSpline
 70
8
 71
3
 72
8
 73
4
 74
0
 40
0
 40
0
 40
0
 40
0
 40
1
 40
1
 40
1
 40
1
 10
260.752965
 20
354.027626
 30
0.0
 10
260.752965
 20
388.277025
 30
0.0
 10
288.517589
 20
416.041648
 30
0.0
 10
322.766988
 20
416.041648
 30
0.0
  0
SPLINE
  5
153
100
AcDbEntity
  8
0
 62
7
100
AcDbSpline
 70
8
 71
3
 72
8
 73
4
 74
0
 40
0
 40
0
 40
0
 40
0
 40
1
 40
1
 40
1
 40
1
 10
322.766988
 20
416.041648
 30
0.0
 10
357.016387
 20
416.041648
 30
0.0
 10
384.781011
 20
388.277025
 30
0.0
 10
384.781011
 20
354.027626
 30
0.0
  0
LWPOLYLINE
  5
154
100
AcDbEntity
  8
0
 62
7
100
AcDbPolyline
 90
1
 70
1
 10
477.802045
 20
515.144783
 30
0.0
  0
SPLINE
  5
155
100
AcDbEntity
  8
0
 62
7
100
AcDbSpline
 70
8
 71
3
 72
8
 73
4
 74
0
 40
0
 40
0
 40
0
 40
0
 40
1
 40
1
 40
1
 40
1
 10
291.759976
 20
407.733345
 30
0.0
 10
291.759976
 20
373.483946
 30
0.0
 10
263.995353
 20
345.719322
 30
0.0
 10
229.745954
 20
345.719322
 30
0.0
  0
SPLINE
  5
156
100
AcDbEntity
  8
0
 62
7
100
AcDbSpline
 70
8
 71
3
 72
8
 73
4
 74
0
 40
0
 40
0
 40
0
 40
0
 40
1
 40
1
 40
1
 40
1
 10
229.745954
 20
345.719322
 30
0.0
 10
195.496555
 20
345.719322
 30
0.0
 10
167.731931
 20
373.483946
 30
0.0
 10
167.731931
 20
407.733345
 30
0.0
  0
SPLINE
  5
157
100
AcDbEntity
  8
0
 62
7
100
AcDbSpline
 70
8
 71
3
 72
8
 73
4
 74
0
 40
0
 40
0
 40
0
 40
0
 40
1
 40
1
 40
1
 40
1
 10
167.731931
 20
407.733345
 30
0.0
 10
167.731931
 20
441.982744
 30
0.0
 10
195.496555
 20
469.747367
 30
0.0
 10
229.745954
 20
469.747367
 30
0.0
  0
SPLINE
  5
158
100
AcDbEntity
  8
0
 62
7
100
AcDbSpline
 70
8
 71
3
 72
8
 73
4
 74
0
 40
0
 40
0
 40
0
 40
0
 40
1
 40
1
 40
1
 40
1
 10
229.745954
 20
469.747367
 30
0.0
 10
263.995353
 20
469.747367
 30
0.0
 10
291.759976
 20
441.982744
 30
0.0
 10
291.759976
 20
407.733345
 30
0.0
  0
LWPOLYLINE
  5
159
100
AcDbEntity
  8
0
 62
7
100
AcDbPolyline
 90
1
 70
1
 10
384.781011
 20
354.027626
 30
0.0
  0
SPLINE
  5
15a
100
AcDbEntity
  8
0
 62
7
100
AcDbSpline
 70
8
 71
3
 72
8
 73
4
 74
0
 40
0
 40
0
 40
0
 40
0
 40
1
 40
1
 40
1
 40
1
 10
291.759976
 20
515.144783
 30
0.0
 10
291.759976
 20
480.895384
 30
0.0
 10
263.995353
 20
453.130760
 30
0.0
 10
229.745954
 20
453.130760
 30
0.0
  0
SPLINE
  5
15b
100
AcDbEntity
  8
0
 62
7
100
AcDbSpline
 70
8
 71
3
 72
8
 73
4
 74
0
 40
0
 40
0
 40
0
 40
0
 40
1
 40
1
 40
1
 40
1
 10
229.745954
 20
453.130760
 30
0.0
 10
195.496555
 20
453.130760
 30
0.0
 10
167.731931
 20
480.895384
 30
0.0
 10
167.731931
 20
515.144783
 30
0.0
  0
SPLINE
  5
15c
100
AcDbEntity
  8
0
 62
7
100
AcDbSpline
 70
8
 71
3
 72
8
 73
4
 74
0
 40
0
 40
0
 40
0
 40
0
 40
1
 40
1
 40
1
 40
1
 10
167.731931
 20
515.144783
 30
0.0
 10
167.731931
 20
549.394182
 30
0.0
 10
195.496555
 20
577.158806
 30
0.0
 10
229.745954
 20
577.158806
 30
0.0
  0
SPLINE
  5
15d
100
AcDbEntity
  8
0
 62
7
100
AcDbSpline
 70
8
 71
3
 72
8
 73
4
 74
0
 40
0
 40
0
 40
0
 40
0
 40
1
 40
1
 40
1
 40
1
 10
229.745954
 20
577.158806
 30
0.0
 10
263.995353
 20
577.158806
 30
0.0
 10
291.759976
 20
549.394182
 30
0.0
 10
291.759976
 20
515.144783
 30
0.0
  0
LWPOLYLINE
  5
15e
100
AcDbEntity
  8
0
 62
7
100
AcDbPolyline
 90
1
 70
1
 10
291.759976
 20
407.733345
 30
0.0
  0
SPLINE
  5
15f
100
AcDbEntity
  8
0
 62
7
100
AcDbSpline
 70
8
 71
3
 72
8
 73
4
 74
0
 40
0
 40
0
 40
0
 40
0
 40
1
 40
1
 40
1
 40
1
 10
291.759976
 20
300.321907
 30
0.0
 10
291.759976
 20
266.072508
 30
0.0
 10
263.995353
 20
238.307884
 30
0.0
 10
229.745954
 20
238.307884
 30
0.0
  0
SPLINE
  5
160
100
AcDbEntity
  8
0
 62
7
100
AcDbSpline
 70
8
 71
3
 72
8
 73
4
 74
0
 40
0
 40
0
 40
0
 40
0
 40
1
 40
1
 40
1
 40
1
 10
229.745954
 20
238.307884
 30
0.0
 10
195.496555
 20
238.307884
 30
0.0
 10
167.731931
 20
266.072508
 30
0.0
 10
167.731931
 20
300.321907
 30
0.0
  0
SPLINE
  5
161
100
AcDbEntity
  8
0
 62
7
100
AcDbSpline
 70
8
 71
3
 72
8
 73
4
 74
0
 40
0
 40
0
 40
0
 40
0
 40
1
 40
1
 40
1
 40
1
 10
167.731931
 20
300.321907
 30
0.0
 10
167.731931
 20
334.571306
 30
0.0
 10
195.496555
 20
362.335929
 30
0.0
 10
229.745954
 20
362.335929
 30
0.0
  0
SPLINE
  5
162
100
AcDbEntity
  8
0
 62
7
100
AcDbSpline
 70
8
 71
3
 72
8
 73
4
 74
0
 40
0
 40
0
 40
0
 40
0
 40
1
 40
1
 40
1
 40
1
 10
229.745954
 20
362.335929
 30
0.0
 10
263.995353
 20
362.335929
 30
0.0
 10
291.759976
 20
334.571306
 30
0.0
 10
291.759976
 20
300.321907
 30
0.0
  0
LWPOLYLINE
  5
163
100
AcDbEntity
  8
0
 62
7
100
AcDbPolyline
 90
1
 70
1
 10
291.759976
 20
515.144783
 30
0.0
  0
SPLINE
  5
164
100
AcDbEntity
  8
0
 62
7
100
AcDbSpline
 70
8
 71
3
 72
8
 73
4
 74
0
 40
0
 40
0
 40
0
 40
0
 40
1
 40
1
 40
1
 40
1
 10
291.759976
 20
192.910468
 30
0.0
 10
291.759976
 20
158.661069
 30
0.0
 10
263.995353
 20
130.896446
 30
0.0
 10
229.745954
 20
130.896446
 30
0.0
  0
SPLINE
  5
165
100
AcDbEntity
  8
0
 62
7
100
AcDbSpline
 70
8
 71
3
 72
8
 73
4
 74
0
 40
0
 40
0
 40
0
 40
0
 40
1
 40
1
 40
1
 40
1
 10
229.745954
 20
130.896446
 30
0.0
 10
195.496555
 20
130.896446
 30
0.0
 10
167.731931
 20
158.661069
 30
0.0
 10
167.731931
 20
192.910468
 30
0.0
  0
SPLINE
  5
166
100
AcDbEntity
  8
0
 62
7
100
AcDbSpline
 70
8
 71
3
 72
8
 73
4
 74
0
 40
0
 40
0
 40
0
 40
0
 40
1
 40
1
 40
1
 40
1
 10
167.731931
 20
192.910468
 30
0.0
 10
167.731931
 20
227.159867
 30
0.0
 10
195.496555
 20
254.924491
 30
0.0
 10
229.745954
 20
254.924491
 30
0.0
  0
SPLINE
  5
167
100
AcDbEntity
  8
0
 62
7
100
AcDbSpline
 70
8
 71
3
 72
8
 73
4
 74
0
 40
0
 40
0
 40
0
 40
0
 40
1
 40
1
 40
1
 40
1
 10
229.745954
 20
254.924491
 30
0.0
 10
263.995353
 20
254.924491
 30
0.0
 10
291.759976
 20
227.159867
 30
0.0
 10
291.759976
 20
192.910468
 30
0.0
  0
LWPOLYLINE
  5
168
100
AcDbEntity
  8
0
 62
7
100
AcDbPolyline
 90
1
 70
1
 10
291.759976
 20
300.321907
 30
0.0
  0
SPLINE
  5
169
100
AcDbEntity
  8
0
 62
7
100
AcDbSpline
 70
8
 71
3
 72
8
 73
4
 74
0
 40
0
 40
0
 40
0
 40
0
 40
1
 40
1
 40
1
 40
1
 10
198.738942
 20
246.616187
 30
0.0
 10
198.738942
 20
212.366788
 30
0.0
 10
170.974319
 20
184.602165
 30
0.0
 10
136.724920
 20
184.602165
 30
0.0
  0
SPLINE
  5
16a
100
AcDbEntity
  8
0
 62
7
100
AcDbSpline
 70
8
 71
3
 72
8
 73
4
 74
0
 40
0
 40
0
 40
0
 40
0
 40
1
 40
1
 40
1
 40
1
 10
136.724920
 20
184.602165
 30
0.0
 10
102.475520
 20
184.602165
 30
0.0
 10
74.710897
 20
212.366788
 30
0.0
 10
74.710897
 20
246.616187
 30
0.0
  0
SPLINE
  5
16b
100
AcDbEntity
  8
0
 62
7
100
AcDbSpline
 70
8
 71
3
 72
8
 73
4
 74
0
 40
0
 40
0
 40
0
 40
0
 40
1
 40
1
 40
1
 40
1
 10
74.710897
 20
246.616187
 30
0.0
 10
74.710897
 20
280.865587
 30
0.0
 10
102.475520
 20
308.630210
 30
0.0
 10
136.724920
 20
308.630210
 30
0.0
  0
SPLINE
  5
16c
100
AcDbEntity
  8
0
 62
7
100
AcDbSpline
 70
8
 71
3
 72
8
 73
4
 74
0
 40
0
 40
0
 40
0
 40
0
 40
1
 40
1
 40
1
 40
1
 10
136.724920
 20
308.630210
 30
0.0
 10
170.974319
 20
308.630210
 30
0.0
 10
198.738942
 20
280.865587
 30
0.0
 10
198.738942
 20
246.616187
 30
0.0
  0
LWPOLYLINE
  5
16d
100
AcDbEntity
  8
0
 62
7
100
AcDbPolyline
 90
1
 70
1
 10
291.759976
 20
192.910468
 30
0.0
  0
SPLINE
  5
16e
100
AcDbEntity
  8
0
 62
7
100
AcDbSpline
 70
8
 71
3
 72
8
 73
4
 74
0
 40
0
 40
0
 40
0
 40
0
 40
1
 40
1
 40
1
 40
1
 10
353.773999
 20
407.733345
 30
0.0
 10
353.773999
 20
373.483946
 30
0.0
 10
326.009375
 20
345.719322
 30
0.0
 10
291.759976
 20
345.719322
 30
0.0
  0
SPLINE
  5
16f
100
AcDbEntity
  8
0
 62
7
100
AcDbSpline
 70
8
 71
3
 72
8
 73
4
 74
0
 40
0
 40
0
 40
0
 40
0
 40
1
 40
1
 40
1
 40
1
 10
291.759976
 20
345.719322
 30
0.0
 10
257.510577
 20
345.719322
 30
0.0
 10
229.745954
 20
373.483946
 30
0.0
 10
229.745954
 20
407.733345
 30
0.0
  0
SPLINE
  5
170
100
AcDbEntity
  8
0
 62
7
100
AcDbSpline
 70
8
 71
3
 72
8
 73
4
 74
0
 40
0
 40
0
 40
0
 40
0
 40
1
 40
1
 40
1
 40
1
 10
229.745954
 20
407.733345
 30
0.0
 10
229.745954
 20
441.982744
 30
0.0
 10
257.510577
 20
469.747367
 30
0.0
 10
291.759976
 20
469.747367
 30
0.0
  0
SPLINE
  5
171
100
AcDbEntity
  8
0
 62
7
100
AcDbSpline
 70
8
 71
3
 72
8
 73
4
 74
0
 40
0
 40
0
 40
0
 40
0
 40
1
 40
1
 40
1
 40
1
 10
291.759976
 20
469.747367
 30
0.0
 10
326.009375
 20
469.747367
 30
0.0
 10
353.773999
 20
441.982744
 30
0.0
 10
353.773999
 20
407.733345
 30
0.0
  0
LWPOLYLINE
  5
172
100
AcDbEntity
  8
0
 62
7
100
AcDbPolyline
 90
1
 70
1
 10
198.738942
 20
246.616187
 30
0.0
  0
SPLINE
  5
173
100
AcDbEntity
  8
0
 62
7
100
AcDbSpline
 70
8
 71
3
 72
8
 73
4
 74
0
 40
0
 40
0
 40
0
 40
0
 40
1
 40
1
 40
1
 40
1
 10
477.802045
 20
407.733345
 30
0.0
 10
477.802045
 20
373.483946
 30
0.0
 10
450.037421
 20
345.719322
 30
0.0
 10
415.788022
 20
345.719322
 30
0.0
  0
SPLINE
  5
174
100
AcDbEntity
  8
0
 62
7
100
AcDbSpline
 70
8
 71
3
 72
8
 73
4
 74
0
 40
0
 40
0
 40
0
 40
0
 40
1
 40
1
 40
1
 40
1
 10
415.788022
 20
345.719322
 30
0.0
 10
381.538623
 20
345.719322
 30
0.0
 10
353.773999
 20
373.483946
 30
0.0
 10
353.773999
 20
407.733345
 30
0.0
  0
SPLINE
  5
175
100
AcDbEntity
  8
0
 62
7
100
AcDbSpline
 70
8
 71
3
 72
8
 73
4
 74
0
 40
0
 40
0
 40
0
 40
0
 40
1
 40
1
 40
1
 40
1
 10
353.773999
 20
407.733345
 30
0.0
 10
353.773999
 20
441.982744
 30
0.0
 10
381.538623
 20
469.747367
 30
0.0
 10
415.788022
 20
469.747367
 30
0.0
  0
SPLINE
  5
176
100
AcDbEntity
  8
0
 62
7
100
AcDbSpline
 70
8
 71
3
 72
8
 73
4
 74
0
 40
0
 40
0
 40
0
 40
0
 40
1
 40
1
 40
1
 40
1
 10
415.788022
 20
469.747367
 30
0.0
 10
450.037421
 20
469.747367
 30
0.0
 10
477.802045
 20
441.982744
 30
0.0
 10
477.802045
 20
407.733345
 30
0.0
  0
LWPOLYLINE
  5
177
100
AcDbEntity
  8
0
 62
7
100
AcDbPolyline
 90
1
 70
1
 10
353.773999
 20
407.733345
 30
0.0
  0
SPLINE
  5
178
100
AcDbEntity
  8
0
 62
7
100
AcDbSpline
 70
8
 71
3
 72
8
 73
4
 74
0
 40
0
 40
0
 40
0
 40
0
 40
1
 40
1
 40
1
 40
1
 10
415.788022
 20
407.733345
 30
0.0
 10
415.788022
 20
373.483946
 30
0.0
 10
388.023398
 20
345.719322
 30
0.0
 10
353.773999
 20
345.719322
 30
0.0
  0
SPLINE
  5
179
100
AcDbEntity
  8
0
 62
7
100
AcDbSpline
 70
8
 71
3
 72
8
 73
4
 74
0
 40
0
 40
0
 40
0
 40
0
 40
1
 40
1
 40
1
 40
1
 10
353.773999
 20
345.719322
 30
0.0
 10
319.524600
 20
345.719322
 30
0.0
 10
291.759976
 20
373.483946
 30
0.0
 10
291.759976
 20
407.733345
 30
0.0
  0
SPLINE
  5
17a
100
AcDbEntity
  8
0
 62
7
100
AcDbSpline
 70
8
 71
3
 72
8
 73
4
 74
0
 40
0
 40
0
 40
0
 40
0
 40
1
 40
1
 40
1
 40
1
 10
291.759976
 20
407.733345
 30
0.0
 10
291.759976
 20
441.982744
 30
0.0
 10
319.524600
 20
469.747367
 30
0.0
 10
353.773999
 20
469.747367
 30
0.0
  0
SPLINE
  5
17b
100
AcDbEntity
  8
0
 62
7
100
AcDbSpline
 70
8
 71
3
 72
8
 73
4
 74
0
 40
0
 40
0
 40
0
 40
0
 40
1
 40
1
 40
1
 40
1
 10
353.773999
 20
469.747367
 30
0.0
 10
388.023398
 20
469.747367
 30
0.0
 10
415.788022
 20
441.982744
 30
0.0
 10
415.788022
 20
407.733345
 30
0.0
  0
LWPOLYLINE
  5
17c
100
AcDbEntity
  8
0
 62
7
100
AcDbPolyline
 90
1
 70
1
 10
477.802045
 20
407.733345
 30
0.0
  0
SPLINE
  5
17d
100
AcDbEntity
  8
0
 62
7
100
AcDbSpline
 70
8
 71
3
 72
8
 73
4
 74
0
 40
0
 40
0
 40
0
 40
0
 40
1
 40
1
 40
1
 40
1
 10
353.773999
 20
300.321907
 30
0.0
 10
353.773999
 20
266.072508
 30
0.0
 10
326.009375
 20
238.307884
 30
0.0
 10
291.759976
 20
238.307884
 30
0.0
  0
SPLINE
  5
17e
100
AcDbEntity
  8
0
 62
7
100
AcDbSpline
 70
8
 71
3
 72
8
 73
4
 74
0
 40
0
 40
0
 40
0
 40
0
 40
1
 40
1
 40
1
 40
1
 10
291.759976
 20
238.307884
 30
0.0
 10
257.510577
 20
238.307884
 30
0.0
 10
229.745954
 20
266.072508
 30
0.0
 10
229.745954
 20
300.321907
 30
0.0
  0
SPLINE
  5
17f
100
AcDbEntity
  8
0
 62
7
100
AcDbSpline
 70
8
 71
3
 72
8
 73
4
 74
0
 40
0
 40
0
 40
0
 40
0
 40
1
 40
1
 40
1
 40
1
 10
229.745954
 20
300.321907
 30
0.0
 10
229.745954
 20
334.571306
 30
0.0
 10
257.510577
 20
362.335929
 30
0.0
 10
291.759976
 20
362.335929
 30
0.0
  0
SPLINE
  5
180
100
AcDbEntity
  8
0
 62
7
100
AcDbSpline
 70
8
 71
3
 72
8
 73
4
 74
0
 40
0
 40
0
 40
0
 40
0
 40
1
 40
1
 40
1
 40
1
 10
291.759976
 20
362.335929
 30
0.0
 10
326.009375
 20
362.335929
 30
0.0
 10
353.773999
 20
334.571306
 30
0.0
 10
353.773999
 20
300.321907
 30
0.0
  0
LWPOLYLINE
  5
181
100
AcDbEntity
  8
0
 62
7
100
AcDbPolyline
 90
1
 70
1
 10
415.788022
 20
407.733345
 30
0.0
  0
SPLINE
  5
182
100
AcDbEntity
  8
0
 62
7
100
AcDbSpline
 70
8
 71
3
 72
8
 73
4
 74
0
 40
0
 40
0
 40
0
 40
0
 40
1
 40
1
 40
1
 40
1
 10
415.788022
 20
300.321907
 30
0.0
 10
415.788022
 20
266.072508
 30
0.0
 10
388.023398
 20
238.307884
 30
0.0
 10
353.773999
 20
238.307884
 30
0.0
  0
SPLINE
  5
183
100
AcDbEntity
  8
0
 62
7
100
AcDbSpline
 70
8
 71
3
 72
8
 73
4
 74
0
 40
0
 40
0
 40
0
 40
0
 40
1
 40
1
 40
1
 40
1
 10
353.773999
 20
238.307884
 30
0.0
 10
319.524600
 20
238.307884
 30
0.0
 10
291.759976
 20
266.072508
 30
0.0
 10
291.759976
 20
300.321907
 30
0.0
  0
SPLINE
  5
184
100
AcDbEntity
  8
0
 62
7
100
AcDbSpline
 70
8
 71
3
 72
8
 73
4
 74
0
 40
0
 40
0
 40
0
 40
0
 40
1
 40
1
 40
1
 40
1
 10
291.759976
 20
300.321907
 30
0.0
 10
291.759976
 20
334.571306
 30
0.0
 10
319.524600
 20
362.335929
 30
0.0
 10
353.773999
 20
362.335929
 30
0.0
  0
SPLINE
  5
185
100
AcDbEntity
  8
0
 62
7
100
AcDbSpline
 70
8
 71
3
 72
8
 73
4
 74
0
 40
0
 40
0
 40
0
 40
0
 40
1
 40
1
 40
1
 40
1
 10
353.773999
 20
362.335929
 30
0.0
 10
388.023398
 20
362.335929
 30
0.0
 10
415.788022
 20
334.571306
 30
0.0
 10
415.788022
 20
300.321907
 30
0.0
  0
LWPOLYLINE
  5
186
100
AcDbEntity
  8
0
 62
7
100
AcDbPolyline
 90
1
 70
1
 10
353.773999
 20
300.321907
 30
0.0
  0
SPLINE
  5
187
100
AcDbEntity
  8
0
 62
7
100
AcDbSpline
 70
8
 71
3
 72
8
 73
4
 74
0
 40
0
 40
0
 40
0
 40
0
 40
1
 40
1
 40
1
 40
1
 10
508.809056
 20
354.027626
 30
0.0
 10
508.809056
 20
319.778227
 30
0.0
 10
481.044432
 20
292.013603
 30
0.0
 10
446.795033
 20
292.013603
 30
0.0
  0
SPLINE
  5
188
100
AcDbEntity
  8
0
 62
7
100
AcDbSpline
 70
8
 71
3
 72
8
 73
4
 74
0
 40
0
 40
0
 40
0
 40
0
 40
1
 40
1
 40
1
 40
1
 10
446.795033
 20
292.013603
 30
0.0
 10
412.545634
 20
292.013603
 30
0.0
 10
384.781011
 20
319.778227
 30
0.0
 10
384.781011
 20
354.027626
 30
0.0
  0
SPLINE
  5
189
100
AcDbEntity
  8
0
 62
7
100
AcDbSpline
 70
8
 71
3
 72
8
 73
4
 74
0
 40
0
 40
0
 40
0
 40
0
 40
1
 40
1
 40
1
 40
1
 10
384.781011
 20
354.027626
 30
0.0
 10
384.781011
 20
388.277025
 30
0.0
 10
412.545634
 20
416.041648
 30
0.0
 10
446.795033
 20
416.041648
 30
0.0
  0
SPLINE
  5
18a
100
AcDbEntity
  8
0
 62
7
100
AcDbSpline
 70
8
 71
3
 72
8
 73
4
 74
0
 40
0
 40
0
 40
0
 40
0
 40
1
 40
1
 40
1
 40
1
 10
446.795033
 20
416.041648
 30
0.0
 10
481.044432
 20
416.041648
 30
0.0
 10
508.809056
 20
388.277025
 30
0.0
 10
508.809056
 20
354.027626
 30
0.0
  0
LWPOLYLINE
  5
18b
100
AcDbEntity
  8
0
 62
7
100
AcDbPolyline
 90
1
 70
1
 10
415.788022
 20
300.321907
 30
0.0
  0
SPLINE
  5
18c
100
AcDbEntity
  8
0
 62
7
100
AcDbSpline
 70
8
 71
3
 72
8
 73
4
 74
0
 40
0
 40
0
 40
0
 40
0
 40
1
 40
1
 40
1
 40
1
 10
260.752965
 20
354.027626
 30
0.0
 10
260.752965
 20
319.778227
 30
0.0
 10
232.988341
 20
292.013603
 30
0.0
 10
198.738942
 20
292.013603
 30
0.0
  0
SPLINE
  5
18d
100
AcDbEntity
  8
0
 62
7
100
AcDbSpline
 70
8
 71
3
 72
8
 73
4
 74
0
 40
0
 40
0
 40
0
 40
0
 40
1
 40
1
 40
1
 40
1
 10
198.738942
 20
292.013603
 30
0.0
 10
164.489543
 20
292.013603
 30
0.0
 10
136.724920
 20
319.778227
 30
0.0
 10
136.724920
 20
354.027626
 30
0.0
  0
SPLINE
  5
18e
100
AcDbEntity
  8
0
 62
7
100
AcDbSpline
 70
8
 71
3
 72
8
 73
4
 74
0
 40
0
 40
0
 40
0
 40
0
 40
1
 40
1
 40
1
 40
1
 10
136.724920
 20
354.027626
 30
0.0
 10
136.724920
 20
388.277025
 30
0.0
 10
164.489543
 20
416.041648
 30
0.0
 10
198.738942
 20
416.041648
 30
0.0
  0
SPLINE
  5
18f
100
AcDbEntity
  8
0
 62
7
100
AcDbSpline
 70
8
 71
3
 72
8
 73
4
 74
0
 40
0
 40
0
 40
0
 40
0
 40
1
 40
1
 40
1
 40
1
 10
198.738942
 20
416.041648
 30
0.0
 10
232.988341
 20
416.041648
 30
0.0
 10
260.752965
 20
388.277025
 30
0.0
 10
260.752965
 20
354.027626
 30
0.0
  0
LWPOLYLINE
  5
190
100
AcDbEntity
  8
0
 62
7
100
AcDbPolyline
 90
1
 70
1
 10
508.809056
 20
354.027626
 30
0.0
  0
SPLINE
  5
191
100
AcDbEntity
  8
0
 62
7
100
AcDbSpline
 70
8
 71
3
 72
8
 73
4
 74
0
 40
0
 40
0
 40
0
 40
0
 40
1
 40
1
 40
1
 40
1
 10
198.738942
 20
461.439064
 30
0.0
 10
198.738942
 20
427.189665
 30
0.0
 10
170.974319
 20
399.425041
 30
0.0
 10
136.724920
 20
399.425041
 30
0.0
  0
SPLINE
  5
192
100
AcDbEntity
  8
0
 62
7
100
AcDbSpline
 70
8
 71
3
 72
8
 73
4
 74
0
 40
0
 40
0
 40
0
 40
0
 40
1
 40
1
 40
1
 40
1
 10
136.724920
 20
399.425041
 30
0.0
 10
102.475520
 20
399.425041
 30
0.0
 10
74.710897
 20
427.189665
 30
0.0
 10
74.710897
 20
461.439064
 30
0.0
  0
SPLINE
  5
193
100
AcDbEntity
  8
0
 62
7
100
AcDbSpline
 70
8
 71
3
 72
8
 73
4
 74
0
 40
0
 40
0
 40
0
 40
0
 40
1
 40
1
 40
1
 40
1
 10
74.710897
 20
461.439064
 30
0.0
 10
74.710897
 20
495.688463
 30
0.0
 10
102.475520
 20
523.453087
 30
0.0
 10
136.724920
 20
523.453087
 30
0.0
  0
SPLINE
  5
194
100
AcDbEntity
  8
0
 62
7
100
AcDbSpline
 70
8
 71
3
 72
8
 73
4
 74
0
 40
0
 40
0
 40
0
 40
0
 40
1
 40
1
 40
1
 40
1
 10
136.724920
 20
523.453087
 30
0.0
 10
170.974319
 20
523.453087
 30
0.0
 10
198.738942
 20
495.688463
 30
0.0
 10
198.738942
 20
461.439064
 30
0.0
  0
LWPOLYLINE
  5
195
100
AcDbEntity
  8
0
 62
7
100
AcDbPolyline
 90
1
 70
1
 10
260.752965
 20
354.027626
 30
0.0
  0
SPLINE
  5
196
100
AcDbEntity
  8
0
 62
7
100
AcDbSpline
 70
8
 71
3
 72
8
 73
4
 74
0
 40
0
 40
0
 40
0
 40
0
 40
1
 40
1
 40
1
 40
1
 10
353.773999
 20
515.144783
 30
0.0
 10
353.773999
 20
480.895384
 30
0.0
 10
326.009375
 20
453.130760
 30
0.0
 10
291.759976
 20
453.130760
 30
0.0
  0
SPLINE
  5
197
100
AcDbEntity
  8
0
 62
7
100
AcDbSpline
 70
8
 71
3
 72
8
 73
4
 74
0
 40
0
 40
0
 40
0
 40
0
 40
1
 40
1
 40
1
 40
1
 10
291.759976
 20
453.130760
 30
0.0
 10
257.510577
 20
453.130760
 30
0.0
 10
229.745954
 20
480.895384
 30
0.0
 10
229.745954
 20
515.144783
 30
0.0
  0
SPLINE
  5
198
100
AcDbEntity
  8
0
 62
7
100
AcDbSpline
 70
8
 71
3
 72
8
 73
4
 74
0
 40
0
 40
0
 40
0
 40
0
 40
1
 40
1
 40
1
 40
1
 10
229.745954
 20
515.144783
 30
0.0
 10
229.745954
 20
549.394182
 30
0.0
 10
257.510577
 20
577.158806
 30
0.0
 10
291.759976
 20
577.158806
 30
0.0
  0
SPLINE
  5
199
100
AcDbEntity
  8
0
 62
7
100
AcDbSpline
 70
8
 71
3
 72
8
 73
4
 74
0
 40
0
 40
0
 40
0
 40
0
 40
1
 40
1
 40
1
 40
1
 10
291.759976
 20
577.158806
 30
0.0
 10
326.009375
 20
577.158806
 30
0.0
 10
353.773999
 20
549.394182
 30
0.0
 10
353.773999
 20
515.144783
 30
0.0
  0
LWPOLYLINE
  5
19a
100
AcDbEntity
  8
0
 62
7
100
AcDbPolyline
 90
1
 70
1
 10
198.738942
 20
461.439064
 30
0.0
  0
SPLINE
  5
19b
100
AcDbEntity
  8
0
 62
7
100
AcDbSpline
 70
8
 71
3
 72
8
 73
4
 74
0
 40
0
 40
0
 40
0
 40
0
 40
1
 40
1
 40
1
 40
1
 10
322.766988
 20
461.439064
 30
0.0
 10
322.766988
 20
427.189665
 30
0.0
 10
295.002364
 20
399.425041
 30
0.0
 10
260.752965
 20
399.425041
 30
0.0
  0
SPLINE
  5
19c
100
AcDbEntity
  8
0
 62
7
100
AcDbSpline
 70
8
 71
3
 72
8
 73
4
 74
0
 40
0
 40
0
 40
0
 40
0
 40
1
 40
1
 40
1
 40
1
 10
260.752965
 20
399.425041
 30
0.0
 10
226.503566
 20
399.425041
 30
0.0
 10
198.738942
 20
427.189665
 30
0.0
 10
198.738942
 20
461.439064
 30
0.0
  0
SPLINE
  5
19d
100
AcDbEntity
  8
0
 62
7
100
AcDbSpline
 70
8
 71
3
 72
8
 73
4
 74
0
 40
0
 40
0
 40
0
 40
0
 40
1
 40
1
 40
1
 40
1
 10
198.738942
 20
461.439064
 30
0.0
 10
198.738942
 20
495.688463
 30
0.0
 10
226.503566
 20
523.453087
 30
0.0
 10
260.752965
 20
523.453087
 30
0.0
  0
SPLINE
  5
19e
100
AcDbEntity
  8
0
 62
7
100
AcDbSpline
 70
8
 71
3
 72
8
 73
4
 74
0
 40
0
 40
0
 40
0
 40
0
 40
1
 40
1
 40
1
 40
1
 10
260.752965
 20
523.453087
 30
0.0
 10
295.002364
 20
523.453087
 30
0.0
 10
322.766988
 20
495.688463
 30
0.0
 10
322.766988
 20
461.439064
 30
0.0
  0
LWPOLYLINE
  5
19f
100
AcDbEntity
  8
0
 62
7
100
AcDbPolyline
 90
1
 70
1
 10
353.773999
 20
515.144783
 30
0.0
  0
SPLINE
  5
1a0
100
AcDbEntity
  8
0
 62
7
100
AcDbSpline
 70
8
 71
3
 72
8
 73
4
 74
0
 40
0
 40
0
 40
0
 40
0
 40
1
 40
1
 40
1
 40
1
 10
415.788022
 20
515.144783
 30
0.0
 10
415.788022
 20
480.895384
 30
0.0
 10
388.023398
 20
453.130760
 30
0.0
 10
353.773999
 20
453.130760
 30
0.0
  0
SPLINE
  5
1a1
100
AcDbEntity
  8
0
 62
7
100
AcDbSpline
 70
8
 71
3
 72
8
 73
4
 74
0
 40
0
 40
0
 40
0
 40
0
 40
1
 40
1
 40
1
 40
1
 10
353.773999
 20
453.130760
 30
0.0
 10
319.524600
 20
453.130760
 30
0.0
 10
291.759976
 20
480.895384
 30
0.0
 10
291.759976
 20
515.144783
 30
0.0
  0
SPLINE
  5
1a2
100
AcDbEntity
  8
0
 62
7
100
AcDbSpline
 70
8
 71
3
 72
8
 73
4
 74
0
 40
0
 40
0
 40
0
 40
0
 40
1
 40
1
 40
1
 40
1
 10
291.759976
 20
515.144783
 30
0.0
 10
291.759976
 20
549.394182
 30
0.0
 10
319.524600
 20
577.158806
 30
0.0
 10
353.773999
 20
577.158806
 30
0.0
  0
SPLINE
  5
1a3
100
AcDbEntity
  8
0
 62
7
100
AcDbSpline
 70
8
 71
3
 72
8
 73
4
 74
0
 40
0
 40
0
 40
0
 40
0
 40
1
 40
1
 40
1
 40
1
 10
353.773999
 20
577.158806
 30
0.0
 10
388.023398
 20
577.158806
 30
0.0
 10
415.788022
 20
549.394182
 30
0.0
 10
415.788022
 20
515.144783
 30
0.0
  0
LWPOLYLINE
  5
1a4
100
AcDbEntity
  8
0
 62
7
100
AcDbPolyline
 90
1
 70
1
 10
322.766988
 20
461.439064
 30
0.0
  0
SPLINE
  5
1a5
100
AcDbEntity
  8
0
 62
7
100
AcDbSpline
 70
8
 71
3
 72
8
 73
4
 74
0
 40
0
 40
0
 40
0
 40
0
 40
1
 40
1
 40
1
 40
1
 10
415.788022
 20
192.910468
 30
0.0
 10
415.788022
 20
158.661069
 30
0.0
 10
388.023398
 20
130.896446
 30
0.0
 10
353.773999
 20
130.896446
 30
0.0
  0
SPLINE
  5
1a6
100
AcDbEntity
  8
0
 62
7
100
AcDbSpline
 70
8
 71
3
 72
8
 73
4
 74
0
 40
0
 40
0
 40
0
 40
0
 40
1
 40
1
 40
1
 40
1
 10
353.773999
 20
130.896446
 30
0.0
 10
319.524600
 20
130.896446
 30
0.0
 10
291.759976
 20
158.661069
 30
0.0
 10
291.759976
 20
192.910468
 30
0.0
  0
SPLINE
  5
1a7
100
AcDbEntity
  8
0
 62
7
100
AcDbSpline
 70
8
 71
3
 72
8
 73
4
 74
0
 40
0
 40
0
 40
0
 40
0
 40
1
 40
1
 40
1
 40
1
 10
291.759976
 20
192.910468
 30
0.0
 10
291.759976
 20
227.159867
 30
0.0
 10
319.524600
 20
254.924491
 30
0.0
 10
353.773999
 20
254.924491
 30
0.0
  0
SPLINE
  5
1a8
100
AcDbEntity
  8
0
 62
7
100
AcDbSpline
 70
8
 71
3
 72
8
 73
4
 74
0
 40
0
 40
0
 40
0
 40
0
 40
1
 40
1
 40
1
 40
1
 10
353.773999
 20
254.924491
 30
0.0
 10
388.023398
 20
254.924491
 30
0.0
 10
415.788022
 20
227.159867
 30
0.0
 10
415.788022
 20
192.910468
 30
0.0
  0
LWPOLYLINE
  5
1a9
100
AcDbEntity
  8
0
 62
7
100
AcDbPolyline
 90
1
 70
1
 10
415.788022
 20
515.144783
 30
0.0
  0
SPLINE
  5
1aa
100
AcDbEntity
  8
0
 62
7
100
AcDbSpline
 70
8
 71
3
 72
8
 73
4
 74
0
 40
0
 40
0
 40
0
 40
0
 40
1
 40
1
 40
1
 40
1
 10
353.773999
 20
192.910468
 30
0.0
 10
353.773999
 20
158.661069
 30
0.0
 10
326.009375
 20
130.896446
 30
0.0
 10
291.759976
 20
130.896446
 30
0.0
  0
SPLINE
  5
1ab
100
AcDbEntity
  8
0
 62
7
100
AcDbSpline
 70
8
 71
3
 72
8
 73
4
 74
0
 40
0
 40
0
 40
0
 40
0
 40
1
 40
1
 40
1
 40
1
 10
291.759976
 20
130.896446
 30
0.0
 10
257.510577
 20
130.896446
 30
0.0
 10
229.745954
 20
158.661069
 30
0.0
 10
229.745954
 20
192.910468
 30
0.0
  0
SPLINE
  5
1ac
100
AcDbEntity
  8
0
 62
7
100
AcDbSpline
 70
8
 71
3
 72
8
 73
4
 74
0
 40
0
 40
0
 40
0
 40
0
 40
1
 40
1
 40
1
 40
1
 10
229.745954
 20
192.910468
 30
0.0
 10
229.745954
 20
227.159867
 30
0.0
 10
257.510577
 20
254.924491
 30
0.0
 10
291.759976
 20
254.924491
 30
0.0
  0
SPLINE
  5
1ad
100
AcDbEntity
  8
0
 62
7
100
AcDbSpline
 70
8
 71
3
 72
8
 73
4
 74
0
 40
0
 40
0
 40
0
 40
0
 40
1
 40
1
 40
1
 40
1
 10
291.759976
 20
254.924491
 30
0.0
 10
326.009375
 20
254.924491
 30
0.0
 10
353.773999
 20
227.159867
 30
0.0
 10
353.773999
 20
192.910468
 30
0.0
  0
LWPOLYLINE
  5
1ae
100
AcDbEntity
  8
0
 62
7
100
AcDbPolyline
 90
1
 70
1
 10
415.788022
 20
192.910468
 30
0.0
  0
SPLINE
  5
1af
100
AcDbEntity
  8
0
 62
7
100
AcDbSpline
 70
8
 71
3
 72
8
 73
4
 74
0
 40
0
 40
0
 40
0
 40
0
 40
1
 40
1
 40
1
 40
1
 10
229.745954
 20
192.910468
 30
0.0
 10
229.745954
 20
158.661069
 30
0.0
 10
201.981330
 20
130.896446
 30
0.0
 10
167.731931
 20
130.896446
 30
0.0
  0
SPLINE
  5
1b0
100
AcDbEntity
  8
0
 62
7
100
AcDbSpline
 70
8
 71
3
 72
8
 73
4
 74
0
 40
0
 40
0
 40
0
 40
0
 40
1
 40
1
 40
1
 40
1
 10
167.731931
 20
130.896446
 30
0.0
 10
133.482532
 20
130.896446
 30
0.0
 10
105.717908
 20
158.661069
 30
0.0
 10
105.717908
 20
192.910468
 30
0.0
  0
SPLINE
  5
1b1
100
AcDbEntity
  8
0
 62
7
100
AcDbSpline
 70
8
 71
3
 72
8
 73
4
 74
0
 40
0
 40
0
 40
0
 40
0
 40
1
 40
1
 40
1
 40
1
 10
105.717908
 20
192.910468
 30
0.0
 10
105.717908
 20
227.159867
 30
0.0
 10
133.482532
 20
254.924491
 30
0.0
 10
167.731931
 20
254.924491
 30
0.0
  0
SPLINE
  5
1b2
100
AcDbEntity
  8
0
 62
7
100
AcDbSpline
 70
8
 71
3
 72
8
 73
4
 74
0
 40
0
 40
0
 40
0
 40
0
 40
1
 40
1
 40
1
 40
1
 10
167.731931
 20
254.924491
 30
0.0
 10
201.981330
 20
254.924491
 30
0.0
 10
229.745954
 20
227.159867
 30
0.0
 10
229.745954
 20
192.910468
 30
0.0
  0
LWPOLYLINE
  5
1b3
100
AcDbEntity
  8
0
 62
7
100
AcDbPolyline
 90
1
 70
1
 10
353.773999
 20
192.910468
 30
0.0
  0
SPLINE
  5
1b4
100
AcDbEntity
  8
0
 62
7
100
AcDbSpline
 70
8
 71
3
 72
8
 73
4
 74
0
 40
0
 40
0
 40
0
 40
0
 40
1
 40
1
 40
1
 40
1
 10
229.745954
 20
300.321907
 30
0.0
 10
229.745954
 20
266.072508
 30
0.0
 10
201.981330
 20
238.307884
 30
0.0
 10
167.731931
 20
238.307884
 30
0.0
  0
SPLINE
  5
1b5
100
AcDbEntity
  8
0
 62
7
100
AcDbSpline
 70
8
 71
3
 72
8
 73
4
 74
0
 40
0
 40
0
 40
0
 40
0
 40
1
 40
1
 40
1
 40
1
 10
167.731931
 20
238.307884
 30
0.0
 10
133.482532
 20
238.307884
 30
0.0
 10
105.717908
 20
266.072508
 30
0.0
 10
105.717908
 20
300.321907
 30
0.0
  0
SPLINE
  5
1b6
100
AcDbEntity
  8
0
 62
7
100
AcDbSpline
 70
8
 71
3
 72
8
 73
4
 74
0
 40
0
 40
0
 40
0
 40
0
 40
1
 40
1
 40
1
 40
1
 10
105.717908
 20
300.321907
 30
0.0
 10
105.717908
 20
334.571306
 30
0.0
 10
133.482532
 20
362.335929
 30
0.0
 10
167.731931
 20
362.335929
 30
0.0
  0
SPLINE
  5
1b7
100
AcDbEntity
  8
0
 62
7
100
AcDbSpline
 70
8
 71
3
 72
8
 73
4
 74
0
 40
0
 40
0
 40
0
 40
0
 40
1
 40
1
 40
1
 40
1
 10
167.731931
 20
362.335929
 30
0.0
 10
201.981330
 20
362.335929
 30
0.0
 10
229.745954
 20
334.571306
 30
0.0
 10
229.745954
 20
300.321907
 30
0.0
  0
LWPOLYLINE
  5
1b8
100
AcDbEntity
  8
0
 62
7
100
AcDbPolyline
 90
1
 70
1
 10
229.745954
 20
192.910468
 30
0.0
  0
SPLINE
  5
1b9
100
AcDbEntity
  8
0
 62
7
100
AcDbSpline
 70
8
 71
3
 72
8
 73
4
 74
0
 40
0
 40
0
 40
0
 40
0
 40
1
 40
1
 40
1
 40
1
 10
229.745954
 20
407.733345
 30
0.0
 10
229.745954
 20
373.483946
 30
0.0
 10
201.981330
 20
345.719322
 30
0.0
 10
167.731931
 20
345.719322
 30
0.0
  0
SPLINE
  5
1ba
100
AcDbEntity
  8
0
 62
7
100
AcDbSpline
 70
8
 71
3
 72
8
 73
4
 74
0
 40
0
 40
0
 40
0
 40
0
 40
1
 40
1
 40
1
 40
1
 10
167.731931
 20
345.719322
 30
0.0
 10
133.482532
 20
345.719322
 30
0.0
 10
105.717908
 20
373.483946
 30
0.0
 10
105.717908
 20
407.733345
 30
0.0
  0
SPLINE
  5
1bb
100
AcDbEntity
  8
0
 62
7
100
AcDbSpline
 70
8
 71
3
 72
8
 73
4
 74
0
 40
0
 40
0
 40
0
 40
0
 40
1
 40
1
 40
1
 40
1
 10
105.717908
 20
407.733345
 30
0.0
 10
105.717908
 20
441.982744
 30
0.0
 10
133.482532
 20
469.747367
 30
0.0
 10
167.731931
 20
469.747367
 30
0.0
  0
SPLINE
  5
1bc
100
AcDbEntity
  8
0
 62
7
100
AcDbSpline
 70
8
 71
3
 72
8
 73
4
 74
0
 40
0
 40
0
 40
0
 40
0
 40
1
 40
1
 40
1
 40
1
 10
167.731931
 20
469.747367
 30
0.0
 10
201.981330
 20
469.747367
 30
0.0
 10
229.745954
 20
441.982744
 30
0.0
 10
229.745954
 20
407.733345
 30
0.0
  0
LWPOLYLINE
  5
1bd
100
AcDbEntity
  8
0
 62
7
100
AcDbPolyline
 90
1
 70
1
 10
229.745954
 20
300.321907
 30
0.0
  0
SPLINE
  5
1be
100
AcDbEntity
  8
0
 62
7
100
AcDbSpline
 70
8
 71
3
 72
8
 73
4
 74
0
 40
0
 40
0
 40
0
 40
0
 40
1
 40
1
 40
1
 40
1
 10
229.745954
 20
515.144783
 30
0.0
 10
229.745954
 20
480.895384
 30
0.0
 10
201.981330
 20
453.130760
 30
0.0
 10
167.731931
 20
453.130760
 30
0.0
  0
SPLINE
  5
1bf
100
AcDbEntity
  8
0
 62
7
100
AcDbSpline
 70
8
 71
3
 72
8
 73
4
 74
0
 40
0
 40
0
 40
0
 40
0
 40
1
 40
1
 40
1
 40
1
 10
167.731931
 20
453.130760
 30
0.0
 10
133.482532
 20
453.130760
 30
0.0
 10
105.717908
 20
480.895384
 30
0.0
 10
105.717908
 20
515.144783
 30
0.0
  0
SPLINE
  5
1c0
100
AcDbEntity
  8
0
 62
7
100
AcDbSpline
 70
8
 71
3
 72
8
 73
4
 74
0
 40
0
 40
0
 40
0
 40
0
 40
1
 40
1
 40
1
 40
1
 10
105.717908
 20
515.144783
 30
0.0
 10
105.717908
 20
549.394182
 30
0.0
 10
133.482532
 20
577.158806
 30
0.0
 10
167.731931
 20
577.158806
 30
0.0
  0
SPLINE
  5
1c1
100
AcDbEntity
  8
0
 62
7
100
AcDbSpline
 70
8
 71
3
 72
8
 73
4
 74
0
 40
0
 40
0
 40
0
 40
0
 40
1
 40
1
 40
1
 40
1
 10
167.731931
 20
577.158806
 30
0.0
 10
201.981330
 20
577.158806
 30
0.0
 10
229.745954
 20
549.394182
 30
0.0
 10
229.745954
 20
515.144783
 30
0.0
  0
LWPOLYLINE
  5
1c2
100
AcDbEntity
  8
0
 62
7
100
AcDbPolyline
 90
1
 70
1
 10
229.745954
 20
407.733345
 30
0.0
  0
SPLINE
  5
1c3
100
AcDbEntity
  8
0
 62
7
100
AcDbSpline
 70
8
 71
3
 72
8
 73
4
 74
0
 40
0
 40
0
 40
0
 40
0
 40
1
 40
1
 40
1
 40
1
 10
477.802045
 20
192.910468
 30
0.0
 10
477.802045
 20
158.661069
 30
0.0
 10
450.037421
 20
130.896446
 30
0.0
 10
415.788022
 20
130.896446
 30
0.0
  0
SPLINE
  5
1c4
100
AcDbEntity
  8
0
 62
7
100
AcDbSpline
 70
8
 71
3
 72
8
 73
4
 74
0
 40
0
 40
0
 40
0
 40
0
 40
1
 40
1
 40
1
 40
1
 10
415.788022
 20
130.896446
 30
0.0
 10
381.538623
 20
130.896446
 30
0.0
 10
353.773999
 20
158.661069
 30
0.0
 10
353.773999
 20
192.910468
 30
0.0
  0
SPLINE
  5
1c5
100
AcDbEntity
  8
0
 62
7
100
AcDbSpline
 70
8
 71
3
 72
8
 73
4
 74
0
 40
0
 40
0
 40
0
 40
0
 40
1
 40
1
 40
1
 40
1
 10
353.773999
 20
192.910468
 30
0.0
 10
353.773999
 20
227.159867
 30
0.0
 10
381.538623
 20
254.924491
 30
0.0
 10
415.788022
 20
254.924491
 30
0.0
  0
SPLINE
  5
1c6
100
AcDbEntity
  8
0
 62
7
100
AcDbSpline
 70
8
 71
3
 72
8
 73
4
 74
0
 40
0
 40
0
 40
0
 40
0
 40
1
 40
1
 40
1
 40
1
 10
415.788022
 20
254.924491
 30
0.0
 10
450.037421
 20
254.924491
 30
0.0
 10
477.802045
 20
227.159867
 30
0.0
 10
477.802045
 20
192.910468
 30
0.0
  0
LWPOLYLINE
  5
1c7
100
AcDbEntity
  8
0
 62
7
100
AcDbPolyline
 90
1
 70
1
 10
229.745954
 20
515.144783
 30
0.0
  0
SPLINE
  5
1c8
100
AcDbEntity
  8
0
 62
7
100
AcDbSpline
 70
8
 71
3
 72
8
 73
4
 74
0
 40
0
 40
0
 40
0
 40
0
 40
1
 40
1
 40
1
 40
1
 10
261.871107
 20
122.588142
 30
0.0
 10
255.399434
 20
170.457881
 30
0.0
 10
277.309445
 20
217.729988
 30
0.0
 10
318.019530
 20
243.731592
 30
0.0
  0
SPLINE
  5
1c9
100
AcDbEntity
  8
0
 62
7
100
AcDbSpline
 70
8
 71
3
 72
8
 73
4
 74
0
 40
0
 40
0
 40
0
 40
0
 40
1
 40
1
 40
1
 40
1
 10
318.019530
 20
243.731592
 30
0.0
 10
358.729616
 20
269.733196
 30
0.0
 10
410.832405
 20
269.733196
 30
0.0
 10
451.542491
 20
243.731592
 30
0.0
  0
SPLINE
  5
1ca
100
AcDbEntity
  8
0
 62
7
100
AcDbSpline
 70
8
 71
3
 72
8
 73
4
 74
0
 40
0
 40
0
 40
0
 40
0
 40
1
 40
1
 40
1
 40
1
 10
451.542491
 20
243.731592
 30
0.0
 10
492.252576
 20
217.729988
 30
0.0
 10
514.162587
 20
170.457881
 30
0.0
 10
507.690914
 20
122.588142
 30
0.0
  0
SPLINE
  5
1cb
100
AcDbEntity
  8
0
 62
7
100
AcDbSpline
 70
8
 71
3
 72
8
 73
4
 74
0
 40
0
 40
0
 40
0
 40
0
 40
1
 40
1
 40
1
 40
1
 10
353.773999
 20
300.321907
 30
0.0
 10
334.586794
 20
289.244168
 30
0.0
 10
322.766988
 20
268.771664
 30
0.0
 10
322.766988
 20
246.616187
 30
0.0
  0
SPLINE
  5
1cc
100
AcDbEntity
  8
0
 62
7
100
AcDbSpline
 70
8
 71
3
 72
8
 73
4
 74
0
 40
0
 40
0
 40
0
 40
0
 40
1
 40
1
 40
1
 40
1
 10
322.766988
 20
246.616187
 30
0.0
 10
322.766988
 20
224.460711
 30
0.0
 10
334.586794
 20
203.988207
 30
0.0
 10
353.773999
 20
192.910468
 30
0.0
  0
SPLINE
  5
1cd
100
AcDbEntity
  8
0
 62
7
100
AcDbSpline
 70
8
 71
3
 72
8
 73
4
 74
0
 40
0
 40
0
 40
0
 40
0
 40
1
 40
1
 40
1
 40
1
 10
415.788022
 20
300.321907
 30
0.0
 10
434.975227
 20
289.244168
 30
0.0
 10
446.795033
 20
268.771664
 30
0.0
 10
446.795033
 20
246.616187
 30
0.0
  0
SPLINE
  5
1ce
100
AcDbEntity
  8
0
 62
7
100
AcDbSpline
 70
8
 71
3
 72
8
 73
4
 74
0
 40
0
 40
0
 40
0
 40
0
 40
1
 40
1
 40
1
 40
1
 10
446.795033
 20
246.616187
 30
0.0
 10
446.795033
 20
224.460711
 30
0.0
 10
434.975227
 20
203.988207
 30
0.0
 10
415.788022
 20
192.910468
 30
0.0
  0
SPLINE
  5
1cf
100
AcDbEntity
  8
0
 62
7
100
AcDbSpline
 70
8
 71
3
 72
8
 73
4
 74
0
 40
0
 40
0
 40
0
 40
0
 40
1
 40
1
 40
1
 40
1
 10
353.773999
 20
407.733345
 30
0.0
 10
334.586794
 20
418.811083
 30
0.0
 10
322.766988
 20
439.283587
 30
0.0
 10
322.766988
 20
461.439064
 30
0.0
  0
SPLINE
  5
1d0
100
AcDbEntity
  8
0
 62
7
100
AcDbSpline
 70
8
 71
3
 72
8
 73
4
 74
0
 40
0
 40
0
 40
0
 40
0
 40
1
 40
1
 40
1
 40
1
 10
322.766988
 20
461.439064
 30
0.0
 10
322.766988
 20
483.594540
 30
0.0
 10
334.586794
 20
504.067045
 30
0.0
 10
353.773999
 20
515.144783
 30
0.0
  0
SPLINE
  5
1d1
100
AcDbEntity
  8
0
 62
7
100
AcDbSpline
 70
8
 71
3
 72
8
 73
4
 74
0
 40
0
 40
0
 40
0
 40
0
 40
1
 40
1
 40
1
 40
1
 10
415.788022
 20
407.733345
 30
0.0
 10
434.975227
 20
418.811083
 30
0.0
 10
446.795033
 20
439.283587
 30
0.0
 10
446.795033
 20
461.439064
 30
0.0
  0
SPLINE
  5
1d2
100
AcDbEntity
  8
0
 62
7
100
AcDbSpline
 70
8
 71
3
 72
8
 73
4
 74
0
 40
0
 40
0
 40
0
 40
0
 40
1
 40
1
 40
1
 40
1
 10
446.795033
 20
461.439064
 30
0.0
 10
446.795033
 20
483.594540
 30
0.0
 10
434.975227
 20
504.067045
 30
0.0
 10
415.788022
 20
515.144783
 30
0.0
  0
SPLINE
  5
1d3
100
AcDbEntity
  8
0
 62
7
100
AcDbSpline
 70
8
 71
3
 72
8
 73
4
 74
0
 40
0
 40
0
 40
0
 40
0
 40
1
 40
1
 40
1
 40
1
 10
384.781011
 20
139.204749
 30
0.0
 10
384.781011
 20
161.360226
 30
0.0
 10
372.961205
 20
181.832730
 30
0.0
 10
353.773999
 20
192.910468
 30
0.0
  0
SPLINE
  5
1d4
100
AcDbEntity
  8
0
 62
7
100
AcDbSpline
 70
8
 71
3
 72
8
 73
4
 74
0
 40
0
 40
0
 40
0
 40
0
 40
1
 40
1
 40
1
 40
1
 10
384.781011
 20
139.204749
 30
0.0
 10
384.781011
 20
161.360226
 30
0.0
 10
396.600817
 20
181.832730
 30
0.0
 10
415.788022
 20
192.910468
 30
0.0
  0
SPLINE
  5
1d5
100
AcDbEntity
  8
0
 62
7
100
AcDbSpline
 70
8
 71
3
 72
8
 73
4
 74
0
 40
0
 40
0
 40
0
 40
0
 40
1
 40
1
 40
1
 40
1
 10
384.781011
 20
568.850502
 30
0.0
 10
384.781011
 20
546.695026
 30
0.0
 10
372.961205
 20
526.222521
 30
0.0
 10
353.773999
 20
515.144783
 30
0.0
  0
SPLINE
  5
1d6
100
AcDbEntity
  8
0
 62
7
100
AcDbSpline
 70
8
 71
3
 72
8
 73
4
 74
0
 40
0
 40
0
 40
0
 40
0
 40
1
 40
1
 40
1
 40
1
 10
384.781011
 20
568.850502
 30
0.0
 10
384.781011
 20
546.695026
 30
0.0
 10
372.961205
 20
526.222521
 30
0.0
 10
353.773999
 20
515.144783
 30
0.0
  0
SPLINE
  5
1d7
100
AcDbEntity
  8
0
 62
7
100
AcDbSpline
 70
8
 71
3
 72
8
 73
4
 74
0
 40
0
 40
0
 40
0
 40
0
 40
1
 40
1
 40
1
 40
1
 10
384.781011
 20
568.850502
 30
0.0
 10
384.781011
 20
546.695026
 30
0.0
 10
396.600817
 20
526.222521
 30
0.0
 10
415.788022
 20
515.144783
 30
0.0
  0
SPLINE
  5
1d8
100
AcDbEntity
  8
0
 62
7
100
AcDbSpline
 70
8
 71
3
 72
8
 73
4
 74
0
 40
0
 40
0
 40
0
 40
0
 40
1
 40
1
 40
1
 40
1
 10
401.416392
 20
354.027626
 30
0.0
 10
401.416392
 20
344.840158
 30
0.0
 10
393.968478
 20
337.392244
 30
0.0
 10
384.781011
 20
337.392244
 30
0.0
  0
SPLINE
  5
1d9
100
AcDbEntity
  8
0
 62
7
100
AcDbSpline
 70
8
 71
3
 72
8
 73
4
 74
0
 40
0
 40
0
 40
0
 40
0
 40
1
 40
1
 40
1
 40
1
 10
384.781011
 20
337.392244
 30
0.0
 10
375.593543
 20
337.392244
 30
0.0
 10
368.145629
 20
344.840158
 30
0.0
 10
368.145629
 20
354.027626
 30
0.0
  0
SPLINE
  5
1da
100
AcDbEntity
  8
0
 62
7
100
AcDbSpline
 70
8
 71
3
 72
8
 73
4
 74
0
 40
0
 40
0
 40
0
 40
0
 40
1
 40
1
 40
1
 40
1
 10
368.145629
 20
354.027626
 30
0.0
 10
368.145629
 20
363.215093
 30
0.0
 10
375.593543
 20
370.663007
 30
0.0
 10
384.781011
 20
370.663007
 30
0.0
  0
SPLINE
  5
1db
100
AcDbEntity
  8
0
 62
7
100
AcDbSpline
 70
8
 71
3
 72
8
 73
4
 74
0
 40
0
 40
0
 40
0
 40
0
 40
1
 40
1
 40
1
 40
1
 10
384.781011
 20
370.663007
 30
0.0
 10
393.968478
 20
370.663007
 30
0.0
 10
401.416392
 20
363.215093
 30
0.0
 10
401.416392
 20
354.027626
 30
0.0
  0
LWPOLYLINE
  5
1dc
100
AcDbEntity
  8
0
 62
7
100
AcDbPolyline
 90
1
 70
1
 10
477.802045
 20
192.910468
 30
0.0
  0
SPLINE
  5
1dd
100
AcDbEntity
  8
0
 62
7
100
AcDbSpline
 70
8
 71
3
 72
8
 73
4
 74
0
 40
0
 40
0
 40
0
 40
0
 40
1
 40
1
 40
1
 40
1
 10
339.402369
 20
461.439064
 30
0.0
 10
339.402369
 20
452.251596
 30
0.0
 10
331.954455
 20
444.803683
 30
0.0
 10
322.766988
 20
444.803683
 30
0.0
  0
SPLINE
  5
1de
100
AcDbEntity
  8
0
 62
7
100
AcDbSpline
 70
8
 71
3
 72
8
 73
4
 74
0
 40
0
 40
0
 40
0
 40
0
 40
1
 40
1
 40
1
 40
1
 10
322.766988
 20
444.803683
 30
0.0
 10
313.579520
 20
444.803683
 30
0.0
 10
306.131607
 20
452.251596
 30
0.0
 10
306.131607
 20
461.439064
 30
0.0
  0
SPLINE
  5
1df
100
AcDbEntity
  8
0
 62
7
100
AcDbSpline
 70
8
 71
3
 72
8
 73
4
 74
0
 40
0
 40
0
 40
0
 40
0
 40
1
 40
1
 40
1
 40
1
 10
306.131607
 20
461.439064
 30
0.0
 10
306.131607
 20
470.626531
 30
0.0
 10
313.579520
 20
478.074445
 30
0.0
 10
322.766988
 20
478.074445
 30
0.0
  0
SPLINE
  5
1e0
100
AcDbEntity
  8
0
 62
7
100
AcDbSpline
 70
8
 71
3
 72
8
 73
4
 74
0
 40
0
 40
0
 40
0
 40
0
 40
1
 40
1
 40
1
 40
1
 10
322.766988
 20
478.074445
 30
0.0
 10
331.954455
 20
478.074445
 30
0.0
 10
339.402369
 20
470.626531
 30
0.0
 10
339.402369
 20
461.439064
 30
0.0
  0
LWPOLYLINE
  5
1e1
100
AcDbEntity
  8
0
 62
7
100
AcDbPolyline
 90
1
 70
1
 10
401.416392
 20
354.027626
 30
0.0
  0
SPLINE
  5
1e2
100
AcDbEntity
  8
0
 62
7
100
AcDbSpline
 70
8
 71
3
 72
8
 73
4
 74
0
 40
0
 40
0
 40
0
 40
0
 40
1
 40
1
 40
1
 40
1
 10
277.388346
 20
354.027626
 30
0.0
 10
277.388346
 20
344.840158
 30
0.0
 10
269.940432
 20
337.392244
 30
0.0
 10
260.752965
 20
337.392244
 30
0.0
  0
SPLINE
  5
1e3
100
AcDbEntity
  8
0
 62
7
100
AcDbSpline
 70
8
 71
3
 72
8
 73
4
 74
0
 40
0
 40
0
 40
0
 40
0
 40
1
 40
1
 40
1
 40
1
 10
260.752965
 20
337.392244
 30
0.0
 10
251.565498
 20
337.392244
 30
0.0
 10
244.117584
 20
344.840158
 30
0.0
 10
244.117584
 20
354.027626
 30
0.0
  0
SPLINE
  5
1e4
100
AcDbEntity
  8
0
 62
7
100
AcDbSpline
 70
8
 71
3
 72
8
 73
4
 74
0
 40
0
 40
0
 40
0
 40
0
 40
1
 40
1
 40
1
 40
1
 10
244.117584
 20
354.027626
 30
0.0
 10
244.117584
 20
363.215093
 30
0.0
 10
251.565498
 20
370.663007
 30
0.0
 10
260.752965
 20
370.663007
 30
0.0
  0
SPLINE
  5
1e5
100
AcDbEntity
  8
0
 62
7
100
AcDbSpline
 70
8
 71
3
 72
8
 73
4
 74
0
 40
0
 40
0
 40
0
 40
0
 40
1
 40
1
 40
1
 40
1
 10
260.752965
 20
370.663007
 30
0.0
 10
269.940432
 20
370.663007
 30
0.0
 10
277.388346
 20
363.215093
 30
0.0
 10
277.388346
 20
354.027626
 30
0.0
  0
LWPOLYLINE
  5
1e6
100
AcDbEntity
  8
0
 62
7
100
AcDbPolyline
 90
1
 70
1
 10
339.402369
 20
461.439064
 30
0.0
  0
SPLINE
  5
1e7
100
AcDbEntity
  8
0
 62
7
100
AcDbSpline
 70
8
 71
3
 72
8
 73
4
 74
0
 40
0
 40
0
 40
0
 40
0
 40
1
 40
1
 40
1
 40
1
 10
339.402369
 20
246.616187
 30
0.0
 10
339.402369
 20
237.428720
 30
0.0
 10
331.954455
 20
229.980806
 30
0.0
 10
322.766988
 20
229.980806
 30
0.0
  0
SPLINE
  5
1e8
100
AcDbEntity
  8
0
 62
7
100
AcDbSpline
 70
8
 71
3
 72
8
 73
4
 74
0
 40
0
 40
0
 40
0
 40
0
 40
1
 40
1
 40
1
 40
1
 10
322.766988
 20
229.980806
 30
0.0
 10
313.579520
 20
229.980806
 30
0.0
 10
306.131607
 20
237.428720
 30
0.0
 10
306.131607
 20
246.616187
 30
0.0
  0
SPLINE
  5
1e9
100
AcDbEntity
  8
0
 62
7
100
AcDbSpline
 70
8
 71
3
 72
8
 73
4
 74
0
 40
0
 40
0
 40
0
 40
0
 40
1
 40
1
 40
1
 40
1
 10
306.131607
 20
246.616187
 30
0.0
 10
306.131607
 20
255.803655
 30
0.0
 10
313.579520
 20
263.251569
 30
0.0
 10
322.766988
 20
263.251569
 30
0.0
  0
SPLINE
  5
1ea
100
AcDbEntity
  8
0
 62
7
100
AcDbSpline
 70
8
 71
3
 72
8
 73
4
 74
0
 40
0
 40
0
 40
0
 40
0
 40
1
 40
1
 40
1
 40
1
 10
322.766988
 20
263.251569
 30
0.0
 10
331.954455
 20
263.251569
 30
0.0
 10
339.402369
 20
255.803655
 30
0.0
 10
339.402369
 20
246.616187
 30
0.0
  0
LWPOLYLINE
  5
1eb
100
AcDbEntity
  8
0
 62
7
100
AcDbPolyline
 90
1
 70
1
 10
277.388346
 20
354.027626
 30
0.0
  0
SPLINE
  5
1ec
100
AcDbEntity
  8
0
 62
7
100
AcDbSpline
 70
8
 71
3
 72
8
 73
4
 74
0
 40
0
 40
0
 40
0
 40
0
 40
1
 40
1
 40
1
 40
1
 10
215.374324
 20
461.439064
 30
0.0
 10
215.374324
 20
452.251596
 30
0.0
 10
207.926410
 20
444.803683
 30
0.0
 10
198.738942
 20
444.803683
 30
0.0
  0
SPLINE
  5
1ed
100
AcDbEntity
  8
0
 62
7
100
AcDbSpline
 70
8
 71
3
 72
8
 73
4
 74
0
 40
0
 40
0
 40
0
 40
0
 40
1
 40
1
 40
1
 40
1
 10
198.738942
 20
444.803683
 30
0.0
 10
189.551475
 20
444.803683
 30
0.0
 10
182.103561
 20
452.251596
 30
0.0
 10
182.103561
 20
461.439064
 30
0.0
  0
SPLINE
  5
1ee
100
AcDbEntity
  8
0
 62
7
100
AcDbSpline
 70
8
 71
3
 72
8
 73
4
 74
0
 40
0
 40
0
 40
0
 40
0
 40
1
 40
1
 40
1
 40
1
 10
182.103561
 20
461.439064
 30
0.0
 10
182.103561
 20
470.626531
 30
0.0
 10
189.551475
 20
478.074445
 30
0.0
 10
198.738942
 20
478.074445
 30
0.0
  0
SPLINE
  5
1ef
100
AcDbEntity
  8
0
 62
7
100
AcDbSpline
 70
8
 71
3
 72
8
 73
4
 74
0
 40
0
 40
0
 40
0
 40
0
 40
1
 40
1
 40
1
 40
1
 10
198.738942
 20
478.074445
 30
0.0
 10
207.926410
 20
478.074445
 30
0.0
 10
215.374324
 20
470.626531
 30
0.0
 10
215.374324
 20
461.439064
 30
0.0
  0
LWPOLYLINE
  5
1f0
100
AcDbEntity
  8
0
 62
7
100
AcDbPolyline
 90
1
 70
1
 10
339.402369
 20
246.616187
 30
0.0
  0
SPLINE
  5
1f1
100
AcDbEntity
  8
0
 62
7
100
AcDbSpline
 70
8
 71
3
 72
8
 73
4
 74
0
 40
0
 40
0
 40
0
 40
0
 40
1
 40
1
 40
1
 40
1
 10
215.374324
 20
246.616187
 30
0.0
 10
215.374324
 20
237.428720
 30
0.0
 10
207.926410
 20
229.980806
 30
0.0
 10
198.738942
 20
229.980806
 30
0.0
  0
SPLINE
  5
1f2
100
AcDbEntity
  8
0
 62
7
100
AcDbSpline
 70
8
 71
3
 72
8
 73
4
 74
0
 40
0
 40
0
 40
0
 40
0
 40
1
 40
1
 40
1
 40
1
 10
198.738942
 20
229.980806
 30
0.0
 10
189.551475
 20
229.980806
 30
0.0
 10
182.103561
 20
237.428720
 30
0.0
 10
182.103561
 20
246.616187
 30
0.0
  0
SPLINE
  5
1f3
100
AcDbEntity
  8
0
 62
7
100
AcDbSpline
 70
8
 71
3
 72
8
 73
4
 74
0
 40
0
 40
0
 40
0
 40
0
 40
1
 40
1
 40
1
 40
1
 10
182.103561
 20
246.616187
 30
0.0
 10
182.103561
 20
255.803655
 30
0.0
 10
189.551475
 20
263.251569
 30
0.0
 10
198.738942
 20
263.251569
 30
0.0
  0
SPLINE
  5
1f4
100
AcDbEntity
  8
0
 62
7
100
AcDbSpline
 70
8
 71
3
 72
8
 73
4
 74
0
 40
0
 40
0
 40
0
 40
0
 40
1
 40
1
 40
1
 40
1
 10
198.738942
 20
263.251569
 30
0.0
 10
207.926410
 20
263.251569
 30
0.0
 10
215.374324
 20
255.803655
 30
0.0
 10
215.374324
 20
246.616187
 30
0.0
  0
LWPOLYLINE
  5
1f5
100
AcDbEntity
  8
0
 62
7
100
AcDbPolyline
 90
1
 70
1
 10
215.374324
 20
461.439064
 30
0.0
  0
LWPOLYLINE
  5
1f6
100
AcDbEntity
  8
0
 62
7
100
AcDbPolyline
 90
1
 70
1
 10
215.374324
 20
246.616187
 30
0.0
  0
LWPOLYLINE
  5
1f7
100
AcDbEntity
  8
0
 62
7
100
AcDbPolyline
 90
2
 70
0
 10
74.710897
 20
585.467109
 30
0.0
 10
694.851124
 20
585.467109
 30
0.0
  0
LWPOLYLINE
  5
1f8
100
AcDbEntity
  8
0
 62
7
100
AcDbPolyline
 90
2
 70
0
 10
74.710897
 20
585.467109
 30
0.0
 10
74.710897
 20
122.588142
 30
0.0
  0
LWPOLYLINE
  5
1f9
100
AcDbEntity
  8
0
 62
7
100
AcDbPolyline
 90
2
 70
0
 10
694.851124
 20
122.588142
 30
0.0
 10
74.710897
 20
122.588142
 30
0.0
  0
LWPOLYLINE
  5
1fa
100
AcDbEntity
  8
0
 62
7
100
AcDbPolyline
 90
2
 70
0
 10
694.851124
 20
122.588142
 30
0.0
 10
694.851124
 20
585.467109
 30
0.0
  0
ENDSEC
  0
SECTION
  2
OBJECTS
  0
DICTIONARY
  5
C
330
0
100
AcDbDictionary
  3
ACAD_GROUP
350
D
  3
ACAD_MLINESTYLE
350
17
  0
DICTIONARY
  5
D
330
C
100
AcDbDictionary
  0
DICTIONARY
  5
1A
330
C
100
AcDbDictionary
  0
DICTIONARY
  5
17
330
C
100
AcDbDictionary
  3
STANDARD
350
18
  0
DICTIONARY
  5
19
330
C
100
AcDbDictionary
  0
ENDSEC
  0
EOF
